<svg xmlns="http://www.w3.org/2000/svg" viewBox="0 0 136.15 23"><defs><style>.cls-1{fill:#fff;}.cls-2{fill:#e86d99;}</style></defs><g id="レイヤー_2" data-name="レイヤー 2"><g id="レイヤー_1-2" data-name="レイヤー 1"><path class="cls-1" d="M3.28,21.14a1.91,1.91,0,0,1-1.18-.4,3.91,3.91,0,0,0-.9-.47,1.92,1.92,0,0,1-.76-3c2-2.39,3.64-7.09,4.26-12A2,2,0,0,1,5.49,4,1.93,1.93,0,0,1,7,3.66l2,.42a1.92,1.92,0,0,1,1.41,2.56,2.28,2.28,0,0,1-.59.89c-.6,3.15-2.06,9.07-5.07,12.88A1.93,1.93,0,0,1,3.28,21.14ZM18.81,21a2,2,0,0,1-.86-.2,2,2,0,0,1-1-1.23A66.33,66.33,0,0,0,11.76,7a1.88,1.88,0,0,1-.15-1.52,1.9,1.9,0,0,1,1-1.15l1.31-.63a1.84,1.84,0,0,1,.49-.15,4.19,4.19,0,1,1,4,4.82A66.78,66.78,0,0,1,22.14,18,1.93,1.93,0,0,1,21,20.3l-1.48.58A1.73,1.73,0,0,1,18.81,21ZM18.55,3.88a.32.32,0,1,0,0,.64.34.34,0,0,0,.33-.31A.33.33,0,0,0,18.55,3.88Z"/><path class="cls-1" d="M23.81,21.91a1.94,1.94,0,0,1-1.56-.79,4.85,4.85,0,0,0-.72-.74,1.94,1.94,0,0,1-.69-1.67,1.91,1.91,0,0,1,1-1.5,27.34,27.34,0,0,0,9.63-9.58H24.68A1.93,1.93,0,0,1,22.75,5.7V4.33A1.93,1.93,0,0,1,24.68,2.4H35a2,2,0,0,1,1.57.15l1.17.67a1.93,1.93,0,0,1,.83,2.39,2.15,2.15,0,0,1-.48.74,33,33,0,0,1-3,5.38,73.29,73.29,0,0,1,6.21,5.89A2,2,0,0,1,41.83,19a1.92,1.92,0,0,1-.66,1.34l-1.23,1.07a1.94,1.94,0,0,1-2.72-.2,64.43,64.43,0,0,0-5.44-5.36,31.87,31.87,0,0,1-7,5.77A1.84,1.84,0,0,1,23.81,21.91Z"/><path class="cls-1" d="M45.77,22.05a1.93,1.93,0,0,1-1.53-.75,6.65,6.65,0,0,0-.75-.82A1.92,1.92,0,0,1,44,17.25c4.87-2,7.23-4.62,8.15-9.38h-7.4v3.65a1.92,1.92,0,0,1-1.92,1.92H41.47a1.92,1.92,0,0,1-1.93-1.92V4.57a1.92,1.92,0,0,1,1.93-1.92H54.31a1.92,1.92,0,0,1,1.7.07l1.17.65a2,2,0,0,1,1,1.28,1.92,1.92,0,0,1-.31,1.51c-1,8.32-4.3,12.91-11.34,15.75A2,2,0,0,1,45.77,22.05ZM55.28,3.47h0Z"/><path class="cls-1" d="M58.5,14.29a1.89,1.89,0,0,1-1.2-.42,2,2,0,0,1-.72-1.37l-.12-1.82A1.9,1.9,0,0,1,57,9.24a2,2,0,0,1,1.41-.61H75.25a1.92,1.92,0,0,1,1.92,1.92V12a1.92,1.92,0,0,1-1.92,1.93H59.83a3.14,3.14,0,0,1-1,.36A1.42,1.42,0,0,1,58.5,14.29Zm-1-3.3Z"/><path class="cls-1" d="M81.29,22.29H79.78a1.92,1.92,0,0,1-1.93-1.92V2.81a1.93,1.93,0,0,1,2-1.92l2,.12a1.9,1.9,0,0,1,1.34.67,1.91,1.91,0,0,1,.46,1.43,2.37,2.37,0,0,1-.52,1.27v3c1.16.45,2.43,1,3.64,1.54l-.15-.19a15.5,15.5,0,0,0-2.37-2.55,1.9,1.9,0,0,1-.72-1.45,1.93,1.93,0,0,1,.64-1.49L85,2.63a1.9,1.9,0,0,1,1.51-.47A1.87,1.87,0,0,1,87,1.5l.73-.63a1.93,1.93,0,0,1,2.49,0,18.81,18.81,0,0,1,3.12,3.34A1.93,1.93,0,0,1,93,6.74l-.73.62a1.87,1.87,0,0,1-1.45.46,1.87,1.87,0,0,1-.55.71l-.76.62a1.87,1.87,0,0,1-1.29.43c.67.33,1.31.65,1.88.95a1.87,1.87,0,0,1,1,1.18,1.92,1.92,0,0,1-.2,1.5L90,14.57a1.92,1.92,0,0,1-2.56.7c-1.23-.66-2.76-1.4-4.26-2.08v7.18A1.92,1.92,0,0,1,81.29,22.29Z"/><path class="cls-1" d="M95.15,23a1.91,1.91,0,0,1-1.84-1.38,3,3,0,0,0-.26-.46,1.91,1.91,0,0,1,1-3.18c-.09-.11-.21-.23-.27-.29a2,2,0,0,1-.74-1.8,1.92,1.92,0,0,1,1.17-1.53,17.76,17.76,0,0,0,2.62-1.3,3.17,3.17,0,0,1-.3-.34.57.57,0,0,1-.13.08A1.92,1.92,0,0,1,94,12.56a9,9,0,0,0-.76-.65,1.93,1.93,0,0,1-.75-1.63,2,2,0,0,1,.93-1.54A8.83,8.83,0,0,0,95,7.55h-.18a1.94,1.94,0,0,1-1.93-1.93V4.35a1.94,1.94,0,0,1,1.93-1.93h6.3V2.25A1.92,1.92,0,0,1,103.12.33l1.78.12a1.91,1.91,0,0,1,1.36.71,1.84,1.84,0,0,1,.43,1.26h6a1.93,1.93,0,0,1,1.92,1.93V5.62A1.93,1.93,0,0,1,113,7.53a16.74,16.74,0,0,1,1.69,2.06,1.94,1.94,0,0,1-.57,2.68l-1.13.73a1.92,1.92,0,0,1-1.26.29,2,2,0,0,1-.11,1,2.25,2.25,0,0,1-.71.91,13.06,13.06,0,0,1-1.66,2,29.1,29.1,0,0,0,4.07.66,1.92,1.92,0,0,1,1.63,1.26,1.9,1.9,0,0,1-.45,2,5,5,0,0,0-.43.74,1.92,1.92,0,0,1-2,1.09,26.57,26.57,0,0,1-8.36-2.21A35.05,35.05,0,0,1,95.44,23Zm13.79-11.92a2.25,2.25,0,0,1,.36.06l-.32-.37C109,10.87,109,11,108.94,11.08Z"/><path class="cls-1" d="M133.59,23h-.12c-5-.34-8.17-1-10.64-2.3a20.94,20.94,0,0,1-6.17,2.24,1.93,1.93,0,0,1-2.11-1,4.5,4.5,0,0,0-.5-.76,1.93,1.93,0,0,1,1-3.21,20.52,20.52,0,0,0,3.5-.94c-.26-.37-.49-.75-.71-1.14h-.19A1.92,1.92,0,0,1,115.78,14V6.54a1.93,1.93,0,0,1-1.9-1.93V3.36a1.93,1.93,0,0,1,1.92-1.93h17.8a1.94,1.94,0,0,1,1.93,1.93V4.61a1.92,1.92,0,0,1-1.28,1.81V14a1.92,1.92,0,0,1-1.92,1.93h-5.49a7.18,7.18,0,0,1-.32.81,31.28,31.28,0,0,0,7.81,1.12A1.92,1.92,0,0,1,135.68,21a1.47,1.47,0,0,0-.19.4A2,2,0,0,1,133.59,23Z"/><path class="cls-2" d="M9.06,6.09c0,.18-.25.3-.55.34-.77,4.81-2.42,9.88-4.77,12.91a9.53,9.53,0,0,0-1.92-1C4.07,15.5,5.74,10.59,6.35,5.54Zm9.25,13.13A76.51,76.51,0,0,0,13.14,6.33L15,5.42a71.19,71.19,0,0,1,5.37,12.91Zm.34-17.28a2.23,2.23,0,1,1-2.24,2.23A2.23,2.23,0,0,1,18.65,1.94Zm1.5,2.23a1.51,1.51,0,1,0-1.5,1.51A1.5,1.5,0,0,0,20.15,4.17Z"/><path class="cls-2" d="M37.16,5a.58.58,0,0,1-.34.29,31.94,31.94,0,0,1-3.9,6.81A76.15,76.15,0,0,1,40,18.57l-1.78,1.54a62.94,62.94,0,0,0-6.59-6.49,31.93,31.93,0,0,1-7.45,6.49,11.27,11.27,0,0,0-1.47-1.56A27.65,27.65,0,0,0,34.07,6.11h-9.5V4.19H35.18l.36-.12Z"/><path class="cls-2" d="M56.48,5.08a.64.64,0,0,1-.33.28c-.83,7.72-3.33,12.06-10.2,14.85a10.5,10.5,0,0,0-1.43-1.56c6.44-2.6,8.74-6.34,9.37-12.32H43.32v5.39h-2V4.45H54.56l.24-.18Z"/><path class="cls-2" d="M58.36,10.29H75.23v2H59.17a.86.86,0,0,1-.65.36Z"/><path class="cls-2" d="M88.36,13.86a59.7,59.7,0,0,0-6.69-3.15v9.72H79.55V2.75l2.71.16c0,.23-.2.39-.59.47V9.2l.41-.57a67.5,67.5,0,0,1,7.41,3.29ZM86.5,4a16.65,16.65,0,0,1,2.65,2.84l-1,.83a17.33,17.33,0,0,0-2.59-2.87Zm2.75-1.78A16.69,16.69,0,0,1,91.9,5.06l-1,.78A20,20,0,0,0,88.32,3Z"/><path class="cls-2" d="M108.73,12.87l1.35.85a.41.41,0,0,1-.32.24,11.67,11.67,0,0,1-4,3.9,26.85,26.85,0,0,0,7.47,1.44,8.75,8.75,0,0,0-1.13,1.8,23.62,23.62,0,0,1-8.38-2.17,31.25,31.25,0,0,1-8.51,2.21,5.89,5.89,0,0,0-.93-1.72,30.07,30.07,0,0,0,7.58-1.6,11.89,11.89,0,0,1-2.42-2.28,20.48,20.48,0,0,1-3.38,1.8,5.24,5.24,0,0,0-1.21-1.42,13.42,13.42,0,0,0,6.5-4.5l2.29.4a7.37,7.37,0,0,0-.51-1.59c.51,0,1,0,1.4,0,.82,0,.91,0,.91-.31V5.86H103c0,2.06-.28,4.85-3.47,6.83a7.16,7.16,0,0,0-1.4-1.29,5.79,5.79,0,0,0,3.07-5.54H94.75V4.09h8V2.17l2.44.14c0,.18-.16.28-.48.34V4.09h8.06V5.86h-5.44V10c0,1.71-.62,1.89-3.63,1.89v-.06c-.06.17-.22.25-.49.25-.22.28-.46.56-.7.84h5.92Zm-9-5.49a.41.41,0,0,1-.45.2,13.32,13.32,0,0,1-3.59,3.84,10.48,10.48,0,0,0-1.31-1.13,9.29,9.29,0,0,0,3.25-3.52Zm1.13,7.11,0,0a9.85,9.85,0,0,0,3,2.46,10.5,10.5,0,0,0,3.25-2.5Zm10.67-2.93a22.48,22.48,0,0,0-3.36-4l1.48-.87a22.27,22.27,0,0,1,3.49,3.92Z"/><path class="cls-2" d="M132.35,14H125.6a6.8,6.8,0,0,1-1.45,3.41c2.4,1.33,5.69,1.72,10.12,1.88a4.78,4.78,0,0,0-.87,1.86c-4.53-.31-8-.87-10.61-2.47a16.36,16.36,0,0,1-6.28,2.45,8.61,8.61,0,0,0-1.13-1.64,16.2,16.2,0,0,0,5.9-2,10.28,10.28,0,0,1-2.12-2.81l1.67-.58a8.6,8.6,0,0,0,1.78,2.22A5,5,0,0,0,123.68,14h-6.06V6.35h6.22V4.91h-8V3.18h17.84V4.91h-7.9V6.35h6.61ZM119.44,7.78v1.7h4.4V7.78Zm0,4.77h4.4V10.83h-4.4Zm11-4.77h-4.71v1.7h4.71Zm0,4.77V10.83h-4.71v1.72Z"/></g></g></svg>