<svg id="レイヤー_2" data-name="レイヤー 2" xmlns="http://www.w3.org/2000/svg" viewBox="0 0 149 25"><defs><style>.cls-1{fill:#fff;}.cls-2{fill:#e86d99;}</style></defs><path class="cls-1" d="M8.05,20.34C3.4,20.34.73,17.27.73,11.93V3.58A1.89,1.89,0,0,1,2.62,1.69h2.3A1.89,1.89,0,0,1,6.81,3.58v8.5c0,2.48.71,2.48,1.24,2.48s1.3,0,1.3-2.48V3.58a1.89,1.89,0,0,1,1.89-1.89h2.22a1.89,1.89,0,0,1,1.89,1.89v8.35C15.35,19.52,10.25,20.34,8.05,20.34Z"/><path class="cls-1" d="M22.11,20.34a5.53,5.53,0,0,1-2.31-.54,1.84,1.84,0,0,1-1,.28H17a1.89,1.89,0,0,1-1.89-1.89V2.39A1.89,1.89,0,0,1,17,.5h2.28A1.89,1.89,0,0,1,21.2,2.39V5.28a5.18,5.18,0,0,1,1.29-.16c3.77,0,6.21,2.92,6.21,7.44C28.7,17.66,25.38,20.34,22.11,20.34Zm-.91-5.77a1.32,1.32,0,0,0,.47.11c.61,0,.89-1.08.89-2.08,0-1.8-.45-1.8-.67-1.8a1.3,1.3,0,0,0-.69.29Z"/><path class="cls-1" d="M32.08,20.34a4.91,4.91,0,0,1-5.1-5,4.77,4.77,0,0,1,1.89-3.94,1.68,1.68,0,0,1-.36-.47l-.86-1.54a1.9,1.9,0,0,1,.65-2.51,10.15,10.15,0,0,1,5.41-1.72c3.66,0,5.85,2.43,5.85,6.51v6.56a1.89,1.89,0,0,1-1.89,1.89H35.81a1.89,1.89,0,0,1-1.09-.35A6.28,6.28,0,0,1,32.08,20.34Z"/><path class="cls-1" d="M50,20.08H47.69a1.89,1.89,0,0,1-1.89-1.89V11.61a4.11,4.11,0,0,0,0-.75,1.32,1.32,0,0,0-.67.4v6.93a1.89,1.89,0,0,1-1.89,1.89H40.91A1.89,1.89,0,0,1,39,18.19V2.39A1.89,1.89,0,0,1,40.91.5h2.28a1.89,1.89,0,0,1,1.89,1.89V5.33a5.73,5.73,0,0,1,1.54-.21c1.57,0,5.24.6,5.24,6.21v6.86A1.89,1.89,0,0,1,50,20.08Z"/><path class="cls-1" d="M60,24.5H57.68a1.89,1.89,0,0,1-1.88-1.89V7.29A1.88,1.88,0,0,1,57.68,5.4h1.87a1.89,1.89,0,0,1,1.05.32,6.05,6.05,0,0,1,2.56-.6c3.76,0,6.19,2.92,6.19,7.44,0,5.1-3.32,7.78-6.59,7.78a5.5,5.5,0,0,1-.91-.08v2.35A1.89,1.89,0,0,1,60,24.5Zm1.89-9.93a1.21,1.21,0,0,0,.47.11c.61,0,.89-1.08.89-2.08,0-1.8-.45-1.8-.67-1.8a1.36,1.36,0,0,0-.69.3Z"/><path class="cls-1" d="M72.75,20.34a4.91,4.91,0,0,1-5.1-5,4.77,4.77,0,0,1,1.89-3.94,1.89,1.89,0,0,1-.36-.47l-.85-1.54A1.88,1.88,0,0,1,69,6.84a10.15,10.15,0,0,1,5.41-1.72c3.67,0,5.85,2.43,5.85,6.51v6.56a1.89,1.89,0,0,1-1.88,1.89H76.48a1.89,1.89,0,0,1-1.09-.35A6.28,6.28,0,0,1,72.75,20.34Z"/><path class="cls-1" d="M84.53,20.34a8.66,8.66,0,0,1-5.29-1.94,1.88,1.88,0,0,1-.34-2.57L80,14.36a2,2,0,0,1,.85-.65,4.41,4.41,0,0,1-1.66-3.51c0-2.94,2.42-5.08,5.77-5.08a7.51,7.51,0,0,1,4.7,1.7A1.88,1.88,0,0,1,90,9.44l-1.07,1.41a1.9,1.9,0,0,1-.38.37,4.51,4.51,0,0,1,2.06,3.92C90.57,17.64,88.68,20.34,84.53,20.34Z"/><path class="cls-1" d="M94.05,20.34a8.71,8.71,0,0,1-5.3-1.94,1.89,1.89,0,0,1-.33-2.57l1.07-1.47a2,2,0,0,1,.85-.65,4.41,4.41,0,0,1-1.67-3.51c0-2.94,2.43-5.08,5.78-5.08a7.51,7.51,0,0,1,4.7,1.7,1.88,1.88,0,0,1,.33,2.62l-1.07,1.41a1.9,1.9,0,0,1-.38.37,4.51,4.51,0,0,1,2,3.92C100.08,17.64,98.2,20.34,94.05,20.34Z"/><path class="cls-1" d="M112,20.08h-2.74a1.89,1.89,0,0,1-1.83-1.42l-.28-1.08-.26,1.06A1.88,1.88,0,0,1,105,20.08h-2.64a1.88,1.88,0,0,1-1.82-1.4l-3-10.9a1.89,1.89,0,0,1,.33-1.64,1.87,1.87,0,0,1,1.5-.74h2.3a1.88,1.88,0,0,1,1.83,1.43l.34,1.41.38-1.43a1.89,1.89,0,0,1,1.83-1.41h2.1A1.87,1.87,0,0,1,110,6.8l.41,1.53.35-1.48a1.9,1.9,0,0,1,1.84-1.45h2.14a1.88,1.88,0,0,1,1.83,2.36l-2.82,10.9A1.87,1.87,0,0,1,112,20.08Z"/><path class="cls-1" d="M121.4,20.34c-3.41,0-7-2.67-7-7.6,0-4.35,3-7.62,7-7.62s7,3.27,7,7.62C128.42,17.67,124.8,20.34,121.4,20.34Zm0-9.56c-.7,0-.89,1.23-.89,2,0,.08,0,2,.89,2s.9-1.76.9-2S122.29,10.78,121.4,10.78Z"/><path class="cls-1" d="M131.49,20.08h-2.28a1.89,1.89,0,0,1-1.89-1.89V7.29a1.89,1.89,0,0,1,1.89-1.89h1.86a1.86,1.86,0,0,1,1.07.33,4.6,4.6,0,0,1,2.27-.61,4.52,4.52,0,0,1,2,.42,1.88,1.88,0,0,1,1,2.09l-.41,2A1.9,1.9,0,0,1,134.65,11a1.32,1.32,0,0,0-.52-.09c-.13,0-.45.21-.75.84v6.41A1.89,1.89,0,0,1,131.49,20.08Z"/><path class="cls-1" d="M141.09,20.34c-3.88,0-6.39-3-6.39-7.6,0-4.35,2.82-7.62,6.57-7.62a5.61,5.61,0,0,1,.94.07V2.39A1.89,1.89,0,0,1,144.1.5h2.28a1.89,1.89,0,0,1,1.89,1.89v15.8a1.89,1.89,0,0,1-1.89,1.89h-1.86a1.92,1.92,0,0,1-1-.29A5.77,5.77,0,0,1,141.09,20.34Zm.61-9.54c-.42,0-.86.72-.86,1.92,0,.89.13,2,.78,2a.84.84,0,0,0,.59-.23V10.89A1.28,1.28,0,0,0,141.7,10.8Z"/><path class="cls-2" d="M2.62,11.93V3.58h2.3v8.5c0,3.29,1.31,4.37,3.13,4.37s3.19-1.08,3.19-4.37V3.58h2.22v8.35c0,4.75-2.18,6.52-5.41,6.52S2.62,16.68,2.62,11.93Z"/><path class="cls-2" d="M19.1,17.06H19l-.22,1.13H17V2.39h2.28V6.57l-.08,1.87A5.21,5.21,0,0,1,22.49,7c2.75,0,4.32,2.2,4.32,5.55,0,3.75-2.24,5.89-4.7,5.89A4.63,4.63,0,0,1,19.1,17.06Zm5.35-4.46c0-2.28-.73-3.69-2.56-3.69a3.75,3.75,0,0,0-2.58,1.33v5.33a3.6,3.6,0,0,0,2.36,1C23.26,16.56,24.45,15.16,24.45,12.6Z"/><path class="cls-2" d="M28.87,15.3c0-2.34,2-3.55,6.53-4.05,0-1.27-.48-2.38-2.09-2.38A6,6,0,0,0,30.16,10l-.85-1.54A8.28,8.28,0,0,1,33.71,7c2.72,0,4,1.72,4,4.62v6.56H35.81l-.18-1.25h-.08a5.43,5.43,0,0,1-3.47,1.51A3,3,0,0,1,28.87,15.3Zm6.53.07V12.7c-3.24.37-4.33,1.21-4.33,2.44,0,1.07.74,1.5,1.71,1.5A3.84,3.84,0,0,0,35.4,15.37Z"/><path class="cls-2" d="M40.91,2.39h2.28V6.57l-.1,2.16A5.07,5.07,0,0,1,46.62,7C48.94,7,50,8.55,50,11.33v6.86H47.69V11.61c0-1.89-.56-2.64-1.85-2.64-1,0-1.7.52-2.65,1.49v7.73H40.91Z"/><path class="cls-2" d="M57.68,7.29h1.87l.18,1.19h.06A5.49,5.49,0,0,1,63.16,7c2.75,0,4.3,2.2,4.3,5.55,0,3.75-2.24,5.89-4.7,5.89a4.55,4.55,0,0,1-2.88-1.23L60,19.08v3.53H57.68ZM65.1,12.6c0-2.28-.73-3.69-2.56-3.69A3.79,3.79,0,0,0,60,10.24v5.33a3.64,3.64,0,0,0,2.36,1C63.91,16.56,65.1,15.16,65.1,12.6Z"/><path class="cls-2" d="M69.54,15.3c0-2.34,2-3.55,6.53-4.05,0-1.27-.48-2.38-2.09-2.38A6,6,0,0,0,70.83,10L70,8.44A8.31,8.31,0,0,1,74.38,7c2.72,0,4,1.72,4,4.62v6.56H76.48l-.18-1.25h-.08a5.43,5.43,0,0,1-3.47,1.51A3,3,0,0,1,69.54,15.3Zm6.53.07V12.7c-3.24.37-4.33,1.21-4.33,2.44,0,1.07.74,1.5,1.71,1.5A3.84,3.84,0,0,0,76.07,15.37Z"/><path class="cls-2" d="M80.43,16.94l1.07-1.47a4.89,4.89,0,0,0,3.09,1.25c1.31,0,1.93-.63,1.93-1.46,0-1-1.23-1.43-2.4-1.89C82.65,12.82,81,12,81,10.2S82.51,7,84.93,7A5.64,5.64,0,0,1,88.46,8.3L87.39,9.7A4.13,4.13,0,0,0,85,8.75c-1.21,0-1.76.6-1.76,1.35,0,.93,1.06,1.29,2.25,1.73,1.53.57,3.22,1.24,3.22,3.31,0,1.82-1.45,3.31-4.15,3.31A6.77,6.77,0,0,1,80.43,16.94Z"/><path class="cls-2" d="M90,16.94,91,15.47a4.89,4.89,0,0,0,3.09,1.25c1.31,0,1.92-.63,1.92-1.46,0-1-1.23-1.43-2.4-1.89-1.46-.55-3.07-1.33-3.07-3.17S92,7,94.45,7A5.66,5.66,0,0,1,98,8.3L96.91,9.7a4.13,4.13,0,0,0-2.42-.95c-1.21,0-1.77.6-1.77,1.35,0,.93,1.07,1.29,2.26,1.73,1.53.57,3.22,1.24,3.22,3.31,0,1.82-1.45,3.31-4.15,3.31A6.75,6.75,0,0,1,90,16.94Z"/><path class="cls-2" d="M99.43,7.29h2.3l1.44,5.88c.22,1.07.4,2.07.6,3.12h.08c.24-1,.45-2.07.71-3.12l1.55-5.88h2.1l1.57,5.88c.25,1.07.47,2.07.73,3.12h.08c.22-1,.4-2,.63-3.12l1.41-5.88h2.14L112,18.19h-2.74l-1.39-5.39c-.26-1-.45-2-.69-3.15H107c-.22,1.13-.42,2.14-.69,3.17L105,18.19h-2.64Z"/><path class="cls-2" d="M116.26,12.74c0-3.63,2.44-5.73,5.14-5.73s5.13,2.1,5.13,5.73-2.44,5.71-5.13,5.71S116.26,16.37,116.26,12.74Zm7.93,0c0-2.3-1.07-3.85-2.79-3.85s-2.78,1.55-2.78,3.85,1.07,3.84,2.78,3.84S124.19,15.06,124.19,12.74Z"/><path class="cls-2" d="M129.21,7.29h1.86l.18,2h.06A3.77,3.77,0,0,1,134.41,7a2.65,2.65,0,0,1,1.22.24l-.41,2a3.24,3.24,0,0,0-1.09-.18c-.89,0-2,.61-2.64,2.34v6.8h-2.28Z"/><path class="cls-2" d="M136.59,12.74c0-3.53,2.24-5.73,4.68-5.73a4.16,4.16,0,0,1,2.93,1.23l-.1-1.81v-4h2.28v15.8h-1.86L144.34,17h-.08a4.57,4.57,0,0,1-3.17,1.49C138.35,18.45,136.59,16.37,136.59,12.74Zm7.51,2.5V9.9a3.42,3.42,0,0,0-2.4-1c-1.52,0-2.75,1.45-2.75,3.81s1,3.84,2.67,3.84A3.2,3.2,0,0,0,144.1,15.24Z"/></svg>