<svg id="レイヤー_1" data-name="レイヤー 1" xmlns="http://www.w3.org/2000/svg" viewBox="0 0 149 35"><defs><style>.cls-1{fill:#fff;}.cls-2{fill:#e86d99;}</style></defs><path class="cls-1" d="M4.53,32.5a2.1,2.1,0,0,1-1.27-.44,4.85,4.85,0,0,0-1-.5,2.07,2.07,0,0,1-.82-3.24c2.12-2.58,3.93-7.64,4.6-12.9a2.07,2.07,0,0,1,2.48-1.77l2.2.46a2.08,2.08,0,0,1,1.52,2.75,2.41,2.41,0,0,1-.65,1C11,21.22,9.41,27.6,6.16,31.71A2.07,2.07,0,0,1,4.53,32.5Zm16.75-.13a2.15,2.15,0,0,1-.93-.22,2.08,2.08,0,0,1-1.07-1.32,72.1,72.1,0,0,0-5.6-13.55,2.09,2.09,0,0,1-.17-1.64,2.12,2.12,0,0,1,1.08-1.25L16,13.72a2,2,0,0,1,.53-.17,4.51,4.51,0,1,1,4.35,5.2,73.92,73.92,0,0,1,4,10.35,2.09,2.09,0,0,1-1.23,2.49l-1.59.63A2.07,2.07,0,0,1,21.28,32.37ZM21,13.89a.34.34,0,0,0-.36.35.35.35,0,0,0,.36.33.36.36,0,0,0,.35-.33A.35.35,0,0,0,21,13.89Z"/><path class="cls-1" d="M26.67,33.32A2.06,2.06,0,0,1,25,32.48a5.7,5.7,0,0,0-.78-.8,2.09,2.09,0,0,1,.32-3.43A29.31,29.31,0,0,0,34.91,17.93H27.6a2.07,2.07,0,0,1-2.07-2.08V14.37A2.07,2.07,0,0,1,27.6,12.3H38.76a2.08,2.08,0,0,1,1.69.16l1.26.72a2.07,2.07,0,0,1,.9,2.57,2.51,2.51,0,0,1-.52.8,35,35,0,0,1-3.22,5.8,78.6,78.6,0,0,1,6.69,6.36,2.08,2.08,0,0,1,.53,1.51,2,2,0,0,1-.71,1.44l-1.33,1.16a2.07,2.07,0,0,1-2.93-.22,68.38,68.38,0,0,0-5.86-5.77,35.14,35.14,0,0,1-7.57,6.22A2,2,0,0,1,26.67,33.32Z"/><path class="cls-1" d="M50.34,33.48a2.07,2.07,0,0,1-1.65-.82,6.87,6.87,0,0,0-.81-.88,2.07,2.07,0,0,1,.59-3.47c5.24-2.14,7.78-5,8.78-10.12h-8v3.93A2.08,2.08,0,0,1,47.2,24.2H45.7a2.08,2.08,0,0,1-2.07-2.08V14.63a2.07,2.07,0,0,1,2.07-2.07H59.55a2.07,2.07,0,0,1,1.83.08l1.26.7a2.07,2.07,0,0,1,.7,3c-1.06,9-4.64,13.91-12.22,17A2.16,2.16,0,0,1,50.34,33.48Zm10.25-20Z"/><path class="cls-1" d="M64.06,25.11A2.08,2.08,0,0,1,62,23.18l-.13-2A2.07,2.07,0,0,1,63.93,19H82.12a2.07,2.07,0,0,1,2.07,2.07v1.55a2.07,2.07,0,0,1-2.07,2.07H65.49a3.19,3.19,0,0,1-1.11.39A1.72,1.72,0,0,1,64.06,25.11ZM63,21.56Z"/><path class="cls-1" d="M88.63,33.74H87a2.08,2.08,0,0,1-2.08-2.08V12.74a2.1,2.1,0,0,1,.65-1.51,2.07,2.07,0,0,1,1.55-.56l2.2.13a2.07,2.07,0,0,1,1.94,2.26,2.5,2.5,0,0,1-.56,1.37v3.26c1.25.49,2.61,1.07,3.93,1.67l-.17-.21a16.18,16.18,0,0,0-2.55-2.74,2.1,2.1,0,0,1-.78-1.57,2,2,0,0,1,.7-1.6l.78-.7A2.05,2.05,0,0,1,94.23,12a2.2,2.2,0,0,1,.54-.71l.78-.68a2.07,2.07,0,0,1,2.68,0,20.07,20.07,0,0,1,3.37,3.61,2.07,2.07,0,0,1-.36,2.74l-.78.67a2,2,0,0,1-1.57.49,2.09,2.09,0,0,1-.59.77l-.82.67a2.09,2.09,0,0,1-1.39.47c.73.35,1.41.69,2,1a2.08,2.08,0,0,1,1,1.28A2,2,0,0,1,98.93,24l-.87,1.46a2.08,2.08,0,0,1-2.77.76c-1.33-.71-3-1.52-4.59-2.24v7.73A2.07,2.07,0,0,1,88.63,33.74Z"/><path class="cls-1" d="M103.57,34.5a2.09,2.09,0,0,1-2-1.49,1.87,1.87,0,0,0-.28-.49,2.07,2.07,0,0,1,1.11-3.43,1.78,1.78,0,0,0-.29-.31,2.12,2.12,0,0,1-.79-2,2.09,2.09,0,0,1,1.26-1.65,17.64,17.64,0,0,0,2.82-1.4,2.17,2.17,0,0,1-.32-.36l-.14.09a2.06,2.06,0,0,1-2.6-.27c-.15-.14-.52-.46-.82-.69a2.06,2.06,0,0,1-.81-1.76,2.09,2.09,0,0,1,1-1.66,9.23,9.23,0,0,0,1.63-1.29h-.19a2.07,2.07,0,0,1-2.07-2.07V14.39a2.07,2.07,0,0,1,2.07-2.07H110v-.19a2.07,2.07,0,0,1,2.22-2.07l1.91.13a2.09,2.09,0,0,1,1.47.76,2,2,0,0,1,.46,1.37h6.47a2.07,2.07,0,0,1,2.07,2.07v1.38a2.08,2.08,0,0,1-1.79,2.05A18.23,18.23,0,0,1,124.58,20a2.14,2.14,0,0,1,.3,1.58,2.08,2.08,0,0,1-.91,1.31l-1.22.79a2.08,2.08,0,0,1-1.36.31,2.12,2.12,0,0,1-.12,1.11,2.42,2.42,0,0,1-.76,1,15.12,15.12,0,0,1-1.79,2.15,31.73,31.73,0,0,0,4.39.71,2.08,2.08,0,0,1,1.27,3.53,4.66,4.66,0,0,0-.46.79,2.1,2.1,0,0,1-2.11,1.18,28.56,28.56,0,0,1-9-2.38,37.85,37.85,0,0,1-8.92,2.37Zm14.87-12.85a1.78,1.78,0,0,1,.39.07l-.35-.41C118.47,21.43,118.46,21.54,118.44,21.65Z"/><path class="cls-1" d="M145,34.5h-.13c-5.34-.37-8.81-1.11-11.47-2.48a22.23,22.23,0,0,1-6.65,2.41,2.08,2.08,0,0,1-2.28-1,5.61,5.61,0,0,0-.53-.82,2.08,2.08,0,0,1,1.13-3.46,22.21,22.21,0,0,0,3.77-1,13.93,13.93,0,0,1-.77-1.22h-.2a2.08,2.08,0,0,1-2.07-2.08v-8a2.07,2.07,0,0,1-2-2.07V13.33a2.08,2.08,0,0,1,2.08-2.08H145a2.08,2.08,0,0,1,2.08,2.08v1.35a2.08,2.08,0,0,1-1.38,1.95v8.15a2.08,2.08,0,0,1-2.07,2.08h-5.91a8.31,8.31,0,0,1-.35.87,33.19,33.19,0,0,0,8.41,1.21,2.08,2.08,0,0,1,1.46,3.43,1.54,1.54,0,0,0-.2.43A2.13,2.13,0,0,1,145,34.5Z"/><path class="cls-2" d="M10.76,16.27c0,.19-.26.32-.59.37C9.35,21.82,7.56,27.29,5,30.55A11.59,11.59,0,0,0,3,29.44c2.41-3,4.22-8.32,4.87-13.76Zm10,14.15a83.05,83.05,0,0,0-5.58-13.89l2.05-1A76.51,76.51,0,0,1,23,29.46Zm.37-18.62a2.4,2.4,0,1,1-2.42,2.4A2.4,2.4,0,0,1,21.11,11.8Zm1.61,2.4a1.63,1.63,0,1,0-3.25,0,1.63,1.63,0,1,0,3.25,0Z"/><path class="cls-2" d="M41.06,15.05a.65.65,0,0,1-.37.3,34,34,0,0,1-4.2,7.34,82.84,82.84,0,0,1,7.62,7l-1.92,1.65a65.85,65.85,0,0,0-7.1-7,34.48,34.48,0,0,1-8,7,13.09,13.09,0,0,0-1.59-1.68A29.82,29.82,0,0,0,37.73,16.29H27.49V14.22H38.92l.4-.13Z"/><path class="cls-2" d="M61.88,15.18a.64.64,0,0,1-.35.3c-.89,8.32-3.59,13-11,16A11.7,11.7,0,0,0,49,29.81C55.94,27,58.42,23,59.09,16.53H47.7v5.81H45.59V14.5H59.81l.26-.19Z"/><path class="cls-2" d="M63.91,20.8H82.09V23H64.78a.93.93,0,0,1-.7.4Z"/><path class="cls-2" d="M96.25,24.65A65.59,65.59,0,0,0,89,21.25V31.73H86.76V12.67l2.92.18c0,.24-.22.41-.64.5v6.27l.44-.61a72.59,72.59,0,0,1,8,3.55ZM94.25,14a18.08,18.08,0,0,1,2.85,3.07l-1,.9a18.76,18.76,0,0,0-2.79-3.1Zm3-1.91a17.31,17.31,0,0,1,2.85,3.05L99,16A21.42,21.42,0,0,0,96.21,13Z"/><path class="cls-2" d="M118.21,23.58l1.46.92a.47.47,0,0,1-.35.26A12.75,12.75,0,0,1,115,29a29.06,29.06,0,0,0,8.06,1.55,9.27,9.27,0,0,0-1.22,1.94,25.55,25.55,0,0,1-9-2.33,33.79,33.79,0,0,1-9.17,2.37,6.68,6.68,0,0,0-1-1.85,32.53,32.53,0,0,0,8.16-1.72,13.53,13.53,0,0,1-2.61-2.46,21.29,21.29,0,0,1-3.64,1.94,5.7,5.7,0,0,0-1.3-1.53,14.53,14.53,0,0,0,7-4.85l2.46.43a8.59,8.59,0,0,0-.54-1.72c.54,0,1.09,0,1.5,0,.89,0,1,0,1-.32V16h-2.59c0,2.22-.31,5.22-3.75,7.36a7.4,7.4,0,0,0-1.5-1.4,6.24,6.24,0,0,0,3.31-6h-7V14.11h8.58V12l2.63.15c0,.2-.17.31-.52.37v1.55h8.69V16h-5.86v4.48c0,1.85-.67,2-3.92,2V22.5c-.06.17-.24.26-.52.26-.24.3-.5.61-.76.91h6.38Zm-9.71-5.92a.46.46,0,0,1-.48.22A14.48,14.48,0,0,1,104.14,22a9.93,9.93,0,0,0-1.41-1.22,10.08,10.08,0,0,0,3.5-3.79Zm1.22,7.67,0,0A10.8,10.8,0,0,0,112.92,28a11.5,11.5,0,0,0,3.5-2.7Zm11.49-3.16a24.12,24.12,0,0,0-3.61-4.34l1.59-.93A24.59,24.59,0,0,1,123,21.12Z"/><path class="cls-2" d="M143.67,24.8H136.4a7.35,7.35,0,0,1-1.57,3.68c2.59,1.44,6.14,1.85,10.91,2a5.52,5.52,0,0,0-.94,2c-4.87-.32-8.64-.93-11.43-2.65a17.72,17.72,0,0,1-6.77,2.63,9.46,9.46,0,0,0-1.22-1.76,17.6,17.6,0,0,0,6.36-2.12,10.84,10.84,0,0,1-2.29-3l1.81-.63a9.14,9.14,0,0,0,1.91,2.39,5.38,5.38,0,0,0,1.16-2.55H127.8V16.55h6.7V15h-8.66V13.13h19.22V15h-8.51v1.55h7.12Zm-13.91-6.7v1.83h4.74V18.1Zm0,5.14h4.74V21.38h-4.74Zm11.86-5.14h-5.07v1.83h5.07Zm0,5.14V21.38h-5.07v1.86Z"/><path class="cls-1" d="M110.88,11.49a1.6,1.6,0,0,1-1.09-.43,39,39,0,0,1-3.65-4h0l-1,1.17a2,2,0,0,1-.64.86,1.62,1.62,0,0,1-2.26-.25l-1-1.26a1.62,1.62,0,0,1,.13-2.18c.45-.44,1.26-1.28,1.79-1.84l.31-.32a3.7,3.7,0,0,1,2.73-1.34,3.89,3.89,0,0,1,3.11,1.8A45.08,45.08,0,0,0,113,7.57a1.62,1.62,0,0,1,.13,2.23l-1,1.12a1.64,1.64,0,0,1-1.14.57Zm-4.07-5.22Z"/><path class="cls-1" d="M119.84,12.45a3.41,3.41,0,0,1-3.16-1.73l-.18.55a1.6,1.6,0,0,1-2,1.07l-1.27-.4a1.61,1.61,0,0,1-1-2.06c.61-1.79,1.87-5.43,2.19-6.36.21-.55.49-1.44.55-1.68A1.63,1.63,0,0,1,116.85.65l1.69.41a1.62,1.62,0,0,1,1.16,2.08,1.88,1.88,0,0,1-.73,1c0,.13-.1.26-.16.4a2.68,2.68,0,0,1,1.73,1.38,1.71,1.71,0,0,1,.56-.35,1.65,1.65,0,0,1,1.49.22,5.46,5.46,0,0,0,.89.53,1.61,1.61,0,0,1,.86,2C123.24,11.72,121.29,12.45,119.84,12.45Z"/><path class="cls-1" d="M130.86,12.12a13.74,13.74,0,0,1-2.4-.18,3.69,3.69,0,0,1-3.1-3.61,4.6,4.6,0,0,1,1-2.79,1.62,1.62,0,0,1-.5-1.17c0-.27,0-.84,0-1.09A1.65,1.65,0,0,1,126.33,2a1.61,1.61,0,0,1,1.25-.48h.59c1,0,2.41,0,3-.08a11.73,11.73,0,0,0,1.68-.2,1.62,1.62,0,0,1,1.93,1.46l.1,1.29a1.63,1.63,0,0,1-1.33,1.72A5.75,5.75,0,0,0,131.1,7a1.74,1.74,0,0,1-.59.3,1.78,1.78,0,0,1-.22.41h.39a14.91,14.91,0,0,0,2.73-.24,1.63,1.63,0,0,1,1.93,1.46l.09,1.28a1.62,1.62,0,0,1-1.35,1.72A22.61,22.61,0,0,1,130.86,12.12Z"/><path class="cls-1" d="M139.4,12.71a1.62,1.62,0,0,1-1.41-.82,5.9,5.9,0,0,0-.59-.76,1.61,1.61,0,0,1-.4-1.57,1.63,1.63,0,0,1,1.17-1.13,5.37,5.37,0,0,0,2.07-.87,12.9,12.9,0,0,0-1.68.46,1.79,1.79,0,0,1-.63.4,1.61,1.61,0,0,1-2.13-1L135.32,6a1.61,1.61,0,0,1,1.1-2.07l.21-.06a1.57,1.57,0,0,1,0-1l.32-1.19A1.63,1.63,0,0,1,138.55.5a19.12,19.12,0,0,1,4.32.73,1.62,1.62,0,0,1,1.07,2l-.19.7a2.35,2.35,0,0,1,.33.3,3.9,3.9,0,0,1,1.1,2.91c0,2.62-1.8,4.48-5.32,5.54A1.47,1.47,0,0,1,139.4,12.71Z"/><path class="cls-2" d="M102.47,6.55c.57-.55,1.66-1.71,2.15-2.21a2.09,2.09,0,0,1,1.56-.84c.71,0,1.17.35,1.86,1.2a45.28,45.28,0,0,0,3.8,4.05l-1,1.13a39.86,39.86,0,0,1-3.47-3.82c-.64-.83-.89-1.22-1.24-1.22s-.59.34-1.16,1c-.32.39-1,1.15-1.37,1.59a.36.36,0,0,1-.15.35Z"/><path class="cls-2" d="M113.69,10.4c.61-1.79,1.86-5.42,2.19-6.34.21-.56.51-1.51.59-1.84l1.69.41c0,.15-.18.24-.42.25-.41.93-1.19,3-1.55,4A2.76,2.76,0,0,1,118,6c.82,0,1.29.56,1.29,1.45,0,.18,0,1.06,0,1.26,0,.57.23.82.64.82.74,0,1.32-.88,1.75-2.48a7.24,7.24,0,0,0,1.16.69c-.6,1.91-1.52,3.08-3,3.08a1.68,1.68,0,0,1-1.92-1.71c0-.17,0-1.05,0-1.25,0-.46-.12-.66-.39-.66-.93,0-1.88,1.36-2.17,2.2-.13.4-.29.89-.44,1.38Z"/><path class="cls-2" d="M133.82,10.3a20.17,20.17,0,0,1-3,.2,11.61,11.61,0,0,1-2.06-.14,2.06,2.06,0,0,1-1.82-2,3.1,3.1,0,0,1,.93-2.07l1.07.47a2.06,2.06,0,0,0-.72,1.39c0,1.17,1.42,1.17,2.42,1.17a17.64,17.64,0,0,0,3-.26ZM129,5.16a10.4,10.4,0,0,1,1.26-.87h0a22.38,22.38,0,0,1-2.74.09c0-.3,0-.93,0-1.21h.69c1,0,2.44,0,3.13-.08a12.42,12.42,0,0,0,1.91-.22l.1,1.28a7.52,7.52,0,0,0-3.23,1.55Z"/><path class="cls-2" d="M136.85,5.49a22.35,22.35,0,0,1,4.2-.83,2.26,2.26,0,0,1,2.51,2.43c0,1.92-1.43,3.18-4.16,4a7.19,7.19,0,0,0-.84-1.08c2.34-.58,3.62-1.63,3.62-2.85a1.14,1.14,0,0,0-1.2-1.3,10.94,10.94,0,0,0-3.44.81c0,.1-.11.21-.21.25Zm1.61-3.37a17,17,0,0,1,3.91.65L142,4a17,17,0,0,0-3.9-.72Z"/></svg>