<svg id="レイヤー_2" data-name="レイヤー 2" xmlns="http://www.w3.org/2000/svg" viewBox="0 0 162 25"><defs><style>.cls-1{fill:#fff;}.cls-2{fill:#e86d99;}</style></defs><path class="cls-1" d="M8,20.18H5.92A1.72,1.72,0,0,1,4.2,18.46V8.64H2A1.72,1.72,0,0,1,.3,6.92V5.15A1.72,1.72,0,0,1,2,3.43h9.91a1.72,1.72,0,0,1,1.72,1.72V6.92a1.72,1.72,0,0,1-1.72,1.72H9.73v9.82A1.72,1.72,0,0,1,8,20.18Z"/><path class="cls-1" d="M22.31,20.18H20.23a1.72,1.72,0,0,1-1.72-1.72v-6a4.23,4.23,0,0,0-.05-.67c-.12,0-.28.07-.61.36v6.31a1.72,1.72,0,0,1-1.72,1.72H14.05a1.72,1.72,0,0,1-1.72-1.72V4.06a1.72,1.72,0,0,1,1.72-1.72h2.08a1.72,1.72,0,0,1,1.72,1.72V6.74a5.21,5.21,0,0,1,1.4-.19c1.44,0,4.78.55,4.78,5.66v6.25A1.72,1.72,0,0,1,22.31,20.18Z"/><path class="cls-1" d="M27.62,20.42A4.47,4.47,0,0,1,23,15.82a4.31,4.31,0,0,1,1.72-3.58,1.76,1.76,0,0,1-.33-.43l-.78-1.41a1.71,1.71,0,0,1,.59-2.28A9.25,9.25,0,0,1,29.1,6.55c3.34,0,5.33,2.22,5.33,5.93v6a1.72,1.72,0,0,1-1.72,1.72H31a1.71,1.71,0,0,1-1-.31A5.75,5.75,0,0,1,27.62,20.42Z"/><path class="cls-1" d="M36.11,24.34A5.15,5.15,0,0,1,34.27,24a1.73,1.73,0,0,1-1.08-2l.4-1.63a1.72,1.72,0,0,1,2.16-1.24,1.72,1.72,0,0,0,.28.08c.16,0,.36-.58.4-.7v0L32.72,9.16a1.72,1.72,0,0,1,1.6-2.35h2.13a1.71,1.71,0,0,1,1.62,1.13l1.06,2.93L40,8a1.73,1.73,0,0,1,1.65-1.2h2a1.72,1.72,0,0,1,1.63,2.28L41.66,19.62C41.18,20.93,39.94,24.34,36.11,24.34Z"/><path class="cls-1" d="M53,20.42c-3.48,0-5.82-2.62-5.82-6.51a6.43,6.43,0,0,1,3.89-6.1,1.69,1.69,0,0,1-.24-.87V5.83a1.72,1.72,0,0,1,1.72-1.72H54V4.06a1.72,1.72,0,0,1,1.72-1.72h2.08a1.72,1.72,0,0,1,1.72,1.72v.08A1.71,1.71,0,0,1,61,5.83v1a1.71,1.71,0,0,1-1.44,1.69v9.92a1.72,1.72,0,0,1-1.72,1.72H56.07a1.67,1.67,0,0,1-.88-.25A5.38,5.38,0,0,1,53,20.42Zm.57-7.84c-.46,0-.8.55-.8,1.31,0,1.37.51,1.37.72,1.37a.77.77,0,0,0,.54-.21V12.67A1.06,1.06,0,0,0,53.55,12.58Z"/><path class="cls-1" d="M64.91,20.42a6.53,6.53,0,0,1-6.4-6.93,7,7,0,0,1,2.72-5.75l-.44-.51a1.72,1.72,0,0,1,.13-2.38L62.9,3a1.72,1.72,0,0,1,1.18-.47H65l.12-.62A1.74,1.74,0,0,1,66.86.5c3.89.12,4.31,2.3,4.31,3.24a3.09,3.09,0,0,1-1.79,2.9,1.79,1.79,0,0,1-.35.61l-.44.49a7,7,0,0,1,2.72,5.75A6.53,6.53,0,0,1,64.91,20.42Zm0-8.71c-.64,0-.81,1.12-.81,1.78,0,.08,0,1.79.81,1.79s.83-1.6.83-1.79S65.73,11.71,64.91,11.71Z"/><path class="cls-1" d="M74.11,20.18H72a1.72,1.72,0,0,1-1.72-1.72V8.53a1.69,1.69,0,0,1,.45-1.16,3,3,0,0,1-.7-1.95,3,3,0,0,1,6,0,2.93,2.93,0,0,1-.7,1.94,1.74,1.74,0,0,1,.45,1.17v9.93A1.72,1.72,0,0,1,74.11,20.18Zm-1-15.24a.56.56,0,0,0-.42.48.54.54,0,0,0,.42.49.56.56,0,0,0,.44-.49A.58.58,0,0,0,73.06,4.94Z"/><path class="cls-1" d="M95.3,20.18H93.22a1.72,1.72,0,0,1-1.72-1.72v-6a4.26,4.26,0,0,0,0-.63,1.78,1.78,0,0,0-.42.3v6.33a1.72,1.72,0,0,1-1.72,1.72H87.24a1.72,1.72,0,0,1-1.72-1.72v-6a4.37,4.37,0,0,0,0-.63,2.2,2.2,0,0,0-.4.3v6.33a1.72,1.72,0,0,1-1.72,1.72H81.28a1.72,1.72,0,0,1-1.72-1.72V8.53a1.72,1.72,0,0,1,1.72-1.72H83a1.66,1.66,0,0,1,1,.32,5,5,0,0,1,2.29-.58,4.63,4.63,0,0,1,3,1,5.09,5.09,0,0,1,3-1C93.37,6.55,97,7,97,12.21v6.25A1.72,1.72,0,0,1,95.3,20.18Zm-9.62-8.39Zm6,0Z"/><path class="cls-1" d="M101.82,24.5a2.93,2.93,0,0,1-3-3,3,3,0,0,1,.3-1.32A4.42,4.42,0,0,1,96,15.82a4.34,4.34,0,0,1,1.72-3.58,1.76,1.76,0,0,1-.33-.43l-.78-1.41a1.72,1.72,0,0,1,.59-2.28L98,7.67l-.25-.24a1.71,1.71,0,0,1-.15-2.34l2.27-2.78a1.74,1.74,0,0,1,1.33-.64h2.1a1.74,1.74,0,0,1,1.33.64l2.28,2.78a1.72,1.72,0,0,1-.16,2.34l-.7.66a6.35,6.35,0,0,1,1.44,4.39v6a1.72,1.72,0,0,1-1.72,1.72h-1.2a3,3,0,0,1-2.72,4.32Zm0-3.44a.55.55,0,0,0-.42.45.59.59,0,0,0,.42.52.55.55,0,0,0,.44-.52A.54.54,0,0,0,101.82,21.06Z"/><path class="cls-1" d="M112,20.42c-1.42,0-4.74-.51-4.74-5.21V11.89a1.74,1.74,0,0,1-1.44-1.7V8.63a1.72,1.72,0,0,1,1.6-1.71h.08l.11-1.28a1.72,1.72,0,0,1,1.72-1.57h1.73a1.72,1.72,0,0,1,1.72,1.72v1h.87a1.72,1.72,0,0,1,1.72,1.72v1.66a1.72,1.72,0,0,1-1.72,1.72h-.87v3.35a.23.23,0,0,0,.1,0,1.73,1.73,0,0,1,1.46,0,1.69,1.69,0,0,1,.9,1.13l.38,1.53a1.71,1.71,0,0,1-1.14,2A7.91,7.91,0,0,1,112,20.42ZM107.57,8.63h0Z"/><path class="cls-1" d="M128.56,20.18h-2.25a1.73,1.73,0,0,1-1.48-.83l-1.16-1.94v1.05A1.72,1.72,0,0,1,122,20.18h-2a1.72,1.72,0,0,1-1.72-1.72V4.06a1.72,1.72,0,0,1,1.72-1.72h2a1.72,1.72,0,0,1,1.72,1.72V8.52l.86-1.07a1.71,1.71,0,0,1,1.34-.64h2.31a1.72,1.72,0,0,1,1.56,1,1.74,1.74,0,0,1-.23,1.84L127,12.71,130,17.54a1.74,1.74,0,0,1,0,1.75A1.72,1.72,0,0,1,128.56,20.18Z"/><path class="cls-1" d="M138.55,20.18h-2.07a1.72,1.72,0,0,1-1.72-1.72v-6a4.23,4.23,0,0,0,0-.67c-.12,0-.28.07-.61.36v6.31a1.72,1.72,0,0,1-1.72,1.72H130.3a1.72,1.72,0,0,1-1.72-1.72V4.06a1.72,1.72,0,0,1,1.72-1.72h2.08a1.72,1.72,0,0,1,1.72,1.72V6.74a5.21,5.21,0,0,1,1.4-.19c1.44,0,4.78.55,4.78,5.66v6.25A1.73,1.73,0,0,1,138.55,20.18Z"/><path class="cls-1" d="M143.87,20.42a4.47,4.47,0,0,1-4.65-4.6,4.31,4.31,0,0,1,1.72-3.58,1.76,1.76,0,0,1-.33-.43l-.78-1.41a1.72,1.72,0,0,1,.59-2.28,12.35,12.35,0,0,1,1.11-.62l-.23-.27a1.72,1.72,0,0,1,.13-2.39l2-1.86a1.74,1.74,0,0,1,1.17-.46h.92l.12-.62A1.68,1.68,0,0,1,147.39.5c3.88.12,4.3,2.3,4.3,3.24a3.09,3.09,0,0,1-1.78,2.9,1.64,1.64,0,0,1-.35.61l-.54.62a6.14,6.14,0,0,1,1.66,4.61v6A1.72,1.72,0,0,1,149,20.18h-1.7a1.71,1.71,0,0,1-1-.31A5.75,5.75,0,0,1,143.87,20.42Z"/><path class="cls-1" d="M154.84,20.42c-1.44,0-4.78-.55-4.78-5.64V8.53a1.72,1.72,0,0,1,1.72-1.72h2.08a1.72,1.72,0,0,1,1.72,1.72v6a4.43,4.43,0,0,0,0,.66c.12,0,.28-.08.57-.39V8.53a1.72,1.72,0,0,1,1.72-1.72H160a1.72,1.72,0,0,1,1.72,1.72v9.93A1.72,1.72,0,0,1,160,20.18h-1.69a1.71,1.71,0,0,1-1-.34A5.26,5.26,0,0,1,154.84,20.42Z"/><path class="cls-2" d="M5.92,6.92H2V5.15h9.91V6.92H8V18.46H5.92Z"/><path class="cls-2" d="M14.05,4.06h2.08V7.88l-.09,2a4.61,4.61,0,0,1,3.21-1.57c2.12,0,3.06,1.41,3.06,3.94v6.25H20.23v-6c0-1.71-.51-2.4-1.68-2.4a3.31,3.31,0,0,0-2.42,1.36v7H14.05Z"/><path class="cls-2" d="M24.69,15.82c0-2.13,1.81-3.23,5.94-3.68C30.62,11,30.2,10,28.74,10a5.44,5.44,0,0,0-2.87,1l-.78-1.41a7.61,7.61,0,0,1,4-1.3c2.47,0,3.61,1.57,3.61,4.21v6H31l-.16-1.14h-.07a4.93,4.93,0,0,1-3.16,1.38A2.75,2.75,0,0,1,24.69,15.82Zm5.94.08V13.46c-2.94.34-3.93,1.1-3.93,2.22s.67,1.37,1.55,1.37A3.48,3.48,0,0,0,30.63,15.9Z"/><path class="cls-2" d="M34.86,22.42l.4-1.63a2.47,2.47,0,0,0,.72.15c1.09,0,1.72-.8,2.08-1.86l.2-.69L34.32,8.53h2.13l1.85,5.11c.28.88.59,1.88.9,2.8h.09c.25-.9.52-1.9.78-2.8l1.59-5.11h2L40,19.06c-.78,2.13-1.82,3.56-3.92,3.56A3.72,3.72,0,0,1,34.86,22.42Z"/><path class="cls-2" d="M48.88,13.91a4.47,4.47,0,0,1,4.27-4.77,3.83,3.83,0,0,1,2.67,1.1l-.09-1.62V6.94h-3.2V5.83h3.2V4.06h2.08V5.83h1.44v1l-1.44.09V18.46H56.07l-.16-1.05h0A4.16,4.16,0,0,1,53,18.7C50.49,18.7,48.88,16.89,48.88,13.91Zm6.85,1.86v-4a3.12,3.12,0,0,0-2.18-.92c-1.4,0-2.52,1.22-2.52,3S51.92,17,53.47,17A2.92,2.92,0,0,0,55.73,15.77Z"/><path class="cls-2" d="M60.23,13.49c0-3.3,2.22-5.22,4.68-5.22s4.68,1.92,4.68,5.22-2.22,5.21-4.68,5.21S60.23,16.8,60.23,13.49Zm1.86-7.38,2-1.87h1.68l2,1.87L67,6.9,65,5.49h-.08L62.78,6.9Zm5.37,7.38c0-2.09-1-3.5-2.55-3.5s-2.53,1.41-2.53,3.5,1,3.51,2.53,3.51S67.46,15.61,67.46,13.49ZM67.22,4.7c.47-.13.78-.33.78-.73s-.38-.72-1.37-.79l.18-1c1.79.06,2.64.56,2.64,1.52,0,1.17-1,1.55-2,1.75Z"/><path class="cls-2" d="M71.78,5.42a1.19,1.19,0,0,1,1.28-1.23,1.21,1.21,0,0,1,1.3,1.23,1.21,1.21,0,0,1-1.3,1.25A1.19,1.19,0,0,1,71.78,5.42ZM72,8.53h2.08v9.93H72Z"/><path class="cls-2" d="M81.28,8.53H83l.16,1.39h.06a4.31,4.31,0,0,1,3.07-1.65A2.65,2.65,0,0,1,89,10.1a4.59,4.59,0,0,1,3.24-1.83c2.07,0,3,1.41,3,3.94v6.25H93.22v-6c0-1.71-.54-2.4-1.66-2.4a3.29,3.29,0,0,0-2.24,1.36v7H87.24v-6c0-1.71-.52-2.4-1.66-2.4a3.26,3.26,0,0,0-2.22,1.36v7H81.28Z"/><path class="cls-2" d="M97.72,15.82c0-2.13,1.81-3.23,6-3.68,0-1.16-.44-2.17-1.9-2.17a5.47,5.47,0,0,0-2.87,1l-.78-1.41a7.61,7.61,0,0,1,4-1.3c2.48,0,3.61,1.57,3.61,4.21v6h-1.69l-.17-1.14h-.07a4.93,4.93,0,0,1-3.16,1.38A2.75,2.75,0,0,1,97.72,15.82ZM101.17,3.4h2.1l2.28,2.78L104.7,7,102.26,4.8h-.08L99.75,7l-.85-.79Zm2.5,12.5V13.46c-3,.34-3.94,1.1-3.94,2.22s.67,1.37,1.55,1.37A3.52,3.52,0,0,0,103.67,15.9Zm-3.13,5.61a1.29,1.29,0,0,1,2.58,0,1.29,1.29,0,0,1-2.58,0Z"/><path class="cls-2" d="M109,15.21v-5h-1.45V8.63l1.55-.1.24-2.75h1.73V8.53h2.59v1.66h-2.59v5c0,1.19.42,1.8,1.45,1.8a2.87,2.87,0,0,0,1.06-.23l.38,1.54a6.39,6.39,0,0,1-2,.36C109.79,18.7,109,17.31,109,15.21Z"/><path class="cls-2" d="M119.91,4.06h2v9.27H122l3.85-4.8h2.31l-3.36,4,3.74,5.89h-2.25l-2.7-4.5L122,15.88v2.58h-2Z"/><path class="cls-2" d="M130.3,4.06h2.08V7.88l-.09,2a4.61,4.61,0,0,1,3.21-1.57c2.12,0,3.05,1.41,3.05,3.94v6.25h-2.07v-6c0-1.71-.51-2.4-1.68-2.4a3.31,3.31,0,0,0-2.42,1.36v7H130.3Z"/><path class="cls-2" d="M140.94,15.82c0-2.13,1.81-3.23,5.94-3.68,0-1.16-.43-2.17-1.89-2.17a5.44,5.44,0,0,0-2.87,1l-.78-1.41a7.61,7.61,0,0,1,4-1.3c2.47,0,3.61,1.57,3.61,4.21v6h-1.7l-.16-1.14H147a4.93,4.93,0,0,1-3.16,1.38A2.75,2.75,0,0,1,140.94,15.82Zm1.66-9.71,2-1.87h1.66l2,1.87-.71.79-2.09-1.41h-.08L143.29,6.9Zm4.28,9.79V13.46c-2.94.34-3.93,1.1-3.93,2.22s.66,1.37,1.55,1.37A3.48,3.48,0,0,0,146.88,15.9Zm.85-11.2c.47-.13.8-.33.8-.73s-.38-.72-1.37-.79l.18-1c1.77.06,2.63.56,2.63,1.52,0,1.17-1,1.55-2,1.75Z"/><path class="cls-2" d="M151.78,14.78V8.53h2.08v6c0,1.7.49,2.39,1.66,2.39.92,0,1.56-.44,2.39-1.48V8.53H160v9.93h-1.69l-.17-1.5h-.05a4.16,4.16,0,0,1-3.23,1.74C152.7,18.7,151.78,17.31,151.78,14.78Z"/></svg>