<svg xmlns="http://www.w3.org/2000/svg" viewBox="0 0 56.95 61"><defs><style>.cls-1{fill:#027abb;}.cls-2{fill:#f98cb6;}.cls-3{fill:#2a1f55;}.cls-4{fill:gray;}</style></defs><g id="レイヤー_2" data-name="レイヤー 2"><g id="ヘッダ_" data-name="ヘッダ―"><path class="cls-1" d="M28.59,0a22.79,22.79,0,0,0-3,.2,11.25,11.25,0,0,1-9.86,16.69,11.21,11.21,0,0,1-8.17-3.53A23.22,23.22,0,0,0,16.32,43,31.34,31.34,0,0,0,37,18.44c.11-.64,1.52-3.74,2.23-3.74h11A23.25,23.25,0,0,0,28.59,0ZM11.19,27a.21.21,0,0,1,.14-.36L13,26.27c.2,0,.25-.19.11-.34L12,24.75a.2.2,0,0,1,.1-.36,6.84,6.84,0,0,1,3.31-.07c2.06.67,2.84,3.25,2.84,3.25a.54.54,0,0,1-.18.56s-2.16,1.62-4.21.95A6.85,6.85,0,0,1,11.19,27Zm7.35,7.28a6.7,6.7,0,0,1-2.82,1.89c-.18.07-.32,0-.3-.24l.17-1.65c0-.2-.11-.29-.29-.21l-1.44.64a.21.21,0,0,1-.32-.22,6.84,6.84,0,0,1,1-3.16c1.27-1.75,4-1.7,4-1.7a.54.54,0,0,1,.48.35S19.82,32.51,18.54,34.26Zm1-7.5s-2.2-1.55-2.2-3.71a6.69,6.69,0,0,1,1.17-3.19.21.21,0,0,1,.38,0l.83,1.44c.1.17.26.17.37,0l.79-1.37a.21.21,0,0,1,.38,0,6.79,6.79,0,0,1,1.08,3.12c0,2.17-2.2,3.71-2.2,3.71A.59.59,0,0,1,19.54,26.76Zm6.2,8-1.52-.68c-.18-.08-.31,0-.29.22l.16,1.57c0,.2-.11.3-.3.23a6.77,6.77,0,0,1-2.71-1.89c-1.27-1.75-.39-4.29-.39-4.29a.54.54,0,0,1,.48-.35s2.69-.05,4,1.7a6.82,6.82,0,0,1,.93,3.27A.21.21,0,0,1,25.74,34.78Zm2.67-7.69a6.79,6.79,0,0,1-2.64,2c-2.06.67-4.2-.95-4.2-.95a.57.57,0,0,1-.19-.57s.79-2.57,2.85-3.24a6.79,6.79,0,0,1,3.4.12.21.21,0,0,1,.1.38l-1.11,1.23c-.13.15-.08.3.11.34l1.55.33A.21.21,0,0,1,28.41,27.09ZM37.1,14.45a7.77,7.77,0,0,1-2.27,3c-2,1.36-4.9.25-4.9.25a.61.61,0,0,1-.37-.56s.07-3.06,2.12-4.43a7.67,7.67,0,0,1,3.75-.91.24.24,0,0,1,.23.38l-.84,1.69a.22.22,0,0,0,.23.34l1.8-.11C37.08,14.08,37.19,14.24,37.1,14.45Z"/><path class="cls-2" d="M16.73,8c.09.22,0,.37-.25.35l-1.92-.2a.25.25,0,0,0-.28.36,7.85,7.85,0,0,0,2.22,3.27c2,1.48,5,.45,5,.45a.65.65,0,0,0,.41-.56s0-3.14-2-4.61A7.93,7.93,0,0,0,16.22,6a.24.24,0,0,0-.25.36Z"/><path class="cls-3" d="M51.82,23.23a23.49,23.49,0,0,0-.47-4.7h-13a51.44,51.44,0,0,1-4.88,11.06c-3.58,6.25-8.21,11.52-14.23,14.91a23.2,23.2,0,0,0,19.28-.26L43.62,47V33.71L38.9,31.16l7.42.08-.09,7.1A23.15,23.15,0,0,0,51.82,23.23Z"/><path class="cls-4" d="M0,58.85a4.43,4.43,0,0,0,.33-1v0h.2a.71.71,0,0,0,.68.42c.71,0,1-.84,1-2.51v-2.5a18.69,18.69,0,0,0-.12-2.45v-.1a3.81,3.81,0,0,0,.69,0,3.75,3.75,0,0,0,.68,0v.1a19.34,19.34,0,0,0-.1,2.45v2.23a5.56,5.56,0,0,1-.12,1.43,2.64,2.64,0,0,1-.28.63,6.73,6.73,0,0,1-.47.67,2.28,2.28,0,0,1-.82.65,2.3,2.3,0,0,1-1,.23A1.28,1.28,0,0,1,0,58.93H0Z"/><path class="cls-4" d="M5.44,58.53a1.17,1.17,0,0,1-.45-1,1.47,1.47,0,0,1,.57-1.16,3.58,3.58,0,0,1,1.51-.69l1.14-.26s0,0,0-.11q0-1.24-.78-1.38l-.36,0a1,1,0,0,0-.74.31,4.33,4.33,0,0,0-.58.73v0H5.57l-.22-.9L5.41,54a3.44,3.44,0,0,1,1-.57,2.43,2.43,0,0,1,.83-.15c1.42,0,2.13.68,2.13,2l0,1.87a1.48,1.48,0,0,0,.19.93.33.33,0,0,0,.24.08,2.1,2.1,0,0,0,.46-.08l.12.38a1.41,1.41,0,0,1-1,.41,1.07,1.07,0,0,1-.61-.18,1,1,0,0,1-.38-.53,3,3,0,0,1-1,.63,3,3,0,0,1-.66.08A1.82,1.82,0,0,1,5.44,58.53Zm.87-1.78a1,1,0,0,0-.24.63.77.77,0,0,0,.23.56.82.82,0,0,0,.56.22,2.05,2.05,0,0,0,1.19-.47.34.34,0,0,0,.15-.3l0-1.41-1,.28A1.81,1.81,0,0,0,6.31,56.75Z"/><path class="cls-4" d="M11.25,53.43v-.09h0l.44,0a3.66,3.66,0,0,0,.57,0h0q.11,0,.12.15v.81a2.52,2.52,0,0,1,.86-.8,1.82,1.82,0,0,1,.78-.22,1.89,1.89,0,0,1,1.2.38,2.4,2.4,0,0,1,.74,1A3.64,3.64,0,0,1,16.26,56a3.37,3.37,0,0,1-.32,1.44A2.45,2.45,0,0,1,15,58.48a2.36,2.36,0,0,1-1.33.39,3.09,3.09,0,0,1-1.27-.24v.14a17.72,17.72,0,0,0,.12,2.15h0l-.07.06h0l-.57,0a3.29,3.29,0,0,0-.62,0v-.09a18.53,18.53,0,0,0,.08-2.14v-3A18.25,18.25,0,0,0,11.25,53.43Zm1.18,4.34a1.34,1.34,0,0,0,.64.44,1.88,1.88,0,0,0,.46.08,1.3,1.3,0,0,0,1.26-.76A3.39,3.39,0,0,0,15.1,56a3,3,0,0,0-.32-1.52,1,1,0,0,0-.87-.53,1.52,1.52,0,0,0-1.1.61,1.76,1.76,0,0,0-.38.58Z"/><path class="cls-4" d="M17.78,58.53a1.17,1.17,0,0,1-.45-1,1.47,1.47,0,0,1,.57-1.16,3.63,3.63,0,0,1,1.52-.69l1.13-.26s.06,0,.06-.11c0-.83-.26-1.29-.79-1.38l-.35,0a1,1,0,0,0-.74.31,3.88,3.88,0,0,0-.58.73v0h-.22l-.22-.9.05-.08a3.76,3.76,0,0,1,.95-.57,2.48,2.48,0,0,1,.84-.15c1.42,0,2.12.68,2.12,2l0,1.87c0,.5.06.81.19.93a.32.32,0,0,0,.23.08,2.17,2.17,0,0,0,.47-.08l.12.38a1.41,1.41,0,0,1-1,.41,1.07,1.07,0,0,1-.61-.18,1,1,0,0,1-.38-.53,3,3,0,0,1-1,.63,3,3,0,0,1-.67.08A1.82,1.82,0,0,1,17.78,58.53Zm.88-1.78a1,1,0,0,0-.24.63.77.77,0,0,0,.23.56.82.82,0,0,0,.56.22,2.05,2.05,0,0,0,1.19-.47.34.34,0,0,0,.14-.3L20.59,56l-1,.28A1.77,1.77,0,0,0,18.66,56.75Z"/><path class="cls-4" d="M23.61,53.43v-.09h0l.44,0a3.55,3.55,0,0,0,.57,0h0q.1,0,.12.15v.83a2.87,2.87,0,0,1,1.54-.95,2.35,2.35,0,0,1,.57-.09,1.36,1.36,0,0,1,1.21.51,2.55,2.55,0,0,1,.36,1.48l0,1.24a17.57,17.57,0,0,0,.1,2.21v.09a5,5,0,0,0-1.26,0v-.09a21.82,21.82,0,0,0,.08-2.21V55.27a1.64,1.64,0,0,0-.19-1,.71.71,0,0,0-.58-.22,2.07,2.07,0,0,0-.87.22,3,3,0,0,0-.94.75v1.43a18.45,18.45,0,0,0,.11,2.21v.09a4.59,4.59,0,0,0-.65,0,4.32,4.32,0,0,0-.62,0v-.09A15.62,15.62,0,0,0,23.71,57V55.81A18.25,18.25,0,0,0,23.61,53.43Z"/><path class="cls-4" d="M33.52,54.79A4.23,4.23,0,0,1,33.89,53a3.92,3.92,0,0,1,1-1.33,4.73,4.73,0,0,1,1.39-.81,4.45,4.45,0,0,1,1.46-.27,7,7,0,0,1,1.19.09,7.33,7.33,0,0,1,1.53.43l.22.09h0l.06.06v0a8.1,8.1,0,0,0-.25,1.43v0h-.22v0a3.08,3.08,0,0,0-1.07-1.11,2.77,2.77,0,0,0-1.49-.42,2.59,2.59,0,0,0-1.46.43,3,3,0,0,0-1,1.21,4.44,4.44,0,0,0-.36,1.86,4.23,4.23,0,0,0,.67,2.39,2.57,2.57,0,0,0,2.3,1.17,2.61,2.61,0,0,0,1.76-.45v-.53a18.15,18.15,0,0,0-.12-2.32v0l.06-.08h0l.15,0a2.77,2.77,0,0,0,.46,0,3,3,0,0,0,.48,0l.16,0h0v.11A14.79,14.79,0,0,0,40.75,57v.07a1,1,0,0,0,.11.57v.09h0a5,5,0,0,1-3.32,1.12,3.75,3.75,0,0,1-2.91-1.21A4.19,4.19,0,0,1,33.52,54.79Z"/><path class="cls-4" d="M42.7,58.53a1.17,1.17,0,0,1-.45-1,1.47,1.47,0,0,1,.57-1.16,3.58,3.58,0,0,1,1.51-.69l1.14-.26s.05,0,.05-.11q0-1.24-.78-1.38l-.36,0a1,1,0,0,0-.74.31,3.84,3.84,0,0,0-.57.73l0,0h-.21l-.22-.9.05-.08a3.44,3.44,0,0,1,.95-.57,2.48,2.48,0,0,1,.84-.15c1.41,0,2.12.68,2.12,2l0,1.87a1.49,1.49,0,0,0,.18.93.33.33,0,0,0,.24.08,2.27,2.27,0,0,0,.47-.08l.11.38a1.39,1.39,0,0,1-1,.41,1.1,1.1,0,0,1-.62-.18,1.06,1.06,0,0,1-.38-.53,2.17,2.17,0,0,1-1.68.71A1.82,1.82,0,0,1,42.7,58.53Zm.87-1.78a1,1,0,0,0-.23.63.73.73,0,0,0,.23.56.78.78,0,0,0,.55.22,2,2,0,0,0,1.19-.47.34.34,0,0,0,.15-.3l0-1.41-1,.28A1.81,1.81,0,0,0,43.57,56.75Z"/><path class="cls-4" d="M47.83,53.9a2.2,2.2,0,0,0,.29-.53l0,0h0l.61,0c0-.51,0-1,.06-1.54v-.06h0a1.5,1.5,0,0,0,.46-.13,2.93,2.93,0,0,1,.42-.18h0c.09,0,.14,0,.14.16,0,.48-.06,1.06-.06,1.76h.53l.87,0h0l.1.11-.1.28-.07.3h0c-.24,0-.54,0-.89,0h-.43v1.5l0,1.64c0,.62.12.94.38,1a1.31,1.31,0,0,0,.37,0,2.33,2.33,0,0,0,.6-.13l.18.36a2.74,2.74,0,0,1-1.48.49,1.12,1.12,0,0,1-.78-.31,1.15,1.15,0,0,1-.35-.92l0-2V54L48,54h0Z"/><path class="cls-4" d="M52.2,56.13a3.05,3.05,0,0,1,.38-1.56,2.58,2.58,0,0,1,1-1,2.46,2.46,0,0,1,1.21-.34,2,2,0,0,1,1.73.8,2.58,2.58,0,0,1,.46,1.57.23.23,0,0,1-.26.26H53.36a2.8,2.8,0,0,0,.28,1.46,1.35,1.35,0,0,0,.64.58,2.29,2.29,0,0,0,.78.14,2.26,2.26,0,0,0,.83-.16,2.12,2.12,0,0,0,.74-.52l0,0,.29.38,0,0a3,3,0,0,1-.93.8,2.46,2.46,0,0,1-1.21.32,2.5,2.5,0,0,1-2-.82A2.88,2.88,0,0,1,52.2,56.13Zm1.23-.84h2.2c.09,0,.13,0,.13-.12a1.33,1.33,0,0,0-.54-1.2.84.84,0,0,0-.43-.14,1.32,1.32,0,0,0-.47.11,1.38,1.38,0,0,0-.53.43A2.13,2.13,0,0,0,53.43,55.29Z"/></g></g></svg>