<svg id="レイヤー_1" data-name="レイヤー 1" xmlns="http://www.w3.org/2000/svg" viewBox="0 0 122 78"><defs><style>.cls-1{fill:#fff;}.cls-2,.cls-6{fill:#037abc;}.cls-3,.cls-4,.cls-5{fill:none;}.cls-3,.cls-4,.cls-5,.cls-6{stroke:#037abc;stroke-linecap:round;stroke-linejoin:round;}.cls-4{stroke-width:1.02px;}.cls-5,.cls-6{stroke-width:0.75px;}</style></defs><rect class="cls-1" x="1.51" y="1.51" width="118.98" height="74.95"/><path class="cls-2" d="M119,3V75H3V3H119m3-3H0V78H122V0Z"/><rect class="cls-3" x="62.42" y="32.56" width="5.64" height="4.57"/><rect class="cls-3" x="68.07" y="32.56" width="5.64" height="4.57"/><rect class="cls-3" x="62.42" y="37.13" width="5.64" height="4.57"/><rect class="cls-3" x="68.07" y="37.13" width="5.64" height="4.57"/><rect class="cls-4" x="47.36" y="32.56" width="11.41" height="16.17"/><polygon class="cls-5" points="78.3 48.87 43.7 48.87 43.7 27 61 12.54 78.3 27 78.3 48.87"/><path class="cls-6" d="M38.13,30.7a2.86,2.86,0,0,1-2.16-1A2.6,2.6,0,0,1,36.32,26L59.19,7.66a2.92,2.92,0,0,1,3.62,0L85.68,26A2.6,2.6,0,0,1,86,29.74a2.91,2.91,0,0,1-4,.33L61,13.22,39.94,30.07A2.83,2.83,0,0,1,38.13,30.7Z"/><path class="cls-2" d="M36,58.77v8.35h-.79v-.61h-5v.65h-.76V58.77Zm-5.78.74v2.72h5V59.51Zm5,6.26V63h-5v2.81Z"/><path class="cls-2" d="M43.61,60.94A9.1,9.1,0,0,0,47.48,65a2.64,2.64,0,0,0-.55.65,9.89,9.89,0,0,1-3.78-4.11v3.09h1.91v.74H43.15v1.87h-.77V65.4h-2v-.74h2V61.57a10.43,10.43,0,0,1-3.77,4.12,3,3,0,0,0-.53-.6,9.6,9.6,0,0,0,3.83-4.15H38.42v-.75h4v-2.1h.77v2.1h4v.75Z"/><path class="cls-2" d="M50.29,59.61a23.6,23.6,0,0,0-.5,3.86,11.24,11.24,0,0,0,.09,1.41c.17-.46.41-1.06.58-1.47l.43.32A18.32,18.32,0,0,0,50.17,66a1.93,1.93,0,0,0-.05.45c0,.11,0,.25,0,.35l-.72,0a12.19,12.19,0,0,1-.38-3.23,28.42,28.42,0,0,1,.46-4,4.39,4.39,0,0,0,.07-.72l.89.09C50.42,59.11,50.33,59.43,50.29,59.61Zm2.35,5.13c0,.46.33.9,1.7.9a11.21,11.21,0,0,0,2.5-.26l0,.85a13.79,13.79,0,0,1-2.52.21c-1.69,0-2.45-.57-2.45-1.51a5.45,5.45,0,0,1,.17-1.19l.73.07A3.5,3.5,0,0,0,52.64,64.74Zm3.9-5v.82a23.85,23.85,0,0,1-4.14,0v-.81A17.36,17.36,0,0,0,56.54,59.7Z"/><path class="cls-2" d="M61.38,58.32a13.87,13.87,0,0,1-1,2.08v6.84h-.7V61.47a10.18,10.18,0,0,1-1.12,1.33,5,5,0,0,0-.42-.72,11.33,11.33,0,0,0,2.58-4Zm6.16,7.9v.71H61.05v-.71H64V63.7H61.64V63H64v-2.2H61.31v-.71h3.44a15,15,0,0,0-2.09-1.48l.49-.53a13.6,13.6,0,0,1,2.22,1.52l-.43.49h2.44v.71H64.71V63h2.38v.72H64.71v2.52Z"/><path class="cls-2" d="M72.28,59.3c0,.26-.08.61-.14,1a13.52,13.52,0,0,0,2-.14l0,.76c-.64.06-1.23.09-2,.09h-.07c-.07.59-.15,1.23-.22,1.82H72a14.85,14.85,0,0,0,2.09-.13l0,.77a18.3,18.3,0,0,1-2,.1h-.36c0,.4-.06.75-.06,1a1.47,1.47,0,0,0,1.69,1.58c1.53,0,2.51-.68,2.51-1.72a2.81,2.81,0,0,0-1.1-2l.88-.18a3.27,3.27,0,0,1,1,2.32c0,1.51-1.33,2.41-3.32,2.41-1.37,0-2.47-.59-2.47-2.24,0-.29,0-.69.08-1.16a10,10,0,0,1-2.1-.36l0-.78a9,9,0,0,0,2.14.41c.06-.59.14-1.23.22-1.82a13.92,13.92,0,0,1-2.16-.35l0-.74a10.63,10.63,0,0,0,2.2.38c.05-.41.09-.77.11-1.06a3.53,3.53,0,0,0,0-.72l.91.06A6.06,6.06,0,0,0,72.28,59.3Z"/><path class="cls-2" d="M83.55,61.71a9.53,9.53,0,0,0-2.75.5c-.31.1-.6.21-.84.31l-.27-.94a6.2,6.2,0,0,0,.93-.15,13.43,13.43,0,0,1,3-.48,2.23,2.23,0,0,1,2.5,2.24c0,2.18-2,3.41-4.57,3.8l-.46-.76c2.45-.31,4.17-1.27,4.17-3.07A1.52,1.52,0,0,0,83.55,61.71Zm1.77-2.62-.12.77c-1.12-.07-3.15-.27-4.29-.47l.13-.77A26.4,26.4,0,0,0,85.32,59.09Z"/><path class="cls-2" d="M88.66,65.89a.64.64,0,0,1,.64-.67.67.67,0,0,1,0,1.34A.63.63,0,0,1,88.66,65.89Zm.11-5.73,0-1.18h1.11l0,1.18-.21,3.91H89Z"/></svg>