<?xml version="1.0" encoding="utf-8"?>
<!-- Generator: Adobe Illustrator 26.0.1, SVG Export Plug-In . SVG Version: 6.00 Build 0)  -->
<svg version="1.1" id="レイヤー_1" xmlns="http://www.w3.org/2000/svg" xmlns:xlink="http://www.w3.org/1999/xlink" x="0px"
	 y="0px" viewBox="0 0 122 78" style="enable-background:new 0 0 122 78;" xml:space="preserve">
<style type="text/css">
	.st0{fill:#FFFFFF;}
	.st1{fill:#037ABC;}
</style>
<rect x="1.5" y="1.5" class="st0" width="119" height="74.9"/>
<path class="st1" d="M119,3v72H3V3H119 M122,0H0v78h122V0z"/>
<path class="st1" d="M36,58.8v8.4h-0.8v-0.6h-5v0.7h-0.8v-8.4H36z M30.2,59.5v2.7h5v-2.7L30.2,59.5z M35.2,65.8V63h-5v2.8L35.2,65.8
	z"/>
<path class="st1" d="M43.6,60.9c0.8,1.7,2.2,3.1,3.9,4.1c-0.2,0.2-0.4,0.4-0.5,0.7c-1.6-1-2.9-2.4-3.8-4.1v3.1h1.9v0.7h-1.9v1.9
	h-0.8v-1.8h-2v-0.7h2v-3.1c-0.9,1.7-2.2,3.1-3.8,4.1c-0.1-0.2-0.3-0.4-0.5-0.6c1.7-1,3-2.4,3.8-4.2h-3.5v-0.8h4v-2.1h0.8v2.1h4v0.8
	L43.6,60.9z"/>
<path class="st1" d="M50.3,59.6c-0.3,1.3-0.4,2.6-0.5,3.9c0,0.5,0,0.9,0.1,1.4c0.2-0.5,0.4-1.1,0.6-1.5l0.4,0.3
	c-0.3,0.7-0.5,1.5-0.7,2.3c0,0.1-0.1,0.3,0,0.4c0,0.1,0,0.2,0,0.3h-0.7c-0.3-1.1-0.4-2.1-0.4-3.2c0.1-1.3,0.2-2.7,0.5-4
	c0-0.2,0.1-0.5,0.1-0.7l0.9,0.1C50.4,59.1,50.3,59.4,50.3,59.6z M52.6,64.7c0,0.5,0.3,0.9,1.7,0.9c0.8,0,1.7-0.1,2.5-0.3v0.8
	c-0.8,0.1-1.7,0.2-2.5,0.2c-1.7,0-2.5-0.6-2.5-1.5c0-0.4,0.1-0.8,0.2-1.2l0.7,0.1C52.7,64.1,52.6,64.4,52.6,64.7z M56.5,59.7v0.8
	c-1.4,0.1-2.8,0.1-4.1,0v-0.8C53.8,59.9,55.2,59.9,56.5,59.7L56.5,59.7z"/>
<path class="st1" d="M61.4,58.3c-0.3,0.7-0.6,1.4-1,2.1v6.8h-0.7v-5.8c-0.3,0.5-0.7,0.9-1.1,1.3c-0.1-0.3-0.3-0.5-0.4-0.7
	c1.1-1.1,2-2.5,2.6-4L61.4,58.3z M67.5,66.2v0.7H61v-0.7h3v-2.5h-2.4V63H64v-2.2h-2.7v-0.7h3.4c-0.7-0.6-1.4-1-2.1-1.5l0.5-0.5
	c0.8,0.4,1.5,0.9,2.2,1.5l-0.4,0.5h2.4v0.7h-2.7V63h2.4v0.7h-2.4v2.5L67.5,66.2z"/>
<path class="st1" d="M72.3,59.3c0,0.3-0.1,0.6-0.1,1c0.7,0,1.3,0,2-0.1v0.8c-0.6,0.1-1.2,0.1-2,0.1h-0.1c-0.1,0.6-0.2,1.2-0.2,1.8
	H72c0.7,0,1.4,0,2.1-0.1v0.8c-0.7,0.1-1.3,0.1-2,0.1h-0.4c0,0.4-0.1,0.7-0.1,1c-0.1,0.8,0.5,1.5,1.3,1.6c0.1,0,0.2,0,0.4,0
	c1.5,0,2.5-0.7,2.5-1.7c-0.1-0.8-0.5-1.5-1.1-2l0.9-0.2c0.6,0.6,1,1.4,1,2.3c0,1.5-1.3,2.4-3.3,2.4c-1.4,0-2.5-0.6-2.5-2.2
	c0-0.3,0-0.7,0.1-1.2c-0.7,0-1.4-0.2-2.1-0.4v-0.8c0.7,0.2,1.4,0.4,2.1,0.4c0.1-0.6,0.1-1.2,0.2-1.8c-0.7-0.1-1.5-0.2-2.2-0.3v-0.7
	c0.7,0.2,1.5,0.3,2.2,0.4c0.1-0.4,0.1-0.8,0.1-1.1c0-0.2,0-0.5,0-0.7l0.9,0.1C72.3,58.8,72.3,59.1,72.3,59.3z"/>
<path class="st1" d="M83.6,61.7c-0.9,0-1.9,0.2-2.8,0.5c-0.3,0.1-0.6,0.2-0.8,0.3l-0.3-0.9c0.3,0,0.6-0.1,0.9-0.2c1-0.3,2-0.4,3-0.5
	c1.2-0.1,2.3,0.7,2.5,1.9c0,0.1,0,0.2,0,0.3c0,2.2-2,3.4-4.6,3.8l-0.5-0.8c2.4-0.3,4.2-1.3,4.2-3.1c0-0.8-0.7-1.5-1.6-1.5
	C83.6,61.7,83.6,61.7,83.6,61.7z M85.3,59.1l-0.1,0.8c-1.1-0.1-3.2-0.3-4.3-0.5l0.1-0.8C82.5,58.9,83.9,59.1,85.3,59.1z"/>
<path class="st1" d="M88.7,65.9c0-0.4,0.3-0.7,0.6-0.7c0,0,0,0,0,0c0.4,0,0.7,0.3,0.7,0.7c0,0.4-0.3,0.7-0.7,0.7
	C89,66.6,88.7,66.3,88.7,65.9C88.7,65.9,88.7,65.9,88.7,65.9z M88.8,60.2V59h1.1v1.2l-0.2,3.9H89L88.8,60.2z"/>
<path class="st1" d="M43.8,37.8c-0.1-1.6-1.4-2.9-3-3c0-0.1,0-0.3,0-0.4c0-0.8-0.4-1.6-1.1-2.1c0.2-0.4,0.3-0.8,0.3-1.2
	c-0.2-1.8-1.8-3.1-3.6-3c-0.5,0-1.1,0.1-1.6,0.3c-0.7-1.2-1.9-1.9-3.3-1.8c-1.7-0.1-3.3,1.1-3.5,2.8c-0.4-0.1-0.9-0.2-1.3-0.2
	c-1.8-0.1-3.4,1.2-3.6,3c0,0.3,0.1,0.6,0.1,0.8c-1.5,0.2-2.6,1.4-2.7,2.9c0.1,1.7,1.5,2.9,3.1,3c-0.1,0.3-0.1,0.5-0.1,0.8
	c0.1,1.3,1,2.4,2.2,2.8c0.3,1.7,1.8,3,3.5,2.8c0.4,0,0.8-0.1,1.2-0.2c0.7,0.8,1.8,1.3,2.9,1.3c1.7,0.1,3.2-1.1,3.5-2.7h0.2
	c1.8,0.1,3.4-1.2,3.6-3l0,0C42.4,40.7,43.7,39.4,43.8,37.8z"/>
<rect x="31.6" y="45" class="st1" width="1.4" height="8.5"/>
<rect x="31.3" y="46.5" transform="matrix(0.5481 -0.8364 0.8364 0.5481 -23.7628 49.4219)" class="st1" width="5.2" height="0.4"/>
<rect x="30.5" y="43.5" transform="matrix(0.842 -0.5395 0.5395 0.842 -20.3139 23.9669)" class="st1" width="0.5" height="6.2"/>
<rect x="38.1" y="16.4" class="st0" width="21.8" height="36.8"/>
<path class="st1" d="M59.5,16.8v36h-21v-36H59.5 M60.3,16H37.8v37.5h22.5V16z"/>
<rect x="62" y="22.5" class="st0" width="21.8" height="30.6"/>
<path class="st1" d="M83.5,22.9v29.9H62.4V22.9H83.5 M84.2,22.2H61.7v31.3h22.5V22.2z"/>
<path class="st1" d="M101.4,37.8c-0.1-1.6-1.4-2.9-3-3c0-0.1,0-0.3,0-0.4c0-0.8-0.4-1.6-1.1-2.1c0.2-0.4,0.3-0.8,0.3-1.2
	c-0.2-1.8-1.7-3.1-3.6-3c-0.5,0-1.1,0.1-1.6,0.3c-0.7-1.2-1.9-1.9-3.3-1.8c-1.7-0.1-3.3,1.1-3.6,2.8c-0.4-0.1-0.9-0.2-1.3-0.2
	c-1.8-0.1-3.4,1.2-3.6,3c0,0.3,0.1,0.6,0.2,0.8c-1.5,0.2-2.7,1.5-2.8,3c0.1,1.7,1.5,2.9,3.1,3c-0.1,0.3-0.1,0.5-0.1,0.8
	c0.1,1.3,1,2.4,2.3,2.8c0.3,1.7,1.8,2.9,3.5,2.8c0.4,0,0.8-0.1,1.2-0.2c0.7,0.8,1.8,1.3,2.9,1.3c1.7,0.1,3.2-1,3.5-2.6h0.2
	c1.8,0.1,3.4-1.2,3.6-3l0,0C100,40.7,101.3,39.4,101.4,37.8z"/>
<rect x="89.2" y="45" class="st1" width="1.4" height="8.5"/>
<rect x="88.9" y="46.5" transform="matrix(0.5481 -0.8364 0.8364 0.5481 2.2901 97.6363)" class="st1" width="5.2" height="0.4"/>
<rect x="88.1" y="43.5" transform="matrix(0.842 -0.5395 0.5395 0.842 -11.2086 55.0601)" class="st1" width="0.5" height="6.2"/>
<rect x="45.8" y="47.4" class="st0" width="3" height="5.6"/>
<path class="st1" d="M48.4,47.9v4.6h-2v-4.6H48.4 M49.4,46.9h-4v6.6h4V46.9L49.4,46.9z"/>
<rect x="48.8" y="47.4" class="st0" width="3" height="5.6"/>
<path class="st1" d="M51.3,47.9v4.6h-2v-4.6H51.3 M52.3,46.9h-4v6.6h4V46.9L52.3,46.9z"/>
<rect x="70" y="47.4" class="st0" width="3" height="5.6"/>
<path class="st1" d="M72.5,47.9v4.6h-2v-4.6H72.5 M73.5,46.9h-4v6.6h4V46.9L73.5,46.9z"/>
<rect x="72.9" y="47.4" class="st0" width="3" height="5.6"/>
<path class="st1" d="M75.5,47.9v4.6h-2v-4.6H75.5 M76.5,46.9h-4v6.6h4V46.9L76.5,46.9z"/>
<rect x="63.8" y="25.1" class="st1" width="2.4" height="3.8"/>
<rect x="67.2" y="25.1" class="st1" width="2.4" height="3.8"/>
<rect x="67.2" y="30.5" class="st1" width="2.4" height="3.8"/>
<rect x="70.7" y="25.1" class="st1" width="2.4" height="3.8"/>
<rect x="63.8" y="30.5" class="st1" width="2.4" height="3.8"/>
<rect x="63.8" y="36" class="st1" width="2.4" height="3.8"/>
<rect x="74.3" y="25.1" class="st1" width="2.4" height="3.8"/>
<rect x="40.2" y="18.7" class="st1" width="2.4" height="3.8"/>
<rect x="43.7" y="18.7" class="st1" width="2.4" height="3.8"/>
<rect x="43.7" y="24.1" class="st1" width="2.4" height="3.8"/>
<rect x="47.2" y="18.7" class="st1" width="2.4" height="3.8"/>
<rect x="40.2" y="24.1" class="st1" width="2.4" height="3.8"/>
<rect x="40.2" y="29.6" class="st1" width="2.4" height="3.8"/>
<rect x="50.8" y="18.7" class="st1" width="2.4" height="3.8"/>
</svg>
