<svg id="レイヤー_1" data-name="レイヤー 1" xmlns="http://www.w3.org/2000/svg" viewBox="0 0 122 78"><defs><style>.cls-1{fill:#fff;}.cls-2{fill:#037abc;}</style></defs><rect class="cls-1" y="0.03" width="122" height="77.97"/><path class="cls-2" d="M119,3.05V75H3V3.05H119m3-3H0V78H122V0Z"/><path class="cls-2" d="M65.9,31.11a.78.78,0,0,0-.85-.69c-5.4,0-9.79-6-9.79-13.43a.88.88,0,0,0-1.72,0c0,7.41-4.39,13.43-9.79,13.43a.71.71,0,1,0,0,1.39c5.4,0,9.79,6,9.79,13.42a.88.88,0,0,0,1.72,0c0-7.4,4.39-13.42,9.79-13.42A.78.78,0,0,0,65.9,31.11Z"/><path class="cls-2" d="M78.5,41.54c-3.78,0-6.86-4.23-6.86-9.42a.62.62,0,0,0-1.2,0c0,5.19-3.08,9.42-6.86,9.42A.54.54,0,0,0,63,42a.55.55,0,0,0,.6.49c3.78,0,6.86,4.22,6.86,9.41a.61.61,0,0,0,1.2,0c0-5.19,3.08-9.41,6.86-9.41a.55.55,0,0,0,.6-.49A.55.55,0,0,0,78.5,41.54Z"/><path class="cls-2" d="M61.24,20.11c3.13,0,5.68,3.49,5.68,7.79a.51.51,0,0,0,1,0c0-4.3,2.55-7.79,5.68-7.79a.41.41,0,1,0,0-.81c-3.13,0-5.68-3.49-5.68-7.79a.51.51,0,0,0-1,0c0,4.3-2.55,7.79-5.68,7.79a.41.41,0,1,0,0,.81Z"/><path class="cls-2" d="M30,60.24a12.67,12.67,0,0,1-1.7,2.95,28.09,28.09,0,0,1,2.94,3l-.7.61a22.77,22.77,0,0,0-2.77-3,12.86,12.86,0,0,1-3.93,2.94l-.64-.68a11.48,11.48,0,0,0,4.15-3,8.81,8.81,0,0,0,1.67-2.8H25.12c-.35,0-.91,0-1,.05v-.91c.15,0,.72.06,1,.06H29a2.74,2.74,0,0,0,.75-.08l.52.39A2.87,2.87,0,0,0,30,60.24Z"/><path class="cls-2" d="M36.05,58.73l.91-.16c0,.19.06.47.09.7s.09.52.21,1.08L39.58,60a6,6,0,0,0,.72-.17l.17.84-.72.11-2.35.37c.13.62.27,1.34.4,2,1-.16,2-.33,2.48-.42s.67-.13.9-.19l.16.84c-.22,0-.54.07-.91.14L38,63.88c.2,1,.37,1.79.42,2s.15.64.24.92l-.92.17c0-.34-.08-.65-.15-.95s-.2-1-.39-2l-2.71.46c-.4.07-.68.12-.89.18l-.18-.87c.23,0,.63-.05.89-.09L37,63.26c-.14-.68-.29-1.4-.41-2l-2.21.36-.82.17-.17-.9c.25,0,.51,0,.84-.07s1.27-.18,2.21-.33c-.11-.54-.18-.93-.21-1A4.5,4.5,0,0,0,36.05,58.73Z"/><path class="cls-2" d="M44.78,63.8a18.12,18.12,0,0,0,.3-4A3.79,3.79,0,0,0,45,59h.93c0,.12,0,.43,0,.73A22.19,22.19,0,0,1,45.58,64a5.66,5.66,0,0,1-1.79,2.77L43,66.27A4.73,4.73,0,0,0,44.78,63.8Zm2.93,2v-6a4.93,4.93,0,0,0-.06-.75h.93a6.43,6.43,0,0,0,0,.75v5.81a7.78,7.78,0,0,0,2.94-2.48l.47.69a10.09,10.09,0,0,1-3.43,2.79,2.14,2.14,0,0,0-.34.23l-.54-.44A2.54,2.54,0,0,0,47.71,65.76Z"/><path class="cls-2" d="M56.78,59.74a24.92,24.92,0,0,0,3.07-.31v.74a29.48,29.48,0,0,1-3.34.28A8.28,8.28,0,0,1,55.59,62a2.9,2.9,0,0,1,1.4-.37,1.3,1.3,0,0,1,1.35.91c.68-.33,1.3-.58,1.82-.82.3-.13.55-.24.83-.39l.33.75c-.26.08-.62.22-.9.33-.56.21-1.28.5-2,.86,0,.59,0,1.44,0,1.94h-.78c0-.39,0-1,0-1.57-.93.49-1.59,1-1.59,1.69s.79.9,1.83.9A18.17,18.17,0,0,0,60.65,66l0,.81a23.67,23.67,0,0,1-2.75.18c-1.44,0-2.6-.31-2.6-1.54s1.2-1.94,2.37-2.55a.83.83,0,0,0-.91-.62A2.64,2.64,0,0,0,55,63a11.65,11.65,0,0,0-.92,1.05l-.69-.5a10.56,10.56,0,0,0,2.33-3.09h-.44c-.44,0-1.1,0-1.65-.06v-.75a14.66,14.66,0,0,0,1.7.11H56a5.2,5.2,0,0,0,.25-1.26l.83.07A10.29,10.29,0,0,1,56.78,59.74Z"/><path class="cls-2" d="M64.35,62.09a11.85,11.85,0,0,1-.92,5.24,2.81,2.81,0,0,0-.6-.42,10.79,10.79,0,0,0,.82-4.82V59h3.8v-.87h.77V59H72v.67H64.35Zm.35,1.11H72v.61H67.8a5.94,5.94,0,0,1-.73.89h4.46v2.59h-.75V67H66.87v.31h-.71V65.54a9.88,9.88,0,0,1-1.5.94,4,4,0,0,0-.43-.55A7.13,7.13,0,0,0,67,63.81H64.7Zm1.56-.32v-1.3a5.58,5.58,0,0,1-1.35,1.17,2.12,2.12,0,0,0-.4-.45A4.53,4.53,0,0,0,66,61.06H64.79V60.5h1.47v-.71h.6v.71h1.35v.56H66.86v.09c.29.15,1.15.66,1.37.81l-.39.49c-.18-.17-.63-.51-1-.77v1.2Zm4.52,2.38H66.87v1.16h3.91Zm-1-2.34V61.56a5.18,5.18,0,0,1-1.36,1.19,2.38,2.38,0,0,0-.39-.45,4.63,4.63,0,0,0,1.53-1.24H68.52V60.5h1.31v-.71h.62v.71H72v.56H70.67a5.55,5.55,0,0,0,1.52,1.19,2.76,2.76,0,0,0-.44.46,6.54,6.54,0,0,1-1.3-1.16v1.37Z"/><path class="cls-2" d="M75.14,64.67c0,.77.79,1.3,2.4,1.3a12.25,12.25,0,0,0,3.44-.4v.87a14.35,14.35,0,0,1-3.43.35c-2,0-3.24-.68-3.24-2a6.52,6.52,0,0,1,.22-1.4l.81.09A3.68,3.68,0,0,0,75.14,64.67Zm2.47-5.07c1,0,2-.07,2.72-.14v.82c-.69,0-1.79.12-2.72.12s-1.87,0-2.66-.11v-.82A22.59,22.59,0,0,0,77.61,59.6Z"/><path class="cls-2" d="M88.18,61.73a9.15,9.15,0,0,0-2.75.51c-.31.1-.6.21-.84.31l-.26-.94a6.28,6.28,0,0,0,.92-.15,13.53,13.53,0,0,1,3-.48,2.23,2.23,0,0,1,2.5,2.23c0,2.19-2,3.42-4.57,3.81l-.45-.77c2.44-.3,4.17-1.26,4.17-3.07A1.53,1.53,0,0,0,88.18,61.73ZM90,59.11l-.13.78c-1.11-.07-3.15-.27-4.29-.47l.14-.77A27.25,27.25,0,0,0,90,59.11Z"/><path class="cls-2" d="M94.1,65.92a.64.64,0,1,1,.64.67A.63.63,0,0,1,94.1,65.92Zm.11-5.73,0-1.19h1.1l0,1.19-.2,3.91h-.66Z"/></svg>