<svg id="レイヤー_1" data-name="レイヤー 1" xmlns="http://www.w3.org/2000/svg" viewBox="0 0 122 78"><defs><style>.cls-1,.cls-5,.cls-6{fill:#fff;}.cls-2,.cls-4{fill:#037abc;}.cls-3{fill:none;}.cls-3,.cls-4,.cls-5,.cls-6{stroke:#037abc;stroke-linecap:round;stroke-linejoin:round;}.cls-3,.cls-4,.cls-5{stroke-width:1.05px;}.cls-6{stroke-width:0.88px;}</style></defs><rect class="cls-1" x="1.51" y="1.51" width="118.98" height="74.95"/><path class="cls-2" d="M119,3V75H3V3H119m3-3H0V78H122V0Z"/><rect class="cls-3" x="39.18" y="17.31" width="41.68" height="26.85"/><line class="cls-3" x1="44.05" y1="22.94" x2="75.88" y2="22.94"/><line class="cls-3" x1="44.05" y1="28.16" x2="75.88" y2="28.16"/><line class="cls-3" x1="44.05" y1="33.37" x2="62.87" y2="33.37"/><line class="cls-3" x1="44.05" y1="38.59" x2="62.87" y2="38.59"/><polygon class="cls-4" points="71.95 50.25 70.47 46.13 66.83 48.55 70.61 37.11 75.74 38.8 71.95 50.25"/><polygon class="cls-4" points="77.14 50.25 78.62 46.13 82.26 48.55 78.47 37.11 73.35 38.8 77.14 50.25"/><circle class="cls-5" cx="74.83" cy="35.68" r="7.99"/><circle class="cls-6" cx="74.89" cy="35.68" r="5.08"/><path class="cls-2" d="M26.3,61.06v.72H20.81a13.2,13.2,0,0,1-1.22,2v4.82h-.73V64.72a8,8,0,0,1-1.17,1,2.8,2.8,0,0,0-.39-.67A8.68,8.68,0,0,0,20,61.78H17.55v-.72H20.3a13.66,13.66,0,0,0,.53-1.56l.76.19c-.13.45-.3.92-.48,1.37Zm-2.66,6.7H26.3v.7H20.25v-.7h2.64V64.93H20.64v-.71h2.25V62.3h.75v1.92h2.27v.71H23.64Z"/><path class="cls-2" d="M31.26,63.67a3,3,0,0,0-.23-.49l-3.43.92-.2-.71.88-.21-.1-3.06.65.19a14.33,14.33,0,0,0,2.3-.77l.52.54a15.54,15.54,0,0,1-2.72.79L29,63l1.66-.41a8.43,8.43,0,0,0-.73-.92l.59-.31a6.89,6.89,0,0,1,1.38,2Zm-2.53.83h6.6v4.15H34.6v-.32H29.43v.36h-.7Zm.7.62v1h2.19v-1Zm2.19,2.59v-1H29.43v1Zm4.54-7.65s0,.2,0,.32c-.1,2.18-.19,3-.44,3.26a.85.85,0,0,1-.6.28,11,11,0,0,1-1.13,0,1.74,1.74,0,0,0-.2-.66c.43,0,.85,0,1,0s.24,0,.32-.1a6.9,6.9,0,0,0,.31-2.49H33.88c-.17,1.6-.61,2.83-2.1,3.51a1.56,1.56,0,0,0-.44-.53,3.17,3.17,0,0,0,1.84-3H32v-.64ZM34.6,65.12H32.32v1H34.6Zm0,2.59v-1H32.32v1Z"/><path class="cls-2" d="M40.43,62.18,37.82,63l-.29-.65c.72-.17,1.78-.47,2.81-.76Zm.8,5.34a14.51,14.51,0,0,1-3.08,1.2,5.78,5.78,0,0,0-.55-.56,11.1,11.1,0,0,0,2.95-1Zm-1.1-6.44A12.8,12.8,0,0,0,38,60.23l.34-.51a12,12,0,0,1,2.1.78Zm-1.26,2h6.51v4H38.87Zm.72,1.18h5v-.67h-5Zm0,1.18h5v-.69h-5Zm0,1.19h5v-.71h-5Zm2.33-5.8a5,5,0,0,1-.9.87,1.88,1.88,0,0,0-.56-.37A4.32,4.32,0,0,0,42,59.5l.68.11a6.47,6.47,0,0,1-.35.62h3.45l.12,0,.5.16a6.75,6.75,0,0,1-1,1.43l-.6-.22a4.06,4.06,0,0,0,.61-.77H43.77c.23.77.79,1.51,2.85,1.81a2,2,0,0,0-.38.61c-1.71-.31-2.45-.95-2.82-1.68A3.27,3.27,0,0,1,40.85,63a2,2,0,0,0-.35-.53c1.64-.29,2.25-.8,2.49-1.71Zm1.59,6.42c1.09.36,2.29.79,3,1.12l-.82.37a22.38,22.38,0,0,0-2.81-1.1Z"/><path class="cls-2" d="M56,60.77a7.16,7.16,0,0,1-1.62,2.64,7.36,7.36,0,0,0,2.51,1.35,3.26,3.26,0,0,0-.47.62L56,65.2v3.46h-.7v-.4H52.45v.44h-.69V65.27a7.75,7.75,0,0,1-.79.33,2.13,2.13,0,0,0-.43-.6,8.3,8.3,0,0,0,2.85-1.59,8.09,8.09,0,0,1-1-1.41,8.47,8.47,0,0,1-1,1.06,3.7,3.7,0,0,0-.6-.5l.26-.21H49.87v.45c.29.32,1.08,1.29,1.27,1.53l-.45.59c-.16-.29-.51-.83-.82-1.26v5h-.72V63.93a10.33,10.33,0,0,1-1.34,2.88,3.37,3.37,0,0,0-.39-.66,10.81,10.81,0,0,0,1.65-3.8H47.65v-.7h1.5V59.5h.72v2.15h1.3v.56A7.7,7.7,0,0,0,53,59.49l.72.2c-.12.3-.26.6-.41.89h2.16l.13,0ZM55.59,65a7.15,7.15,0,0,1-1.69-1.14A9.53,9.53,0,0,1,52.25,65Zm-.33,2.58V65.67H52.45v1.94Zm-2.5-6.2a6.22,6.22,0,0,0,1.13,1.53,6.4,6.4,0,0,0,1.19-1.71h-2.2Z"/><path class="cls-2" d="M61.8,60.41c0,.21-.08.47-.12.76a20.29,20.29,0,0,0,3.54-.43v.74a32.31,32.31,0,0,1-3.63.39c-.05.39-.08.81-.11,1.23a6.53,6.53,0,0,1,1.69-.25h.38l0-.1a2.71,2.71,0,0,0,.11-.58l.79.2c-.06.14-.15.41-.2.57,0,0,0,0,0,0a2.47,2.47,0,0,1,2,2.37c0,1.45-1,2.7-3.3,3.07l-.43-.67c1.82-.19,3-1.13,3-2.44a1.82,1.82,0,0,0-1.45-1.72,8.26,8.26,0,0,1-2.25,3.27c.08.29.16.57.25.82l-.73.22a5.71,5.71,0,0,1-.16-.57,3.39,3.39,0,0,1-1.71.56,1.14,1.14,0,0,1-1.19-1.27,4,4,0,0,1,2.52-3.26c0-.51.07-1,.11-1.48h-.62c-.43,0-1.22,0-1.63-.07l0-.76a14,14,0,0,0,1.66.13H61c0-.29.06-.55.08-.77a4.63,4.63,0,0,0,0-.49l.84,0A3.09,3.09,0,0,0,61.8,60.41Zm-2.19,6.71A2.56,2.56,0,0,0,61,66.59a12.35,12.35,0,0,1-.24-2.29v-.18A3.19,3.19,0,0,0,59,66.5C59,66.91,59.23,67.12,59.61,67.12Zm2-1.05a6.62,6.62,0,0,0,1.71-2.58h-.17a5,5,0,0,0-1.7.32c0,.14,0,.27,0,.41A11,11,0,0,0,61.63,66.07Z"/><path class="cls-2" d="M70.15,59.93l.95,0c0,.25-.13.82-.2,1.52l.06,0,.29.36c-.13.18-.3.45-.45.7s0,.38,0,.58a5.72,5.72,0,0,1,3.1-1.7,1.25,1.25,0,0,1,1.4,1.35c0,1-.37,2.74-.37,3.77,0,.33.16.61.52.61a2.23,2.23,0,0,0,1.52-.83l.13.86A2.59,2.59,0,0,1,75.2,68c-.67,0-1.12-.43-1.12-1.27,0-1.12.38-2.77.38-3.76a.72.72,0,0,0-.81-.82c-.82,0-2,.94-3,1.93,0,.42,0,.83,0,1.19,0,.92,0,1.53,0,2.43,0,.18,0,.43,0,.61h-.88c0-.18,0-.43,0-.59,0-1,0-1.48,0-2.58,0-.1,0-.24,0-.4-.49.74-1.16,1.7-1.64,2.38l-.51-.69c.56-.71,1.73-2.28,2.23-3.06,0-.34,0-.68.07-1l-2,.27L68,61.82c.22,0,.41,0,.65,0a12.33,12.33,0,0,0,1.45-.18c0-.47,0-.84,0-1A4.91,4.91,0,0,0,70.15,59.93Z"/><path class="cls-2" d="M79.87,66.07c0,.76.79,1.29,2.4,1.29a12.25,12.25,0,0,0,3.44-.4v.87a14.35,14.35,0,0,1-3.43.35c-2,0-3.23-.67-3.23-1.94a6.35,6.35,0,0,1,.21-1.4l.81.08A3.69,3.69,0,0,0,79.87,66.07ZM82.34,61c1,0,2-.07,2.72-.14v.82c-.68.06-1.78.13-2.72.13s-1.86,0-2.66-.11v-.83A22.71,22.71,0,0,0,82.34,61Z"/><path class="cls-2" d="M90.3,59.93l1,0A14.47,14.47,0,0,0,91,61.48l.06,0,.3.36a7.75,7.75,0,0,0-.46.7c0,.19,0,.38,0,.58.79-.72,2.09-1.7,3.1-1.7a1.25,1.25,0,0,1,1.4,1.35c0,1-.37,2.74-.37,3.77,0,.33.16.61.52.61a2.25,2.25,0,0,0,1.53-.83l.13.86a2.61,2.61,0,0,1-1.86.84c-.66,0-1.11-.43-1.11-1.27,0-1.12.38-2.77.38-3.76a.72.72,0,0,0-.82-.82c-.81,0-2,.94-3,1.93,0,.42,0,.83,0,1.19,0,.92,0,1.53,0,2.43,0,.18,0,.43,0,.61H90c0-.18,0-.43,0-.59,0-1,0-1.48,0-2.58,0-.1,0-.24,0-.4-.5.74-1.16,1.7-1.64,2.38l-.52-.69c.57-.71,1.73-2.28,2.24-3.06,0-.34,0-.68.07-1l-2,.27-.08-.82c.23,0,.42,0,.66,0a12.86,12.86,0,0,0,1.45-.18c0-.47,0-.84,0-1A4.91,4.91,0,0,0,90.3,59.93Z"/><path class="cls-2" d="M99.43,67.31a.65.65,0,0,1,.65-.67.67.67,0,1,1-.65.67Zm.11-5.73,0-1.18h1.11l0,1.18-.2,3.91h-.66Z"/></svg>