<svg id="レイヤー_1" data-name="レイヤー 1" xmlns="http://www.w3.org/2000/svg" viewBox="0 0 122 78"><defs><style>.cls-1{fill:#fff;}.cls-2{fill:#037abc;}</style></defs><rect class="cls-1" x="1.51" y="1.51" width="118.98" height="74.95"/><path class="cls-2" d="M119,3V75H3V3H119m3-3H0V78H122V0Z"/><path class="cls-2" d="M36,58.77v8.35h-.79v-.61h-5v.65h-.76V58.77Zm-5.78.74v2.72h5V59.51Zm5,6.26V63h-5v2.81Z"/><path class="cls-2" d="M43.61,60.94A9.1,9.1,0,0,0,47.48,65a2.64,2.64,0,0,0-.55.65,9.89,9.89,0,0,1-3.78-4.11v3.09h1.91v.74H43.15v1.87h-.77V65.4h-2v-.74h2V61.57a10.43,10.43,0,0,1-3.77,4.12,3,3,0,0,0-.53-.6,9.6,9.6,0,0,0,3.83-4.15H38.42v-.75h4v-2.1h.77v2.1h4v.75Z"/><path class="cls-2" d="M50.29,59.61a23.6,23.6,0,0,0-.5,3.86,11.24,11.24,0,0,0,.09,1.41c.17-.46.41-1.06.58-1.47l.43.32A18.32,18.32,0,0,0,50.17,66a1.93,1.93,0,0,0-.05.45c0,.11,0,.25,0,.35l-.72,0a12.19,12.19,0,0,1-.38-3.23,28.42,28.42,0,0,1,.46-4,4.39,4.39,0,0,0,.07-.72l.89.09C50.42,59.11,50.33,59.43,50.29,59.61Zm2.35,5.13c0,.46.33.9,1.7.9a11.21,11.21,0,0,0,2.5-.26l0,.85a13.79,13.79,0,0,1-2.52.21c-1.69,0-2.45-.57-2.45-1.51a5.45,5.45,0,0,1,.17-1.19l.73.07A3.5,3.5,0,0,0,52.64,64.74Zm3.9-5v.82a23.85,23.85,0,0,1-4.14,0v-.81A17.36,17.36,0,0,0,56.54,59.7Z"/><path class="cls-2" d="M61.38,58.32a13.87,13.87,0,0,1-1,2.08v6.84h-.7V61.47a10.18,10.18,0,0,1-1.12,1.33,5,5,0,0,0-.42-.72,11.33,11.33,0,0,0,2.58-4Zm6.16,7.9v.71H61.05v-.71H64V63.7H61.64V63H64v-2.2H61.31v-.71h3.44a15,15,0,0,0-2.09-1.48l.49-.53a13.6,13.6,0,0,1,2.22,1.52l-.43.49h2.44v.71H64.71V63h2.38v.72H64.71v2.52Z"/><path class="cls-2" d="M72.28,59.3c0,.26-.08.61-.14,1a13.52,13.52,0,0,0,2-.14l0,.76c-.64.06-1.23.09-2,.09h-.07c-.07.59-.15,1.23-.22,1.82H72a14.85,14.85,0,0,0,2.09-.13l0,.77a18.3,18.3,0,0,1-2,.1h-.36c0,.4-.06.75-.06,1a1.47,1.47,0,0,0,1.69,1.58c1.53,0,2.51-.68,2.51-1.72a2.81,2.81,0,0,0-1.1-2l.88-.18a3.27,3.27,0,0,1,1,2.32c0,1.51-1.33,2.41-3.32,2.41-1.37,0-2.47-.59-2.47-2.24,0-.29,0-.69.08-1.16a10,10,0,0,1-2.1-.36l0-.78a9,9,0,0,0,2.14.41c.06-.59.14-1.23.22-1.82a13.92,13.92,0,0,1-2.16-.35l0-.74a10.63,10.63,0,0,0,2.2.38c.05-.41.09-.77.11-1.06a3.53,3.53,0,0,0,0-.72l.91.06A6.06,6.06,0,0,0,72.28,59.3Z"/><path class="cls-2" d="M83.55,61.71a9.53,9.53,0,0,0-2.75.5c-.31.1-.6.21-.84.31l-.27-.94a6.2,6.2,0,0,0,.93-.15,13.43,13.43,0,0,1,3-.48,2.23,2.23,0,0,1,2.5,2.24c0,2.18-2,3.41-4.57,3.8l-.46-.76c2.45-.31,4.17-1.27,4.17-3.07A1.52,1.52,0,0,0,83.55,61.71Zm1.77-2.62-.12.77c-1.12-.07-3.15-.27-4.29-.47l.13-.77A26.4,26.4,0,0,0,85.32,59.09Z"/><path class="cls-2" d="M88.66,65.89a.64.64,0,0,1,.64-.67.67.67,0,0,1,0,1.34A.63.63,0,0,1,88.66,65.89Zm.11-5.73,0-1.18h1.11l0,1.18-.21,3.91H89Z"/><path class="cls-2" d="M43.78,37.82a3.21,3.21,0,0,0-3-3,2.85,2.85,0,0,0,0-.41,2.77,2.77,0,0,0-1.07-2.14A2.62,2.62,0,0,0,40,31.09a3.31,3.31,0,0,0-3.56-3,4.14,4.14,0,0,0-1.59.32,3.65,3.65,0,0,0-3.27-1.81,3.35,3.35,0,0,0-3.55,2.83,4.06,4.06,0,0,0-1.32-.21,3.32,3.32,0,0,0-3.56,3,2.89,2.89,0,0,0,.14.83A3.15,3.15,0,0,0,20.57,36a3.23,3.23,0,0,0,3.12,3,2.54,2.54,0,0,0-.12.78,3.05,3.05,0,0,0,2.25,2.78,3.35,3.35,0,0,0,3.55,2.83,4.17,4.17,0,0,0,1.19-.17,3.77,3.77,0,0,0,2.93,1.29A3.39,3.39,0,0,0,37,43.8h.22a3.32,3.32,0,0,0,3.56-3s0,0,0,0A3.21,3.21,0,0,0,43.78,37.82Z"/><rect class="cls-2" x="31.6" y="45.04" width="1.4" height="8.46"/><rect class="cls-2" x="33.65" y="44.12" width="0.42" height="5.17" transform="translate(31.14 -10.92) rotate(33.24)"/><rect class="cls-2" x="30.48" y="43.55" width="0.54" height="6.23" transform="translate(-20.31 23.96) rotate(-32.65)"/><rect class="cls-1" x="38.13" y="16.37" width="21.77" height="36.75"/><path class="cls-2" d="M59.53,16.75v36h-21v-36h21m.75-.75H37.76V53.5H60.28V16Z"/><rect class="cls-1" x="62.05" y="22.54" width="21.8" height="30.6"/><path class="cls-2" d="M83.49,22.9V52.78H62.41V22.9H83.49m.72-.72H61.69V53.5H84.21V22.18Z"/><path class="cls-2" d="M101.43,37.82a3.21,3.21,0,0,0-3-3,1.9,1.9,0,0,0,0-.41,2.77,2.77,0,0,0-1.07-2.14,2.51,2.51,0,0,0,.32-1.23,3.31,3.31,0,0,0-3.55-3,4.15,4.15,0,0,0-1.6.32,3.63,3.63,0,0,0-3.27-1.81,3.35,3.35,0,0,0-3.55,2.83,4,4,0,0,0-1.31-.21,3.31,3.31,0,0,0-3.56,3A2.58,2.58,0,0,0,81,33,3.15,3.15,0,0,0,78.22,36a3.23,3.23,0,0,0,3.12,3,2.55,2.55,0,0,0-.13.78,3.06,3.06,0,0,0,2.26,2.78A3.35,3.35,0,0,0,87,45.31a4.16,4.16,0,0,0,1.18-.17,3.81,3.81,0,0,0,2.93,1.29,3.41,3.41,0,0,0,3.53-2.63h.22a3.31,3.31,0,0,0,3.55-3v0A3.21,3.21,0,0,0,101.43,37.82Z"/><rect class="cls-2" x="89.25" y="45.04" width="1.4" height="8.46"/><rect class="cls-2" x="91.29" y="44.12" width="0.42" height="5.17" transform="translate(40.58 -42.52) rotate(33.24)"/><rect class="cls-2" x="88.12" y="43.55" width="0.54" height="6.23" transform="translate(-11.21 55.06) rotate(-32.65)"/><rect class="cls-1" x="45.84" y="47.41" width="3.02" height="5.59"/><path class="cls-2" d="M48.37,47.91v4.6h-2v-4.6h2m1-1h-4V53.5h4V46.92Z"/><rect class="cls-1" x="48.8" y="47.41" width="3.02" height="5.59"/><path class="cls-2" d="M51.32,47.91v4.6h-2v-4.6h2m1-1h-4V53.5h4V46.92Z"/><rect class="cls-1" x="69.99" y="47.41" width="3.02" height="5.59"/><path class="cls-2" d="M72.51,47.91v4.6h-2v-4.6h2m1-1h-4V53.5h4V46.92Z"/><rect class="cls-1" x="72.94" y="47.41" width="3.02" height="5.59"/><path class="cls-2" d="M75.46,47.91v4.6h-2v-4.6h2m1-1h-4V53.5h4V46.92Z"/><rect class="cls-2" x="63.76" y="25.06" width="2.44" height="3.83"/><rect class="cls-2" x="67.25" y="25.06" width="2.44" height="3.83"/><rect class="cls-2" x="67.25" y="30.53" width="2.44" height="3.83"/><rect class="cls-2" x="70.73" y="25.06" width="2.44" height="3.83"/><rect class="cls-2" x="63.76" y="30.53" width="2.44" height="3.83"/><rect class="cls-2" x="63.76" y="36.01" width="2.44" height="3.83"/><rect class="cls-2" x="74.32" y="25.06" width="2.44" height="3.83"/><rect class="cls-2" x="40.23" y="18.68" width="2.44" height="3.83"/><rect class="cls-2" x="43.71" y="18.68" width="2.44" height="3.83"/><rect class="cls-2" x="43.71" y="24.15" width="2.44" height="3.83"/><rect class="cls-2" x="47.19" y="18.68" width="2.44" height="3.83"/><rect class="cls-2" x="40.23" y="24.15" width="2.44" height="3.83"/><rect class="cls-2" x="40.23" y="29.63" width="2.44" height="3.83"/><rect class="cls-2" x="50.78" y="18.68" width="2.44" height="3.83"/></svg>