<?xml version="1.0" encoding="utf-8"?>
<!-- Generator: Adobe Illustrator 26.0.1, SVG Export Plug-In . SVG Version: 6.00 Build 0)  -->
<svg version="1.1" id="レイヤー_1" xmlns="http://www.w3.org/2000/svg" xmlns:xlink="http://www.w3.org/1999/xlink" x="0px"
	 y="0px" viewBox="0 0 122 78" style="enable-background:new 0 0 122 78;" xml:space="preserve">
<style type="text/css">
	.st0{fill:#FFFFFF;}
	.st1{fill:#037ABC;}
	.st2{fill:none;stroke:#037ABC;stroke-linecap:round;stroke-linejoin:round;}
	.st3{fill:none;stroke:#037ABC;stroke-width:1.02;stroke-linecap:round;stroke-linejoin:round;}
	.st4{fill:none;stroke:#037ABC;stroke-width:0.75;stroke-linecap:round;stroke-linejoin:round;}
	.st5{fill:#037ABC;stroke:#037ABC;stroke-width:0.75;stroke-linecap:round;stroke-linejoin:round;}
</style>
<rect x="1.5" y="1.5" class="st0" width="119" height="74.9"/>
<path class="st1" d="M119,3v72H3V3H119 M122,0H0v78h122V0z"/>
<rect x="62.4" y="32.6" class="st2" width="5.6" height="4.6"/>
<rect x="68.1" y="32.6" class="st2" width="5.6" height="4.6"/>
<rect x="62.4" y="37.1" class="st2" width="5.6" height="4.6"/>
<rect x="68.1" y="37.1" class="st2" width="5.6" height="4.6"/>
<rect x="47.4" y="32.6" class="st3" width="11.4" height="16.2"/>
<polygon class="st4" points="78.3,48.9 43.7,48.9 43.7,27 61,12.5 78.3,27 "/>
<path class="st5" d="M38.1,30.7c-0.8,0-1.6-0.4-2.2-1C35,28.6,35.2,27,36.3,26c0,0,0,0,0,0L59.2,7.7c1.1-0.8,2.6-0.8,3.6,0L85.7,26
	c1.1,0.9,1.3,2.5,0.4,3.7c0,0,0,0.1-0.1,0.1c-1,1.2-2.8,1.3-4,0.3L61,13.2L39.9,30.1C39.4,30.5,38.8,30.7,38.1,30.7z"/>
<g>
	<path class="st1" d="M36,61.8v8.4h-0.8v-0.6h-5v0.7h-0.8v-8.4H36z M30.2,62.5v2.7h5v-2.7L30.2,62.5z M35.2,68.8V66h-5v2.8
		L35.2,68.8z"/>
	<path class="st1" d="M43.6,63.9c0.8,1.7,2.2,3.1,3.9,4.1c-0.2,0.2-0.4,0.4-0.5,0.7c-1.6-1-2.9-2.4-3.8-4.1v3.1h1.9v0.7h-1.9v1.9
		h-0.8v-1.8h-2v-0.7h2v-3.1c-0.9,1.7-2.2,3.1-3.8,4.1c-0.1-0.2-0.3-0.4-0.5-0.6c1.7-1,3-2.4,3.8-4.2h-3.5v-0.8h4v-2.1h0.8v2.1h4v0.8
		L43.6,63.9z"/>
	<path class="st1" d="M50.3,62.6c-0.3,1.3-0.4,2.6-0.5,3.9c0,0.5,0,0.9,0.1,1.4c0.2-0.5,0.4-1.1,0.6-1.5l0.4,0.3
		c-0.3,0.7-0.5,1.5-0.7,2.3c0,0.1-0.1,0.3,0,0.4c0,0.1,0,0.2,0,0.3h-0.7c-0.3-1.1-0.4-2.1-0.4-3.2c0.1-1.3,0.2-2.7,0.5-4
		c0-0.2,0.1-0.5,0.1-0.7l0.9,0.1C50.4,62.1,50.3,62.4,50.3,62.6z M52.6,67.7c0,0.5,0.3,0.9,1.7,0.9c0.8,0,1.7-0.1,2.5-0.3v0.8
		c-0.8,0.1-1.7,0.2-2.5,0.2c-1.7,0-2.5-0.6-2.5-1.5c0-0.4,0.1-0.8,0.2-1.2l0.7,0.1C52.7,67.1,52.6,67.4,52.6,67.7z M56.5,62.7v0.8
		c-1.4,0.1-2.8,0.1-4.1,0v-0.8C53.8,62.9,55.2,62.9,56.5,62.7L56.5,62.7z"/>
	<path class="st1" d="M61.4,61.3c-0.3,0.7-0.6,1.4-1,2.1v6.8h-0.7v-5.8c-0.3,0.5-0.7,0.9-1.1,1.3c-0.1-0.3-0.3-0.5-0.4-0.7
		c1.1-1.1,2-2.5,2.6-4L61.4,61.3z M67.5,69.2v0.7H61v-0.7h3v-2.5h-2.4V66H64v-2.2h-2.7v-0.7h3.4c-0.7-0.6-1.4-1-2.1-1.5l0.5-0.5
		c0.8,0.4,1.5,0.9,2.2,1.5l-0.4,0.5h2.4v0.7h-2.7V66h2.4v0.7h-2.4v2.5L67.5,69.2z"/>
	<path class="st1" d="M72.3,62.3c0,0.3-0.1,0.6-0.1,1c0.7,0,1.3,0,2-0.1v0.8c-0.6,0.1-1.2,0.1-2,0.1h-0.1c-0.1,0.6-0.2,1.2-0.2,1.8
		H72c0.7,0,1.4,0,2.1-0.1v0.8c-0.7,0.1-1.3,0.1-2,0.1h-0.4c0,0.4-0.1,0.8-0.1,1c-0.1,0.8,0.5,1.5,1.3,1.6c0.1,0,0.2,0,0.4,0
		c1.5,0,2.5-0.7,2.5-1.7c-0.1-0.8-0.5-1.5-1.1-2l0.9-0.2c0.6,0.6,1,1.4,1,2.3c0,1.5-1.3,2.4-3.3,2.4c-1.4,0-2.5-0.6-2.5-2.2
		c0-0.3,0-0.7,0.1-1.2c-0.7,0-1.4-0.2-2.1-0.4v-0.8c0.7,0.2,1.4,0.4,2.1,0.4c0.1-0.6,0.1-1.2,0.2-1.8c-0.7-0.1-1.5-0.2-2.2-0.3v-0.7
		c0.7,0.2,1.5,0.3,2.2,0.4c0.1-0.4,0.1-0.8,0.1-1.1c0-0.2,0-0.5,0-0.7l0.9,0.1C72.3,61.8,72.3,62.1,72.3,62.3z"/>
	<path class="st1" d="M83.6,64.7c-0.9,0-1.9,0.2-2.8,0.5c-0.3,0.1-0.6,0.2-0.8,0.3l-0.3-0.9c0.3,0,0.6-0.1,0.9-0.2
		c1-0.3,2-0.4,3-0.5c1.2-0.1,2.3,0.7,2.5,1.9c0,0.1,0,0.2,0,0.3c0,2.2-2,3.4-4.6,3.8l-0.5-0.8c2.4-0.3,4.2-1.3,4.2-3.1
		c0-0.8-0.7-1.5-1.6-1.5C83.6,64.7,83.6,64.7,83.6,64.7z M85.3,62.1l-0.1,0.8c-1.1-0.1-3.2-0.3-4.3-0.5l0.1-0.8
		C82.5,61.9,83.9,62.1,85.3,62.1z"/>
	<path class="st1" d="M88.7,68.9c0-0.4,0.3-0.7,0.6-0.7c0,0,0,0,0,0c0.4,0,0.7,0.3,0.7,0.7c0,0.4-0.3,0.7-0.7,0.7
		C89,69.6,88.7,69.3,88.7,68.9C88.7,68.9,88.7,68.9,88.7,68.9z M88.8,63.2V62h1.1v1.2l-0.2,3.9H89L88.8,63.2z"/>
</g>
<g>
	<path class="st1" d="M30.9,55.8c-0.1,0.6-0.3,1.6-0.3,2.3c0,0.3,0,0.5,0.1,0.8c0.1-0.3,0.2-0.6,0.3-0.9l0.3,0.2
		c-0.2,0.4-0.4,1.1-0.4,1.3c0,0.1,0,0.2,0,0.3c0,0.1,0,0.2,0,0.2l-0.4,0c-0.1-0.4-0.2-1.1-0.2-1.9c0-0.9,0.2-1.9,0.3-2.4
		c0-0.1,0-0.3,0-0.4l0.5,0C30.9,55.5,30.9,55.7,30.9,55.8z M32.3,58.9c0,0.3,0.2,0.5,1,0.5c0.5,0,1,0,1.5-0.2l0,0.5
		c-0.4,0.1-0.9,0.1-1.5,0.1c-1,0-1.5-0.3-1.5-0.9c0-0.2,0-0.4,0.1-0.7l0.4,0C32.3,58.5,32.3,58.7,32.3,58.9z M34.6,55.9v0.5
		c-0.6,0.1-1.8,0.1-2.5,0v-0.5C32.8,56,34,55.9,34.6,55.9z"/>
	<path class="st1" d="M36.7,55.8c-0.1,0.6-0.3,1.7-0.3,2.4c0,0.3,0,0.6,0.1,0.8c0.1-0.3,0.2-0.7,0.3-0.9l0.2,0.2
		c-0.1,0.4-0.4,1-0.4,1.3c0,0.1,0,0.2,0,0.3c0,0.1,0,0.1,0,0.2l-0.4,0C36.1,59.7,36,59,36,58.2c0-0.9,0.2-2,0.3-2.5
		c0-0.1,0-0.3,0-0.4l0.5,0C36.8,55.5,36.7,55.7,36.7,55.8z M40.6,55.5v0.4c-0.3,0-0.6,0.1-1,0.1v1c0.4,0,0.8-0.1,1.1-0.1v0.4
		c-0.3,0-0.7,0.1-1.1,0.1c0,0.4,0,0.8,0,1.1c0.6,0.2,1,0.5,1.3,0.8l-0.3,0.4c-0.3-0.3-0.6-0.6-1-0.7c0,0.1,0,0.2,0,0.3
		c0,0.5-0.3,0.8-1,0.8c-0.7,0-1.2-0.3-1.2-0.8c0-0.4,0.4-0.8,1.1-0.8c0.2,0,0.4,0,0.5,0c0-0.3,0-0.7,0-1c-0.5,0-1,0-1.4,0V57
		c0.5,0,1,0,1.4,0v-1c-0.4,0-0.9,0-1.4,0v-0.4C38.8,55.7,39.9,55.6,40.6,55.5z M38.7,59.6c0.5,0,0.6-0.2,0.6-0.6c0-0.1,0-0.2,0-0.3
		c-0.2,0-0.4-0.1-0.6-0.1c-0.4,0-0.7,0.2-0.7,0.4C38,59.5,38.3,59.6,38.7,59.6z"/>
	<path class="st1" d="M44.1,55.8c-0.3,0.4-0.8,1.4-1.1,2c0.3-0.3,0.6-0.4,0.9-0.4c0.4,0,0.7,0.3,0.7,0.7c0,0.4,0,0.8,0,1.1
		c0,0.3,0.2,0.4,0.5,0.4c0.7,0,1.1-0.8,1.2-1.5l0.4,0.3c-0.3,1-0.8,1.6-1.7,1.6c-0.6,0-0.8-0.4-0.9-0.8c0-0.3,0-0.8,0-1.1
		c0-0.3-0.2-0.4-0.4-0.4c-0.5,0-0.9,0.5-1.2,1c-0.2,0.4-0.4,1.1-0.5,1.4L41.5,60c0.4-1.2,1.8-3.7,2.1-4.3c0.1-0.1,0.1-0.3,0.2-0.5
		l0.5,0.2C44.3,55.5,44.2,55.6,44.1,55.8z"/>
</g>
<g>
	<path class="st1" d="M63.2,55.5c0,0.1,0,0.2,0,0.4c0,0,0.1,0,0.1,0c0.7,0,1.5,0,1.8,0l0,0.4c-0.3,0-0.9,0-1.8,0c0,0-0.1,0-0.1,0
		c0,0.3,0,0.7,0,1c0.1,0.2,0.2,0.5,0.2,0.8c0,0.8-0.4,1.7-1.8,2.1l-0.4-0.4c0.8-0.2,1.3-0.5,1.6-1.1c-0.1,0.1-0.3,0.2-0.5,0.2
		c-0.5,0-1-0.3-1-1c0-0.6,0.5-1,1.1-1c0.2,0,0.3,0,0.4,0.1c0-0.2,0-0.4,0-0.6c-0.9,0-1.9,0-2.7,0.1l0-0.5c0.7,0,1.8,0,2.7-0.1
		c0-0.2,0-0.3,0-0.4c0-0.2,0-0.3,0-0.4h0.5C63.2,55.2,63.2,55.5,63.2,55.5z M62.3,58.5c0.4,0,0.6-0.3,0.5-0.9
		c-0.1-0.3-0.3-0.4-0.5-0.4c-0.3,0-0.6,0.2-0.6,0.6C61.7,58.3,62,58.5,62.3,58.5z"/>
</g>
</svg>
