<svg id="レイヤー_1" data-name="レイヤー 1" xmlns="http://www.w3.org/2000/svg" viewBox="0 0 122 78"><defs><style>.cls-1{fill:#fff;}.cls-2{fill:#037abc;}</style></defs><rect class="cls-1" x="1.51" y="1.51" width="118.98" height="74.95"/><path class="cls-2" d="M119,3V75H3V3H119m3-3H0V78H122V0Z"/><path class="cls-2" d="M21.73,60.81a3.48,3.48,0,0,1-.22.36h2.73a2,2,0,0,0,.67-.1l.66.4a3.39,3.39,0,0,0-.24.55,10.08,10.08,0,0,1-1.57,3.13c.42.31.83.62,1.15.89l-.6.69c-.3-.27-.68-.58-1.09-.92a9.54,9.54,0,0,1-3.84,2.56l-.73-.62a8.79,8.79,0,0,0,3.9-2.43c-.72-.52-1.49-1-2.13-1.45l.54-.55c.66.38,1.42.86,2.13,1.36a8.78,8.78,0,0,0,1.37-2.79H21.05a11.07,11.07,0,0,1-2.67,2.67L17.71,64a9.26,9.26,0,0,0,3.23-3.5,3.7,3.7,0,0,0,.32-.8l.92.29C22,60.29,21.83,60.63,21.73,60.81Z"/><path class="cls-2" d="M32.12,62.41A11.86,11.86,0,0,0,34.87,60l.67.63a16.49,16.49,0,0,1-2.71,2.24v4.25a7.61,7.61,0,0,0,.06,1.08h-1A9.33,9.33,0,0,0,32,67.16V63.44a20.06,20.06,0,0,1-3.84,1.64l-.4-.79A16.76,16.76,0,0,0,32.12,62.41Z"/><path class="cls-2" d="M45.7,59.56a1.14,1.14,0,1,1,0,2.27,1.32,1.32,0,0,1-.39-.06.52.52,0,0,1,0,.11,9.72,9.72,0,0,1-1.5,3.71,7.56,7.56,0,0,1-4,2.69l-.69-.75a6.69,6.69,0,0,0,3.93-2.42,7.63,7.63,0,0,0,1.32-3.28H39.24c-.4,0-.74,0-1,0V61a7.72,7.72,0,0,0,1,.07h5.38a1.13,1.13,0,0,1,1.08-1.46Zm0,1.8a.67.67,0,0,0,.67-.66.67.67,0,1,0-1.34,0A.67.67,0,0,0,45.7,61.36Z"/><path class="cls-2" d="M52,64.31s0,.23,0,.33c-.12,2.5-.22,3.42-.49,3.73a.79.79,0,0,1-.64.28,9.91,9.91,0,0,1-1.23,0,1.4,1.4,0,0,0-.22-.65c.5,0,1,0,1.15,0a.43.43,0,0,0,.35-.11c.18-.2.28-1,.37-3H49.64a5.76,5.76,0,0,1-1.76,3.72,1.9,1.9,0,0,0-.51-.51c1.37-1.09,1.61-3.14,1.71-5H48V60h3.95v3.28H49.81c0,.35-.05.71-.09,1.07Zm-3.33-1.74h2.56V60.64H48.68Zm5,3.68H53V60.71h.73Zm2.46-6.55v8c0,.5-.14.73-.45.86a6.46,6.46,0,0,1-1.81.13,2.65,2.65,0,0,0-.28-.75c.71,0,1.34,0,1.54,0s.26-.06.26-.25v-8Z"/><path class="cls-2" d="M61.1,65.85c-1.08.67-2.27,1.37-3.16,1.88l-.46-.67c.86-.44,2.16-1.17,3.39-1.87Zm4.95-3.08a21.33,21.33,0,0,1-2.12,2.13,6.94,6.94,0,0,0,2.86,2.4,3.06,3.06,0,0,0-.54.66,8.47,8.47,0,0,1-3.78-4.25v4c0,.53-.13.76-.47.89a6.56,6.56,0,0,1-1.82.14,3.62,3.62,0,0,0-.27-.78c.7,0,1.35,0,1.54,0s.26-.06.26-.26V61.91h-4v-.72h4V59.53h.76v1.66h4v.72h-4V62a10.05,10.05,0,0,0,1.09,2.32,15,15,0,0,0,1.85-2Zm-6.15,2a8.81,8.81,0,0,0-1.6-1.88l.57-.38a8.63,8.63,0,0,1,1.63,1.82Zm4-5.22a12.18,12.18,0,0,1,1.86,1.13l-.47.52A13.23,13.23,0,0,0,63.42,60Z"/><path class="cls-2" d="M72.49,59.81c0,.13,0,.29,0,.46.09,1.33.63,6,4.42,7.72a2.24,2.24,0,0,0-.55.61,8.22,8.22,0,0,1-4.19-5.82,8.31,8.31,0,0,1-4,5.82,2.53,2.53,0,0,0-.6-.57c4.07-2.09,4.07-6.89,4.14-8.22Z"/><path class="cls-2" d="M77.54,64A13.35,13.35,0,0,0,78,61.43l.55.07a12.69,12.69,0,0,1-.43,2.69Zm1.23-4.5h.69v9.19h-.69ZM80,61a8.69,8.69,0,0,1,.55,1.42l-.53.26a8.82,8.82,0,0,0-.52-1.48Zm6.78,1.78v.58H80.29v-.58h2.87v-.7H80.83V61.5h2.33v-.64H80.59v-.57h2.57V59.5h.73v.79h2.65v.57H83.89v.64h2.4v.55h-2.4v.7Zm-.77,5.11c0,.38-.08.57-.37.68a4.34,4.34,0,0,1-1.44.11A3.41,3.41,0,0,0,84,68c.51,0,1,0,1.11,0s.19,0,.19-.17v-.73H81.71v1.57H81V63.9h5Zm-4.34-3.38v.76h3.62v-.76Zm3.62,2.09V65.8H81.71v.77Z"/><path class="cls-2" d="M90.34,62.18h1.85v.64h-1l.49.13a14,14,0,0,1-.56,1.3h1v.66H90.34V66h1.6v.63h-1.6v2h-.71v-2H88V66h1.65V64.91H87.88v-.66h1a5.75,5.75,0,0,0-.42-1.3l.49-.13h-1.2v-.64h1.89v-1H88.1v-.64h1.53v-1h.71v1h1.47v.64H90.34Zm.15,2A10.88,10.88,0,0,0,91,62.82H89a5,5,0,0,1,.46,1.33l-.35.1h1.74Zm6.16-.64a9.13,9.13,0,0,1-1.22,3.31A5.11,5.11,0,0,0,97,68.09a3,3,0,0,0-.52.6A5.57,5.57,0,0,1,95,67.42a5.7,5.7,0,0,1-1.35,1.29,2.68,2.68,0,0,0-.47-.49v.48h-.69V60h3.91V61.9c0,.37-.07.57-.39.68a6,6,0,0,1-1.57.11,2.14,2.14,0,0,0-.23-.64c.62,0,1.14,0,1.3,0s.2,0,.2-.16V60.65H93.2v2.71h2.86l.13,0ZM93.2,68.18a5.56,5.56,0,0,0,1.39-1.35A9.65,9.65,0,0,1,93.29,64H93.2Zm.72-4.2A9.35,9.35,0,0,0,95,66.21,8.41,8.41,0,0,0,95.85,64Z"/><path class="cls-2" d="M99.53,67.31a.65.65,0,0,1,.65-.67.67.67,0,1,1-.65.67Zm.12-5.73,0-1.18h1.11l0,1.18-.2,3.91h-.66Z"/><path class="cls-2" d="M63.62,20.39H61.94V22.1h1.69a.83.83,0,0,0,.93-.87C64.56,20.7,64.21,20.39,63.62,20.39Z"/><path class="cls-2" d="M55.43,17.38c-1.12,0-1.81.91-1.81,2.39s.69,2.43,1.81,2.43,1.8-.92,1.8-2.43S56.55,17.38,55.43,17.38Z"/><path class="cls-2" d="M64.35,18.18c0-.46-.29-.71-.81-.71h-1.6v1.44h1.62A.71.71,0,0,0,64.35,18.18Z"/><path class="cls-2" d="M74.28,36.72a9.13,9.13,0,0,1-1.51,5,4,4,0,0,0,3.65-4V12.34a1.21,1.21,0,0,0-.35-.84,1.23,1.23,0,0,0-.85-.35H42.46a1.2,1.2,0,0,0-1.2,1.19V37.73c0,.08,0,.15,0,.23h0a4,4,0,0,0,4,3.79H57.71a9,9,0,0,1,1.11-11.44h0a9,9,0,0,1,11.92-.77v-16H74"/><path class="cls-1" d="M44,21.41l1.14-.85a1.41,1.41,0,0,0,1.24.87c.73,0,1.12-.4,1.12-1.55V14.36h1.67V20c0,1.57-.79,2.85-2.59,2.85A2.71,2.71,0,0,1,44,21.41Z"/><path class="cls-1" d="M50.73,18.51c0-2.72,1.52-4.3,3.73-4.3s3.73,1.59,3.73,4.3-1.52,4.36-3.73,4.36S50.73,21.21,50.73,18.51Zm5.76,0c0-1.8-.79-2.87-2-2.87s-2,1.07-2,2.87.79,2.92,2,2.92S56.49,20.29,56.49,18.51Z"/><path class="cls-1" d="M59.83,14.36h2.76c1.72,0,3,.5,3,2.06a1.9,1.9,0,0,1-1.14,1.81v.05a1.9,1.9,0,0,1,1.56,2c0,1.68-1.39,2.45-3.23,2.45h-3Zm2.64,3.4c1.06,0,1.52-.43,1.52-1.09s-.49-1-1.5-1h-1v2.12Zm.19,3.67c1.14,0,1.76-.41,1.76-1.28S63.81,19,62.66,19H61.5v2.44Z"/><circle class="cls-1" cx="65.2" cy="36.8" r="7.46"/><path class="cls-2" d="M65.2,31.68a5.1,5.1,0,0,1,5.12,5.1,5.12,5.12,0,0,1-5.1,5.14h0a5.12,5.12,0,0,1,0-10.24h0m0-2.34h0a7.46,7.46,0,0,0,0,14.92h0a7.46,7.46,0,0,0,0-14.92Z"/><rect class="cls-2" x="72.73" y="39.89" width="2.34" height="11.82" transform="translate(-10.67 65.96) rotate(-45.19)"/><path class="cls-2" d="M80.87,52.32l-.39.4a1.42,1.42,0,0,1-2,0,14.1,14.1,0,0,1-5.63-5.6c-.89-.38-.55-1.44,0-2l.4-.4c.54-.55,1.77-.88,2,0a15.88,15.88,0,0,1,5.64,5.6A1.4,1.4,0,0,1,80.87,52.32Z"/><path class="cls-2" d="M74.5,12.9h-4L70,29c2.38,1.67,3.64,3.64,4.33,7.17h.15Z"/></svg>