<?xml version="1.0" encoding="utf-8"?>
<!-- Generator: Adobe Illustrator 26.0.1, SVG Export Plug-In . SVG Version: 6.00 Build 0)  -->
<svg version="1.1" id="レイヤー_1" xmlns="http://www.w3.org/2000/svg" xmlns:xlink="http://www.w3.org/1999/xlink" x="0px"
	 y="0px" viewBox="0 0 122 78" style="enable-background:new 0 0 122 78;" xml:space="preserve">
<style type="text/css">
	.st0{fill:#FFFFFF;}
	.st1{fill:#037ABC;}
</style>
<rect y="0" class="st0" width="122" height="78"/>
<path class="st1" d="M119,3V75H3V3H119 M122,0H0V78h122V0L122,0z"/>
<path class="st1" d="M65.9,26.1c0-0.4-0.4-0.7-0.8-0.7c-5.4,0-9.8-6-9.8-13.4c-0.1-0.5-0.6-0.8-1-0.7c-0.3,0.1-0.6,0.3-0.7,0.7
	c0,7.4-4.4,13.4-9.8,13.4c-0.4-0.1-0.8,0.2-0.8,0.5c-0.1,0.4,0.2,0.8,0.5,0.8c0.1,0,0.2,0,0.3,0c5.4,0,9.8,6,9.8,13.4
	c0.1,0.5,0.6,0.8,1,0.7c0.3-0.1,0.6-0.3,0.7-0.7c0-7.4,4.4-13.4,9.8-13.4C65.5,26.9,65.9,26.5,65.9,26.1z"/>
<path class="st1" d="M78.5,36.5c-3.8,0-6.9-4.2-6.9-9.4c-0.1-0.3-0.4-0.5-0.8-0.4c-0.2,0.1-0.4,0.2-0.4,0.4c0,5.2-3.1,9.4-6.9,9.4
	c-0.3,0-0.5,0.2-0.6,0.5c0,0.3,0.3,0.5,0.6,0.5c3.8,0,6.9,4.2,6.9,9.4c0.1,0.3,0.4,0.6,0.7,0.5c0.2,0,0.4-0.2,0.5-0.5
	c0-5.2,3.1-9.4,6.9-9.4c0.3,0,0.6-0.2,0.6-0.5C79.1,36.7,78.8,36.5,78.5,36.5z"/>
<path class="st1" d="M61.2,15.1c3.1,0,5.7,3.5,5.7,7.8c0.1,0.3,0.3,0.5,0.6,0.4c0.2,0,0.4-0.2,0.4-0.4c0-4.3,2.6-7.8,5.7-7.8
	c0.2,0,0.4-0.1,0.5-0.3c0-0.2-0.1-0.4-0.3-0.5c0,0-0.1,0-0.1,0c-3.1,0-5.7-3.5-5.7-7.8c-0.1-0.3-0.3-0.5-0.6-0.4
	c-0.2,0-0.4,0.2-0.4,0.4c0,4.3-2.6,7.8-5.7,7.8c-0.2,0-0.4,0.1-0.5,0.3c0,0.2,0.1,0.4,0.3,0.5C61.2,15.1,61.2,15.1,61.2,15.1z"/>
<path class="st1" d="M30,63.2c-0.4,1.1-1,2-1.7,3c1.1,0.9,2,1.9,2.9,3l-0.7,0.6c-0.8-1.1-1.8-2.1-2.8-3c-1.1,1.2-2.4,2.2-3.9,2.9
	l-0.6-0.7c1.6-0.7,3-1.7,4.1-3c0.7-0.8,1.3-1.8,1.7-2.8h-3.9c-0.4,0-0.9,0-1,0v-0.9c0.1,0,0.7,0.1,1,0.1H29c0.3,0,0.5,0,0.8-0.1
	l0.5,0.4C30.2,62.9,30.1,63.1,30,63.2z"/>
<path class="st1" d="M36,61.7l0.9-0.2c0,0.2,0.1,0.5,0.1,0.7s0.1,0.5,0.2,1.1l2.3-0.4c0.2,0,0.5-0.1,0.7-0.2l0.2,0.8l-0.7,0.1
	l-2.3,0.4c0.1,0.6,0.3,1.3,0.4,2c1-0.2,2-0.3,2.5-0.4s0.7-0.1,0.9-0.2l0.2,0.8c-0.2,0-0.5,0.1-0.9,0.1L38,66.9c0.2,1,0.4,1.8,0.4,2
	s0.2,0.6,0.2,0.9L37.7,70c0-0.3-0.1-0.7-0.2-0.9s-0.2-1-0.4-2l-2.7,0.5c-0.4,0.1-0.7,0.1-0.9,0.2l-0.2-0.9c0.2,0,0.6-0.1,0.9-0.1
	l2.7-0.4c-0.1-0.7-0.3-1.4-0.4-2l-2.2,0.4l-0.8,0.2l-0.2-0.9c0.2,0,0.5,0,0.8-0.1s1.3-0.2,2.2-0.3c-0.1-0.5-0.2-0.9-0.2-1
	C36.2,62.2,36.1,62,36,61.7z"/>
<path class="st1" d="M44.8,66.8c0.2-1.3,0.3-2.7,0.3-4c0-0.3,0-0.5-0.1-0.8h0.9c0,0.1,0,0.4,0,0.7c0,1.4-0.1,2.9-0.3,4.3
	c-0.3,1.1-0.9,2-1.8,2.8L43,69.3C43.8,68.7,44.5,67.8,44.8,66.8z M47.7,68.8v-6c0-0.3,0-0.5-0.1-0.8h0.9c0,0.2,0,0.5,0,0.8v5.8
	c1.2-0.6,2.2-1.4,2.9-2.5l0.5,0.7c-0.9,1.2-2.1,2.1-3.4,2.8c-0.1,0.1-0.2,0.1-0.3,0.2l-0.5-0.4C47.7,69.2,47.7,69,47.7,68.8
	L47.7,68.8z"/>
<path class="st1" d="M56.8,62.7c1,0,2.1-0.1,3.1-0.3v0.7c-1.1,0.2-2.2,0.3-3.3,0.3C56.3,64,56,64.5,55.6,65c0.4-0.2,0.9-0.4,1.4-0.4
	c0.6-0.1,1.2,0.3,1.3,0.9c0.7-0.3,1.3-0.6,1.8-0.8c0.3-0.1,0.5-0.2,0.8-0.4l0.3,0.8c-0.3,0.1-0.6,0.2-0.9,0.3
	c-0.6,0.2-1.3,0.5-2,0.9c0,0.6,0,1.4,0,1.9h-0.8c0-0.4,0-1,0-1.6c-0.9,0.5-1.6,1-1.6,1.7s0.8,0.9,1.8,0.9c0.9,0,1.9-0.1,2.8-0.2v0.8
	c-0.9,0.1-1.8,0.2-2.8,0.2c-1.4,0-2.6-0.3-2.6-1.5s1.2-1.9,2.4-2.6c-0.1-0.4-0.5-0.7-0.9-0.6c-0.7,0-1.3,0.3-1.8,0.7
	c-0.3,0.3-0.6,0.7-0.9,1.1l-0.7-0.5c1-0.9,1.8-1.9,2.3-3.1h-0.4c-0.4,0-1.1,0-1.7-0.1v-0.8c0.6,0.1,1.1,0.1,1.7,0.1H56
	c0.1-0.4,0.2-0.8,0.2-1.3l0.8,0.1C57,62,56.9,62.4,56.8,62.7z"/>
<path class="st1" d="M64.3,65.1c0.1,1.8-0.2,3.6-0.9,5.2c-0.2-0.2-0.4-0.3-0.6-0.4c0.6-1.5,0.9-3.2,0.8-4.8V62h3.8v-0.9h0.8V62H72
	v0.7h-7.7V65.1z M64.7,66.2H72v0.6h-4.2c-0.2,0.3-0.5,0.6-0.7,0.9h4.5v2.6h-0.8V70h-3.9v0.3h-0.7v-1.8c-0.5,0.4-1,0.7-1.5,0.9
	c-0.1-0.2-0.3-0.4-0.4-0.6c1.1-0.5,2-1.2,2.8-2.1h-2.3V66.2z M66.3,65.9v-1.3c-0.4,0.5-0.8,0.9-1.3,1.2c-0.1-0.2-0.2-0.3-0.4-0.4
	c0.6-0.3,1.1-0.7,1.5-1.2h-1.2v-0.6h1.5v-0.7h0.6v0.7h1.3v0.6h-1.3v0.1c0.3,0.2,1.2,0.7,1.4,0.8l-0.4,0.5c-0.2-0.2-0.6-0.5-1-0.8
	v1.2H66.3z M70.8,68.3h-3.9v1.2h3.9L70.8,68.3z M69.8,65.9v-1.4c-0.4,0.5-0.8,0.9-1.4,1.2c-0.1-0.2-0.2-0.3-0.4-0.4
	c0.6-0.3,1.1-0.7,1.5-1.2h-1v-0.6h1.3v-0.7h0.6v0.7H72v0.6h-1.3c0.4,0.5,0.9,0.9,1.5,1.2c-0.2,0.1-0.3,0.3-0.4,0.5
	c-0.5-0.3-0.9-0.7-1.3-1.2v1.4H69.8z"/>
<path class="st1" d="M75.1,67.7c0,0.8,0.8,1.3,2.4,1.3c1.2,0,2.3-0.1,3.4-0.4v0.9c-1.1,0.3-2.3,0.4-3.4,0.3c-2,0-3.2-0.7-3.2-2
	c0-0.5,0.1-0.9,0.2-1.4l0.8,0.1C75.2,66.9,75.1,67.3,75.1,67.7z M77.6,62.6c1,0,2-0.1,2.7-0.1v0.8c-0.7,0-1.8,0.1-2.7,0.1
	s-1.9,0-2.7-0.1v-0.8C75.8,62.6,76.7,62.6,77.6,62.6z"/>
<path class="st1" d="M88.2,64.7c-0.9,0-1.9,0.2-2.8,0.5c-0.3,0.1-0.6,0.2-0.8,0.3l-0.3-0.9c0.3,0,0.6-0.1,0.9-0.2c1-0.3,2-0.4,3-0.5
	c1.2-0.1,2.3,0.7,2.5,1.9c0,0.1,0,0.2,0,0.3c0,2.2-2,3.4-4.6,3.8l-0.4-0.8c2.4-0.3,4.2-1.3,4.2-3.1c0-0.8-0.8-1.5-1.6-1.5
	C88.3,64.7,88.2,64.7,88.2,64.7z M90,62.1l-0.1,0.8c-1.1-0.1-3.2-0.3-4.3-0.5l0.1-0.8C87.1,61.9,88.6,62.1,90,62.1z"/>
<path class="st1" d="M94.1,68.9c0-0.4,0.3-0.6,0.7-0.6c0.4,0,0.6,0.3,0.6,0.7c0,0.3-0.3,0.6-0.6,0.6C94.4,69.6,94.1,69.3,94.1,68.9
	C94.1,69,94.1,68.9,94.1,68.9z M94.2,63.2V62h1.1v1.2l-0.2,3.9h-0.7L94.2,63.2z"/>
<g>
	<path class="st1" d="M67.3,56.3c0,0.1-0.1,0.1-0.2,0.1c-0.1,0.4-0.2,0.8-0.3,1.2c0.3,0.1,0.6,0.3,0.9,0.4l-0.3,0.6
		c-0.3-0.2-0.6-0.3-0.9-0.4C66.4,59,66,59.6,65.4,60c-0.1-0.1-0.3-0.3-0.5-0.3c0.6-0.4,1-0.9,1.2-1.7c-0.5-0.2-1-0.3-1.4-0.4
		c-0.4,1.4-0.8,1.9-1.5,1.9c-0.6,0-0.9-0.5-0.9-1c0-0.9,1-1.4,2-1.4c0.1-0.4,0.2-1,0.3-1.5c-0.3,0-1.1,0.1-1.6,0.1
		c0,0-0.1,0.1-0.1,0.1L62.8,55c0.6,0,1.7-0.1,2-0.1c0.1,0,0.1,0,0.1-0.1l0.5,0.3c0,0-0.1,0.1-0.2,0.1c-0.1,0.6-0.2,1.3-0.4,1.8
		c0.4,0,0.9,0.2,1.4,0.4c0.1-0.3,0.2-0.8,0.2-1.2L67.3,56.3z M64.2,57.5c-0.8,0-1.3,0.3-1.3,0.9c0,0.3,0.1,0.5,0.4,0.5
		C63.6,58.8,63.8,58.6,64.2,57.5z"/>
	<path class="st1" d="M70.6,54.8c0,0.1-0.1,0.1-0.2,0.1c-0.1,0.3-0.2,0.9-0.2,1.2c0.2,0,0.4,0,0.6,0c1,0,1.3,0.6,1.3,1.6
		c0,0.2,0,0.8-0.2,1.3c-0.2,0.7-0.6,1-1.1,1c-0.2,0-0.6-0.1-1.1-0.5c0.1-0.2,0.2-0.3,0.2-0.5c0.4,0.3,0.7,0.4,0.9,0.4
		c0.3,0,0.5-0.2,0.6-0.6c0.1-0.3,0.2-0.8,0.2-1.1c0-0.6-0.2-1-0.7-1c-0.2,0-0.4,0-0.6,0c-0.3,1.2-0.6,2.2-1.2,3.2l-0.6-0.3
		c0.5-0.9,0.9-1.8,1.1-2.8l-1,0.1l0-0.6l1.2-0.1c0.1-0.4,0.2-1,0.2-1.5L70.6,54.8z M72.3,55.7c-0.1-0.3-0.5-0.6-0.7-0.8l0.3-0.2
		c0.3,0.2,0.6,0.6,0.8,0.8L72.3,55.7z M73.1,58.1c-0.2-0.8-0.6-1.6-1.1-2l0.5-0.3c0.6,0.5,1,1.3,1.2,2.1L73.1,58.1z M73.2,55.4
		c-0.1-0.3-0.5-0.6-0.7-0.8l0.3-0.2c0.3,0.2,0.6,0.6,0.8,0.8L73.2,55.4z"/>
</g>
</svg>
