<svg id="レイヤー_2" data-name="レイヤー 2" xmlns="http://www.w3.org/2000/svg" viewBox="0 0 134 25"><defs><style>.cls-1{fill:#fff;}.cls-2{fill:#e86d99;}</style></defs><path class="cls-1" d="M13.17,20H10.88A1.88,1.88,0,0,1,9,18.09V13.36H6.55v4.73A1.88,1.88,0,0,1,4.67,20H2.38A1.88,1.88,0,0,1,.51,18.09V3.56A1.88,1.88,0,0,1,2.38,1.68H4.67A1.88,1.88,0,0,1,6.55,3.56V7.62H9V3.56a1.88,1.88,0,0,1,1.88-1.88h2.29A1.88,1.88,0,0,1,15,3.56V18.09A1.88,1.88,0,0,1,13.17,20Z"/><path class="cls-1" d="M19.34,20.22a4.88,4.88,0,0,1-5.07-5,4.72,4.72,0,0,1,1.88-3.91,1.71,1.71,0,0,1-.37-.47L14.93,9.3a1.88,1.88,0,0,1,.65-2.5A10.07,10.07,0,0,1,21,5.09c3.65,0,5.82,2.42,5.82,6.47v6.53A1.88,1.88,0,0,1,24.9,20H23A1.86,1.86,0,0,1,22,19.62,6.18,6.18,0,0,1,19.34,20.22Z"/><path class="cls-1" d="M30.36,20.22c-1,0-4.13-.33-4.13-4.67V2.38A1.88,1.88,0,0,1,28.11.5h2.27a1.88,1.88,0,0,1,1.88,1.88V14.85l.08.06a1.86,1.86,0,0,1,.8,1.22l.29,1.72a1.88,1.88,0,0,1-1.22,2.09A5.49,5.49,0,0,1,30.36,20.22Z"/><path class="cls-1" d="M36.55,20.22a4.88,4.88,0,0,1-5.07-5,4.72,4.72,0,0,1,1.88-3.91,1.71,1.71,0,0,1-.37-.47L32.15,9.3a1.88,1.88,0,0,1,.64-2.5,10.07,10.07,0,0,1,5.38-1.71c3.64,0,5.82,2.42,5.82,6.47v6.53A1.88,1.88,0,0,1,42.11,20H40.26a1.86,1.86,0,0,1-1.09-.35A6.18,6.18,0,0,1,36.55,20.22Z"/><path class="cls-1" d="M60.62,20H58.35a1.88,1.88,0,0,1-1.87-1.88V11.54a4.79,4.79,0,0,0,0-.69,2.84,2.84,0,0,0-.46.33v6.91A1.88,1.88,0,0,1,54.1,20H51.83A1.88,1.88,0,0,1,50,18.09V11.54a5.17,5.17,0,0,0,0-.69,2.91,2.91,0,0,0-.44.32v6.92A1.88,1.88,0,0,1,47.59,20H45.32a1.88,1.88,0,0,1-1.87-1.88V7.25a1.88,1.88,0,0,1,1.87-1.88h1.86a1.89,1.89,0,0,1,1.09.35,5.43,5.43,0,0,1,2.49-.63,5,5,0,0,1,3.29,1.09,5.6,5.6,0,0,1,3.24-1.09c1.22,0,5.21.45,5.21,6.18v6.82A1.88,1.88,0,0,1,60.62,20Z"/><path class="cls-1" d="M66.46,20.22a4.88,4.88,0,0,1-5.07-5,4.72,4.72,0,0,1,1.88-3.91,1.71,1.71,0,0,1-.37-.47L62.05,9.3a1.89,1.89,0,0,1,.65-2.5,10.07,10.07,0,0,1,5.37-1.71c3.65,0,5.82,2.42,5.82,6.47v6.53A1.88,1.88,0,0,1,72,20H70.16a1.86,1.86,0,0,1-1.08-.35A6.18,6.18,0,0,1,66.46,20.22Z"/><path class="cls-1" d="M84.24,20H82a1.88,1.88,0,0,1-1.87-1.88V11.54A3.84,3.84,0,0,0,80,10.8a1.44,1.44,0,0,0-.66.4v6.89A1.88,1.88,0,0,1,77.5,20H75.23a1.88,1.88,0,0,1-1.88-1.88V7.25a1.88,1.88,0,0,1,1.88-1.88h1.85a1.88,1.88,0,0,1,1.14.38,5.87,5.87,0,0,1,2.69-.66c1.57,0,5.21.6,5.21,6.18v6.82A1.88,1.88,0,0,1,84.24,20Z"/><path class="cls-1" d="M94.91,20.22a8.66,8.66,0,0,1-5.27-1.92,1.88,1.88,0,0,1-.33-2.56l1.07-1.46a1.78,1.78,0,0,1,.84-.64,4.39,4.39,0,0,1-1.66-3.5c0-2.92,2.42-5.05,5.74-5.05A7.53,7.53,0,0,1,100,6.78a1.89,1.89,0,0,1,.33,2.61l-1.07,1.4a2.16,2.16,0,0,1-.37.37,4.52,4.52,0,0,1,2,3.89C100.91,17.54,99,20.22,94.91,20.22Z"/><path class="cls-1" d="M104,20.22a4.88,4.88,0,0,1-5.07-5,4.72,4.72,0,0,1,1.88-3.91,1.71,1.71,0,0,1-.37-.47L99.59,9.3a1.88,1.88,0,0,1,.64-2.5,10.13,10.13,0,0,1,5.38-1.71c3.65,0,5.82,2.42,5.82,6.47v6.53A1.88,1.88,0,0,1,109.56,20H107.7a1.86,1.86,0,0,1-1.08-.35A6.18,6.18,0,0,1,104,20.22Z"/><path class="cls-1" d="M113.26,24.5a5.85,5.85,0,0,1-2-.33A1.88,1.88,0,0,1,110.08,22l.43-1.78a1.91,1.91,0,0,1,.9-1.18,1.84,1.84,0,0,1,1.47-.17,1.67,1.67,0,0,0,.3.08c.17,0,.39-.63.43-.75l0-.05L109.57,7.94a1.87,1.87,0,0,1,1.74-2.57h2.33a1.87,1.87,0,0,1,1.76,1.24l1.15,3.19,1-3.11a1.88,1.88,0,0,1,1.79-1.32h2.21a1.88,1.88,0,0,1,1.78,2.49l-4,11.49C118.79,20.78,117.44,24.5,113.26,24.5Z"/><path class="cls-1" d="M126.06,20.22a4.88,4.88,0,0,1-5.07-5,4.72,4.72,0,0,1,1.88-3.91,1.71,1.71,0,0,1-.37-.47l-.85-1.53a1.9,1.9,0,0,1,.65-2.5,10.07,10.07,0,0,1,5.37-1.71c3.65,0,5.82,2.42,5.82,6.47v6.53A1.88,1.88,0,0,1,131.62,20h-1.86a1.86,1.86,0,0,1-1.08-.35A6.18,6.18,0,0,1,126.06,20.22Z"/><path class="cls-2" d="M2.38,3.56H4.67V9.49h6.21V3.56h2.29V18.09H10.88V11.48H4.67v6.61H2.38Z"/><path class="cls-2" d="M16.14,15.21c0-2.33,2-3.53,6.49-4,0-1.26-.47-2.37-2.07-2.37a6,6,0,0,0-3.13,1.11l-.85-1.54A8.28,8.28,0,0,1,21,7c2.7,0,3.95,1.72,3.95,4.59v6.53H23l-.17-1.24h-.08a5.43,5.43,0,0,1-3.45,1.49A3,3,0,0,1,16.14,15.21Zm6.49.08V12.63c-3.21.37-4.3,1.2-4.3,2.42,0,1.07.73,1.5,1.7,1.5A3.83,3.83,0,0,0,22.63,15.29Z"/><path class="cls-2" d="M28.11,15.55V2.38h2.27V15.66c0,.61.25.83.53.83a1.6,1.6,0,0,0,.38,0l.29,1.72a3.52,3.52,0,0,1-1.22.17C28.72,18.34,28.11,17.3,28.11,15.55Z"/><path class="cls-2" d="M33.36,15.21c0-2.33,2-3.53,6.48-4,0-1.26-.47-2.37-2.07-2.37a6,6,0,0,0-3.13,1.11l-.85-1.54A8.29,8.29,0,0,1,38.17,7c2.7,0,3.94,1.72,3.94,4.59v6.53H40.26l-.18-1.24H40a5.43,5.43,0,0,1-3.45,1.49A3,3,0,0,1,33.36,15.21Zm6.48.08V12.63c-3.21.37-4.3,1.2-4.3,2.42,0,1.07.73,1.5,1.7,1.5A3.81,3.81,0,0,0,39.84,15.29Z"/><path class="cls-2" d="M45.32,7.25h1.86l.17,1.51h.06A4.74,4.74,0,0,1,50.76,7a2.89,2.89,0,0,1,3,2,5,5,0,0,1,3.53-2c2.27,0,3.33,1.54,3.33,4.3v6.82H58.35V11.54c0-1.87-.59-2.62-1.81-2.62A3.62,3.62,0,0,0,54.1,10.4v7.69H51.83V11.54c0-1.87-.57-2.62-1.81-2.62a3.63,3.63,0,0,0-2.43,1.48v7.69H45.32Z"/><path class="cls-2" d="M63.26,15.21c0-2.33,2-3.53,6.49-4,0-1.26-.47-2.37-2.07-2.37a6,6,0,0,0-3.13,1.11L63.7,8.39A8.28,8.28,0,0,1,68.07,7c2.7,0,4,1.72,4,4.59v6.53H70.16L70,16.85h-.08a5.43,5.43,0,0,1-3.45,1.49A3,3,0,0,1,63.26,15.21Zm6.49.08V12.63c-3.21.37-4.3,1.2-4.3,2.42,0,1.07.73,1.5,1.7,1.5A3.83,3.83,0,0,0,69.75,15.29Z"/><path class="cls-2" d="M75.23,7.25h1.85l.18,1.49h.06A5.2,5.2,0,0,1,80.91,7c2.31,0,3.33,1.54,3.33,4.3v6.82H82V11.54c0-1.87-.55-2.62-1.83-2.62-1,0-1.69.51-2.64,1.48v7.69H75.23Z"/><path class="cls-2" d="M90.83,16.85l1.06-1.46A4.91,4.91,0,0,0,95,16.63c1.3,0,1.91-.63,1.91-1.46,0-1-1.22-1.42-2.39-1.87-1.46-.55-3-1.32-3-3.16S92.9,7,95.3,7a5.66,5.66,0,0,1,3.51,1.28l-1.06,1.4a4.06,4.06,0,0,0-2.41-.94c-1.2,0-1.75.59-1.75,1.34,0,.92,1.06,1.28,2.24,1.71,1.52.57,3.2,1.24,3.2,3.29,0,1.82-1.44,3.29-4.12,3.29A6.74,6.74,0,0,1,90.83,16.85Z"/><path class="cls-2" d="M100.8,15.21c0-2.33,2-3.53,6.49-4,0-1.26-.47-2.37-2.07-2.37a6,6,0,0,0-3.13,1.11l-.85-1.54A8.28,8.28,0,0,1,105.61,7c2.7,0,4,1.72,4,4.59v6.53H107.7l-.17-1.24h-.08A5.43,5.43,0,0,1,104,18.34,3,3,0,0,1,100.8,15.21Zm6.49.08V12.63c-3.21.37-4.3,1.2-4.3,2.42,0,1.07.73,1.5,1.7,1.5A3.83,3.83,0,0,0,107.29,15.29Z"/><path class="cls-2" d="M111.9,22.41l.44-1.78a2.82,2.82,0,0,0,.79.16c1.18,0,1.87-.87,2.26-2l.22-.75-4.3-10.76h2.33l2,5.58c.31,1,.65,2.05,1,3.05h.1c.28-1,.57-2.07.85-3.05l1.73-5.58h2.21l-4,11.49c-.85,2.33-2,3.88-4.28,3.88A4.09,4.09,0,0,1,111.9,22.41Z"/><path class="cls-2" d="M122.86,15.21c0-2.33,2-3.53,6.49-4,0-1.26-.47-2.37-2.07-2.37a6,6,0,0,0-3.13,1.11l-.85-1.54A8.28,8.28,0,0,1,127.67,7c2.71,0,4,1.72,4,4.59v6.53h-1.86l-.17-1.24h-.08a5.43,5.43,0,0,1-3.45,1.49A3,3,0,0,1,122.86,15.21Zm6.49.08V12.63c-3.21.37-4.3,1.2-4.3,2.42,0,1.07.73,1.5,1.7,1.5A3.83,3.83,0,0,0,129.35,15.29Z"/></svg>