<svg id="レイヤー_2" data-name="レイヤー 2" xmlns="http://www.w3.org/2000/svg" viewBox="0 0 125 25"><defs><style>.cls-1{fill:#fff;}.cls-2{fill:#e86d99;}</style></defs><path class="cls-1" d="M8.36,20.05H6.27a1.72,1.72,0,0,1-1.72-1.72V8.53H2.37A1.71,1.71,0,0,1,.66,6.81V5.05A1.71,1.71,0,0,1,2.37,3.33h9.9A1.71,1.71,0,0,1,14,5.05V6.81a1.71,1.71,0,0,1-1.71,1.72h-2.2v9.8A1.72,1.72,0,0,1,8.36,20.05Z"/><path class="cls-1" d="M16.45,20.05H14.38a1.72,1.72,0,0,1-1.72-1.72V8.42A1.72,1.72,0,0,1,14.38,6.7h1.69A1.69,1.69,0,0,1,17,7a4.24,4.24,0,0,1,2.06-.55A4.19,4.19,0,0,1,21,6.83a1.73,1.73,0,0,1,.95,1.91l-.38,1.8a1.77,1.77,0,0,1-.81,1.13,1.74,1.74,0,0,1-1.39.15,1.22,1.22,0,0,0-.47-.08c-.11,0-.41.19-.68.76v5.83A1.72,1.72,0,0,1,16.45,20.05Z"/><path class="cls-1" d="M24.1,20.28a4.45,4.45,0,0,1-4.64-4.58,4.28,4.28,0,0,1,1.72-3.57,1.74,1.74,0,0,1-.34-.43l-.77-1.41A1.72,1.72,0,0,1,20.65,8a9.2,9.2,0,0,1,4.92-1.56c3.33,0,5.32,2.21,5.32,5.92v6a1.71,1.71,0,0,1-1.71,1.72h-1.7a1.72,1.72,0,0,1-1-.32A5.59,5.59,0,0,1,24.1,20.28Z"/><path class="cls-1" d="M40.35,20.05H38.28a1.72,1.72,0,0,1-1.72-1.72v-6a4.76,4.76,0,0,0,0-.68c-.12,0-.28.07-.61.36v6.3a1.72,1.72,0,0,1-1.72,1.72H32.12a1.72,1.72,0,0,1-1.72-1.72V8.42A1.72,1.72,0,0,1,32.12,6.7h1.69a1.71,1.71,0,0,1,1,.35,5.32,5.32,0,0,1,2.46-.6c1.43,0,4.76.55,4.76,5.65v6.23A1.72,1.72,0,0,1,40.35,20.05Z"/><path class="cls-1" d="M46.75,24.5c-4.3,0-5.82-2.33-5.82-4.33a3.88,3.88,0,0,1,.85-2.39,3.59,3.59,0,0,1,.26-3.4,5,5,0,0,1-.77-2.66,5.3,5.3,0,0,1,5.56-5.27,6,6,0,0,1,1.72.25h3.23A1.72,1.72,0,0,1,53.5,8.42V10a1.72,1.72,0,0,1-1.25,1.65c0,.06,0,.11,0,.17a5,5,0,0,1-1.56,3.69,3.81,3.81,0,0,1,3,3.84C53.66,22.32,50.76,24.5,46.75,24.5Zm2-4.17h0Zm-1.91-9h-.06a.68.68,0,0,0-.07.36s0,.42.16.42.15-.42.15-.42a.73.73,0,0,0-.07-.37Z"/><path class="cls-1" d="M61.88,20.28c-3.8,0-6.46-2.84-6.46-6.91A6.56,6.56,0,0,1,62,6.45a6,6,0,0,1,4,1.56,1.71,1.71,0,0,1,.24,2.33l-1,1.35a1.71,1.71,0,0,1-1.2.67,1.69,1.69,0,0,1-1.31-.43c-.37-.34-.54-.34-.62-.34-1.1,0-1.15,1.49-1.15,1.78s0,1.78,1.08,1.78a1.78,1.78,0,0,0,1.05-.49,1.71,1.71,0,0,1,2.56.39l.87,1.37a1.73,1.73,0,0,1-.32,2.21A6.63,6.63,0,0,1,61.88,20.28Z"/><path class="cls-1" d="M69.5,20.28a4.45,4.45,0,0,1-4.63-4.58,4.28,4.28,0,0,1,1.72-3.57,1.74,1.74,0,0,1-.34-.43l-.77-1.41A1.72,1.72,0,0,1,66.06,8a10.7,10.7,0,0,1,2.53-1.19,1.71,1.71,0,0,1,0-2.24l3-3.47A1.76,1.76,0,0,1,72.75.5,1.72,1.72,0,0,1,74,1l1.44,1.37a1.72,1.72,0,0,1,0,2.5l-2.17,2c1.92.81,3,2.74,3,5.49v6a1.72,1.72,0,0,1-1.71,1.72h-1.7a1.72,1.72,0,0,1-1-.32A5.6,5.6,0,0,1,69.5,20.28Z"/><path class="cls-1" d="M89.82,20.05H87.75A1.72,1.72,0,0,1,86,18.33v-6a3.39,3.39,0,0,0,0-.68c-.11,0-.28.07-.61.36v6.3a1.72,1.72,0,0,1-1.72,1.72H81.58a1.72,1.72,0,0,1-1.72-1.72V8.42A1.72,1.72,0,0,1,81.58,6.7h1.7a1.74,1.74,0,0,1,1,.35,5.28,5.28,0,0,1,2.45-.6c1.43,0,4.77.55,4.77,5.65v6.23A1.72,1.72,0,0,1,89.82,20.05Z"/><path class="cls-1" d="M101.07,20.05H99a1.72,1.72,0,0,1-1.72-1.72v-6a3.39,3.39,0,0,0,0-.68c-.12,0-.28.07-.61.36v6.3a1.72,1.72,0,0,1-1.72,1.72H92.83a1.72,1.72,0,0,1-1.72-1.72V4a1.72,1.72,0,0,1,1.72-1.72H94.9A1.72,1.72,0,0,1,96.62,4V6.64A5.21,5.21,0,0,1,98,6.45c1.43,0,4.76.55,4.76,5.65v6.23A1.71,1.71,0,0,1,101.07,20.05Z"/><path class="cls-1" d="M106.37,20.28a4.45,4.45,0,0,1-4.64-4.58,4.28,4.28,0,0,1,1.72-3.57,2,2,0,0,1-.33-.43l-.78-1.41A1.72,1.72,0,0,1,102.93,8c.26-.16.51-.31.77-.45l-.25-.23A1.72,1.72,0,0,1,103.29,5l2.27-2.78a1.73,1.73,0,0,1,1.33-.63H109a1.71,1.71,0,0,1,1.33.63L112.58,5a1.72,1.72,0,0,1-.15,2.34l-.7.65a6.35,6.35,0,0,1,1.44,4.39v6a1.72,1.72,0,0,1-1.72,1.72h-1.69a1.7,1.7,0,0,1-1-.32A5.6,5.6,0,0,1,106.37,20.28Z"/><path class="cls-1" d="M122.63,20.05h-2.07a1.72,1.72,0,0,1-1.72-1.72v-6a3.39,3.39,0,0,0,0-.68c-.12,0-.28.07-.61.36v6.3a1.72,1.72,0,0,1-1.72,1.72h-2.07a1.72,1.72,0,0,1-1.72-1.72V8.42a1.72,1.72,0,0,1,1.72-1.72h1.7a1.71,1.71,0,0,1,1,.35,5.35,5.35,0,0,1,2.46-.6c1.43,0,4.76.55,4.76,5.65v6.23A1.71,1.71,0,0,1,122.63,20.05Z"/><path class="cls-2" d="M6.27,6.81H2.37V5.05h9.9V6.81H8.36V18.33H6.27Z"/><path class="cls-2" d="M14.38,8.42h1.69l.16,1.78h.06a3.42,3.42,0,0,1,2.81-2,2.54,2.54,0,0,1,1.12.21l-.38,1.8a3.16,3.16,0,0,0-1-.16c-.81,0-1.79.56-2.4,2.13v6.18H14.38Z"/><path class="cls-2" d="M21.17,15.7c0-2.13,1.81-3.23,5.93-3.68,0-1.15-.43-2.16-1.89-2.16a5.43,5.43,0,0,0-2.86,1l-.78-1.41a7.6,7.6,0,0,1,4-1.29c2.47,0,3.61,1.56,3.61,4.2v6h-1.7l-.16-1.13h-.07a5,5,0,0,1-3.15,1.37A2.75,2.75,0,0,1,21.17,15.7Zm5.93.07V13.34c-2.93.34-3.92,1.1-3.92,2.22s.66,1.37,1.55,1.37A3.49,3.49,0,0,0,27.1,15.77Z"/><path class="cls-2" d="M32.12,8.42h1.69L34,9.79H34a4.7,4.7,0,0,1,3.28-1.62c2.11,0,3,1.4,3,3.93v6.23H38.28v-6c0-1.71-.5-2.4-1.68-2.4a3.34,3.34,0,0,0-2.41,1.35v7H32.12Z"/><path class="cls-2" d="M42.65,20.17A2.61,2.61,0,0,1,44.09,18v-.09a1.82,1.82,0,0,1-.9-1.64,2.39,2.39,0,0,1,1.11-1.84v-.07A3.38,3.38,0,0,1,43,11.72a3.57,3.57,0,0,1,3.84-3.55,4,4,0,0,1,1.44.25h3.51V10H49.89a2.65,2.65,0,0,1,.65,1.82,3.39,3.39,0,0,1-3.71,3.41,3.42,3.42,0,0,1-1.39-.31,1.27,1.27,0,0,0-.54,1c0,.6.39,1,1.66,1h1.82c2.34,0,3.57.72,3.57,2.41,0,1.91-2,3.46-5.2,3.46C44.38,22.78,42.65,21.9,42.65,20.17Zm7.29-.52c0-.83-.64-1.08-1.85-1.08h-1.5a6.22,6.22,0,0,1-1.33-.15,1.77,1.77,0,0,0-.85,1.44c0,1,1,1.55,2.65,1.55S49.94,20.57,49.94,19.65ZM48.7,11.72a1.89,1.89,0,1,0-3.75,0,1.89,1.89,0,1,0,3.75,0Z"/><path class="cls-2" d="M57.14,13.37A4.86,4.86,0,0,1,62,8.17a4.25,4.25,0,0,1,2.9,1.13l-1,1.35a2.63,2.63,0,0,0-1.77-.77c-1.68,0-2.87,1.4-2.87,3.49s1.16,3.5,2.8,3.5a3.4,3.4,0,0,0,2.16-.9l.86,1.37a4.9,4.9,0,0,1-3.22,1.23C59.19,18.57,57.14,16.67,57.14,13.37Z"/><path class="cls-2" d="M66.58,15.7c0-2.13,1.81-3.23,5.93-3.68,0-1.15-.43-2.16-1.89-2.16a5.43,5.43,0,0,0-2.86,1L67,9.46a7.6,7.6,0,0,1,4-1.29c2.47,0,3.61,1.56,3.61,4.2v6h-1.7l-.16-1.13h-.07a5,5,0,0,1-3.16,1.37A2.74,2.74,0,0,1,66.58,15.7Zm5.93.07V13.34c-2.93.34-3.93,1.1-3.93,2.22s.67,1.37,1.56,1.37A3.49,3.49,0,0,0,72.51,15.77ZM69.88,5.7l3-3.48,1.44,1.37L71,6.72Z"/><path class="cls-2" d="M81.58,8.42h1.7l.16,1.37h0a4.7,4.7,0,0,1,3.28-1.62c2.11,0,3,1.4,3,3.93v6.23H87.75v-6c0-1.71-.51-2.4-1.68-2.4a3.35,3.35,0,0,0-2.42,1.35v7H81.58Z"/><path class="cls-2" d="M92.83,4H94.9v3.8l-.09,2A4.62,4.62,0,0,1,98,8.17c2.11,0,3,1.4,3,3.93v6.23H99v-6c0-1.71-.51-2.4-1.68-2.4A3.35,3.35,0,0,0,94.9,11.3v7H92.83Z"/><path class="cls-2" d="M103.45,15.7c0-2.13,1.8-3.23,5.93-3.68,0-1.15-.43-2.16-1.89-2.16a5.47,5.47,0,0,0-2.87,1l-.77-1.41a7.54,7.54,0,0,1,4-1.29c2.47,0,3.6,1.56,3.6,4.2v6h-1.69l-.17-1.13h-.07a4.94,4.94,0,0,1-3.15,1.37A2.74,2.74,0,0,1,103.45,15.7Zm3.44-12.4H109l2.27,2.78-.84.79L108,4.71h-.07l-2.43,2.16-.85-.79Zm2.49,12.47V13.34c-2.94.34-3.93,1.1-3.93,2.22s.67,1.37,1.55,1.37A3.51,3.51,0,0,0,109.38,15.77Z"/><path class="cls-2" d="M114.39,8.42h1.7l.16,1.37h0a4.7,4.7,0,0,1,3.28-1.62c2.11,0,3,1.4,3,3.93v6.23h-2.07v-6c0-1.71-.51-2.4-1.68-2.4a3.35,3.35,0,0,0-2.42,1.35v7h-2.07Z"/></svg>