<svg xmlns="http://www.w3.org/2000/svg" viewBox="0 0 106.77 23.36"><defs><style>.cls-1{fill:#fff;}.cls-2{fill:#e86d99;}</style></defs><g id="レイヤー_2" data-name="レイヤー 2"><g id="レイヤー_1-2" data-name="レイヤー 1"><path class="cls-1" d="M14.24,22.37h-.15a2,2,0,0,1-1.37-.7A42.76,42.76,0,0,0,3.34,14a2,2,0,0,1-1-1.44,2,2,0,0,1,.53-1.65l1-1.08a2,2,0,0,1,2.44-.37A43.64,43.64,0,0,1,10,11.79a33,33,0,0,0,3-2.67H2a2,2,0,0,1-2-2V5.7a2,2,0,0,1,2-2H18.08A2,2,0,0,1,20,4l1.24.94a2,2,0,0,1,.5,2.62,2.55,2.55,0,0,1-.64.71,36.36,36.36,0,0,1-6.71,7c1.2,1.13,2.16,2.15,2.62,2.65a2,2,0,0,1,.52,1.47,2,2,0,0,1-.69,1.39l-1.28,1.11A2,2,0,0,1,14.24,22.37Z"/><path class="cls-1" d="M33.56,23.36H32a2,2,0,0,1-2-2V14.25c-1.63,1-3.39,1.95-5.12,2.8a2,2,0,0,1-2.58-.74,5.51,5.51,0,0,0-.6-.8,2,2,0,0,1,.58-3.23A51.39,51.39,0,0,0,37.06,1.89a2,2,0,0,1,2.67-.25l1.58,1.17a2,2,0,0,1,.36,2.85,2.35,2.35,0,0,1-1.28.84A56,56,0,0,1,36,10.25l-.06.19a2.07,2.07,0,0,1-.36.67V21.36A2,2,0,0,1,33.56,23.36ZM40,2.62Z"/><path class="cls-1" d="M61.64,21.38h-.21A2,2,0,0,1,60,20.55a95.45,95.45,0,0,0-8.94-10.5c-.42.48-1,1.09-1.55,1.76-1,1.12-2.1,2.37-2.91,3.26a2.54,2.54,0,0,1-.83,1.25,2,2,0,0,1-2.71-.14l-1.3-1.35a2,2,0,0,1,0-2.76c.94-1,2.49-2.69,3.84-4.18.93-1,1.77-1.95,2.26-2.47A4.33,4.33,0,0,1,51,4a4.57,4.57,0,0,1,3,1.3c.28.26.57.53.87.83a4.44,4.44,0,0,1-.11-1A4.36,4.36,0,1,1,59.12,9.5,4.52,4.52,0,0,1,58,9.36c2.2,2.39,4.56,5.16,6.48,7.65a2,2,0,0,1-.23,2.69L63,20.86A2,2,0,0,1,61.64,21.38ZM42.9,15.09ZM59.12,4.81a.35.35,0,0,0-.37.34.35.35,0,0,0,.37.32.32.32,0,0,0,.32-.32A.32.32,0,0,0,59.12,4.81Z"/><path class="cls-1" d="M65.27,15A2,2,0,0,1,64,14.56a2,2,0,0,1-.74-1.43l-.13-1.88a2,2,0,0,1,2-2.14H82.68a2,2,0,0,1,2,2V12.6a2,2,0,0,1-2,2h-16a3,3,0,0,1-1.07.38Zm-1-3.43Z"/><path class="cls-1" d="M89.44,23.09a2,2,0,0,1-1.61-.82l-1.2-1.64a2,2,0,0,1-.29-1.79,2,2,0,0,1,1.27-1.29c5.69-1.91,9.58-4.84,12.07-9.13A1.8,1.8,0,0,1,99.34,8,16.57,16.57,0,0,0,97,5.37a2,2,0,0,1-.68-1.57,2,2,0,0,1,.79-1.53l.78-.58a2,2,0,0,1,1.79-.32,2.42,2.42,0,0,1,.32-.32l.76-.61a2,2,0,0,1,2.55,0,20.74,20.74,0,0,1,3.07,3.4A2,2,0,0,1,106,6.63l-.52.39a2,2,0,0,1,.19,2C102.86,15.09,98,19.51,91.21,22.12a2.25,2.25,0,0,1-.87.75A1.93,1.93,0,0,1,89.44,23.09Zm-1.66-1.9ZM92,14.39a1.94,1.94,0,0,1-.87-.2,28.53,28.53,0,0,0-5.22-1.78,2,2,0,0,1-1.35-2.83l.63-1.28a2,2,0,0,1,2.23-1.07,31.88,31.88,0,0,1,6.08,2,2,2,0,0,1,.94,2.66l-.63,1.32a2,2,0,0,1-1.14,1A1.92,1.92,0,0,1,92,14.39Zm2.23-5.08a2,2,0,0,1-.9-.21,30.88,30.88,0,0,0-5.2-2,2,2,0,0,1-1.24-2.85l.63-1.22a2,2,0,0,1,2.29-1,35.42,35.42,0,0,1,6,2.2A2,2,0,0,1,96.68,7L96,8.26A2,2,0,0,1,94.23,9.31Z"/><path class="cls-2" d="M20.1,6.29a.57.57,0,0,1-.38.3,37.16,37.16,0,0,1-8.1,8.14,40.78,40.78,0,0,1,4,3.72l-1.83,1.6a43,43,0,0,0-9.53-7.81L5.7,10.72A42.6,42.6,0,0,1,10,13.52a30.33,30.33,0,0,0,6.46-6.3H2v-2H18l.32-.17Z"/><path class="cls-2" d="M40.32,4.32a.63.63,0,0,1-.46.19.82.82,0,0,1-.21,0,52.62,52.62,0,0,1-5.8,4.89l.57.23a.56.56,0,0,1-.5.36V21.05H31.71V10.74a61.36,61.36,0,0,1-7.45,4.31A9.28,9.28,0,0,0,23,13.43c5.61-2.54,11.88-6.95,15.18-10.71Z"/><path class="cls-2" d="M43.14,12.93c1.57-1.62,4.66-5.1,5.94-6.49a2.68,2.68,0,0,1,1.89-1,3.3,3.3,0,0,1,2,1,103.38,103.38,0,0,1,10,11l-1.79,1.66A93.13,93.13,0,0,0,52,8.35c-.4-.38-.67-.59-.95-.59s-.5.23-.86.61c-.84.93-3.63,4.22-5,5.73a.76.76,0,0,1-.26.68ZM59,2.39A2.32,2.32,0,1,1,56.7,4.72,2.33,2.33,0,0,1,59,2.39Zm1.58,2.33A1.6,1.6,0,0,0,59,3.12a1.59,1.59,0,1,0,1.58,1.6Z"/><path class="cls-2" d="M65.13,10.47H82.66v2.1H66a.89.89,0,0,1-.68.38Z"/><path class="cls-2" d="M87.13,8.65a30.73,30.73,0,0,1,5.53,1.91l-.91,1.82a33.67,33.67,0,0,0-5.5-2Zm.93,10C94.63,16.54,99.37,13,102.19,6.76A18.23,18.23,0,0,0,104,8.1,23.2,23.2,0,0,1,90,20.3a.51.51,0,0,1-.3.54ZM89.57,3.46a34.84,34.84,0,0,1,5.5,2.06l-1,1.78a29.27,29.27,0,0,0-5.43-2.16Zm9.68-.69a16.58,16.58,0,0,1,2.6,3l-1.07.78a18.63,18.63,0,0,0-2.52-3Zm3.06-1.22a17.86,17.86,0,0,1,2.61,3l-1.07.78a17.84,17.84,0,0,0-2.5-3Z"/></g></g></svg>