<?xml version="1.0" encoding="utf-8"?>
<!-- Generator: Adobe Illustrator 26.0.1, SVG Export Plug-In . SVG Version: 6.00 Build 0)  -->
<svg version="1.1" id="レイヤー_1" xmlns="http://www.w3.org/2000/svg" xmlns:xlink="http://www.w3.org/1999/xlink" x="0px"
	 y="0px" viewBox="0 0 320.5 456.7" style="enable-background:new 0 0 320.5 456.7;" xml:space="preserve">
<style type="text/css">
	.st0{clip-path:url(#SVGID_00000080164645484569339840000015202056749208865426_);}
	.st1{fill:#FFF8B3;stroke:#FFFFFF;stroke-width:0.53;stroke-miterlimit:10;}
	.st2{fill:#FCDA4C;stroke:#FFFFFF;stroke-width:0.53;stroke-miterlimit:10;}
	.st3{fill:#FFFFFF;stroke:#F7D56B;stroke-width:0.53;stroke-miterlimit:10;}
</style>
<g>
	<defs>
		<rect id="SVGID_1_" x="0.3" width="320" height="456.7"/>
	</defs>
	<clipPath id="SVGID_00000177482745861064007810000000787489987710590346_">
		<use xlink:href="#SVGID_1_"  style="overflow:visible;"/>
	</clipPath>
	
		<g id="レイヤー_2_00000008122632890675317050000011779023200913557892_" style="clip-path:url(#SVGID_00000177482745861064007810000000787489987710590346_);">
		<g id="レイヤー_1-2">
			<polygon class="st1" points="10.3,28.1 0.3,20.9 0.3,-8.2 10.3,-1 			"/>
			<polygon class="st2" points="10.3,28.1 20.3,20.9 20.3,-8.2 10.3,-1 			"/>
			<polygon class="st3" points="30.3,28.1 20.3,20.9 20.3,-8.2 30.3,-1 			"/>
			<polygon class="st3" points="30.3,28.1 40.3,20.9 40.3,-8.2 30.3,-1 			"/>
			<polygon class="st1" points="50.3,28.1 40.3,20.9 40.3,-8.2 50.3,-1 			"/>
			<polygon class="st2" points="50.3,28.1 60.3,20.9 60.3,-8.2 50.3,-1 			"/>
			<polygon class="st3" points="70.3,28.1 60.3,20.9 60.3,-8.2 70.3,-1 			"/>
			<polygon class="st3" points="70.3,28.1 80.3,20.9 80.3,-8.2 70.3,-1 			"/>
			<polygon class="st1" points="90.3,28.1 80.3,20.9 80.3,-8.2 90.3,-1 			"/>
			<polygon class="st2" points="90.3,28.1 100.3,20.9 100.3,-8.2 90.3,-1 			"/>
			<polygon class="st3" points="110.3,28.1 100.3,20.9 100.3,-8.2 110.3,-1 			"/>
			<polygon class="st3" points="110.3,28.1 120.3,20.9 120.3,-8.2 110.3,-1 			"/>
			<polygon class="st1" points="130.3,28.1 120.3,20.9 120.3,-8.2 130.3,-1 			"/>
			<polygon class="st2" points="130.3,28.1 140.3,20.9 140.3,-8.2 130.3,-1 			"/>
			<polygon class="st3" points="150.3,28.1 140.3,20.9 140.3,-8.2 150.3,-1 			"/>
			<polygon class="st3" points="150.3,28.1 160.3,20.9 160.3,-8.2 150.3,-1 			"/>
			<polygon class="st1" points="170.3,28.1 160.3,20.9 160.3,-8.2 170.3,-1 			"/>
			<polygon class="st2" points="170.3,28.1 180.3,20.9 180.3,-8.2 170.3,-1 			"/>
			<polygon class="st3" points="190.3,28.1 180.3,20.9 180.3,-8.2 190.3,-1 			"/>
			<polygon class="st3" points="190.3,28.1 200.3,20.9 200.3,-8.2 190.3,-1 			"/>
			<polygon class="st1" points="210.3,28.1 200.3,20.9 200.3,-8.2 210.3,-1 			"/>
			<polygon class="st2" points="210.3,28.1 220.3,20.9 220.3,-8.2 210.3,-1 			"/>
			<polygon class="st3" points="230.3,28.1 220.3,20.9 220.3,-8.2 230.3,-1 			"/>
			<polygon class="st3" points="230.3,28.1 240.3,20.9 240.3,-8.2 230.3,-1 			"/>
			<polygon class="st1" points="250.3,28.1 240.3,20.9 240.3,-8.2 250.3,-1 			"/>
			<polygon class="st2" points="250.3,28.1 260.3,20.9 260.3,-8.2 250.3,-1 			"/>
			<polygon class="st3" points="270.3,28.1 260.3,20.9 260.3,-8.2 270.3,-1 			"/>
			<polygon class="st3" points="270.3,28.1 280.3,20.9 280.3,-8.2 270.3,-1 			"/>
			<polygon class="st1" points="290.3,28.1 280.3,20.9 280.3,-8.2 290.3,-1 			"/>
			<polygon class="st2" points="290.3,28.1 300.3,20.9 300.3,-8.2 290.3,-1 			"/>
			<polygon class="st3" points="310.3,28.1 300.3,20.9 300.3,-8.2 310.3,-1 			"/>
			<polygon class="st3" points="310.3,28.1 320.3,20.9 320.3,-8.2 310.3,-1 			"/>
			<polygon class="st3" points="10.3,57.2 0.3,50 0.3,20.9 10.3,28.1 			"/>
			<polygon class="st3" points="10.3,57.2 20.3,50 20.3,20.9 10.3,28.1 			"/>
			<polygon class="st1" points="30.3,57.2 20.3,50 20.3,20.9 30.3,28.1 			"/>
			<polygon class="st2" points="30.3,57.2 40.3,50 40.3,20.9 30.3,28.1 			"/>
			<polygon class="st3" points="50.3,57.2 40.3,50 40.3,20.9 50.3,28.1 			"/>
			<polygon class="st3" points="50.3,57.2 60.3,50 60.3,20.9 50.3,28.1 			"/>
			<polygon class="st1" points="70.3,57.2 60.3,50 60.3,20.9 70.3,28.1 			"/>
			<polygon class="st2" points="70.3,57.2 80.3,50 80.3,20.9 70.3,28.1 			"/>
			<polygon class="st3" points="90.3,57.2 80.3,50 80.3,20.9 90.3,28.1 			"/>
			<polygon class="st3" points="90.3,57.2 100.3,50 100.3,20.9 90.3,28.1 			"/>
			<polygon class="st1" points="110.3,57.2 100.3,50 100.3,20.9 110.3,28.1 			"/>
			<polygon class="st2" points="110.3,57.2 120.3,50 120.3,20.9 110.3,28.1 			"/>
			<polygon class="st3" points="130.3,57.2 120.3,50 120.3,20.9 130.3,28.1 			"/>
			<polygon class="st3" points="130.3,57.2 140.3,50 140.3,20.9 130.3,28.1 			"/>
			<polygon class="st1" points="150.3,57.2 140.3,50 140.3,20.9 150.3,28.1 			"/>
			<polygon class="st2" points="150.3,57.2 160.3,50 160.3,20.9 150.3,28.1 			"/>
			<polygon class="st3" points="170.3,57.2 160.3,50 160.3,20.9 170.3,28.1 			"/>
			<polygon class="st3" points="170.3,57.2 180.3,50 180.3,20.9 170.3,28.1 			"/>
			<polygon class="st1" points="190.3,57.2 180.3,50 180.3,20.9 190.3,28.1 			"/>
			<polygon class="st2" points="190.3,57.2 200.3,50 200.3,20.9 190.3,28.1 			"/>
			<polygon class="st3" points="210.3,57.2 200.3,50 200.3,20.9 210.3,28.1 			"/>
			<polygon class="st3" points="210.3,57.2 220.3,50 220.3,20.9 210.3,28.1 			"/>
			<polygon class="st1" points="230.3,57.2 220.3,50 220.3,20.9 230.3,28.1 			"/>
			<polygon class="st2" points="230.3,57.2 240.3,50 240.3,20.9 230.3,28.1 			"/>
			<polygon class="st3" points="250.3,57.2 240.3,50 240.3,20.9 250.3,28.1 			"/>
			<polygon class="st3" points="250.3,57.2 260.3,50 260.3,20.9 250.3,28.1 			"/>
			<polygon class="st1" points="270.3,57.2 260.3,50 260.3,20.9 270.3,28.1 			"/>
			<polygon class="st2" points="270.3,57.2 280.3,50 280.3,20.9 270.3,28.1 			"/>
			<polygon class="st3" points="290.3,57.2 280.3,50 280.3,20.9 290.3,28.1 			"/>
			<polygon class="st3" points="290.3,57.2 300.3,50 300.3,20.9 290.3,28.1 			"/>
			<polygon class="st1" points="310.3,57.2 300.3,50 300.3,20.9 310.3,28.1 			"/>
			<polygon class="st2" points="310.3,57.2 320.3,50 320.3,20.9 310.3,28.1 			"/>
			<polygon class="st1" points="10.3,86.3 0.3,79 0.3,50 10.3,57.2 			"/>
			<polygon class="st2" points="10.3,86.3 20.3,79 20.3,50 10.3,57.2 			"/>
			<polygon class="st3" points="30.3,86.3 20.3,79 20.3,50 30.3,57.2 			"/>
			<polygon class="st3" points="30.3,86.3 40.3,79 40.3,50 30.3,57.2 			"/>
			<polygon class="st1" points="50.3,86.3 40.3,79 40.3,50 50.3,57.2 			"/>
			<polygon class="st2" points="50.3,86.3 60.3,79 60.3,50 50.3,57.2 			"/>
			<polygon class="st3" points="70.3,86.3 60.3,79 60.3,50 70.3,57.2 			"/>
			<polygon class="st3" points="70.3,86.3 80.3,79 80.3,50 70.3,57.2 			"/>
			<polygon class="st1" points="90.3,86.3 80.3,79 80.3,50 90.3,57.2 			"/>
			<polygon class="st2" points="90.3,86.3 100.3,79 100.3,50 90.3,57.2 			"/>
			<polygon class="st3" points="110.3,86.3 100.3,79 100.3,50 110.3,57.2 			"/>
			<polygon class="st3" points="110.3,86.3 120.3,79 120.3,50 110.3,57.2 			"/>
			<polygon class="st1" points="130.3,86.3 120.3,79 120.3,50 130.3,57.2 			"/>
			<polygon class="st2" points="130.3,86.3 140.3,79 140.3,50 130.3,57.2 			"/>
			<polygon class="st3" points="150.3,86.3 140.3,79 140.3,50 150.3,57.2 			"/>
			<polygon class="st3" points="150.3,86.3 160.3,79 160.3,50 150.3,57.2 			"/>
			<polygon class="st1" points="170.3,86.3 160.3,79 160.3,50 170.3,57.2 			"/>
			<polygon class="st2" points="170.3,86.3 180.3,79 180.3,50 170.3,57.2 			"/>
			<polygon class="st3" points="190.3,86.3 180.3,79 180.3,50 190.3,57.2 			"/>
			<polygon class="st3" points="190.3,86.3 200.3,79 200.3,50 190.3,57.2 			"/>
			<polygon class="st1" points="210.3,86.3 200.3,79 200.3,50 210.3,57.2 			"/>
			<polygon class="st2" points="210.3,86.3 220.3,79 220.3,50 210.3,57.2 			"/>
			<polygon class="st3" points="230.3,86.3 220.3,79 220.3,50 230.3,57.2 			"/>
			<polygon class="st3" points="230.3,86.3 240.3,79 240.3,50 230.3,57.2 			"/>
			<polygon class="st1" points="250.3,86.3 240.3,79 240.3,50 250.3,57.2 			"/>
			<polygon class="st2" points="250.3,86.3 260.3,79 260.3,50 250.3,57.2 			"/>
			<polygon class="st3" points="270.3,86.3 260.3,79 260.3,50 270.3,57.2 			"/>
			<polygon class="st3" points="270.3,86.3 280.3,79 280.3,50 270.3,57.2 			"/>
			<polygon class="st1" points="290.3,86.3 280.3,79 280.3,50 290.3,57.2 			"/>
			<polygon class="st2" points="290.3,86.3 300.3,79 300.3,50 290.3,57.2 			"/>
			<polygon class="st3" points="310.3,86.3 300.3,79 300.3,50 310.3,57.2 			"/>
			<polygon class="st3" points="310.3,86.3 320.3,79 320.3,50 310.3,57.2 			"/>
			<polygon class="st3" points="10.3,115.4 0.3,108.1 0.3,79 10.3,86.3 			"/>
			<polygon class="st3" points="10.3,115.4 20.3,108.1 20.3,79 10.3,86.3 			"/>
			<polygon class="st1" points="30.3,115.4 20.3,108.1 20.3,79 30.3,86.3 			"/>
			<polygon class="st2" points="30.3,115.4 40.3,108.1 40.3,79 30.3,86.3 			"/>
			<polygon class="st3" points="50.3,115.4 40.3,108.1 40.3,79 50.3,86.3 			"/>
			<polygon class="st3" points="50.3,115.4 60.3,108.1 60.3,79 50.3,86.3 			"/>
			<polygon class="st1" points="70.3,115.4 60.3,108.1 60.3,79 70.3,86.3 			"/>
			<polygon class="st2" points="70.3,115.4 80.3,108.1 80.3,79 70.3,86.3 			"/>
			<polygon class="st3" points="90.3,115.4 80.3,108.1 80.3,79 90.3,86.3 			"/>
			<polygon class="st3" points="90.3,115.4 100.3,108.1 100.3,79 90.3,86.3 			"/>
			<polygon class="st1" points="110.3,115.4 100.3,108.1 100.3,79 110.3,86.3 			"/>
			<polygon class="st2" points="110.3,115.4 120.3,108.1 120.3,79 110.3,86.3 			"/>
			<polygon class="st3" points="130.3,115.4 120.3,108.1 120.3,79 130.3,86.3 			"/>
			<polygon class="st3" points="130.3,115.4 140.3,108.1 140.3,79 130.3,86.3 			"/>
			<polygon class="st1" points="150.3,115.4 140.3,108.1 140.3,79 150.3,86.3 			"/>
			<polygon class="st2" points="150.3,115.4 160.3,108.1 160.3,79 150.3,86.3 			"/>
			<polygon class="st3" points="170.3,115.4 160.3,108.1 160.3,79 170.3,86.3 			"/>
			<polygon class="st3" points="170.3,115.4 180.3,108.1 180.3,79 170.3,86.3 			"/>
			<polygon class="st1" points="190.3,115.4 180.3,108.1 180.3,79 190.3,86.3 			"/>
			<polygon class="st2" points="190.3,115.4 200.3,108.1 200.3,79 190.3,86.3 			"/>
			<polygon class="st3" points="210.3,115.4 200.3,108.1 200.3,79 210.3,86.3 			"/>
			<polygon class="st3" points="210.3,115.4 220.3,108.1 220.3,79 210.3,86.3 			"/>
			<polygon class="st1" points="230.3,115.4 220.3,108.1 220.3,79 230.3,86.3 			"/>
			<polygon class="st2" points="230.3,115.4 240.3,108.1 240.3,79 230.3,86.3 			"/>
			<polygon class="st3" points="250.3,115.4 240.3,108.1 240.3,79 250.3,86.3 			"/>
			<polygon class="st3" points="250.3,115.4 260.3,108.1 260.3,79 250.3,86.3 			"/>
			<polygon class="st1" points="270.3,115.4 260.3,108.1 260.3,79 270.3,86.3 			"/>
			<polygon class="st2" points="270.3,115.4 280.3,108.1 280.3,79 270.3,86.3 			"/>
			<polygon class="st3" points="290.3,115.4 280.3,108.1 280.3,79 290.3,86.3 			"/>
			<polygon class="st3" points="290.3,115.4 300.3,108.1 300.3,79 290.3,86.3 			"/>
			<polygon class="st1" points="310.3,115.4 300.3,108.1 300.3,79 310.3,86.3 			"/>
			<polygon class="st2" points="310.3,115.4 320.3,108.1 320.3,79 310.3,86.3 			"/>
			<polygon class="st1" points="10.3,144.5 0.3,137.2 0.3,108.1 10.3,115.4 			"/>
			<polygon class="st2" points="10.3,144.5 20.3,137.2 20.3,108.1 10.3,115.4 			"/>
			<polygon class="st3" points="30.3,144.5 20.3,137.2 20.3,108.1 30.3,115.4 			"/>
			<polygon class="st3" points="30.3,144.5 40.3,137.2 40.3,108.1 30.3,115.4 			"/>
			<polygon class="st1" points="50.3,144.5 40.3,137.2 40.3,108.1 50.3,115.4 			"/>
			<polygon class="st2" points="50.3,144.5 60.3,137.2 60.3,108.1 50.3,115.4 			"/>
			<polygon class="st3" points="70.3,144.5 60.3,137.2 60.3,108.1 70.3,115.4 			"/>
			<polygon class="st3" points="70.3,144.5 80.3,137.2 80.3,108.1 70.3,115.4 			"/>
			<polygon class="st1" points="90.3,144.5 80.3,137.2 80.3,108.1 90.3,115.4 			"/>
			<polygon class="st2" points="90.3,144.5 100.3,137.2 100.3,108.1 90.3,115.4 			"/>
			<polygon class="st3" points="110.3,144.5 100.3,137.2 100.3,108.1 110.3,115.4 			"/>
			<polygon class="st3" points="110.3,144.5 120.3,137.2 120.3,108.1 110.3,115.4 			"/>
			<polygon class="st1" points="130.3,144.5 120.3,137.2 120.3,108.1 130.3,115.4 			"/>
			<polygon class="st2" points="130.3,144.5 140.3,137.2 140.3,108.1 130.3,115.4 			"/>
			<polygon class="st3" points="150.3,144.5 140.3,137.2 140.3,108.1 150.3,115.4 			"/>
			<polygon class="st3" points="150.3,144.5 160.3,137.2 160.3,108.1 150.3,115.4 			"/>
			<polygon class="st1" points="170.3,144.5 160.3,137.2 160.3,108.1 170.3,115.4 			"/>
			<polygon class="st2" points="170.3,144.5 180.3,137.2 180.3,108.1 170.3,115.4 			"/>
			<polygon class="st3" points="190.3,144.5 180.3,137.2 180.3,108.1 190.3,115.4 			"/>
			<polygon class="st3" points="190.3,144.5 200.3,137.2 200.3,108.1 190.3,115.4 			"/>
			<polygon class="st1" points="210.3,144.5 200.3,137.2 200.3,108.1 210.3,115.4 			"/>
			<polygon class="st2" points="210.3,144.5 220.3,137.2 220.3,108.1 210.3,115.4 			"/>
			<polygon class="st3" points="230.3,144.5 220.3,137.2 220.3,108.1 230.3,115.4 			"/>
			<polygon class="st3" points="230.3,144.5 240.3,137.2 240.3,108.1 230.3,115.4 			"/>
			<polygon class="st1" points="250.3,144.5 240.3,137.2 240.3,108.1 250.3,115.4 			"/>
			<polygon class="st2" points="250.3,144.5 260.3,137.2 260.3,108.1 250.3,115.4 			"/>
			<polygon class="st3" points="270.3,144.5 260.3,137.2 260.3,108.1 270.3,115.4 			"/>
			<polygon class="st3" points="270.3,144.5 280.3,137.2 280.3,108.1 270.3,115.4 			"/>
			<polygon class="st1" points="290.3,144.5 280.3,137.2 280.3,108.1 290.3,115.4 			"/>
			<polygon class="st2" points="290.3,144.5 300.3,137.2 300.3,108.1 290.3,115.4 			"/>
			<polygon class="st3" points="310.3,144.5 300.3,137.2 300.3,108.1 310.3,115.4 			"/>
			<polygon class="st3" points="310.3,144.5 320.3,137.2 320.3,108.1 310.3,115.4 			"/>
			<polygon class="st3" points="10.3,173.6 0.3,166.3 0.3,137.2 10.3,144.5 			"/>
			<polygon class="st3" points="10.3,173.6 20.3,166.3 20.3,137.2 10.3,144.5 			"/>
			<polygon class="st1" points="30.3,173.6 20.3,166.3 20.3,137.2 30.3,144.5 			"/>
			<polygon class="st2" points="30.3,173.6 40.3,166.3 40.3,137.2 30.3,144.5 			"/>
			<polygon class="st3" points="50.3,173.6 40.3,166.3 40.3,137.2 50.3,144.5 			"/>
			<polygon class="st3" points="50.3,173.6 60.3,166.3 60.3,137.2 50.3,144.5 			"/>
			<polygon class="st1" points="70.3,173.6 60.3,166.3 60.3,137.2 70.3,144.5 			"/>
			<polygon class="st2" points="70.3,173.6 80.3,166.3 80.3,137.2 70.3,144.5 			"/>
			<polygon class="st3" points="90.3,173.6 80.3,166.3 80.3,137.2 90.3,144.5 			"/>
			<polygon class="st3" points="90.3,173.6 100.3,166.3 100.3,137.2 90.3,144.5 			"/>
			<polygon class="st1" points="110.3,173.6 100.3,166.3 100.3,137.2 110.3,144.5 			"/>
			<polygon class="st2" points="110.3,173.6 120.3,166.3 120.3,137.2 110.3,144.5 			"/>
			<polygon class="st3" points="130.3,173.6 120.3,166.3 120.3,137.2 130.3,144.5 			"/>
			<polygon class="st3" points="130.3,173.6 140.3,166.3 140.3,137.2 130.3,144.5 			"/>
			<polygon class="st1" points="150.3,173.6 140.3,166.3 140.3,137.2 150.3,144.5 			"/>
			<polygon class="st2" points="150.3,173.6 160.3,166.3 160.3,137.2 150.3,144.5 			"/>
			<polygon class="st3" points="170.3,173.6 160.3,166.3 160.3,137.2 170.3,144.5 			"/>
			<polygon class="st3" points="170.3,173.6 180.3,166.3 180.3,137.2 170.3,144.5 			"/>
			<polygon class="st1" points="190.3,173.6 180.3,166.3 180.3,137.2 190.3,144.5 			"/>
			<polygon class="st2" points="190.3,173.6 200.3,166.3 200.3,137.2 190.3,144.5 			"/>
			<polygon class="st3" points="210.3,173.6 200.3,166.3 200.3,137.2 210.3,144.5 			"/>
			<polygon class="st3" points="210.3,173.6 220.3,166.3 220.3,137.2 210.3,144.5 			"/>
			<polygon class="st1" points="230.3,173.6 220.3,166.3 220.3,137.2 230.3,144.5 			"/>
			<polygon class="st2" points="230.3,173.6 240.3,166.3 240.3,137.2 230.3,144.5 			"/>
			<polygon class="st3" points="250.3,173.6 240.3,166.3 240.3,137.2 250.3,144.5 			"/>
			<polygon class="st3" points="250.3,173.6 260.3,166.3 260.3,137.2 250.3,144.5 			"/>
			<polygon class="st1" points="270.3,173.6 260.3,166.3 260.3,137.2 270.3,144.5 			"/>
			<polygon class="st2" points="270.3,173.6 280.3,166.3 280.3,137.2 270.3,144.5 			"/>
			<polygon class="st3" points="290.3,173.6 280.3,166.3 280.3,137.2 290.3,144.5 			"/>
			<polygon class="st3" points="290.3,173.6 300.3,166.3 300.3,137.2 290.3,144.5 			"/>
			<polygon class="st1" points="310.3,173.6 300.3,166.3 300.3,137.2 310.3,144.5 			"/>
			<polygon class="st2" points="310.3,173.6 320.3,166.3 320.3,137.2 310.3,144.5 			"/>
			<polygon class="st1" points="10.3,202.7 0.3,195.4 0.3,166.3 10.3,173.6 			"/>
			<polygon class="st2" points="10.3,202.7 20.3,195.4 20.3,166.3 10.3,173.6 			"/>
			<polygon class="st3" points="30.3,202.7 20.3,195.4 20.3,166.3 30.3,173.6 			"/>
			<polygon class="st3" points="30.3,202.7 40.3,195.4 40.3,166.3 30.3,173.6 			"/>
			<polygon class="st1" points="50.3,202.7 40.3,195.4 40.3,166.3 50.3,173.6 			"/>
			<polygon class="st2" points="50.3,202.7 60.3,195.4 60.3,166.3 50.3,173.6 			"/>
			<polygon class="st3" points="70.3,202.7 60.3,195.4 60.3,166.3 70.3,173.6 			"/>
			<polygon class="st3" points="70.3,202.7 80.3,195.4 80.3,166.3 70.3,173.6 			"/>
			<polygon class="st1" points="90.3,202.7 80.3,195.4 80.3,166.3 90.3,173.6 			"/>
			<polygon class="st2" points="90.3,202.7 100.3,195.4 100.3,166.3 90.3,173.6 			"/>
			<polygon class="st3" points="110.3,202.7 100.3,195.4 100.3,166.3 110.3,173.6 			"/>
			<polygon class="st3" points="110.3,202.7 120.3,195.4 120.3,166.3 110.3,173.6 			"/>
			<polygon class="st1" points="130.3,202.7 120.3,195.4 120.3,166.3 130.3,173.6 			"/>
			<polygon class="st2" points="130.3,202.7 140.3,195.4 140.3,166.3 130.3,173.6 			"/>
			<polygon class="st3" points="150.3,202.7 140.3,195.4 140.3,166.3 150.3,173.6 			"/>
			<polygon class="st3" points="150.3,202.7 160.3,195.4 160.3,166.3 150.3,173.6 			"/>
			<polygon class="st1" points="170.3,202.7 160.3,195.4 160.3,166.3 170.3,173.6 			"/>
			<polygon class="st2" points="170.3,202.7 180.3,195.4 180.3,166.3 170.3,173.6 			"/>
			<polygon class="st3" points="190.3,202.7 180.3,195.4 180.3,166.3 190.3,173.6 			"/>
			<polygon class="st3" points="190.3,202.7 200.3,195.4 200.3,166.3 190.3,173.6 			"/>
			<polygon class="st1" points="210.3,202.7 200.3,195.4 200.3,166.3 210.3,173.6 			"/>
			<polygon class="st2" points="210.3,202.7 220.3,195.4 220.3,166.3 210.3,173.6 			"/>
			<polygon class="st3" points="230.3,202.7 220.3,195.4 220.3,166.3 230.3,173.6 			"/>
			<polygon class="st3" points="230.3,202.7 240.3,195.4 240.3,166.3 230.3,173.6 			"/>
			<polygon class="st1" points="250.3,202.7 240.3,195.4 240.3,166.3 250.3,173.6 			"/>
			<polygon class="st2" points="250.3,202.7 260.3,195.4 260.3,166.3 250.3,173.6 			"/>
			<polygon class="st3" points="270.3,202.7 260.3,195.4 260.3,166.3 270.3,173.6 			"/>
			<polygon class="st3" points="270.3,202.7 280.3,195.4 280.3,166.3 270.3,173.6 			"/>
			<polygon class="st1" points="290.3,202.7 280.3,195.4 280.3,166.3 290.3,173.6 			"/>
			<polygon class="st2" points="290.3,202.7 300.3,195.4 300.3,166.3 290.3,173.6 			"/>
			<polygon class="st3" points="310.3,202.7 300.3,195.4 300.3,166.3 310.3,173.6 			"/>
			<polygon class="st3" points="310.3,202.7 320.3,195.4 320.3,166.3 310.3,173.6 			"/>
			<polygon class="st3" points="10.3,231.8 0.3,224.5 0.3,195.4 10.3,202.7 			"/>
			<polygon class="st3" points="10.3,231.8 20.3,224.5 20.3,195.4 10.3,202.7 			"/>
			<polygon class="st1" points="30.3,231.8 20.3,224.5 20.3,195.4 30.3,202.7 			"/>
			<polygon class="st2" points="30.3,231.8 40.3,224.5 40.3,195.4 30.3,202.7 			"/>
			<polygon class="st3" points="50.3,231.8 40.3,224.5 40.3,195.4 50.3,202.7 			"/>
			<polygon class="st3" points="50.3,231.8 60.3,224.5 60.3,195.4 50.3,202.7 			"/>
			<polygon class="st1" points="70.3,231.8 60.3,224.5 60.3,195.4 70.3,202.7 			"/>
			<polygon class="st2" points="70.3,231.8 80.3,224.5 80.3,195.4 70.3,202.7 			"/>
			<polygon class="st3" points="90.3,231.8 80.3,224.5 80.3,195.4 90.3,202.7 			"/>
			<polygon class="st3" points="90.3,231.8 100.3,224.5 100.3,195.4 90.3,202.7 			"/>
			<polygon class="st1" points="110.3,231.8 100.3,224.5 100.3,195.4 110.3,202.7 			"/>
			<polygon class="st2" points="110.3,231.8 120.3,224.5 120.3,195.4 110.3,202.7 			"/>
			<polygon class="st3" points="130.3,231.8 120.3,224.5 120.3,195.4 130.3,202.7 			"/>
			<polygon class="st3" points="130.3,231.8 140.3,224.5 140.3,195.4 130.3,202.7 			"/>
			<polygon class="st1" points="150.3,231.8 140.3,224.5 140.3,195.4 150.3,202.7 			"/>
			<polygon class="st2" points="150.3,231.8 160.3,224.5 160.3,195.4 150.3,202.7 			"/>
			<polygon class="st3" points="170.3,231.8 160.3,224.5 160.3,195.4 170.3,202.7 			"/>
			<polygon class="st3" points="170.3,231.8 180.3,224.5 180.3,195.4 170.3,202.7 			"/>
			<polygon class="st1" points="190.3,231.8 180.3,224.5 180.3,195.4 190.3,202.7 			"/>
			<polygon class="st2" points="190.3,231.8 200.3,224.5 200.3,195.4 190.3,202.7 			"/>
			<polygon class="st3" points="210.3,231.8 200.3,224.5 200.3,195.4 210.3,202.7 			"/>
			<polygon class="st3" points="210.3,231.8 220.3,224.5 220.3,195.4 210.3,202.7 			"/>
			<polygon class="st1" points="230.3,231.8 220.3,224.5 220.3,195.4 230.3,202.7 			"/>
			<polygon class="st2" points="230.3,231.8 240.3,224.5 240.3,195.4 230.3,202.7 			"/>
			<polygon class="st3" points="250.3,231.8 240.3,224.5 240.3,195.4 250.3,202.7 			"/>
			<polygon class="st3" points="250.3,231.8 260.3,224.5 260.3,195.4 250.3,202.7 			"/>
			<polygon class="st1" points="270.3,231.8 260.3,224.5 260.3,195.4 270.3,202.7 			"/>
			<polygon class="st2" points="270.3,231.8 280.3,224.5 280.3,195.4 270.3,202.7 			"/>
			<polygon class="st3" points="290.3,231.8 280.3,224.5 280.3,195.4 290.3,202.7 			"/>
			<polygon class="st3" points="290.3,231.8 300.3,224.5 300.3,195.4 290.3,202.7 			"/>
			<polygon class="st1" points="310.3,231.8 300.3,224.5 300.3,195.4 310.3,202.7 			"/>
			<polygon class="st2" points="310.3,231.8 320.3,224.5 320.3,195.4 310.3,202.7 			"/>
			<polygon class="st1" points="10.3,260.8 0.3,253.6 0.3,224.5 10.3,231.8 			"/>
			<polygon class="st2" points="10.3,260.8 20.3,253.6 20.3,224.5 10.3,231.8 			"/>
			<polygon class="st3" points="30.3,260.8 20.3,253.6 20.3,224.5 30.3,231.8 			"/>
			<polygon class="st3" points="30.3,260.8 40.3,253.6 40.3,224.5 30.3,231.8 			"/>
			<polygon class="st1" points="50.3,260.8 40.3,253.6 40.3,224.5 50.3,231.8 			"/>
			<polygon class="st2" points="50.3,260.8 60.3,253.6 60.3,224.5 50.3,231.8 			"/>
			<polygon class="st3" points="70.3,260.8 60.3,253.6 60.3,224.5 70.3,231.8 			"/>
			<polygon class="st3" points="70.3,260.8 80.3,253.6 80.3,224.5 70.3,231.8 			"/>
			<polygon class="st1" points="90.3,260.8 80.3,253.6 80.3,224.5 90.3,231.8 			"/>
			<polygon class="st2" points="90.3,260.8 100.3,253.6 100.3,224.5 90.3,231.8 			"/>
			<polygon class="st3" points="110.3,260.8 100.3,253.6 100.3,224.5 110.3,231.8 			"/>
			<polygon class="st3" points="110.3,260.8 120.3,253.6 120.3,224.5 110.3,231.8 			"/>
			<polygon class="st1" points="130.3,260.8 120.3,253.6 120.3,224.5 130.3,231.8 			"/>
			<polygon class="st2" points="130.3,260.8 140.3,253.6 140.3,224.5 130.3,231.8 			"/>
			<polygon class="st3" points="150.3,260.8 140.3,253.6 140.3,224.5 150.3,231.8 			"/>
			<polygon class="st3" points="150.3,260.8 160.3,253.6 160.3,224.5 150.3,231.8 			"/>
			<polygon class="st1" points="170.3,260.8 160.3,253.6 160.3,224.5 170.3,231.8 			"/>
			<polygon class="st2" points="170.3,260.8 180.3,253.6 180.3,224.5 170.3,231.8 			"/>
			<polygon class="st3" points="190.3,260.8 180.3,253.6 180.3,224.5 190.3,231.8 			"/>
			<polygon class="st3" points="190.3,260.8 200.3,253.6 200.3,224.5 190.3,231.8 			"/>
			<polygon class="st1" points="210.3,260.8 200.3,253.6 200.3,224.5 210.3,231.8 			"/>
			<polygon class="st2" points="210.3,260.8 220.3,253.6 220.3,224.5 210.3,231.8 			"/>
			<polygon class="st3" points="230.3,260.8 220.3,253.6 220.3,224.5 230.3,231.8 			"/>
			<polygon class="st3" points="230.3,260.8 240.3,253.6 240.3,224.5 230.3,231.8 			"/>
			<polygon class="st1" points="250.3,260.8 240.3,253.6 240.3,224.5 250.3,231.8 			"/>
			<polygon class="st2" points="250.3,260.8 260.3,253.6 260.3,224.5 250.3,231.8 			"/>
			<polygon class="st3" points="270.3,260.8 260.3,253.6 260.3,224.5 270.3,231.8 			"/>
			<polygon class="st3" points="270.3,260.8 280.3,253.6 280.3,224.5 270.3,231.8 			"/>
			<polygon class="st1" points="290.3,260.8 280.3,253.6 280.3,224.5 290.3,231.8 			"/>
			<polygon class="st2" points="290.3,260.8 300.3,253.6 300.3,224.5 290.3,231.8 			"/>
			<polygon class="st3" points="310.3,260.8 300.3,253.6 300.3,224.5 310.3,231.8 			"/>
			<polygon class="st3" points="310.3,260.8 320.3,253.6 320.3,224.5 310.3,231.8 			"/>
			<polygon class="st3" points="10.3,289.9 0.3,282.7 0.3,253.6 10.3,260.8 			"/>
			<polygon class="st3" points="10.3,289.9 20.3,282.7 20.3,253.6 10.3,260.8 			"/>
			<polygon class="st1" points="30.3,289.9 20.3,282.7 20.3,253.6 30.3,260.8 			"/>
			<polygon class="st2" points="30.3,289.9 40.3,282.7 40.3,253.6 30.3,260.8 			"/>
			<polygon class="st3" points="50.3,289.9 40.3,282.7 40.3,253.6 50.3,260.8 			"/>
			<polygon class="st3" points="50.3,289.9 60.3,282.7 60.3,253.6 50.3,260.8 			"/>
			<polygon class="st1" points="70.3,289.9 60.3,282.7 60.3,253.6 70.3,260.8 			"/>
			<polygon class="st2" points="70.3,289.9 80.3,282.7 80.3,253.6 70.3,260.8 			"/>
			<polygon class="st3" points="90.3,289.9 80.3,282.7 80.3,253.6 90.3,260.8 			"/>
			<polygon class="st3" points="90.3,289.9 100.3,282.7 100.3,253.6 90.3,260.8 			"/>
			<polygon class="st1" points="110.3,289.9 100.3,282.7 100.3,253.6 110.3,260.8 			"/>
			<polygon class="st2" points="110.3,289.9 120.3,282.7 120.3,253.6 110.3,260.8 			"/>
			<polygon class="st3" points="130.3,289.9 120.3,282.7 120.3,253.6 130.3,260.8 			"/>
			<polygon class="st3" points="130.3,289.9 140.3,282.7 140.3,253.6 130.3,260.8 			"/>
			<polygon class="st1" points="150.3,289.9 140.3,282.7 140.3,253.6 150.3,260.8 			"/>
			<polygon class="st2" points="150.3,289.9 160.3,282.7 160.3,253.6 150.3,260.8 			"/>
			<polygon class="st3" points="170.3,289.9 160.3,282.7 160.3,253.6 170.3,260.8 			"/>
			<polygon class="st3" points="170.3,289.9 180.3,282.7 180.3,253.6 170.3,260.8 			"/>
			<polygon class="st1" points="190.3,289.9 180.3,282.7 180.3,253.6 190.3,260.8 			"/>
			<polygon class="st2" points="190.3,289.9 200.3,282.7 200.3,253.6 190.3,260.8 			"/>
			<polygon class="st3" points="210.3,289.9 200.3,282.7 200.3,253.6 210.3,260.8 			"/>
			<polygon class="st3" points="210.3,289.9 220.3,282.7 220.3,253.6 210.3,260.8 			"/>
			<polygon class="st1" points="230.3,289.9 220.3,282.7 220.3,253.6 230.3,260.8 			"/>
			<polygon class="st2" points="230.3,289.9 240.3,282.7 240.3,253.6 230.3,260.8 			"/>
			<polygon class="st3" points="250.3,289.9 240.3,282.7 240.3,253.6 250.3,260.8 			"/>
			<polygon class="st3" points="250.3,289.9 260.3,282.7 260.3,253.6 250.3,260.8 			"/>
			<polygon class="st1" points="270.3,289.9 260.3,282.7 260.3,253.6 270.3,260.8 			"/>
			<polygon class="st2" points="270.3,289.9 280.3,282.7 280.3,253.6 270.3,260.8 			"/>
			<polygon class="st3" points="290.3,289.9 280.3,282.7 280.3,253.6 290.3,260.8 			"/>
			<polygon class="st3" points="290.3,289.9 300.3,282.7 300.3,253.6 290.3,260.8 			"/>
			<polygon class="st1" points="310.3,289.9 300.3,282.7 300.3,253.6 310.3,260.8 			"/>
			<polygon class="st2" points="310.3,289.9 320.3,282.7 320.3,253.6 310.3,260.8 			"/>
			<polygon class="st1" points="10.3,319 0.3,311.7 0.3,282.7 10.3,289.9 			"/>
			<polygon class="st2" points="10.3,319 20.3,311.7 20.3,282.7 10.3,289.9 			"/>
			<polygon class="st3" points="30.3,319 20.3,311.7 20.3,282.7 30.3,289.9 			"/>
			<polygon class="st3" points="30.3,319 40.3,311.7 40.3,282.7 30.3,289.9 			"/>
			<polygon class="st1" points="50.3,319 40.3,311.7 40.3,282.7 50.3,289.9 			"/>
			<polygon class="st2" points="50.3,319 60.3,311.7 60.3,282.7 50.3,289.9 			"/>
			<polygon class="st3" points="70.3,319 60.3,311.7 60.3,282.7 70.3,289.9 			"/>
			<polygon class="st3" points="70.3,319 80.3,311.7 80.3,282.7 70.3,289.9 			"/>
			<polygon class="st1" points="90.3,319 80.3,311.7 80.3,282.7 90.3,289.9 			"/>
			<polygon class="st2" points="90.3,319 100.3,311.7 100.3,282.7 90.3,289.9 			"/>
			<polygon class="st3" points="110.3,319 100.3,311.7 100.3,282.7 110.3,289.9 			"/>
			<polygon class="st3" points="110.3,319 120.3,311.7 120.3,282.7 110.3,289.9 			"/>
			<polygon class="st1" points="130.3,319 120.3,311.7 120.3,282.7 130.3,289.9 			"/>
			<polygon class="st2" points="130.3,319 140.3,311.7 140.3,282.7 130.3,289.9 			"/>
			<polygon class="st3" points="150.3,319 140.3,311.7 140.3,282.7 150.3,289.9 			"/>
			<polygon class="st3" points="150.3,319 160.3,311.7 160.3,282.7 150.3,289.9 			"/>
			<polygon class="st1" points="170.3,319 160.3,311.7 160.3,282.7 170.3,289.9 			"/>
			<polygon class="st2" points="170.3,319 180.3,311.7 180.3,282.7 170.3,289.9 			"/>
			<polygon class="st3" points="190.3,319 180.3,311.7 180.3,282.7 190.3,289.9 			"/>
			<polygon class="st3" points="190.3,319 200.3,311.7 200.3,282.7 190.3,289.9 			"/>
			<polygon class="st1" points="210.3,319 200.3,311.7 200.3,282.7 210.3,289.9 			"/>
			<polygon class="st2" points="210.3,319 220.3,311.7 220.3,282.7 210.3,289.9 			"/>
			<polygon class="st3" points="230.3,319 220.3,311.7 220.3,282.7 230.3,289.9 			"/>
			<polygon class="st3" points="230.3,319 240.3,311.7 240.3,282.7 230.3,289.9 			"/>
			<polygon class="st1" points="250.3,319 240.3,311.7 240.3,282.7 250.3,289.9 			"/>
			<polygon class="st2" points="250.3,319 260.3,311.7 260.3,282.7 250.3,289.9 			"/>
			<polygon class="st3" points="270.3,319 260.3,311.7 260.3,282.7 270.3,289.9 			"/>
			<polygon class="st3" points="270.3,319 280.3,311.7 280.3,282.7 270.3,289.9 			"/>
			<polygon class="st1" points="290.3,319 280.3,311.7 280.3,282.7 290.3,289.9 			"/>
			<polygon class="st2" points="290.3,319 300.3,311.7 300.3,282.7 290.3,289.9 			"/>
			<polygon class="st3" points="310.3,319 300.3,311.7 300.3,282.7 310.3,289.9 			"/>
			<polygon class="st3" points="310.3,319 320.3,311.7 320.3,282.7 310.3,289.9 			"/>
			<polygon class="st3" points="10.3,348.1 0.3,340.8 0.3,311.7 10.3,319 			"/>
			<polygon class="st3" points="10.3,348.1 20.3,340.8 20.3,311.7 10.3,319 			"/>
			<polygon class="st1" points="30.3,348.1 20.3,340.8 20.3,311.7 30.3,319 			"/>
			<polygon class="st2" points="30.3,348.1 40.3,340.8 40.3,311.7 30.3,319 			"/>
			<polygon class="st3" points="50.3,348.1 40.3,340.8 40.3,311.7 50.3,319 			"/>
			<polygon class="st3" points="50.3,348.1 60.3,340.8 60.3,311.7 50.3,319 			"/>
			<polygon class="st1" points="70.3,348.1 60.3,340.8 60.3,311.7 70.3,319 			"/>
			<polygon class="st2" points="70.3,348.1 80.3,340.8 80.3,311.7 70.3,319 			"/>
			<polygon class="st3" points="90.3,348.1 80.3,340.8 80.3,311.7 90.3,319 			"/>
			<polygon class="st3" points="90.3,348.1 100.3,340.8 100.3,311.7 90.3,319 			"/>
			<polygon class="st1" points="110.3,348.1 100.3,340.8 100.3,311.7 110.3,319 			"/>
			<polygon class="st2" points="110.3,348.1 120.3,340.8 120.3,311.7 110.3,319 			"/>
			<polygon class="st3" points="130.3,348.1 120.3,340.8 120.3,311.7 130.3,319 			"/>
			<polygon class="st3" points="130.3,348.1 140.3,340.8 140.3,311.7 130.3,319 			"/>
			<polygon class="st1" points="150.3,348.1 140.3,340.8 140.3,311.7 150.3,319 			"/>
			<polygon class="st2" points="150.3,348.1 160.3,340.8 160.3,311.7 150.3,319 			"/>
			<polygon class="st3" points="170.3,348.1 160.3,340.8 160.3,311.7 170.3,319 			"/>
			<polygon class="st3" points="170.3,348.1 180.3,340.8 180.3,311.7 170.3,319 			"/>
			<polygon class="st1" points="190.3,348.1 180.3,340.8 180.3,311.7 190.3,319 			"/>
			<polygon class="st2" points="190.3,348.1 200.3,340.8 200.3,311.7 190.3,319 			"/>
			<polygon class="st3" points="210.3,348.1 200.3,340.8 200.3,311.7 210.3,319 			"/>
			<polygon class="st3" points="210.3,348.1 220.3,340.8 220.3,311.7 210.3,319 			"/>
			<polygon class="st1" points="230.3,348.1 220.3,340.8 220.3,311.7 230.3,319 			"/>
			<polygon class="st2" points="230.3,348.1 240.3,340.8 240.3,311.7 230.3,319 			"/>
			<polygon class="st3" points="250.3,348.1 240.3,340.8 240.3,311.7 250.3,319 			"/>
			<polygon class="st3" points="250.3,348.1 260.3,340.8 260.3,311.7 250.3,319 			"/>
			<polygon class="st1" points="270.3,348.1 260.3,340.8 260.3,311.7 270.3,319 			"/>
			<polygon class="st2" points="270.3,348.1 280.3,340.8 280.3,311.7 270.3,319 			"/>
			<polygon class="st3" points="290.3,348.1 280.3,340.8 280.3,311.7 290.3,319 			"/>
			<polygon class="st3" points="290.3,348.1 300.3,340.8 300.3,311.7 290.3,319 			"/>
			<polygon class="st1" points="310.3,348.1 300.3,340.8 300.3,311.7 310.3,319 			"/>
			<polygon class="st2" points="310.3,348.1 320.3,340.8 320.3,311.7 310.3,319 			"/>
			<polygon class="st1" points="10.3,377.2 0.3,369.9 0.3,340.8 10.3,348.1 			"/>
			<polygon class="st2" points="10.3,377.2 20.3,369.9 20.3,340.8 10.3,348.1 			"/>
			<polygon class="st3" points="30.3,377.2 20.3,369.9 20.3,340.8 30.3,348.1 			"/>
			<polygon class="st3" points="30.3,377.2 40.3,369.9 40.3,340.8 30.3,348.1 			"/>
			<polygon class="st1" points="50.3,377.2 40.3,369.9 40.3,340.8 50.3,348.1 			"/>
			<polygon class="st2" points="50.3,377.2 60.3,369.9 60.3,340.8 50.3,348.1 			"/>
			<polygon class="st3" points="70.3,377.2 60.3,369.9 60.3,340.8 70.3,348.1 			"/>
			<polygon class="st3" points="70.3,377.2 80.3,369.9 80.3,340.8 70.3,348.1 			"/>
			<polygon class="st1" points="90.3,377.2 80.3,369.9 80.3,340.8 90.3,348.1 			"/>
			<polygon class="st2" points="90.3,377.2 100.3,369.9 100.3,340.8 90.3,348.1 			"/>
			<polygon class="st3" points="110.3,377.2 100.3,369.9 100.3,340.8 110.3,348.1 			"/>
			<polygon class="st3" points="110.3,377.2 120.3,369.9 120.3,340.8 110.3,348.1 			"/>
			<polygon class="st1" points="130.3,377.2 120.3,369.9 120.3,340.8 130.3,348.1 			"/>
			<polygon class="st2" points="130.3,377.2 140.3,369.9 140.3,340.8 130.3,348.1 			"/>
			<polygon class="st3" points="150.3,377.2 140.3,369.9 140.3,340.8 150.3,348.1 			"/>
			<polygon class="st3" points="150.3,377.2 160.3,369.9 160.3,340.8 150.3,348.1 			"/>
			<polygon class="st1" points="170.3,377.2 160.3,369.9 160.3,340.8 170.3,348.1 			"/>
			<polygon class="st2" points="170.3,377.2 180.3,369.9 180.3,340.8 170.3,348.1 			"/>
			<polygon class="st3" points="190.3,377.2 180.3,369.9 180.3,340.8 190.3,348.1 			"/>
			<polygon class="st3" points="190.3,377.2 200.3,369.9 200.3,340.8 190.3,348.1 			"/>
			<polygon class="st1" points="210.3,377.2 200.3,369.9 200.3,340.8 210.3,348.1 			"/>
			<polygon class="st2" points="210.3,377.2 220.3,369.9 220.3,340.8 210.3,348.1 			"/>
			<polygon class="st3" points="230.3,377.2 220.3,369.9 220.3,340.8 230.3,348.1 			"/>
			<polygon class="st3" points="230.3,377.2 240.3,369.9 240.3,340.8 230.3,348.1 			"/>
			<polygon class="st1" points="250.3,377.2 240.3,369.9 240.3,340.8 250.3,348.1 			"/>
			<polygon class="st2" points="250.3,377.2 260.3,369.9 260.3,340.8 250.3,348.1 			"/>
			<polygon class="st3" points="270.3,377.2 260.3,369.9 260.3,340.8 270.3,348.1 			"/>
			<polygon class="st3" points="270.3,377.2 280.3,369.9 280.3,340.8 270.3,348.1 			"/>
			<polygon class="st1" points="290.3,377.2 280.3,369.9 280.3,340.8 290.3,348.1 			"/>
			<polygon class="st2" points="290.3,377.2 300.3,369.9 300.3,340.8 290.3,348.1 			"/>
			<polygon class="st3" points="310.3,377.2 300.3,369.9 300.3,340.8 310.3,348.1 			"/>
			<polygon class="st3" points="310.3,377.2 320.3,369.9 320.3,340.8 310.3,348.1 			"/>
			<polygon class="st3" points="10.3,406.3 0.3,399 0.3,369.9 10.3,377.2 			"/>
			<polygon class="st3" points="10.3,406.3 20.3,399 20.3,369.9 10.3,377.2 			"/>
			<polygon class="st1" points="30.3,406.3 20.3,399 20.3,369.9 30.3,377.2 			"/>
			<polygon class="st2" points="30.3,406.3 40.3,399 40.3,369.9 30.3,377.2 			"/>
			<polygon class="st3" points="50.3,406.3 40.3,399 40.3,369.9 50.3,377.2 			"/>
			<polygon class="st3" points="50.3,406.3 60.3,399 60.3,369.9 50.3,377.2 			"/>
			<polygon class="st1" points="70.3,406.3 60.3,399 60.3,369.9 70.3,377.2 			"/>
			<polygon class="st2" points="70.3,406.3 80.3,399 80.3,369.9 70.3,377.2 			"/>
			<polygon class="st3" points="90.3,406.3 80.3,399 80.3,369.9 90.3,377.2 			"/>
			<polygon class="st3" points="90.3,406.3 100.3,399 100.3,369.9 90.3,377.2 			"/>
			<polygon class="st1" points="110.3,406.3 100.3,399 100.3,369.9 110.3,377.2 			"/>
			<polygon class="st2" points="110.3,406.3 120.3,399 120.3,369.9 110.3,377.2 			"/>
			<polygon class="st3" points="130.3,406.3 120.3,399 120.3,369.9 130.3,377.2 			"/>
			<polygon class="st3" points="130.3,406.3 140.3,399 140.3,369.9 130.3,377.2 			"/>
			<polygon class="st1" points="150.3,406.3 140.3,399 140.3,369.9 150.3,377.2 			"/>
			<polygon class="st2" points="150.3,406.3 160.3,399 160.3,369.9 150.3,377.2 			"/>
			<polygon class="st3" points="170.3,406.3 160.3,399 160.3,369.9 170.3,377.2 			"/>
			<polygon class="st3" points="170.3,406.3 180.3,399 180.3,369.9 170.3,377.2 			"/>
			<polygon class="st1" points="190.3,406.3 180.3,399 180.3,369.9 190.3,377.2 			"/>
			<polygon class="st2" points="190.3,406.3 200.3,399 200.3,369.9 190.3,377.2 			"/>
			<polygon class="st3" points="210.3,406.3 200.3,399 200.3,369.9 210.3,377.2 			"/>
			<polygon class="st3" points="210.3,406.3 220.3,399 220.3,369.9 210.3,377.2 			"/>
			<polygon class="st1" points="230.3,406.3 220.3,399 220.3,369.9 230.3,377.2 			"/>
			<polygon class="st2" points="230.3,406.3 240.3,399 240.3,369.9 230.3,377.2 			"/>
			<polygon class="st3" points="250.3,406.3 240.3,399 240.3,369.9 250.3,377.2 			"/>
			<polygon class="st3" points="250.3,406.3 260.3,399 260.3,369.9 250.3,377.2 			"/>
			<polygon class="st1" points="270.3,406.3 260.3,399 260.3,369.9 270.3,377.2 			"/>
			<polygon class="st2" points="270.3,406.3 280.3,399 280.3,369.9 270.3,377.2 			"/>
			<polygon class="st3" points="290.3,406.3 280.3,399 280.3,369.9 290.3,377.2 			"/>
			<polygon class="st3" points="290.3,406.3 300.3,399 300.3,369.9 290.3,377.2 			"/>
			<polygon class="st1" points="310.3,406.3 300.3,399 300.3,369.9 310.3,377.2 			"/>
			<polygon class="st2" points="310.3,406.3 320.3,399 320.3,369.9 310.3,377.2 			"/>
			<polygon class="st1" points="10.3,435.4 0.3,428.1 0.3,399 10.3,406.3 			"/>
			<polygon class="st2" points="10.3,435.4 20.3,428.1 20.3,399 10.3,406.3 			"/>
			<polygon class="st3" points="30.3,435.4 20.3,428.1 20.3,399 30.3,406.3 			"/>
			<polygon class="st3" points="30.3,435.4 40.3,428.1 40.3,399 30.3,406.3 			"/>
			<polygon class="st1" points="50.3,435.4 40.3,428.1 40.3,399 50.3,406.3 			"/>
			<polygon class="st2" points="50.3,435.4 60.3,428.1 60.3,399 50.3,406.3 			"/>
			<polygon class="st3" points="70.3,435.4 60.3,428.1 60.3,399 70.3,406.3 			"/>
			<polygon class="st3" points="70.3,435.4 80.3,428.1 80.3,399 70.3,406.3 			"/>
			<polygon class="st1" points="90.3,435.4 80.3,428.1 80.3,399 90.3,406.3 			"/>
			<polygon class="st2" points="90.3,435.4 100.3,428.1 100.3,399 90.3,406.3 			"/>
			<polygon class="st3" points="110.3,435.4 100.3,428.1 100.3,399 110.3,406.3 			"/>
			<polygon class="st3" points="110.3,435.4 120.3,428.1 120.3,399 110.3,406.3 			"/>
			<polygon class="st1" points="130.3,435.4 120.3,428.1 120.3,399 130.3,406.3 			"/>
			<polygon class="st2" points="130.3,435.4 140.3,428.1 140.3,399 130.3,406.3 			"/>
			<polygon class="st3" points="150.3,435.4 140.3,428.1 140.3,399 150.3,406.3 			"/>
			<polygon class="st3" points="150.3,435.4 160.3,428.1 160.3,399 150.3,406.3 			"/>
			<polygon class="st1" points="170.3,435.4 160.3,428.1 160.3,399 170.3,406.3 			"/>
			<polygon class="st2" points="170.3,435.4 180.3,428.1 180.3,399 170.3,406.3 			"/>
			<polygon class="st3" points="190.3,435.4 180.3,428.1 180.3,399 190.3,406.3 			"/>
			<polygon class="st3" points="190.3,435.4 200.3,428.1 200.3,399 190.3,406.3 			"/>
			<polygon class="st1" points="210.3,435.4 200.3,428.1 200.3,399 210.3,406.3 			"/>
			<polygon class="st2" points="210.3,435.4 220.3,428.1 220.3,399 210.3,406.3 			"/>
			<polygon class="st3" points="230.3,435.4 220.3,428.1 220.3,399 230.3,406.3 			"/>
			<polygon class="st3" points="230.3,435.4 240.3,428.1 240.3,399 230.3,406.3 			"/>
			<polygon class="st1" points="250.3,435.4 240.3,428.1 240.3,399 250.3,406.3 			"/>
			<polygon class="st2" points="250.3,435.4 260.3,428.1 260.3,399 250.3,406.3 			"/>
			<polygon class="st3" points="270.3,435.4 260.3,428.1 260.3,399 270.3,406.3 			"/>
			<polygon class="st3" points="270.3,435.4 280.3,428.1 280.3,399 270.3,406.3 			"/>
			<polygon class="st1" points="290.3,435.4 280.3,428.1 280.3,399 290.3,406.3 			"/>
			<polygon class="st2" points="290.3,435.4 300.3,428.1 300.3,399 290.3,406.3 			"/>
			<polygon class="st3" points="310.3,435.4 300.3,428.1 300.3,399 310.3,406.3 			"/>
			<polygon class="st3" points="310.3,435.4 320.3,428.1 320.3,399 310.3,406.3 			"/>
			<polygon class="st3" points="10.3,464.4 0.3,457.2 0.3,428.1 10.3,435.4 			"/>
			<polygon class="st3" points="10.3,464.4 20.3,457.2 20.3,428.1 10.3,435.4 			"/>
			<polygon class="st1" points="30.3,464.4 20.3,457.2 20.3,428.1 30.3,435.4 			"/>
			<polygon class="st2" points="30.3,464.4 40.3,457.2 40.3,428.1 30.3,435.4 			"/>
			<polygon class="st3" points="50.3,464.4 40.3,457.2 40.3,428.1 50.3,435.4 			"/>
			<polygon class="st3" points="50.3,464.4 60.3,457.2 60.3,428.1 50.3,435.4 			"/>
			<polygon class="st1" points="70.3,464.4 60.3,457.2 60.3,428.1 70.3,435.4 			"/>
			<polygon class="st2" points="70.3,464.4 80.3,457.2 80.3,428.1 70.3,435.4 			"/>
			<polygon class="st3" points="90.3,464.4 80.3,457.2 80.3,428.1 90.3,435.4 			"/>
			<polygon class="st3" points="90.3,464.4 100.3,457.2 100.3,428.1 90.3,435.4 			"/>
			<polygon class="st1" points="110.3,464.4 100.3,457.2 100.3,428.1 110.3,435.4 			"/>
			<polygon class="st2" points="110.3,464.4 120.3,457.2 120.3,428.1 110.3,435.4 			"/>
			<polygon class="st3" points="130.3,464.4 120.3,457.2 120.3,428.1 130.3,435.4 			"/>
			<polygon class="st3" points="130.3,464.4 140.3,457.2 140.3,428.1 130.3,435.4 			"/>
			<polygon class="st1" points="150.3,464.4 140.3,457.2 140.3,428.1 150.3,435.4 			"/>
			<polygon class="st2" points="150.3,464.4 160.3,457.2 160.3,428.1 150.3,435.4 			"/>
			<polygon class="st3" points="170.3,464.4 160.3,457.2 160.3,428.1 170.3,435.4 			"/>
			<polygon class="st3" points="170.3,464.4 180.3,457.2 180.3,428.1 170.3,435.4 			"/>
			<polygon class="st1" points="190.3,464.4 180.3,457.2 180.3,428.1 190.3,435.4 			"/>
			<polygon class="st2" points="190.3,464.4 200.3,457.2 200.3,428.1 190.3,435.4 			"/>
			<polygon class="st3" points="210.3,464.4 200.3,457.2 200.3,428.1 210.3,435.4 			"/>
			<polygon class="st3" points="210.3,464.4 220.3,457.2 220.3,428.1 210.3,435.4 			"/>
			<polygon class="st1" points="230.3,464.4 220.3,457.2 220.3,428.1 230.3,435.4 			"/>
			<polygon class="st2" points="230.3,464.4 240.3,457.2 240.3,428.1 230.3,435.4 			"/>
			<polygon class="st3" points="250.3,464.4 240.3,457.2 240.3,428.1 250.3,435.4 			"/>
			<polygon class="st3" points="250.3,464.4 260.3,457.2 260.3,428.1 250.3,435.4 			"/>
			<polygon class="st1" points="270.3,464.4 260.3,457.2 260.3,428.1 270.3,435.4 			"/>
			<polygon class="st2" points="270.3,464.4 280.3,457.2 280.3,428.1 270.3,435.4 			"/>
			<polygon class="st3" points="290.3,464.4 280.3,457.2 280.3,428.1 290.3,435.4 			"/>
			<polygon class="st3" points="290.3,464.4 300.3,457.2 300.3,428.1 290.3,435.4 			"/>
			<polygon class="st1" points="310.3,464.4 300.3,457.2 300.3,428.1 310.3,435.4 			"/>
			<polygon class="st2" points="310.3,464.4 320.3,457.2 320.3,428.1 310.3,435.4 			"/>
		</g>
	</g>
</g>
</svg>
