<svg xmlns="http://www.w3.org/2000/svg" viewBox="0 0 320.53 473.72"><defs><style>.cls-1{fill:#fff8b3;}.cls-1,.cls-2{stroke:#fff;}.cls-1,.cls-2,.cls-3{stroke-miterlimit:10;stroke-width:0.53px;}.cls-2{fill:#fcda4c;}.cls-3{fill:#fff;stroke:#f7d56b;}</style></defs><g id="レイヤー_2" data-name="レイヤー 2"><g id="レイヤー_1-2" data-name="レイヤー 1"><polygon class="cls-1" points="10.27 36.88 0.27 29.61 0.27 0.52 10.27 7.79 10.27 36.88"/><polygon class="cls-2" points="10.27 36.88 20.27 29.61 20.27 0.52 10.27 7.79 10.27 36.88"/><polygon class="cls-3" points="30.27 36.88 20.27 29.61 20.27 0.52 30.27 7.79 30.27 36.88"/><polygon class="cls-3" points="30.27 36.88 40.27 29.61 40.27 0.52 30.27 7.79 30.27 36.88"/><polygon class="cls-1" points="50.27 36.88 40.27 29.61 40.27 0.52 50.27 7.79 50.27 36.88"/><polygon class="cls-2" points="50.27 36.88 60.27 29.61 60.27 0.52 50.27 7.79 50.27 36.88"/><polygon class="cls-3" points="70.27 36.88 60.27 29.61 60.27 0.52 70.27 7.79 70.27 36.88"/><polygon class="cls-3" points="70.27 36.88 80.27 29.61 80.27 0.52 70.27 7.79 70.27 36.88"/><polygon class="cls-1" points="90.27 36.88 80.27 29.61 80.27 0.52 90.27 7.79 90.27 36.88"/><polygon class="cls-2" points="90.27 36.88 100.27 29.61 100.27 0.52 90.27 7.79 90.27 36.88"/><polygon class="cls-3" points="110.27 36.88 100.27 29.61 100.27 0.52 110.27 7.79 110.27 36.88"/><polygon class="cls-3" points="110.27 36.88 120.27 29.61 120.27 0.52 110.27 7.79 110.27 36.88"/><polygon class="cls-1" points="130.27 36.88 120.27 29.61 120.27 0.52 130.27 7.79 130.27 36.88"/><polygon class="cls-2" points="130.27 36.88 140.27 29.61 140.27 0.52 130.27 7.79 130.27 36.88"/><polygon class="cls-3" points="150.27 36.88 140.27 29.61 140.27 0.52 150.27 7.79 150.27 36.88"/><polygon class="cls-3" points="150.27 36.88 160.27 29.61 160.27 0.52 150.27 7.79 150.27 36.88"/><polygon class="cls-1" points="170.27 36.88 160.27 29.61 160.27 0.52 170.27 7.79 170.27 36.88"/><polygon class="cls-2" points="170.27 36.88 180.27 29.61 180.27 0.52 170.27 7.79 170.27 36.88"/><polygon class="cls-3" points="190.27 36.88 180.27 29.61 180.27 0.52 190.27 7.79 190.27 36.88"/><polygon class="cls-3" points="190.27 36.88 200.27 29.61 200.27 0.52 190.27 7.79 190.27 36.88"/><polygon class="cls-1" points="210.27 36.88 200.27 29.61 200.27 0.52 210.27 7.79 210.27 36.88"/><polygon class="cls-2" points="210.27 36.88 220.27 29.61 220.27 0.52 210.27 7.79 210.27 36.88"/><polygon class="cls-3" points="230.27 36.88 220.27 29.61 220.27 0.52 230.27 7.79 230.27 36.88"/><polygon class="cls-3" points="230.27 36.88 240.27 29.61 240.27 0.52 230.27 7.79 230.27 36.88"/><polygon class="cls-1" points="250.27 36.88 240.27 29.61 240.27 0.52 250.27 7.79 250.27 36.88"/><polygon class="cls-2" points="250.27 36.88 260.27 29.61 260.27 0.52 250.27 7.79 250.27 36.88"/><polygon class="cls-3" points="270.27 36.88 260.27 29.61 260.27 0.52 270.27 7.79 270.27 36.88"/><polygon class="cls-3" points="270.27 36.88 280.27 29.61 280.27 0.52 270.27 7.79 270.27 36.88"/><polygon class="cls-1" points="290.27 36.88 280.27 29.61 280.27 0.52 290.27 7.79 290.27 36.88"/><polygon class="cls-2" points="290.27 36.88 300.27 29.61 300.27 0.52 290.27 7.79 290.27 36.88"/><polygon class="cls-3" points="310.27 36.88 300.27 29.61 300.27 0.52 310.27 7.79 310.27 36.88"/><polygon class="cls-3" points="310.27 36.88 320.27 29.61 320.27 0.52 310.27 7.79 310.27 36.88"/><polygon class="cls-3" points="10.27 65.97 0.27 58.7 0.27 29.61 10.27 36.88 10.27 65.97"/><polygon class="cls-3" points="10.27 65.97 20.27 58.7 20.27 29.61 10.27 36.88 10.27 65.97"/><polygon class="cls-1" points="30.27 65.97 20.27 58.7 20.27 29.61 30.27 36.88 30.27 65.97"/><polygon class="cls-2" points="30.27 65.97 40.27 58.7 40.27 29.61 30.27 36.88 30.27 65.97"/><polygon class="cls-3" points="50.27 65.97 40.27 58.7 40.27 29.61 50.27 36.88 50.27 65.97"/><polygon class="cls-3" points="50.27 65.97 60.27 58.7 60.27 29.61 50.27 36.88 50.27 65.97"/><polygon class="cls-1" points="70.27 65.97 60.27 58.7 60.27 29.61 70.27 36.88 70.27 65.97"/><polygon class="cls-2" points="70.27 65.97 80.27 58.7 80.27 29.61 70.27 36.88 70.27 65.97"/><polygon class="cls-3" points="90.27 65.97 80.27 58.7 80.27 29.61 90.27 36.88 90.27 65.97"/><polygon class="cls-3" points="90.27 65.97 100.27 58.7 100.27 29.61 90.27 36.88 90.27 65.97"/><polygon class="cls-1" points="110.27 65.97 100.27 58.7 100.27 29.61 110.27 36.88 110.27 65.97"/><polygon class="cls-2" points="110.27 65.97 120.27 58.7 120.27 29.61 110.27 36.88 110.27 65.97"/><polygon class="cls-3" points="130.27 65.97 120.27 58.7 120.27 29.61 130.27 36.88 130.27 65.97"/><polygon class="cls-3" points="130.27 65.97 140.27 58.7 140.27 29.61 130.27 36.88 130.27 65.97"/><polygon class="cls-1" points="150.27 65.97 140.27 58.7 140.27 29.61 150.27 36.88 150.27 65.97"/><polygon class="cls-2" points="150.27 65.97 160.27 58.7 160.27 29.61 150.27 36.88 150.27 65.97"/><polygon class="cls-3" points="170.27 65.97 160.27 58.7 160.27 29.61 170.27 36.88 170.27 65.97"/><polygon class="cls-3" points="170.27 65.97 180.27 58.7 180.27 29.61 170.27 36.88 170.27 65.97"/><polygon class="cls-1" points="190.27 65.97 180.27 58.7 180.27 29.61 190.27 36.88 190.27 65.97"/><polygon class="cls-2" points="190.27 65.97 200.27 58.7 200.27 29.61 190.27 36.88 190.27 65.97"/><polygon class="cls-3" points="210.27 65.97 200.27 58.7 200.27 29.61 210.27 36.88 210.27 65.97"/><polygon class="cls-3" points="210.27 65.97 220.27 58.7 220.27 29.61 210.27 36.88 210.27 65.97"/><polygon class="cls-1" points="230.27 65.97 220.27 58.7 220.27 29.61 230.27 36.88 230.27 65.97"/><polygon class="cls-2" points="230.27 65.97 240.27 58.7 240.27 29.61 230.27 36.88 230.27 65.97"/><polygon class="cls-3" points="250.27 65.97 240.27 58.7 240.27 29.61 250.27 36.88 250.27 65.97"/><polygon class="cls-3" points="250.27 65.97 260.27 58.7 260.27 29.61 250.27 36.88 250.27 65.97"/><polygon class="cls-1" points="270.27 65.97 260.27 58.7 260.27 29.61 270.27 36.88 270.27 65.97"/><polygon class="cls-2" points="270.27 65.97 280.27 58.7 280.27 29.61 270.27 36.88 270.27 65.97"/><polygon class="cls-3" points="290.27 65.97 280.27 58.7 280.27 29.61 290.27 36.88 290.27 65.97"/><polygon class="cls-3" points="290.27 65.97 300.27 58.7 300.27 29.61 290.27 36.88 290.27 65.97"/><polygon class="cls-1" points="310.27 65.97 300.27 58.7 300.27 29.61 310.27 36.88 310.27 65.97"/><polygon class="cls-2" points="310.27 65.97 320.27 58.7 320.27 29.61 310.27 36.88 310.27 65.97"/><polygon class="cls-1" points="10.27 95.06 0.27 87.78 0.27 58.7 10.27 65.97 10.27 95.06"/><polygon class="cls-2" points="10.27 95.06 20.27 87.79 20.27 58.7 10.27 65.97 10.27 95.06"/><polygon class="cls-3" points="30.27 95.06 20.27 87.78 20.27 58.7 30.27 65.97 30.27 95.06"/><polygon class="cls-3" points="30.27 95.06 40.27 87.79 40.27 58.7 30.27 65.97 30.27 95.06"/><polygon class="cls-1" points="50.27 95.06 40.27 87.78 40.27 58.7 50.27 65.97 50.27 95.06"/><polygon class="cls-2" points="50.27 95.06 60.27 87.79 60.27 58.7 50.27 65.97 50.27 95.06"/><polygon class="cls-3" points="70.27 95.06 60.27 87.78 60.27 58.7 70.27 65.97 70.27 95.06"/><polygon class="cls-3" points="70.27 95.06 80.27 87.79 80.27 58.7 70.27 65.97 70.27 95.06"/><polygon class="cls-1" points="90.27 95.06 80.27 87.78 80.27 58.7 90.27 65.97 90.27 95.06"/><polygon class="cls-2" points="90.27 95.06 100.27 87.79 100.27 58.7 90.27 65.97 90.27 95.06"/><polygon class="cls-3" points="110.27 95.06 100.27 87.78 100.27 58.7 110.27 65.97 110.27 95.06"/><polygon class="cls-3" points="110.27 95.06 120.27 87.79 120.27 58.7 110.27 65.97 110.27 95.06"/><polygon class="cls-1" points="130.27 95.06 120.27 87.78 120.27 58.7 130.27 65.97 130.27 95.06"/><polygon class="cls-2" points="130.27 95.06 140.27 87.79 140.27 58.7 130.27 65.97 130.27 95.06"/><polygon class="cls-3" points="150.27 95.06 140.27 87.78 140.27 58.7 150.27 65.97 150.27 95.06"/><polygon class="cls-3" points="150.27 95.06 160.27 87.79 160.27 58.7 150.27 65.97 150.27 95.06"/><polygon class="cls-1" points="170.27 95.06 160.27 87.78 160.27 58.7 170.27 65.97 170.27 95.06"/><polygon class="cls-2" points="170.27 95.06 180.27 87.79 180.27 58.7 170.27 65.97 170.27 95.06"/><polygon class="cls-3" points="190.27 95.06 180.27 87.78 180.27 58.7 190.27 65.97 190.27 95.06"/><polygon class="cls-3" points="190.27 95.06 200.27 87.79 200.27 58.7 190.27 65.97 190.27 95.06"/><polygon class="cls-1" points="210.27 95.06 200.27 87.78 200.27 58.7 210.27 65.97 210.27 95.06"/><polygon class="cls-2" points="210.27 95.06 220.27 87.79 220.27 58.7 210.27 65.97 210.27 95.06"/><polygon class="cls-3" points="230.27 95.06 220.27 87.78 220.27 58.7 230.27 65.97 230.27 95.06"/><polygon class="cls-3" points="230.27 95.06 240.27 87.79 240.27 58.7 230.27 65.97 230.27 95.06"/><polygon class="cls-1" points="250.27 95.06 240.27 87.78 240.27 58.7 250.27 65.97 250.27 95.06"/><polygon class="cls-2" points="250.27 95.06 260.27 87.79 260.27 58.7 250.27 65.97 250.27 95.06"/><polygon class="cls-3" points="270.27 95.06 260.27 87.78 260.27 58.7 270.27 65.97 270.27 95.06"/><polygon class="cls-3" points="270.27 95.06 280.27 87.79 280.27 58.7 270.27 65.97 270.27 95.06"/><polygon class="cls-1" points="290.27 95.06 280.27 87.78 280.27 58.7 290.27 65.97 290.27 95.06"/><polygon class="cls-2" points="290.27 95.06 300.27 87.79 300.27 58.7 290.27 65.97 290.27 95.06"/><polygon class="cls-3" points="310.27 95.06 300.27 87.78 300.27 58.7 310.27 65.97 310.27 95.06"/><polygon class="cls-3" points="310.27 95.06 320.27 87.79 320.27 58.7 310.27 65.97 310.27 95.06"/><polygon class="cls-3" points="10.27 124.14 0.27 116.87 0.27 87.78 10.27 95.06 10.27 124.14"/><polygon class="cls-3" points="10.27 124.14 20.27 116.87 20.27 87.78 10.27 95.06 10.27 124.14"/><polygon class="cls-1" points="30.27 124.14 20.27 116.87 20.27 87.78 30.27 95.06 30.27 124.14"/><polygon class="cls-2" points="30.27 124.14 40.27 116.87 40.27 87.78 30.27 95.06 30.27 124.14"/><polygon class="cls-3" points="50.27 124.14 40.27 116.87 40.27 87.78 50.27 95.06 50.27 124.14"/><polygon class="cls-3" points="50.27 124.14 60.27 116.87 60.27 87.78 50.27 95.06 50.27 124.14"/><polygon class="cls-1" points="70.27 124.14 60.27 116.87 60.27 87.78 70.27 95.06 70.27 124.14"/><polygon class="cls-2" points="70.27 124.14 80.27 116.87 80.27 87.78 70.27 95.06 70.27 124.14"/><polygon class="cls-3" points="90.27 124.14 80.27 116.87 80.27 87.78 90.27 95.06 90.27 124.14"/><polygon class="cls-3" points="90.27 124.14 100.27 116.87 100.27 87.78 90.27 95.06 90.27 124.14"/><polygon class="cls-1" points="110.27 124.14 100.27 116.87 100.27 87.78 110.27 95.06 110.27 124.14"/><polygon class="cls-2" points="110.27 124.14 120.27 116.87 120.27 87.78 110.27 95.06 110.27 124.14"/><polygon class="cls-3" points="130.27 124.14 120.27 116.87 120.27 87.78 130.27 95.06 130.27 124.14"/><polygon class="cls-3" points="130.27 124.14 140.27 116.87 140.27 87.78 130.27 95.06 130.27 124.14"/><polygon class="cls-1" points="150.27 124.14 140.27 116.87 140.27 87.78 150.27 95.06 150.27 124.14"/><polygon class="cls-2" points="150.27 124.14 160.27 116.87 160.27 87.78 150.27 95.06 150.27 124.14"/><polygon class="cls-3" points="170.27 124.14 160.27 116.87 160.27 87.78 170.27 95.06 170.27 124.14"/><polygon class="cls-3" points="170.27 124.14 180.27 116.87 180.27 87.78 170.27 95.06 170.27 124.14"/><polygon class="cls-1" points="190.27 124.14 180.27 116.87 180.27 87.78 190.27 95.06 190.27 124.14"/><polygon class="cls-2" points="190.27 124.14 200.27 116.87 200.27 87.78 190.27 95.06 190.27 124.14"/><polygon class="cls-3" points="210.27 124.14 200.27 116.87 200.27 87.78 210.27 95.06 210.27 124.14"/><polygon class="cls-3" points="210.27 124.14 220.27 116.87 220.27 87.78 210.27 95.06 210.27 124.14"/><polygon class="cls-1" points="230.27 124.14 220.27 116.87 220.27 87.78 230.27 95.06 230.27 124.14"/><polygon class="cls-2" points="230.27 124.14 240.27 116.87 240.27 87.78 230.27 95.06 230.27 124.14"/><polygon class="cls-3" points="250.27 124.14 240.27 116.87 240.27 87.78 250.27 95.06 250.27 124.14"/><polygon class="cls-3" points="250.27 124.14 260.27 116.87 260.27 87.78 250.27 95.06 250.27 124.14"/><polygon class="cls-1" points="270.27 124.14 260.27 116.87 260.27 87.78 270.27 95.06 270.27 124.14"/><polygon class="cls-2" points="270.27 124.14 280.27 116.87 280.27 87.78 270.27 95.06 270.27 124.14"/><polygon class="cls-3" points="290.27 124.14 280.27 116.87 280.27 87.78 290.27 95.06 290.27 124.14"/><polygon class="cls-3" points="290.27 124.14 300.27 116.87 300.27 87.78 290.27 95.06 290.27 124.14"/><polygon class="cls-1" points="310.27 124.14 300.27 116.87 300.27 87.78 310.27 95.06 310.27 124.14"/><polygon class="cls-2" points="310.27 124.14 320.27 116.87 320.27 87.78 310.27 95.06 310.27 124.14"/><polygon class="cls-1" points="10.27 153.23 0.27 145.96 0.27 116.87 10.27 124.14 10.27 153.23"/><polygon class="cls-2" points="10.27 153.23 20.27 145.96 20.27 116.87 10.27 124.14 10.27 153.23"/><polygon class="cls-3" points="30.27 153.23 20.27 145.96 20.27 116.87 30.27 124.14 30.27 153.23"/><polygon class="cls-3" points="30.27 153.23 40.27 145.96 40.27 116.87 30.27 124.14 30.27 153.23"/><polygon class="cls-1" points="50.27 153.23 40.27 145.96 40.27 116.87 50.27 124.14 50.27 153.23"/><polygon class="cls-2" points="50.27 153.23 60.27 145.96 60.27 116.87 50.27 124.14 50.27 153.23"/><polygon class="cls-3" points="70.27 153.23 60.27 145.96 60.27 116.87 70.27 124.14 70.27 153.23"/><polygon class="cls-3" points="70.27 153.23 80.27 145.96 80.27 116.87 70.27 124.14 70.27 153.23"/><polygon class="cls-1" points="90.27 153.23 80.27 145.96 80.27 116.87 90.27 124.14 90.27 153.23"/><polygon class="cls-2" points="90.27 153.23 100.27 145.96 100.27 116.87 90.27 124.14 90.27 153.23"/><polygon class="cls-3" points="110.27 153.23 100.27 145.96 100.27 116.87 110.27 124.14 110.27 153.23"/><polygon class="cls-3" points="110.27 153.23 120.27 145.96 120.27 116.87 110.27 124.14 110.27 153.23"/><polygon class="cls-1" points="130.27 153.23 120.27 145.96 120.27 116.87 130.27 124.14 130.27 153.23"/><polygon class="cls-2" points="130.27 153.23 140.27 145.96 140.27 116.87 130.27 124.14 130.27 153.23"/><polygon class="cls-3" points="150.27 153.23 140.27 145.96 140.27 116.87 150.27 124.14 150.27 153.23"/><polygon class="cls-3" points="150.27 153.23 160.27 145.96 160.27 116.87 150.27 124.14 150.27 153.23"/><polygon class="cls-1" points="170.27 153.23 160.27 145.96 160.27 116.87 170.27 124.14 170.27 153.23"/><polygon class="cls-2" points="170.27 153.23 180.27 145.96 180.27 116.87 170.27 124.14 170.27 153.23"/><polygon class="cls-3" points="190.27 153.23 180.27 145.96 180.27 116.87 190.27 124.14 190.27 153.23"/><polygon class="cls-3" points="190.27 153.23 200.27 145.96 200.27 116.87 190.27 124.14 190.27 153.23"/><polygon class="cls-1" points="210.27 153.23 200.27 145.96 200.27 116.87 210.27 124.14 210.27 153.23"/><polygon class="cls-2" points="210.27 153.23 220.27 145.96 220.27 116.87 210.27 124.14 210.27 153.23"/><polygon class="cls-3" points="230.27 153.23 220.27 145.96 220.27 116.87 230.27 124.14 230.27 153.23"/><polygon class="cls-3" points="230.27 153.23 240.27 145.96 240.27 116.87 230.27 124.14 230.27 153.23"/><polygon class="cls-1" points="250.27 153.23 240.27 145.96 240.27 116.87 250.27 124.14 250.27 153.23"/><polygon class="cls-2" points="250.27 153.23 260.27 145.96 260.27 116.87 250.27 124.14 250.27 153.23"/><polygon class="cls-3" points="270.27 153.23 260.27 145.96 260.27 116.87 270.27 124.14 270.27 153.23"/><polygon class="cls-3" points="270.27 153.23 280.27 145.96 280.27 116.87 270.27 124.14 270.27 153.23"/><polygon class="cls-1" points="290.27 153.23 280.27 145.96 280.27 116.87 290.27 124.14 290.27 153.23"/><polygon class="cls-2" points="290.27 153.23 300.27 145.96 300.27 116.87 290.27 124.14 290.27 153.23"/><polygon class="cls-3" points="310.27 153.23 300.27 145.96 300.27 116.87 310.27 124.14 310.27 153.23"/><polygon class="cls-3" points="310.27 153.23 320.27 145.96 320.27 116.87 310.27 124.14 310.27 153.23"/><polygon class="cls-3" points="10.27 182.32 0.27 175.05 0.27 145.96 10.27 153.23 10.27 182.32"/><polygon class="cls-3" points="10.27 182.32 20.27 175.05 20.27 145.96 10.27 153.23 10.27 182.32"/><polygon class="cls-1" points="30.27 182.32 20.27 175.05 20.27 145.96 30.27 153.23 30.27 182.32"/><polygon class="cls-2" points="30.27 182.32 40.27 175.05 40.27 145.96 30.27 153.23 30.27 182.32"/><polygon class="cls-3" points="50.27 182.32 40.27 175.05 40.27 145.96 50.27 153.23 50.27 182.32"/><polygon class="cls-3" points="50.27 182.32 60.27 175.05 60.27 145.96 50.27 153.23 50.27 182.32"/><polygon class="cls-1" points="70.27 182.32 60.27 175.05 60.27 145.96 70.27 153.23 70.27 182.32"/><polygon class="cls-2" points="70.27 182.32 80.27 175.05 80.27 145.96 70.27 153.23 70.27 182.32"/><polygon class="cls-3" points="90.27 182.32 80.27 175.05 80.27 145.96 90.27 153.23 90.27 182.32"/><polygon class="cls-3" points="90.27 182.32 100.27 175.05 100.27 145.96 90.27 153.23 90.27 182.32"/><polygon class="cls-1" points="110.27 182.32 100.27 175.05 100.27 145.96 110.27 153.23 110.27 182.32"/><polygon class="cls-2" points="110.27 182.32 120.27 175.05 120.27 145.96 110.27 153.23 110.27 182.32"/><polygon class="cls-3" points="130.27 182.32 120.27 175.05 120.27 145.96 130.27 153.23 130.27 182.32"/><polygon class="cls-3" points="130.27 182.32 140.27 175.05 140.27 145.96 130.27 153.23 130.27 182.32"/><polygon class="cls-1" points="150.27 182.32 140.27 175.05 140.27 145.96 150.27 153.23 150.27 182.32"/><polygon class="cls-2" points="150.27 182.32 160.27 175.05 160.27 145.96 150.27 153.23 150.27 182.32"/><polygon class="cls-3" points="170.27 182.32 160.27 175.05 160.27 145.96 170.27 153.23 170.27 182.32"/><polygon class="cls-3" points="170.27 182.32 180.27 175.05 180.27 145.96 170.27 153.23 170.27 182.32"/><polygon class="cls-1" points="190.27 182.32 180.27 175.05 180.27 145.96 190.27 153.23 190.27 182.32"/><polygon class="cls-2" points="190.27 182.32 200.27 175.05 200.27 145.96 190.27 153.23 190.27 182.32"/><polygon class="cls-3" points="210.27 182.32 200.27 175.05 200.27 145.96 210.27 153.23 210.27 182.32"/><polygon class="cls-3" points="210.27 182.32 220.27 175.05 220.27 145.96 210.27 153.23 210.27 182.32"/><polygon class="cls-1" points="230.27 182.32 220.27 175.05 220.27 145.96 230.27 153.23 230.27 182.32"/><polygon class="cls-2" points="230.27 182.32 240.27 175.05 240.27 145.96 230.27 153.23 230.27 182.32"/><polygon class="cls-3" points="250.27 182.32 240.27 175.05 240.27 145.96 250.27 153.23 250.27 182.32"/><polygon class="cls-3" points="250.27 182.32 260.27 175.05 260.27 145.96 250.27 153.23 250.27 182.32"/><polygon class="cls-1" points="270.27 182.32 260.27 175.05 260.27 145.96 270.27 153.23 270.27 182.32"/><polygon class="cls-2" points="270.27 182.32 280.27 175.05 280.27 145.96 270.27 153.23 270.27 182.32"/><polygon class="cls-3" points="290.27 182.32 280.27 175.05 280.27 145.96 290.27 153.23 290.27 182.32"/><polygon class="cls-3" points="290.27 182.32 300.27 175.05 300.27 145.96 290.27 153.23 290.27 182.32"/><polygon class="cls-1" points="310.27 182.32 300.27 175.05 300.27 145.96 310.27 153.23 310.27 182.32"/><polygon class="cls-2" points="310.27 182.32 320.27 175.05 320.27 145.96 310.27 153.23 310.27 182.32"/><polygon class="cls-1" points="10.27 211.41 0.27 204.13 0.27 175.05 10.27 182.32 10.27 211.41"/><polygon class="cls-2" points="10.27 211.41 20.27 204.13 20.27 175.05 10.27 182.32 10.27 211.41"/><polygon class="cls-3" points="30.27 211.41 20.27 204.13 20.27 175.05 30.27 182.32 30.27 211.41"/><polygon class="cls-3" points="30.27 211.41 40.27 204.13 40.27 175.05 30.27 182.32 30.27 211.41"/><polygon class="cls-1" points="50.27 211.41 40.27 204.13 40.27 175.05 50.27 182.32 50.27 211.41"/><polygon class="cls-2" points="50.27 211.41 60.27 204.13 60.27 175.05 50.27 182.32 50.27 211.41"/><polygon class="cls-3" points="70.27 211.41 60.27 204.13 60.27 175.05 70.27 182.32 70.27 211.41"/><polygon class="cls-3" points="70.27 211.41 80.27 204.13 80.27 175.05 70.27 182.32 70.27 211.41"/><polygon class="cls-1" points="90.27 211.41 80.27 204.13 80.27 175.05 90.27 182.32 90.27 211.41"/><polygon class="cls-2" points="90.27 211.41 100.27 204.13 100.27 175.05 90.27 182.32 90.27 211.41"/><polygon class="cls-3" points="110.27 211.41 100.27 204.13 100.27 175.05 110.27 182.32 110.27 211.41"/><polygon class="cls-3" points="110.27 211.41 120.27 204.13 120.27 175.05 110.27 182.32 110.27 211.41"/><polygon class="cls-1" points="130.27 211.41 120.27 204.13 120.27 175.05 130.27 182.32 130.27 211.41"/><polygon class="cls-2" points="130.27 211.41 140.27 204.13 140.27 175.05 130.27 182.32 130.27 211.41"/><polygon class="cls-3" points="150.27 211.41 140.27 204.13 140.27 175.05 150.27 182.32 150.27 211.41"/><polygon class="cls-3" points="150.27 211.41 160.27 204.13 160.27 175.05 150.27 182.32 150.27 211.41"/><polygon class="cls-1" points="170.27 211.41 160.27 204.13 160.27 175.05 170.27 182.32 170.27 211.41"/><polygon class="cls-2" points="170.27 211.41 180.27 204.13 180.27 175.05 170.27 182.32 170.27 211.41"/><polygon class="cls-3" points="190.27 211.41 180.27 204.13 180.27 175.05 190.27 182.32 190.27 211.41"/><polygon class="cls-3" points="190.27 211.41 200.27 204.13 200.27 175.05 190.27 182.32 190.27 211.41"/><polygon class="cls-1" points="210.27 211.41 200.27 204.13 200.27 175.05 210.27 182.32 210.27 211.41"/><polygon class="cls-2" points="210.27 211.41 220.27 204.13 220.27 175.05 210.27 182.32 210.27 211.41"/><polygon class="cls-3" points="230.27 211.41 220.27 204.13 220.27 175.05 230.27 182.32 230.27 211.41"/><polygon class="cls-3" points="230.27 211.41 240.27 204.13 240.27 175.05 230.27 182.32 230.27 211.41"/><polygon class="cls-1" points="250.27 211.41 240.27 204.13 240.27 175.05 250.27 182.32 250.27 211.41"/><polygon class="cls-2" points="250.27 211.41 260.27 204.13 260.27 175.05 250.27 182.32 250.27 211.41"/><polygon class="cls-3" points="270.27 211.41 260.27 204.13 260.27 175.05 270.27 182.32 270.27 211.41"/><polygon class="cls-3" points="270.27 211.41 280.27 204.13 280.27 175.05 270.27 182.32 270.27 211.41"/><polygon class="cls-1" points="290.27 211.41 280.27 204.13 280.27 175.05 290.27 182.32 290.27 211.41"/><polygon class="cls-2" points="290.27 211.41 300.27 204.13 300.27 175.05 290.27 182.32 290.27 211.41"/><polygon class="cls-3" points="310.27 211.41 300.27 204.13 300.27 175.05 310.27 182.32 310.27 211.41"/><polygon class="cls-3" points="310.27 211.41 320.27 204.13 320.27 175.05 310.27 182.32 310.27 211.41"/><polygon class="cls-3" points="10.27 240.5 0.27 233.22 0.27 204.13 10.27 211.41 10.27 240.5"/><polygon class="cls-3" points="10.27 240.5 20.27 233.22 20.27 204.14 10.27 211.41 10.27 240.5"/><polygon class="cls-1" points="30.27 240.5 20.27 233.22 20.27 204.13 30.27 211.41 30.27 240.5"/><polygon class="cls-2" points="30.27 240.5 40.27 233.22 40.27 204.14 30.27 211.41 30.27 240.5"/><polygon class="cls-3" points="50.27 240.5 40.27 233.22 40.27 204.13 50.27 211.41 50.27 240.5"/><polygon class="cls-3" points="50.27 240.5 60.27 233.22 60.27 204.14 50.27 211.41 50.27 240.5"/><polygon class="cls-1" points="70.27 240.5 60.27 233.22 60.27 204.13 70.27 211.41 70.27 240.5"/><polygon class="cls-2" points="70.27 240.5 80.27 233.22 80.27 204.14 70.27 211.41 70.27 240.5"/><polygon class="cls-3" points="90.27 240.5 80.27 233.22 80.27 204.13 90.27 211.41 90.27 240.5"/><polygon class="cls-3" points="90.27 240.5 100.27 233.22 100.27 204.14 90.27 211.41 90.27 240.5"/><polygon class="cls-1" points="110.27 240.5 100.27 233.22 100.27 204.13 110.27 211.41 110.27 240.5"/><polygon class="cls-2" points="110.27 240.5 120.27 233.22 120.27 204.14 110.27 211.41 110.27 240.5"/><polygon class="cls-3" points="130.27 240.5 120.27 233.22 120.27 204.13 130.27 211.41 130.27 240.5"/><polygon class="cls-3" points="130.27 240.5 140.27 233.22 140.27 204.14 130.27 211.41 130.27 240.5"/><polygon class="cls-1" points="150.27 240.5 140.27 233.22 140.27 204.13 150.27 211.41 150.27 240.5"/><polygon class="cls-2" points="150.27 240.5 160.27 233.22 160.27 204.14 150.27 211.41 150.27 240.5"/><polygon class="cls-3" points="170.27 240.5 160.27 233.22 160.27 204.13 170.27 211.41 170.27 240.5"/><polygon class="cls-3" points="170.27 240.5 180.27 233.22 180.27 204.14 170.27 211.41 170.27 240.5"/><polygon class="cls-1" points="190.27 240.5 180.27 233.22 180.27 204.13 190.27 211.41 190.27 240.5"/><polygon class="cls-2" points="190.27 240.5 200.27 233.22 200.27 204.14 190.27 211.41 190.27 240.5"/><polygon class="cls-3" points="210.27 240.5 200.27 233.22 200.27 204.13 210.27 211.41 210.27 240.5"/><polygon class="cls-3" points="210.27 240.5 220.27 233.22 220.27 204.14 210.27 211.41 210.27 240.5"/><polygon class="cls-1" points="230.27 240.5 220.27 233.22 220.27 204.13 230.27 211.41 230.27 240.5"/><polygon class="cls-2" points="230.27 240.5 240.27 233.22 240.27 204.14 230.27 211.41 230.27 240.5"/><polygon class="cls-3" points="250.27 240.5 240.27 233.22 240.27 204.13 250.27 211.41 250.27 240.5"/><polygon class="cls-3" points="250.27 240.5 260.27 233.22 260.27 204.14 250.27 211.41 250.27 240.5"/><polygon class="cls-1" points="270.27 240.5 260.27 233.22 260.27 204.13 270.27 211.41 270.27 240.5"/><polygon class="cls-2" points="270.27 240.5 280.27 233.22 280.27 204.14 270.27 211.41 270.27 240.5"/><polygon class="cls-3" points="290.27 240.5 280.27 233.22 280.27 204.13 290.27 211.41 290.27 240.5"/><polygon class="cls-3" points="290.27 240.5 300.27 233.22 300.27 204.14 290.27 211.41 290.27 240.5"/><polygon class="cls-1" points="310.27 240.5 300.27 233.22 300.27 204.13 310.27 211.41 310.27 240.5"/><polygon class="cls-2" points="310.27 240.5 320.27 233.22 320.27 204.14 310.27 211.41 310.27 240.5"/><polygon class="cls-1" points="10.27 269.58 0.27 262.31 0.27 233.22 10.27 240.5 10.27 269.58"/><polygon class="cls-2" points="10.27 269.58 20.27 262.31 20.27 233.22 10.27 240.5 10.27 269.58"/><polygon class="cls-3" points="30.27 269.58 20.27 262.31 20.27 233.22 30.27 240.5 30.27 269.58"/><polygon class="cls-3" points="30.27 269.58 40.27 262.31 40.27 233.22 30.27 240.5 30.27 269.58"/><polygon class="cls-1" points="50.27 269.58 40.27 262.31 40.27 233.22 50.27 240.5 50.27 269.58"/><polygon class="cls-2" points="50.27 269.58 60.27 262.31 60.27 233.22 50.27 240.5 50.27 269.58"/><polygon class="cls-3" points="70.27 269.58 60.27 262.31 60.27 233.22 70.27 240.5 70.27 269.58"/><polygon class="cls-3" points="70.27 269.58 80.27 262.31 80.27 233.22 70.27 240.5 70.27 269.58"/><polygon class="cls-1" points="90.27 269.58 80.27 262.31 80.27 233.22 90.27 240.5 90.27 269.58"/><polygon class="cls-2" points="90.27 269.58 100.27 262.31 100.27 233.22 90.27 240.5 90.27 269.58"/><polygon class="cls-3" points="110.27 269.58 100.27 262.31 100.27 233.22 110.27 240.5 110.27 269.58"/><polygon class="cls-3" points="110.27 269.58 120.27 262.31 120.27 233.22 110.27 240.5 110.27 269.58"/><polygon class="cls-1" points="130.27 269.58 120.27 262.31 120.27 233.22 130.27 240.5 130.27 269.58"/><polygon class="cls-2" points="130.27 269.58 140.27 262.31 140.27 233.22 130.27 240.5 130.27 269.58"/><polygon class="cls-3" points="150.27 269.58 140.27 262.31 140.27 233.22 150.27 240.5 150.27 269.58"/><polygon class="cls-3" points="150.27 269.58 160.27 262.31 160.27 233.22 150.27 240.5 150.27 269.58"/><polygon class="cls-1" points="170.27 269.58 160.27 262.31 160.27 233.22 170.27 240.5 170.27 269.58"/><polygon class="cls-2" points="170.27 269.58 180.27 262.31 180.27 233.22 170.27 240.5 170.27 269.58"/><polygon class="cls-3" points="190.27 269.58 180.27 262.31 180.27 233.22 190.27 240.5 190.27 269.58"/><polygon class="cls-3" points="190.27 269.58 200.27 262.31 200.27 233.22 190.27 240.5 190.27 269.58"/><polygon class="cls-1" points="210.27 269.58 200.27 262.31 200.27 233.22 210.27 240.5 210.27 269.58"/><polygon class="cls-2" points="210.27 269.58 220.27 262.31 220.27 233.22 210.27 240.5 210.27 269.58"/><polygon class="cls-3" points="230.27 269.58 220.27 262.31 220.27 233.22 230.27 240.5 230.27 269.58"/><polygon class="cls-3" points="230.27 269.58 240.27 262.31 240.27 233.22 230.27 240.5 230.27 269.58"/><polygon class="cls-1" points="250.27 269.58 240.27 262.31 240.27 233.22 250.27 240.5 250.27 269.58"/><polygon class="cls-2" points="250.27 269.58 260.27 262.31 260.27 233.22 250.27 240.5 250.27 269.58"/><polygon class="cls-3" points="270.27 269.58 260.27 262.31 260.27 233.22 270.27 240.5 270.27 269.58"/><polygon class="cls-3" points="270.27 269.58 280.27 262.31 280.27 233.22 270.27 240.5 270.27 269.58"/><polygon class="cls-1" points="290.27 269.58 280.27 262.31 280.27 233.22 290.27 240.5 290.27 269.58"/><polygon class="cls-2" points="290.27 269.58 300.27 262.31 300.27 233.22 290.27 240.5 290.27 269.58"/><polygon class="cls-3" points="310.27 269.58 300.27 262.31 300.27 233.22 310.27 240.5 310.27 269.58"/><polygon class="cls-3" points="310.27 269.58 320.27 262.31 320.27 233.22 310.27 240.5 310.27 269.58"/><polygon class="cls-3" points="10.27 298.67 0.27 291.4 0.27 262.31 10.27 269.58 10.27 298.67"/><polygon class="cls-3" points="10.27 298.67 20.27 291.4 20.27 262.31 10.27 269.58 10.27 298.67"/><polygon class="cls-1" points="30.27 298.67 20.27 291.4 20.27 262.31 30.27 269.58 30.27 298.67"/><polygon class="cls-2" points="30.27 298.67 40.27 291.4 40.27 262.31 30.27 269.58 30.27 298.67"/><polygon class="cls-3" points="50.27 298.67 40.27 291.4 40.27 262.31 50.27 269.58 50.27 298.67"/><polygon class="cls-3" points="50.27 298.67 60.27 291.4 60.27 262.31 50.27 269.58 50.27 298.67"/><polygon class="cls-1" points="70.27 298.67 60.27 291.4 60.27 262.31 70.27 269.58 70.27 298.67"/><polygon class="cls-2" points="70.27 298.67 80.27 291.4 80.27 262.31 70.27 269.58 70.27 298.67"/><polygon class="cls-3" points="90.27 298.67 80.27 291.4 80.27 262.31 90.27 269.58 90.27 298.67"/><polygon class="cls-3" points="90.27 298.67 100.27 291.4 100.27 262.31 90.27 269.58 90.27 298.67"/><polygon class="cls-1" points="110.27 298.67 100.27 291.4 100.27 262.31 110.27 269.58 110.27 298.67"/><polygon class="cls-2" points="110.27 298.67 120.27 291.4 120.27 262.31 110.27 269.58 110.27 298.67"/><polygon class="cls-3" points="130.27 298.67 120.27 291.4 120.27 262.31 130.27 269.58 130.27 298.67"/><polygon class="cls-3" points="130.27 298.67 140.27 291.4 140.27 262.31 130.27 269.58 130.27 298.67"/><polygon class="cls-1" points="150.27 298.67 140.27 291.4 140.27 262.31 150.27 269.58 150.27 298.67"/><polygon class="cls-2" points="150.27 298.67 160.27 291.4 160.27 262.31 150.27 269.58 150.27 298.67"/><polygon class="cls-3" points="170.27 298.67 160.27 291.4 160.27 262.31 170.27 269.58 170.27 298.67"/><polygon class="cls-3" points="170.27 298.67 180.27 291.4 180.27 262.31 170.27 269.58 170.27 298.67"/><polygon class="cls-1" points="190.27 298.67 180.27 291.4 180.27 262.31 190.27 269.58 190.27 298.67"/><polygon class="cls-2" points="190.27 298.67 200.27 291.4 200.27 262.31 190.27 269.58 190.27 298.67"/><polygon class="cls-3" points="210.27 298.67 200.27 291.4 200.27 262.31 210.27 269.58 210.27 298.67"/><polygon class="cls-3" points="210.27 298.67 220.27 291.4 220.27 262.31 210.27 269.58 210.27 298.67"/><polygon class="cls-1" points="230.27 298.67 220.27 291.4 220.27 262.31 230.27 269.58 230.27 298.67"/><polygon class="cls-2" points="230.27 298.67 240.27 291.4 240.27 262.31 230.27 269.58 230.27 298.67"/><polygon class="cls-3" points="250.27 298.67 240.27 291.4 240.27 262.31 250.27 269.58 250.27 298.67"/><polygon class="cls-3" points="250.27 298.67 260.27 291.4 260.27 262.31 250.27 269.58 250.27 298.67"/><polygon class="cls-1" points="270.27 298.67 260.27 291.4 260.27 262.31 270.27 269.58 270.27 298.67"/><polygon class="cls-2" points="270.27 298.67 280.27 291.4 280.27 262.31 270.27 269.58 270.27 298.67"/><polygon class="cls-3" points="290.27 298.67 280.27 291.4 280.27 262.31 290.27 269.58 290.27 298.67"/><polygon class="cls-3" points="290.27 298.67 300.27 291.4 300.27 262.31 290.27 269.58 290.27 298.67"/><polygon class="cls-1" points="310.27 298.67 300.27 291.4 300.27 262.31 310.27 269.58 310.27 298.67"/><polygon class="cls-2" points="310.27 298.67 320.27 291.4 320.27 262.31 310.27 269.58 310.27 298.67"/><polygon class="cls-1" points="10.27 327.76 0.27 320.49 0.27 291.4 10.27 298.67 10.27 327.76"/><polygon class="cls-2" points="10.27 327.76 20.27 320.49 20.27 291.4 10.27 298.67 10.27 327.76"/><polygon class="cls-3" points="30.27 327.76 20.27 320.49 20.27 291.4 30.27 298.67 30.27 327.76"/><polygon class="cls-3" points="30.27 327.76 40.27 320.49 40.27 291.4 30.27 298.67 30.27 327.76"/><polygon class="cls-1" points="50.27 327.76 40.27 320.49 40.27 291.4 50.27 298.67 50.27 327.76"/><polygon class="cls-2" points="50.27 327.76 60.27 320.49 60.27 291.4 50.27 298.67 50.27 327.76"/><polygon class="cls-3" points="70.27 327.76 60.27 320.49 60.27 291.4 70.27 298.67 70.27 327.76"/><polygon class="cls-3" points="70.27 327.76 80.27 320.49 80.27 291.4 70.27 298.67 70.27 327.76"/><polygon class="cls-1" points="90.27 327.76 80.27 320.49 80.27 291.4 90.27 298.67 90.27 327.76"/><polygon class="cls-2" points="90.27 327.76 100.27 320.49 100.27 291.4 90.27 298.67 90.27 327.76"/><polygon class="cls-3" points="110.27 327.76 100.27 320.49 100.27 291.4 110.27 298.67 110.27 327.76"/><polygon class="cls-3" points="110.27 327.76 120.27 320.49 120.27 291.4 110.27 298.67 110.27 327.76"/><polygon class="cls-1" points="130.27 327.76 120.27 320.49 120.27 291.4 130.27 298.67 130.27 327.76"/><polygon class="cls-2" points="130.27 327.76 140.27 320.49 140.27 291.4 130.27 298.67 130.27 327.76"/><polygon class="cls-3" points="150.27 327.76 140.27 320.49 140.27 291.4 150.27 298.67 150.27 327.76"/><polygon class="cls-3" points="150.27 327.76 160.27 320.49 160.27 291.4 150.27 298.67 150.27 327.76"/><polygon class="cls-1" points="170.27 327.76 160.27 320.49 160.27 291.4 170.27 298.67 170.27 327.76"/><polygon class="cls-2" points="170.27 327.76 180.27 320.49 180.27 291.4 170.27 298.67 170.27 327.76"/><polygon class="cls-3" points="190.27 327.76 180.27 320.49 180.27 291.4 190.27 298.67 190.27 327.76"/><polygon class="cls-3" points="190.27 327.76 200.27 320.49 200.27 291.4 190.27 298.67 190.27 327.76"/><polygon class="cls-1" points="210.27 327.76 200.27 320.49 200.27 291.4 210.27 298.67 210.27 327.76"/><polygon class="cls-2" points="210.27 327.76 220.27 320.49 220.27 291.4 210.27 298.67 210.27 327.76"/><polygon class="cls-3" points="230.27 327.76 220.27 320.49 220.27 291.4 230.27 298.67 230.27 327.76"/><polygon class="cls-3" points="230.27 327.76 240.27 320.49 240.27 291.4 230.27 298.67 230.27 327.76"/><polygon class="cls-1" points="250.27 327.76 240.27 320.49 240.27 291.4 250.27 298.67 250.27 327.76"/><polygon class="cls-2" points="250.27 327.76 260.27 320.49 260.27 291.4 250.27 298.67 250.27 327.76"/><polygon class="cls-3" points="270.27 327.76 260.27 320.49 260.27 291.4 270.27 298.67 270.27 327.76"/><polygon class="cls-3" points="270.27 327.76 280.27 320.49 280.27 291.4 270.27 298.67 270.27 327.76"/><polygon class="cls-1" points="290.27 327.76 280.27 320.49 280.27 291.4 290.27 298.67 290.27 327.76"/><polygon class="cls-2" points="290.27 327.76 300.27 320.49 300.27 291.4 290.27 298.67 290.27 327.76"/><polygon class="cls-3" points="310.27 327.76 300.27 320.49 300.27 291.4 310.27 298.67 310.27 327.76"/><polygon class="cls-3" points="310.27 327.76 320.27 320.49 320.27 291.4 310.27 298.67 310.27 327.76"/><polygon class="cls-3" points="10.27 356.85 0.27 349.57 0.27 320.49 10.27 327.76 10.27 356.85"/><polygon class="cls-3" points="10.27 356.85 20.27 349.57 20.27 320.49 10.27 327.76 10.27 356.85"/><polygon class="cls-1" points="30.27 356.85 20.27 349.57 20.27 320.49 30.27 327.76 30.27 356.85"/><polygon class="cls-2" points="30.27 356.85 40.27 349.57 40.27 320.49 30.27 327.76 30.27 356.85"/><polygon class="cls-3" points="50.27 356.85 40.27 349.57 40.27 320.49 50.27 327.76 50.27 356.85"/><polygon class="cls-3" points="50.27 356.85 60.27 349.57 60.27 320.49 50.27 327.76 50.27 356.85"/><polygon class="cls-1" points="70.27 356.85 60.27 349.57 60.27 320.49 70.27 327.76 70.27 356.85"/><polygon class="cls-2" points="70.27 356.85 80.27 349.57 80.27 320.49 70.27 327.76 70.27 356.85"/><polygon class="cls-3" points="90.27 356.85 80.27 349.57 80.27 320.49 90.27 327.76 90.27 356.85"/><polygon class="cls-3" points="90.27 356.85 100.27 349.57 100.27 320.49 90.27 327.76 90.27 356.85"/><polygon class="cls-1" points="110.27 356.85 100.27 349.57 100.27 320.49 110.27 327.76 110.27 356.85"/><polygon class="cls-2" points="110.27 356.85 120.27 349.57 120.27 320.49 110.27 327.76 110.27 356.85"/><polygon class="cls-3" points="130.27 356.85 120.27 349.57 120.27 320.49 130.27 327.76 130.27 356.85"/><polygon class="cls-3" points="130.27 356.85 140.27 349.57 140.27 320.49 130.27 327.76 130.27 356.85"/><polygon class="cls-1" points="150.27 356.85 140.27 349.57 140.27 320.49 150.27 327.76 150.27 356.85"/><polygon class="cls-2" points="150.27 356.85 160.27 349.57 160.27 320.49 150.27 327.76 150.27 356.85"/><polygon class="cls-3" points="170.27 356.85 160.27 349.57 160.27 320.49 170.27 327.76 170.27 356.85"/><polygon class="cls-3" points="170.27 356.85 180.27 349.57 180.27 320.49 170.27 327.76 170.27 356.85"/><polygon class="cls-1" points="190.27 356.85 180.27 349.57 180.27 320.49 190.27 327.76 190.27 356.85"/><polygon class="cls-2" points="190.27 356.85 200.27 349.57 200.27 320.49 190.27 327.76 190.27 356.85"/><polygon class="cls-3" points="210.27 356.85 200.27 349.57 200.27 320.49 210.27 327.76 210.27 356.85"/><polygon class="cls-3" points="210.27 356.85 220.27 349.57 220.27 320.49 210.27 327.76 210.27 356.85"/><polygon class="cls-1" points="230.27 356.85 220.27 349.57 220.27 320.49 230.27 327.76 230.27 356.85"/><polygon class="cls-2" points="230.27 356.85 240.27 349.57 240.27 320.49 230.27 327.76 230.27 356.85"/><polygon class="cls-3" points="250.27 356.85 240.27 349.57 240.27 320.49 250.27 327.76 250.27 356.85"/><polygon class="cls-3" points="250.27 356.85 260.27 349.57 260.27 320.49 250.27 327.76 250.27 356.85"/><polygon class="cls-1" points="270.27 356.85 260.27 349.57 260.27 320.49 270.27 327.76 270.27 356.85"/><polygon class="cls-2" points="270.27 356.85 280.27 349.57 280.27 320.49 270.27 327.76 270.27 356.85"/><polygon class="cls-3" points="290.27 356.85 280.27 349.57 280.27 320.49 290.27 327.76 290.27 356.85"/><polygon class="cls-3" points="290.27 356.85 300.27 349.57 300.27 320.49 290.27 327.76 290.27 356.85"/><polygon class="cls-1" points="310.27 356.85 300.27 349.57 300.27 320.49 310.27 327.76 310.27 356.85"/><polygon class="cls-2" points="310.27 356.85 320.27 349.57 320.27 320.49 310.27 327.76 310.27 356.85"/><polygon class="cls-1" points="10.27 385.93 0.27 378.66 0.27 349.57 10.27 356.85 10.27 385.93"/><polygon class="cls-2" points="10.27 385.93 20.27 378.66 20.27 349.57 10.27 356.85 10.27 385.93"/><polygon class="cls-3" points="30.27 385.93 20.27 378.66 20.27 349.57 30.27 356.85 30.27 385.93"/><polygon class="cls-3" points="30.27 385.93 40.27 378.66 40.27 349.57 30.27 356.85 30.27 385.93"/><polygon class="cls-1" points="50.27 385.93 40.27 378.66 40.27 349.57 50.27 356.85 50.27 385.93"/><polygon class="cls-2" points="50.27 385.93 60.27 378.66 60.27 349.57 50.27 356.85 50.27 385.93"/><polygon class="cls-3" points="70.27 385.93 60.27 378.66 60.27 349.57 70.27 356.85 70.27 385.93"/><polygon class="cls-3" points="70.27 385.93 80.27 378.66 80.27 349.57 70.27 356.85 70.27 385.93"/><polygon class="cls-1" points="90.27 385.93 80.27 378.66 80.27 349.57 90.27 356.85 90.27 385.93"/><polygon class="cls-2" points="90.27 385.93 100.27 378.66 100.27 349.57 90.27 356.85 90.27 385.93"/><polygon class="cls-3" points="110.27 385.93 100.27 378.66 100.27 349.57 110.27 356.85 110.27 385.93"/><polygon class="cls-3" points="110.27 385.93 120.27 378.66 120.27 349.57 110.27 356.85 110.27 385.93"/><polygon class="cls-1" points="130.27 385.93 120.27 378.66 120.27 349.57 130.27 356.85 130.27 385.93"/><polygon class="cls-2" points="130.27 385.93 140.27 378.66 140.27 349.57 130.27 356.85 130.27 385.93"/><polygon class="cls-3" points="150.27 385.93 140.27 378.66 140.27 349.57 150.27 356.85 150.27 385.93"/><polygon class="cls-3" points="150.27 385.93 160.27 378.66 160.27 349.57 150.27 356.85 150.27 385.93"/><polygon class="cls-1" points="170.27 385.93 160.27 378.66 160.27 349.57 170.27 356.85 170.27 385.93"/><polygon class="cls-2" points="170.27 385.93 180.27 378.66 180.27 349.57 170.27 356.85 170.27 385.93"/><polygon class="cls-3" points="190.27 385.93 180.27 378.66 180.27 349.57 190.27 356.85 190.27 385.93"/><polygon class="cls-3" points="190.27 385.93 200.27 378.66 200.27 349.57 190.27 356.85 190.27 385.93"/><polygon class="cls-1" points="210.27 385.93 200.27 378.66 200.27 349.57 210.27 356.85 210.27 385.93"/><polygon class="cls-2" points="210.27 385.93 220.27 378.66 220.27 349.57 210.27 356.85 210.27 385.93"/><polygon class="cls-3" points="230.27 385.93 220.27 378.66 220.27 349.57 230.27 356.85 230.27 385.93"/><polygon class="cls-3" points="230.27 385.93 240.27 378.66 240.27 349.57 230.27 356.85 230.27 385.93"/><polygon class="cls-1" points="250.27 385.93 240.27 378.66 240.27 349.57 250.27 356.85 250.27 385.93"/><polygon class="cls-2" points="250.27 385.93 260.27 378.66 260.27 349.57 250.27 356.85 250.27 385.93"/><polygon class="cls-3" points="270.27 385.93 260.27 378.66 260.27 349.57 270.27 356.85 270.27 385.93"/><polygon class="cls-3" points="270.27 385.93 280.27 378.66 280.27 349.57 270.27 356.85 270.27 385.93"/><polygon class="cls-1" points="290.27 385.93 280.27 378.66 280.27 349.57 290.27 356.85 290.27 385.93"/><polygon class="cls-2" points="290.27 385.93 300.27 378.66 300.27 349.57 290.27 356.85 290.27 385.93"/><polygon class="cls-3" points="310.27 385.93 300.27 378.66 300.27 349.57 310.27 356.85 310.27 385.93"/><polygon class="cls-3" points="310.27 385.93 320.27 378.66 320.27 349.57 310.27 356.85 310.27 385.93"/><polygon class="cls-3" points="10.27 415.02 0.27 407.75 0.27 378.66 10.27 385.93 10.27 415.02"/><polygon class="cls-3" points="10.27 415.02 20.27 407.75 20.27 378.66 10.27 385.93 10.27 415.02"/><polygon class="cls-1" points="30.27 415.02 20.27 407.75 20.27 378.66 30.27 385.93 30.27 415.02"/><polygon class="cls-2" points="30.27 415.02 40.27 407.75 40.27 378.66 30.27 385.93 30.27 415.02"/><polygon class="cls-3" points="50.27 415.02 40.27 407.75 40.27 378.66 50.27 385.93 50.27 415.02"/><polygon class="cls-3" points="50.27 415.02 60.27 407.75 60.27 378.66 50.27 385.93 50.27 415.02"/><polygon class="cls-1" points="70.27 415.02 60.27 407.75 60.27 378.66 70.27 385.93 70.27 415.02"/><polygon class="cls-2" points="70.27 415.02 80.27 407.75 80.27 378.66 70.27 385.93 70.27 415.02"/><polygon class="cls-3" points="90.27 415.02 80.27 407.75 80.27 378.66 90.27 385.93 90.27 415.02"/><polygon class="cls-3" points="90.27 415.02 100.27 407.75 100.27 378.66 90.27 385.93 90.27 415.02"/><polygon class="cls-1" points="110.27 415.02 100.27 407.75 100.27 378.66 110.27 385.93 110.27 415.02"/><polygon class="cls-2" points="110.27 415.02 120.27 407.75 120.27 378.66 110.27 385.93 110.27 415.02"/><polygon class="cls-3" points="130.27 415.02 120.27 407.75 120.27 378.66 130.27 385.93 130.27 415.02"/><polygon class="cls-3" points="130.27 415.02 140.27 407.75 140.27 378.66 130.27 385.93 130.27 415.02"/><polygon class="cls-1" points="150.27 415.02 140.27 407.75 140.27 378.66 150.27 385.93 150.27 415.02"/><polygon class="cls-2" points="150.27 415.02 160.27 407.75 160.27 378.66 150.27 385.93 150.27 415.02"/><polygon class="cls-3" points="170.27 415.02 160.27 407.75 160.27 378.66 170.27 385.93 170.27 415.02"/><polygon class="cls-3" points="170.27 415.02 180.27 407.75 180.27 378.66 170.27 385.93 170.27 415.02"/><polygon class="cls-1" points="190.27 415.02 180.27 407.75 180.27 378.66 190.27 385.93 190.27 415.02"/><polygon class="cls-2" points="190.27 415.02 200.27 407.75 200.27 378.66 190.27 385.93 190.27 415.02"/><polygon class="cls-3" points="210.27 415.02 200.27 407.75 200.27 378.66 210.27 385.93 210.27 415.02"/><polygon class="cls-3" points="210.27 415.02 220.27 407.75 220.27 378.66 210.27 385.93 210.27 415.02"/><polygon class="cls-1" points="230.27 415.02 220.27 407.75 220.27 378.66 230.27 385.93 230.27 415.02"/><polygon class="cls-2" points="230.27 415.02 240.27 407.75 240.27 378.66 230.27 385.93 230.27 415.02"/><polygon class="cls-3" points="250.27 415.02 240.27 407.75 240.27 378.66 250.27 385.93 250.27 415.02"/><polygon class="cls-3" points="250.27 415.02 260.27 407.75 260.27 378.66 250.27 385.93 250.27 415.02"/><polygon class="cls-1" points="270.27 415.02 260.27 407.75 260.27 378.66 270.27 385.93 270.27 415.02"/><polygon class="cls-2" points="270.27 415.02 280.27 407.75 280.27 378.66 270.27 385.93 270.27 415.02"/><polygon class="cls-3" points="290.27 415.02 280.27 407.75 280.27 378.66 290.27 385.93 290.27 415.02"/><polygon class="cls-3" points="290.27 415.02 300.27 407.75 300.27 378.66 290.27 385.93 290.27 415.02"/><polygon class="cls-1" points="310.27 415.02 300.27 407.75 300.27 378.66 310.27 385.93 310.27 415.02"/><polygon class="cls-2" points="310.27 415.02 320.27 407.75 320.27 378.66 310.27 385.93 310.27 415.02"/><polygon class="cls-1" points="10.27 444.11 0.27 436.84 0.27 407.75 10.27 415.02 10.27 444.11"/><polygon class="cls-2" points="10.27 444.11 20.27 436.84 20.27 407.75 10.27 415.02 10.27 444.11"/><polygon class="cls-3" points="30.27 444.11 20.27 436.84 20.27 407.75 30.27 415.02 30.27 444.11"/><polygon class="cls-3" points="30.27 444.11 40.27 436.84 40.27 407.75 30.27 415.02 30.27 444.11"/><polygon class="cls-1" points="50.27 444.11 40.27 436.84 40.27 407.75 50.27 415.02 50.27 444.11"/><polygon class="cls-2" points="50.27 444.11 60.27 436.84 60.27 407.75 50.27 415.02 50.27 444.11"/><polygon class="cls-3" points="70.27 444.11 60.27 436.84 60.27 407.75 70.27 415.02 70.27 444.11"/><polygon class="cls-3" points="70.27 444.11 80.27 436.84 80.27 407.75 70.27 415.02 70.27 444.11"/><polygon class="cls-1" points="90.27 444.11 80.27 436.84 80.27 407.75 90.27 415.02 90.27 444.11"/><polygon class="cls-2" points="90.27 444.11 100.27 436.84 100.27 407.75 90.27 415.02 90.27 444.11"/><polygon class="cls-3" points="110.27 444.11 100.27 436.84 100.27 407.75 110.27 415.02 110.27 444.11"/><polygon class="cls-3" points="110.27 444.11 120.27 436.84 120.27 407.75 110.27 415.02 110.27 444.11"/><polygon class="cls-1" points="130.27 444.11 120.27 436.84 120.27 407.75 130.27 415.02 130.27 444.11"/><polygon class="cls-2" points="130.27 444.11 140.27 436.84 140.27 407.75 130.27 415.02 130.27 444.11"/><polygon class="cls-3" points="150.27 444.11 140.27 436.84 140.27 407.75 150.27 415.02 150.27 444.11"/><polygon class="cls-3" points="150.27 444.11 160.27 436.84 160.27 407.75 150.27 415.02 150.27 444.11"/><polygon class="cls-1" points="170.27 444.11 160.27 436.84 160.27 407.75 170.27 415.02 170.27 444.11"/><polygon class="cls-2" points="170.27 444.11 180.27 436.84 180.27 407.75 170.27 415.02 170.27 444.11"/><polygon class="cls-3" points="190.27 444.11 180.27 436.84 180.27 407.75 190.27 415.02 190.27 444.11"/><polygon class="cls-3" points="190.27 444.11 200.27 436.84 200.27 407.75 190.27 415.02 190.27 444.11"/><polygon class="cls-1" points="210.27 444.11 200.27 436.84 200.27 407.75 210.27 415.02 210.27 444.11"/><polygon class="cls-2" points="210.27 444.11 220.27 436.84 220.27 407.75 210.27 415.02 210.27 444.11"/><polygon class="cls-3" points="230.27 444.11 220.27 436.84 220.27 407.75 230.27 415.02 230.27 444.11"/><polygon class="cls-3" points="230.27 444.11 240.27 436.84 240.27 407.75 230.27 415.02 230.27 444.11"/><polygon class="cls-1" points="250.27 444.11 240.27 436.84 240.27 407.75 250.27 415.02 250.27 444.11"/><polygon class="cls-2" points="250.27 444.11 260.27 436.84 260.27 407.75 250.27 415.02 250.27 444.11"/><polygon class="cls-3" points="270.27 444.11 260.27 436.84 260.27 407.75 270.27 415.02 270.27 444.11"/><polygon class="cls-3" points="270.27 444.11 280.27 436.84 280.27 407.75 270.27 415.02 270.27 444.11"/><polygon class="cls-1" points="290.27 444.11 280.27 436.84 280.27 407.75 290.27 415.02 290.27 444.11"/><polygon class="cls-2" points="290.27 444.11 300.27 436.84 300.27 407.75 290.27 415.02 290.27 444.11"/><polygon class="cls-3" points="310.27 444.11 300.27 436.84 300.27 407.75 310.27 415.02 310.27 444.11"/><polygon class="cls-3" points="310.27 444.11 320.27 436.84 320.27 407.75 310.27 415.02 310.27 444.11"/><polygon class="cls-3" points="10.27 473.19 0.27 465.92 0.27 436.84 10.27 444.11 10.27 473.19"/><polygon class="cls-3" points="10.27 473.19 20.27 465.92 20.27 436.84 10.27 444.11 10.27 473.19"/><polygon class="cls-1" points="30.27 473.19 20.27 465.92 20.27 436.84 30.27 444.11 30.27 473.19"/><polygon class="cls-2" points="30.27 473.19 40.27 465.92 40.27 436.84 30.27 444.11 30.27 473.19"/><polygon class="cls-3" points="50.27 473.19 40.27 465.92 40.27 436.84 50.27 444.11 50.27 473.19"/><polygon class="cls-3" points="50.27 473.19 60.27 465.92 60.27 436.84 50.27 444.11 50.27 473.19"/><polygon class="cls-1" points="70.27 473.19 60.27 465.92 60.27 436.84 70.27 444.11 70.27 473.19"/><polygon class="cls-2" points="70.27 473.19 80.27 465.92 80.27 436.84 70.27 444.11 70.27 473.19"/><polygon class="cls-3" points="90.27 473.19 80.27 465.92 80.27 436.84 90.27 444.11 90.27 473.19"/><polygon class="cls-3" points="90.27 473.19 100.27 465.92 100.27 436.84 90.27 444.11 90.27 473.19"/><polygon class="cls-1" points="110.27 473.19 100.27 465.92 100.27 436.84 110.27 444.11 110.27 473.19"/><polygon class="cls-2" points="110.27 473.19 120.27 465.92 120.27 436.84 110.27 444.11 110.27 473.19"/><polygon class="cls-3" points="130.27 473.19 120.27 465.92 120.27 436.84 130.27 444.11 130.27 473.19"/><polygon class="cls-3" points="130.27 473.19 140.27 465.92 140.27 436.84 130.27 444.11 130.27 473.19"/><polygon class="cls-1" points="150.27 473.19 140.27 465.92 140.27 436.84 150.27 444.11 150.27 473.19"/><polygon class="cls-2" points="150.27 473.19 160.27 465.92 160.27 436.84 150.27 444.11 150.27 473.19"/><polygon class="cls-3" points="170.27 473.19 160.27 465.92 160.27 436.84 170.27 444.11 170.27 473.19"/><polygon class="cls-3" points="170.27 473.19 180.27 465.92 180.27 436.84 170.27 444.11 170.27 473.19"/><polygon class="cls-1" points="190.27 473.19 180.27 465.92 180.27 436.84 190.27 444.11 190.27 473.19"/><polygon class="cls-2" points="190.27 473.19 200.27 465.92 200.27 436.84 190.27 444.11 190.27 473.19"/><polygon class="cls-3" points="210.27 473.19 200.27 465.92 200.27 436.84 210.27 444.11 210.27 473.19"/><polygon class="cls-3" points="210.27 473.19 220.27 465.92 220.27 436.84 210.27 444.11 210.27 473.19"/><polygon class="cls-1" points="230.27 473.19 220.27 465.92 220.27 436.84 230.27 444.11 230.27 473.19"/><polygon class="cls-2" points="230.27 473.19 240.27 465.92 240.27 436.84 230.27 444.11 230.27 473.19"/><polygon class="cls-3" points="250.27 473.19 240.27 465.92 240.27 436.84 250.27 444.11 250.27 473.19"/><polygon class="cls-3" points="250.27 473.19 260.27 465.92 260.27 436.84 250.27 444.11 250.27 473.19"/><polygon class="cls-1" points="270.27 473.19 260.27 465.92 260.27 436.84 270.27 444.11 270.27 473.19"/><polygon class="cls-2" points="270.27 473.19 280.27 465.92 280.27 436.84 270.27 444.11 270.27 473.19"/><polygon class="cls-3" points="290.27 473.19 280.27 465.92 280.27 436.84 290.27 444.11 290.27 473.19"/><polygon class="cls-3" points="290.27 473.19 300.27 465.92 300.27 436.84 290.27 444.11 290.27 473.19"/><polygon class="cls-1" points="310.27 473.19 300.27 465.92 300.27 436.84 310.27 444.11 310.27 473.19"/><polygon class="cls-2" points="310.27 473.19 320.27 465.92 320.27 436.84 310.27 444.11 310.27 473.19"/></g></g></svg>