<svg id="レイヤー_1" data-name="レイヤー 1" xmlns="http://www.w3.org/2000/svg" viewBox="0 0 122 37.89"><defs><style>.cls-1{fill:#027abb;}.cls-2{fill:#f98cb6;}.cls-3{fill:#2a1f55;}.cls-4{fill:gray;}</style></defs><path class="cls-1" d="M18.73,0a19.13,19.13,0,0,0-2.41.16,9.09,9.09,0,0,1-8,13.46,9.07,9.07,0,0,1-6.59-2.85A18.75,18.75,0,0,0,8.84,34.64,25.25,25.25,0,0,0,25.5,14.86c.09-.51,1.22-3,1.79-3h8.87A18.75,18.75,0,0,0,18.73,0Zm-14,21.76a.18.18,0,0,1,.11-.3l1.3-.27c.16,0,.2-.16.1-.28L5.36,20a.17.17,0,0,1,.09-.3,5.56,5.56,0,0,1,2.67-.05,4.28,4.28,0,0,1,2.29,2.62.45.45,0,0,1-.15.45,4.27,4.27,0,0,1-3.4.77A5.56,5.56,0,0,1,4.71,21.76Zm5.92,5.86a5.47,5.47,0,0,1-2.27,1.53A.17.17,0,0,1,8.11,29l.15-1.34c0-.16-.09-.23-.24-.17L6.85,28a.16.16,0,0,1-.25-.17,5.54,5.54,0,0,1,.77-2.56,4.26,4.26,0,0,1,3.2-1.37.46.46,0,0,1,.39.29A4.25,4.25,0,0,1,10.63,27.62Zm.81-6a4.27,4.27,0,0,1-1.78-3A5.41,5.41,0,0,1,10.6,16a.18.18,0,0,1,.32,0l.67,1.16a.15.15,0,0,0,.29,0l.64-1.1a.16.16,0,0,1,.3,0,5.54,5.54,0,0,1,.88,2.52,4.27,4.27,0,0,1-1.78,3A.46.46,0,0,1,11.44,21.58Zm5,6.46-1.23-.54c-.14-.07-.25,0-.23.17l.13,1.27c0,.16-.09.24-.24.18a5.49,5.49,0,0,1-2.19-1.52,4.23,4.23,0,0,1-.32-3.46.43.43,0,0,1,.39-.28,4.23,4.23,0,0,1,3.19,1.37,5.42,5.42,0,0,1,.76,2.64A.17.17,0,0,1,16.44,28Zm2.15-6.19a5.63,5.63,0,0,1-2.13,1.61,4.28,4.28,0,0,1-3.39-.77.47.47,0,0,1-.15-.46,4.27,4.27,0,0,1,2.3-2.61,5.44,5.44,0,0,1,2.74.1A.17.17,0,0,1,18,20l-.89,1c-.11.12-.07.25.09.28l1.24.27A.17.17,0,0,1,18.59,21.85Zm7-10.2a6.37,6.37,0,0,1-1.83,2.42c-1.65,1.1-3.95.2-3.95.2a.52.52,0,0,1-.31-.45s.06-2.47,1.71-3.57a6.31,6.31,0,0,1,3-.74.2.2,0,0,1,.19.31l-.68,1.36c-.08.17,0,.29.19.28l1.44-.1C25.58,11.35,25.67,11.48,25.6,11.65Z" transform="translate(0 0)"/><path class="cls-2" d="M9.17,6.48c.07.17,0,.29-.2.27L7.42,6.6c-.19,0-.29.11-.23.28A6.29,6.29,0,0,0,9,9.52c1.65,1.19,4,.37,4,.37a.55.55,0,0,0,.33-.46s0-2.53-1.61-3.72a6.44,6.44,0,0,0-3-.88c-.19,0-.28.12-.2.29Z" transform="translate(0 0)"/><path class="cls-3" d="M37.47,18.73a18.32,18.32,0,0,0-.39-3.79H26.6a41.41,41.41,0,0,1-3.93,8.92,31,31,0,0,1-11.48,12,18.7,18.7,0,0,0,15.55-.21l4.11,2.22V27.18l-3.8-2.06,6,.07L33,30.92A18.66,18.66,0,0,0,37.47,18.73Z" transform="translate(0 0)"/><path class="cls-4" d="M45.47,27.27a5.66,5.66,0,0,0,.45-1.35v0h.27a.94.94,0,0,0,.91.56c1,0,1.39-1.12,1.34-3.37V19.72a26.85,26.85,0,0,0-.16-3.31v-.12a6.51,6.51,0,0,0,.93.05,6.28,6.28,0,0,0,.91-.05v.12A26.87,26.87,0,0,0,50,19.72v3a7.33,7.33,0,0,1-.16,1.92,4,4,0,0,1-.37.85,7.77,7.77,0,0,1-.63.9,3,3,0,0,1-1.1.87,3.17,3.17,0,0,1-1.32.3,1.72,1.72,0,0,1-.9-.16l0,0Z" transform="translate(0 0)"/><path class="cls-4" d="M52.77,26.85a1.59,1.59,0,0,1-.6-1.36,2,2,0,0,1,.77-1.55A4.79,4.79,0,0,1,55,23l1.53-.35s.07,0,.07-.14c0-1.12-.35-1.74-1.06-1.85a2.79,2.79,0,0,0-.47-.05A1.36,1.36,0,0,0,54,21a5.14,5.14,0,0,0-.77,1l0,0H53l-.3-1.21.07-.09A4.76,4.76,0,0,1,54,20a3.42,3.42,0,0,1,1.12-.19c1.91,0,2.86.91,2.86,2.72L57.94,25a2,2,0,0,0,.26,1.25.44.44,0,0,0,.31.1,3.29,3.29,0,0,0,.63-.1l.15.5a1.82,1.82,0,0,1-1.39.55,1.44,1.44,0,0,1-.82-.24,1.3,1.3,0,0,1-.51-.71,4.13,4.13,0,0,1-1.37.85,3.86,3.86,0,0,1-.89.1A2.53,2.53,0,0,1,52.77,26.85ZM54,24.45a1.34,1.34,0,0,0-.32.85,1,1,0,0,0,.31.75,1,1,0,0,0,.75.3,2.7,2.7,0,0,0,1.6-.64.44.44,0,0,0,.19-.39l.06-1.9-1.32.38A2.43,2.43,0,0,0,54,24.45Z" transform="translate(0 0)"/><path class="cls-4" d="M60.59,20v-.13h0a4.27,4.27,0,0,0,.59,0,4.88,4.88,0,0,0,.76-.07h0c.1,0,.15.07.16.21v1.08a3.43,3.43,0,0,1,1.16-1.07,2.26,2.26,0,0,1,1-.29,2.6,2.6,0,0,1,1.61.5,3.33,3.33,0,0,1,1,1.31,4.74,4.74,0,0,1,.34,1.83,4.48,4.48,0,0,1-.43,2,3.23,3.23,0,0,1-1.22,1.43,3.18,3.18,0,0,1-1.79.52A4.24,4.24,0,0,1,62.17,27v.2a25.49,25.49,0,0,0,.16,2.88h0l-.09.08h0c-.32,0-.58,0-.78,0a4.34,4.34,0,0,0-.83.06V30a24.07,24.07,0,0,0,.12-2.86v-4A24.88,24.88,0,0,0,60.59,20Zm1.58,5.83a1.8,1.8,0,0,0,.87.59,3,3,0,0,0,.61.11,1.76,1.76,0,0,0,1.7-1,4.7,4.7,0,0,0,.41-2.12,4.07,4.07,0,0,0-.43-2,1.33,1.33,0,0,0-1.17-.71,2.09,2.09,0,0,0-1.48.81,2.73,2.73,0,0,0-.51.79Z" transform="translate(0 0)"/><path class="cls-4" d="M69.37,26.85a1.57,1.57,0,0,1-.61-1.36,2,2,0,0,1,.77-1.55,4.85,4.85,0,0,1,2-.94l1.53-.35s.07,0,.07-.14c0-1.12-.35-1.74-1-1.85a3,3,0,0,0-.48-.05,1.38,1.38,0,0,0-1,.42,5.14,5.14,0,0,0-.77,1v0h-.3l-.29-1.21.07-.09A4.58,4.58,0,0,1,70.6,20a3.44,3.44,0,0,1,1.13-.19c1.9,0,2.85.91,2.85,2.72l0,2.52a2,2,0,0,0,.25,1.25.47.47,0,0,0,.32.1,3.33,3.33,0,0,0,.62-.1l.16.5a1.83,1.83,0,0,1-1.39.55,1.47,1.47,0,0,1-.83-.24,1.3,1.3,0,0,1-.51-.71,4,4,0,0,1-1.37.85,3.8,3.8,0,0,1-.89.1A2.48,2.48,0,0,1,69.37,26.85Zm1.17-2.4a1.34,1.34,0,0,0-.32.85,1,1,0,0,0,.31.75,1.05,1.05,0,0,0,.75.3,2.67,2.67,0,0,0,1.6-.64.45.45,0,0,0,.2-.39l0-1.9-1.32.38A2.43,2.43,0,0,0,70.54,24.45Z" transform="translate(0 0)"/><path class="cls-4" d="M77.19,20v-.13h.06a4.27,4.27,0,0,0,.59,0,4.9,4.9,0,0,0,.77-.07h0q.14,0,.15.21v1.11a3.92,3.92,0,0,1,2.07-1.28,3.08,3.08,0,0,1,.77-.11,1.84,1.84,0,0,1,1.63.68,3.44,3.44,0,0,1,.48,2l0,1.67a24.1,24.1,0,0,0,.14,3v.13a4.48,4.48,0,0,0-.86-.06,4.53,4.53,0,0,0-.84.06v-.13a28.31,28.31,0,0,0,.11-3V22.47a2.2,2.2,0,0,0-.25-1.3,1,1,0,0,0-.78-.3,3,3,0,0,0-1.17.29,3.84,3.84,0,0,0-1.27,1V24.1a21.49,21.49,0,0,0,.16,3v.13a4.77,4.77,0,0,0-.89-.06,4.34,4.34,0,0,0-.83.06v-.13a18.18,18.18,0,0,0,.11-2.33V23.2A23.12,23.12,0,0,0,77.19,20Z" transform="translate(0 0)"/><path class="cls-4" d="M90.51,21.82a5.72,5.72,0,0,1,.5-2.44,5.24,5.24,0,0,1,1.34-1.79,6.33,6.33,0,0,1,1.88-1.09,6,6,0,0,1,2-.37,8.45,8.45,0,0,1,1.61.13,9.6,9.6,0,0,1,2,.58l.3.12v0l.08.07v0A10.44,10.44,0,0,0,99.88,19v.05h-.29l0,0a4.15,4.15,0,0,0-1.44-1.5,3.74,3.74,0,0,0-2-.55,3.44,3.44,0,0,0-2,.57,3.9,3.9,0,0,0-1.35,1.63,5.79,5.79,0,0,0-.49,2.49,5.75,5.75,0,0,0,.9,3.22,4.19,4.19,0,0,0,5.46,1v-.71A23.66,23.66,0,0,0,98.52,22v0l.09-.1h0l.2,0a4.64,4.64,0,0,0,.63,0,5.14,5.14,0,0,0,.64,0l.21,0h.07V22a19.38,19.38,0,0,0-.14,2.78v.1a1.34,1.34,0,0,0,.14.77v.13a6.6,6.6,0,0,1-4.46,1.5A5,5,0,0,1,92,25.68,5.58,5.58,0,0,1,90.51,21.82Z" transform="translate(0 0)"/><path class="cls-4" d="M102.85,26.85a1.59,1.59,0,0,1-.6-1.36,1.93,1.93,0,0,1,.76-1.55,4.85,4.85,0,0,1,2-.94l1.53-.35c.05,0,.07,0,.07-.14,0-1.12-.35-1.74-1-1.85a3,3,0,0,0-.48-.05,1.39,1.39,0,0,0-1,.42,5.57,5.57,0,0,0-.77,1v0H103l-.29-1.21.07-.09a4.62,4.62,0,0,1,1.28-.78,3.38,3.38,0,0,1,1.12-.19c1.9,0,2.85.91,2.85,2.72L108,25a2,2,0,0,0,.25,1.25.47.47,0,0,0,.32.1,3.33,3.33,0,0,0,.62-.1l.16.5a1.83,1.83,0,0,1-1.39.55,1.41,1.41,0,0,1-.82-.24,1.37,1.37,0,0,1-.52-.71,4,4,0,0,1-1.37.85,3.8,3.8,0,0,1-.89.1A2.48,2.48,0,0,1,102.85,26.85Zm1.17-2.4a1.33,1.33,0,0,0-.31.85,1,1,0,0,0,.31.75,1,1,0,0,0,.74.3,2.65,2.65,0,0,0,1.6-.64.45.45,0,0,0,.2-.39l0-1.9-1.32.38A2.48,2.48,0,0,0,104,24.45Z" transform="translate(0 0)"/><path class="cls-4" d="M109.75,20.63a3.85,3.85,0,0,0,.38-.72l0,0h0a8,8,0,0,0,.83.05c0-.69,0-1.38.07-2.07v-.08l0,0a1.78,1.78,0,0,0,.62-.17,5.3,5.3,0,0,1,.56-.25h0c.13,0,.19.08.19.23-.05.63-.08,1.42-.08,2.36h.72c.31,0,.7,0,1.16-.05h0l.13.16-.13.38-.1.39h0c-.32,0-.72,0-1.19,0h-.58v2l0,2.21c0,.82.17,1.25.5,1.29a2.47,2.47,0,0,0,.5,0,2.64,2.64,0,0,0,.81-.17l.24.48a3.6,3.6,0,0,1-2,.66,1.52,1.52,0,0,1-1.06-.41,1.58,1.58,0,0,1-.46-1.23L111,23v-2.2c-.31,0-.68,0-1.11,0h0Z" transform="translate(0 0)"/><path class="cls-4" d="M115.62,23.62a4.07,4.07,0,0,1,.51-2.09,3.48,3.48,0,0,1,1.29-1.32,3.23,3.23,0,0,1,1.63-.45,2.66,2.66,0,0,1,2.32,1.06,3.5,3.5,0,0,1,.62,2.11c0,.24-.12.35-.36.35h-4.45a3.8,3.8,0,0,0,.37,2,1.81,1.81,0,0,0,.86.78,2.84,2.84,0,0,0,1,.2,3,3,0,0,0,1.11-.23,2.48,2.48,0,0,0,1-.68l0,0,.39.51,0,0a3.85,3.85,0,0,1-1.25,1.08,3.3,3.3,0,0,1-1.63.42,3.4,3.4,0,0,1-2.71-1.09A3.9,3.9,0,0,1,115.62,23.62Zm1.65-1.12h3a.15.15,0,0,0,.17-.17,1.78,1.78,0,0,0-.72-1.6,1.09,1.09,0,0,0-.58-.2,1.72,1.72,0,0,0-.64.15,1.93,1.93,0,0,0-.7.58A2.7,2.7,0,0,0,117.27,22.5Z" transform="translate(0 0)"/></svg>