<svg xmlns="http://www.w3.org/2000/svg" xmlns:xlink="http://www.w3.org/1999/xlink" viewBox="0 0 315.04 40.41"><defs><style>.cls-1{fill:none;}.cls-2{clip-path:url(#clip-path);}.cls-3{fill:#f98cb6;}.cls-4{fill:#fff;}.cls-5{fill:#ffcae0;}</style><clipPath id="clip-path" transform="translate(-6.88 -18.4)"><rect class="cls-1" x="1.27" y="8.33" width="320" height="57" transform="translate(-1.71 8.49) rotate(-3)"/></clipPath></defs><g id="レイヤー_2" data-name="レイヤー 2"><g id="レイヤー_1-2" data-name="レイヤー 1"><g id="桜"><g class="cls-2"><path class="cls-3" d="M22,57.26a1.11,1.11,0,0,1-1.08-1L20.5,53l-2.44,1.86a1.21,1.21,0,0,1-.73.26,1.09,1.09,0,0,1-1.06-1c0-.18-.77-4.41.54-7.46,1.94-4.53,7.71-5.79,8-5.84a1.66,1.66,0,0,1,.32,0,1.85,1.85,0,0,1,1.54.83c.13.21,3.21,5.26,1.27,9.79-1.36,3.16-5.1,5.52-5.26,5.62a1.27,1.27,0,0,1-.66.2Z" transform="translate(-6.88 -18.4)"/><path class="cls-4" d="M25.08,41.47a1.22,1.22,0,0,1,1,.52s3.05,4.92,1.22,9.19c-1.29,3-5,5.33-5,5.33a.7.7,0,0,1-.32.1c-.23,0-.4-.17-.43-.46l-.43-3.55c0-.28-.18-.43-.38-.43a.53.53,0,0,0-.33.13l-2.72,2a.59.59,0,0,1-.35.13c-.2,0-.37-.15-.42-.43,0,0-.75-4.17.49-7.08,1.83-4.28,7.49-5.46,7.49-5.46a.62.62,0,0,1,.19,0m0-1.3a2.28,2.28,0,0,0-.45,0c-.26.06-6.35,1.38-8.42,6.22-1.39,3.24-.61,7.65-.58,7.84a1.74,1.74,0,0,0,1.7,1.49,1.84,1.84,0,0,0,1.13-.39L20,54.22l.24,2.08A1.75,1.75,0,0,0,22,57.91a1.85,1.85,0,0,0,1-.3c.17-.1,4.08-2.57,5.51-5.92,2.08-4.84-1.17-10.16-1.31-10.39a2.47,2.47,0,0,0-2.09-1.13Z" transform="translate(-6.88 -18.4)"/><path class="cls-3" d="M26.17,35.73a1.61,1.61,0,0,1-.63-.12c-.23-.1-5.68-2.37-6.78-7.18-.76-3.36.88-7.46.95-7.64a1.13,1.13,0,0,1,1-.75,1.16,1.16,0,0,1,.87.41l2.19,2.36.9-2.92a1.1,1.1,0,0,1,1-.83,1.17,1.17,0,0,1,.82.35c.14.12,3.22,3.11,4,6.35,1.09,4.8-2.84,9.21-3,9.4A1.84,1.84,0,0,1,26.17,35.73Z" transform="translate(-6.88 -18.4)"/><path class="cls-4" d="M25.74,19.71a.52.52,0,0,1,.37.17s3.07,2.93,3.77,6c1,4.53-2.85,8.82-2.85,8.82a1.17,1.17,0,0,1-.86.36,1.23,1.23,0,0,1-.39-.07s-5.35-2.19-6.38-6.72c-.73-3.2.91-7.25.91-7.25a.49.49,0,0,1,.43-.35.52.52,0,0,1,.39.2l2.43,2.61a.53.53,0,0,0,.37.2c.17,0,.31-.13.39-.37l1-3.25a.47.47,0,0,1,.42-.37m0-1.31a1.75,1.75,0,0,0-1.66,1.3l-.57,1.84L22.09,20a1.86,1.86,0,0,0-1.35-.61,1.74,1.74,0,0,0-1.63,1.16c-.08.18-1.79,4.47-1,8,1.17,5.13,6.92,7.53,7.16,7.63a2.38,2.38,0,0,0,.88.17A2.47,2.47,0,0,0,28,35.6c.18-.2,4.33-4.86,3.16-10-.78-3.43-4-6.54-4.14-6.67a1.82,1.82,0,0,0-1.27-.54Z" transform="translate(-6.88 -18.4)"/><path class="cls-3" d="M15.64,43.26c-.23,0-.46,0-.68,0-3.43-.32-6.83-3.14-7-3.26a1.1,1.1,0,0,1,.26-1.92l2.92-1.35L8.67,34.94a1.1,1.1,0,0,1-.52-1A1.11,1.11,0,0,1,8.78,33a16.09,16.09,0,0,1,6.57-1.83c.23,0,.47,0,.7,0,4.9.44,7.88,5.55,8,5.76a1.84,1.84,0,0,1-.19,2c-.14.17-3.65,4.26-8.23,4.26Z" transform="translate(-6.88 -18.4)"/><path class="cls-4" d="M15.35,31.84c.21,0,.43,0,.64,0,4.62.42,7.5,5.44,7.5,5.44a1.19,1.19,0,0,1-.11,1.27s-3.41,4-7.74,4q-.32,0-.63,0c-3.26-.3-6.61-3.11-6.61-3.11a.46.46,0,0,1,.12-.83l3.23-1.5a.41.41,0,0,0,.07-.77L9,34.41a.45.45,0,0,1,.05-.82,15.69,15.69,0,0,1,6.26-1.75m0-1.3a17,17,0,0,0-6.87,1.9,1.8,1.8,0,0,0-1,1.47,1.77,1.77,0,0,0,.8,1.56l1.57,1.11L8,37.46a1.75,1.75,0,0,0-.41,3c.16.13,3.71,3.08,7.34,3.41a6,6,0,0,0,.74,0c4.88,0,8.58-4.31,8.73-4.49a2.49,2.49,0,0,0,.25-2.76c-.13-.23-3.28-5.61-8.52-6.09q-.36,0-.75,0Z" transform="translate(-6.88 -18.4)"/><path class="cls-5" d="M35.76,38.62a14.51,14.51,0,0,1-5.34-1.11,1.84,1.84,0,0,1-1-1.73c0-.26.5-6.14,4.73-8.67a13.89,13.89,0,0,1,6.67-1.48c.55,0,.88,0,.88,0a1.1,1.1,0,0,1,.92,1.71L41,30.16l3,0a1.08,1.08,0,0,1,1,1.62c-.08.16-2,4-4.81,5.72a8.67,8.67,0,0,1-4.53,1.16Z" transform="translate(-6.88 -18.4)"/><path class="cls-4" d="M40.78,26.28c.52,0,.84,0,.84,0A.46.46,0,0,1,42,27l-1.74,3.11c-.21.37,0,.67.39.67h0l3.4-.05h0a.44.44,0,0,1,.43.69S42.68,35.28,40,36.9A8.06,8.06,0,0,1,35.76,38a13.79,13.79,0,0,1-5.07-1,1.2,1.2,0,0,1-.66-1.1s.42-5.77,4.42-8.15a13.22,13.22,0,0,1,6.33-1.39m0-1.3h0a14.5,14.5,0,0,0-7,1.57c-4.52,2.7-5,8.91-5.05,9.18a2.48,2.48,0,0,0,1.42,2.37,15.08,15.08,0,0,0,5.61,1.17A9.3,9.3,0,0,0,40.62,38c3-1.8,5-5.83,5.07-6a1.73,1.73,0,0,0-1.6-2.55l-2,0,1-1.82A1.75,1.75,0,0,0,41.71,25s-.35,0-.93,0Z" transform="translate(-6.88 -18.4)"/><path class="cls-3" d="M39.28,53.23h-.2c-.18,0-4.42-.62-6.93-2.81C28.44,47.16,29,41.29,29.06,41a1.82,1.82,0,0,1,1.33-1.52,13.77,13.77,0,0,1,3.12-.33,10,10,0,0,1,6.58,2.14c2.59,2.27,3.68,6.56,3.73,6.74a1.19,1.19,0,0,1-.19,1,1.12,1.12,0,0,1-.88.41l-.27,0-3.16-.62,1,2.89a1.18,1.18,0,0,1-.12,1.06A1.12,1.12,0,0,1,39.28,53.23Z" transform="translate(-6.88 -18.4)"/><path class="cls-4" d="M33.51,39.84a9.31,9.31,0,0,1,6.15,2c2.47,2.16,3.53,6.41,3.53,6.41a.46.46,0,0,1-.44.62l-.14,0-3.5-.69H39c-.32,0-.49.24-.37.6L39.69,52c.13.37,0,.63-.41.63h-.11S35,52,32.58,49.92c-3.5-3.06-2.88-8.81-2.88-8.81a1.2,1.2,0,0,1,.84-1,13.85,13.85,0,0,1,3-.31m0-1.31a15.34,15.34,0,0,0-3.28.35A2.51,2.51,0,0,0,28.41,41c0,.27-.65,6.47,3.31,9.94,2.65,2.31,7.09,2.94,7.28,3h.28a1.71,1.71,0,0,0,1.43-.7,1.81,1.81,0,0,0,.21-1.65L40.3,49.7l2.05.41a1.87,1.87,0,0,0,.4,0,1.78,1.78,0,0,0,1.39-.65,1.86,1.86,0,0,0,.31-1.58c-.05-.2-1.19-4.67-3.93-7.08a10.46,10.46,0,0,0-7-2.31Z" transform="translate(-6.88 -18.4)"/><path class="cls-3" d="M160.39,58.22a1,1,0,0,1-.92-.72l-.79-2.37-1.57,1.76a1,1,0,0,1-.76.37,1,1,0,0,1-.9-.65,12.61,12.61,0,0,1-.79-6.08c.81-4,5.24-5.92,5.42-6a1.56,1.56,0,0,1,.57-.11,1.59,1.59,0,0,1,1.13.46c.14.15,3.43,3.7,2.62,7.66-.57,2.76-3.18,5.26-3.29,5.37a1.06,1.06,0,0,1-.72.31Z" transform="translate(-6.88 -18.4)"/><path class="cls-4" d="M160.65,45a1,1,0,0,1,.69.27s3.23,3.43,2.47,7.13c-.54,2.61-3.12,5.06-3.12,5.06a.46.46,0,0,1-.3.14.38.38,0,0,1-.35-.31l-.92-2.75c-.06-.19-.18-.29-.32-.29a.41.41,0,0,0-.3.16l-1.84,2.07a.43.43,0,0,1-.31.16.37.37,0,0,1-.34-.28,12,12,0,0,1-.77-5.73c.77-3.7,5.08-5.57,5.08-5.57a.92.92,0,0,1,.33-.06m0-1.2a2.15,2.15,0,0,0-.8.16c-.2.09-4.9,2.17-5.78,6.43-.59,2.84.77,6.27.83,6.42a1.55,1.55,0,0,0,1.45,1,1.59,1.59,0,0,0,1.21-.57l.88-1,.46,1.39a1.58,1.58,0,0,0,1.49,1.12,1.65,1.65,0,0,0,1.13-.46c.12-.12,2.86-2.75,3.46-5.69.88-4.26-2.62-8-2.77-8.19a2.18,2.18,0,0,0-1.56-.65Z" transform="translate(-6.88 -18.4)"/><path class="cls-3" d="M160.11,40.38a1,1,0,0,1-.24,0c-.21,0-5-1-6.62-4.65-1.17-2.57-.53-6.13-.5-6.28a1,1,0,0,1,.94-.85,1.09,1.09,0,0,1,.63.22l2,1.45.23-2.35a1,1,0,0,1,.93-.92,1,1,0,0,1,.58.18,12.4,12.4,0,0,1,4.21,4.44c1.67,3.69-.76,7.87-.86,8a1.58,1.58,0,0,1-1.33.73Z" transform="translate(-6.88 -18.4)"/><path class="cls-4" d="M157.51,27.58a.48.48,0,0,1,.26.09,12,12,0,0,1,4,4.18c1.56,3.44-.84,7.49-.84,7.49a1,1,0,0,1-.81.45l-.13,0s-4.63-.87-6.19-4.31c-1.1-2.43-.45-5.92-.45-5.92,0-.23.18-.36.35-.36a.48.48,0,0,1,.28.1L156.33,31a.43.43,0,0,0,.26.1c.17,0,.29-.13.32-.36l.27-2.75c0-.24.15-.38.33-.38m0-1.19A1.55,1.55,0,0,0,156,27.84l-.13,1.32-1.18-.85a1.72,1.72,0,0,0-1-.33,1.57,1.57,0,0,0-1.53,1.34c0,.16-.7,3.9.54,6.63,1.8,4,6.84,5,7.05,5l.36,0A2.17,2.17,0,0,0,162,40c.11-.19,2.7-4.64.9-8.6-1.2-2.65-4.31-4.62-4.44-4.71a1.74,1.74,0,0,0-.9-.26Z" transform="translate(-6.88 -18.4)"/><path class="cls-3" d="M152,48.2a13.17,13.17,0,0,1-5.42-1.51,1,1,0,0,1-.12-1.69l2-1.48-2.16-.94a1,1,0,0,1-.62-.77,1,1,0,0,1,.38-.9,12.44,12.44,0,0,1,5.53-2.63,5.32,5.32,0,0,1,.69,0c3.7,0,6.57,3.21,6.7,3.35a1.57,1.57,0,0,1,.18,1.71c-.09.18-2.45,4.41-6.47,4.86-.23,0-.47,0-.7,0Z" transform="translate(-6.88 -18.4)"/><path class="cls-4" d="M152.28,38.84c3.47,0,6.25,3.14,6.25,3.14a1,1,0,0,1,.11,1s-2.26,4.13-6,4.55a4.58,4.58,0,0,1-.64,0,12.69,12.69,0,0,1-5.14-1.44.37.37,0,0,1,0-.68l2.33-1.72a.34.34,0,0,0-.07-.63L146.54,42a.36.36,0,0,1-.09-.66,12,12,0,0,1,5.21-2.5l.62,0m0-1.2a6.45,6.45,0,0,0-.76,0c-2.88.32-5.72,2.67-5.84,2.77a1.55,1.55,0,0,0,.38,2.67l1.21.53-1.17.87a1.56,1.56,0,0,0,.18,2.7A14,14,0,0,0,152,48.79a6.51,6.51,0,0,0,.77,0c4.33-.48,6.83-5,6.93-5.16a2.16,2.16,0,0,0-.27-2.4c-.12-.15-3.17-3.55-7.14-3.55Z" transform="translate(-6.88 -18.4)"/><path class="cls-5" d="M166.37,41.3a11.51,11.51,0,0,1-2.31-.22,1.57,1.57,0,0,1-1.16-1.27c0-.2-.61-5,2.38-7.74,2.08-1.9,5.67-2.39,5.82-2.41h.16a1,1,0,0,1,.8.39,1,1,0,0,1,.12.92l-.75,2.38,2.3-.51.26,0a1,1,0,0,1,.76.36,1,1,0,0,1,.15.88A12.45,12.45,0,0,1,172,39.42a8.31,8.31,0,0,1-5.61,1.88Z" transform="translate(-6.88 -18.4)"/><path class="cls-4" d="M171.26,30.25c.29,0,.45.22.35.53l-.88,2.76c-.09.29,0,.48.3.48h.13l2.7-.6H174c.26,0,.41.2.33.49A12,12,0,0,1,171.58,39a7.7,7.7,0,0,1-5.21,1.72,11.34,11.34,0,0,1-2.18-.2,1,1,0,0,1-.7-.77s-.6-4.67,2.19-7.21c2-1.8,5.49-2.26,5.49-2.26h.09m0-1.2h0l-.24,0c-.16,0-3.92.53-6.14,2.56-3.22,2.94-2.6,8-2.58,8.26a2.18,2.18,0,0,0,1.63,1.78,12.33,12.33,0,0,0,2.44.23,8.84,8.84,0,0,0,6-2,13.16,13.16,0,0,0,3.11-5.67,1.63,1.63,0,0,0-.27-1.4A1.56,1.56,0,0,0,174,32.2a2.45,2.45,0,0,0-.38,0l-1.3.29.44-1.39a1.58,1.58,0,0,0-.21-1.45,1.54,1.54,0,0,0-1.28-.64Z" transform="translate(-6.88 -18.4)"/><path class="cls-3" d="M172.86,52.21a11.53,11.53,0,0,1-5.33-1.14c-3.52-2-4-6.81-4-7a1.57,1.57,0,0,1,.85-1.5,11.76,11.76,0,0,1,4.55-1,7.17,7.17,0,0,1,3.54.87c2.45,1.4,4,4.66,4.1,4.79a1,1,0,0,1-.9,1.44l-2.5,0,1.19,2a1,1,0,0,1,.06,1,1,1,0,0,1-.84.5h0S173.29,52.21,172.86,52.21Z" transform="translate(-6.88 -18.4)"/><path class="cls-4" d="M168.9,42.15a6.38,6.38,0,0,1,3.24.8c2.32,1.31,3.86,4.52,3.86,4.52a.38.38,0,0,1-.37.58l-2.9,0c-.34,0-.49.25-.31.55l1.4,2.39a.35.35,0,0,1-.31.58s-.25,0-.65,0a11.12,11.12,0,0,1-5-1.06c-3.28-1.87-3.73-6.55-3.73-6.55a1,1,0,0,1,.52-.9,11.1,11.1,0,0,1,4.29-1m0-1.19a12.56,12.56,0,0,0-4.81,1,2.17,2.17,0,0,0-1.19,2.1c0,.22.55,5.33,4.33,7.48a12.11,12.11,0,0,0,5.63,1.22c.45,0,.73,0,.73,0a1.62,1.62,0,0,0,1.33-.82,1.6,1.6,0,0,0-.07-1.57l-.67-1.14h1.46A1.57,1.57,0,0,0,177.08,47c-.07-.15-1.73-3.57-4.34-5.06A7.67,7.67,0,0,0,168.9,41Z" transform="translate(-6.88 -18.4)"/><path class="cls-3" d="M248.74,57.12a.94.94,0,0,1-.9-.7L247,53.81l-1.73,1.94a1,1,0,0,1-.75.37,1,1,0,0,1-.87-.65c-.06-.14-1.41-3.55-.83-6.33.84-4.13,5.46-6.17,5.66-6.26a1.47,1.47,0,0,1,.56-.11,1.55,1.55,0,0,1,1.13.46c.15.16,3.59,3.86,2.74,8-.6,2.88-3.32,5.5-3.44,5.61a1,1,0,0,1-.7.3Z" transform="translate(-6.88 -18.4)"/><path class="cls-4" d="M249,43.33a1,1,0,0,1,.73.29s3.39,3.59,2.59,7.48c-.56,2.74-3.27,5.31-3.27,5.31a.49.49,0,0,1-.32.15.4.4,0,0,1-.37-.32l-1-2.89c-.07-.2-.2-.31-.34-.31a.45.45,0,0,0-.31.17l-1.94,2.17a.44.44,0,0,1-.33.18.39.39,0,0,1-.35-.3s-1.35-3.36-.81-6c.8-3.89,5.34-5.85,5.34-5.85a.77.77,0,0,1,.34-.07m0-1.12a2,2,0,0,0-.78.16c-.21.09-5.08,2.25-6,6.65-.61,2.95.8,6.51.86,6.66a1.52,1.52,0,0,0,1.39,1,1.54,1.54,0,0,0,1.17-.56l1.09-1.22.56,1.69a1.52,1.52,0,0,0,1.43,1.09,1.57,1.57,0,0,0,1.09-.46c.12-.11,3-2.84,3.6-5.89.9-4.41-2.73-8.32-2.88-8.48a2.14,2.14,0,0,0-1.54-.64Z" transform="translate(-6.88 -18.4)"/><path class="cls-3" d="M248.45,38.39l-.25,0c-.21,0-5.16-1-6.9-4.85-1.22-2.68-.54-6.4-.52-6.55a.94.94,0,0,1,.92-.83,1.05,1.05,0,0,1,.62.21l2.23,1.6.26-2.59a.92.92,0,0,1,.91-.9,1.11,1.11,0,0,1,.57.17c.13.08,3.22,2.05,4.39,4.64,1.74,3.83-.79,8.2-.9,8.38a1.59,1.59,0,0,1-1.33.74Z" transform="translate(-6.88 -18.4)"/><path class="cls-4" d="M245.72,25a.49.49,0,0,1,.27.08s3.07,1.93,4.18,4.4c1.64,3.61-.87,7.87-.87,7.87a1,1,0,0,1-.85.46h-.15s-4.85-.91-6.49-4.53c-1.16-2.55-.48-6.22-.48-6.22,0-.24.19-.38.37-.38a.53.53,0,0,1,.29.11l2.48,1.77a.46.46,0,0,0,.28.11c.17,0,.3-.14.33-.38l.28-2.89c0-.25.17-.39.36-.39m0-1.12a1.49,1.49,0,0,0-1.47,1.4l-.16,1.63-1.45-1a1.63,1.63,0,0,0-.94-.31,1.52,1.52,0,0,0-1.47,1.28c0,.17-.73,4.05.56,6.89,1.86,4.1,7.09,5.13,7.31,5.17a2,2,0,0,0,.35,0,2.18,2.18,0,0,0,1.81-1c.12-.2,2.79-4.81.93-8.9-1.24-2.74-4.47-4.8-4.6-4.88a1.69,1.69,0,0,0-.87-.26Z" transform="translate(-6.88 -18.4)"/><path class="cls-3" d="M239.91,46.59A13.74,13.74,0,0,1,234.25,45a1,1,0,0,1-.54-.79,1,1,0,0,1,.43-.86l2.21-1.63-2.38-1a1,1,0,0,1-.61-.75,1,1,0,0,1,.37-.89c.12-.1,3-2.43,5.77-2.74a6,6,0,0,1,.72,0c3.85,0,6.85,3.35,7,3.49a1.57,1.57,0,0,1,.19,1.72c-.1.19-2.56,4.6-6.74,5.07-.25,0-.49,0-.74,0Z" transform="translate(-6.88 -18.4)"/><path class="cls-4" d="M240.22,36.83c3.65,0,6.56,3.31,6.56,3.31a1,1,0,0,1,.12,1.08s-2.37,4.34-6.31,4.78a5.17,5.17,0,0,1-.68,0,13.32,13.32,0,0,1-5.39-1.51.39.39,0,0,1-.05-.71L236.92,42c.3-.22.27-.51-.07-.66l-2.66-1.16a.39.39,0,0,1-.1-.7s2.79-2.32,5.48-2.62c.22,0,.44,0,.65,0m0-1.11a6.79,6.79,0,0,0-.78,0c-3,.33-5.94,2.77-6.06,2.87a1.49,1.49,0,0,0,.36,2.58l1.5.65-1.43,1.06a1.5,1.5,0,0,0,.18,2.59,14.31,14.31,0,0,0,5.92,1.64,7,7,0,0,0,.8,0c4.47-.5,7.06-5.15,7.17-5.35a2.14,2.14,0,0,0-.26-2.36c-.13-.15-3.3-3.68-7.4-3.68Z" transform="translate(-6.88 -18.4)"/><path class="cls-5" d="M255,39.35a12,12,0,0,1-2.41-.23,1.58,1.58,0,0,1-1.17-1.27c0-.22-.63-5.23,2.48-8.07,2.17-2,5.92-2.49,6.07-2.51h.16a1,1,0,0,1,.79.38,1,1,0,0,1,.12.9l-.83,2.61,2.54-.55.25,0a.92.92,0,0,1,.74.34,1,1,0,0,1,.16.87c0,.15-1,3.7-3.05,5.62a8.7,8.7,0,0,1-5.85,2Z" transform="translate(-6.88 -18.4)"/><path class="cls-4" d="M260.15,27.82a.38.38,0,0,1,.38.55l-.93,2.9c-.09.3,0,.51.31.51l.14,0,2.84-.62H263c.28,0,.43.21.35.51,0,0-.88,3.52-2.88,5.34A8.11,8.11,0,0,1,255,38.8a11.32,11.32,0,0,1-2.29-.22,1,1,0,0,1-.73-.8s-.64-4.91,2.3-7.58c2.06-1.89,5.77-2.38,5.77-2.38h.08m0-1.12h0l-.23,0c-.16,0-4.08.55-6.37,2.65-3.33,3-2.69,8.32-2.66,8.55a2.13,2.13,0,0,0,1.6,1.75,12.74,12.74,0,0,0,2.53.24,9.16,9.16,0,0,0,6.22-2.1c2.22-2,3.18-5.74,3.22-5.89a1.56,1.56,0,0,0-.26-1.35A1.45,1.45,0,0,0,263,30a1.47,1.47,0,0,0-.36,0l-1.61.35.54-1.69a1.53,1.53,0,0,0-.2-1.4,1.49,1.49,0,0,0-1.24-.61Z" transform="translate(-6.88 -18.4)"/><path class="cls-3" d="M261.84,50.81a12,12,0,0,1-5.57-1.18c-3.66-2.09-4.18-7.11-4.2-7.32a1.61,1.61,0,0,1,.86-1.51,12.36,12.36,0,0,1,4.75-1,7.35,7.35,0,0,1,3.68.9c2.56,1.46,4.21,4.86,4.27,5a1,1,0,0,1,0,1,1,1,0,0,1-.86.44l-2.74,0,1.31,2.24a1,1,0,0,1,.06,1,1,1,0,0,1-.83.49S262.28,50.81,261.84,50.81Z" transform="translate(-6.88 -18.4)"/><path class="cls-4" d="M257.68,40.32a6.87,6.87,0,0,1,3.41.83c2.43,1.39,4,4.76,4,4.76a.39.39,0,0,1-.38.6l-3.05,0c-.36,0-.51.26-.33.58l1.47,2.51a.37.37,0,0,1-.32.61s-.26,0-.68,0a11.57,11.57,0,0,1-5.29-1.11c-3.45-2-3.92-6.88-3.92-6.88a1,1,0,0,1,.54-.95,11.74,11.74,0,0,1,4.51-1m0-1.12a12.72,12.72,0,0,0-5,1.1,2.12,2.12,0,0,0-1.17,2.06c0,.23.56,5.53,4.47,7.75a12.68,12.68,0,0,0,5.85,1.26c.47,0,.75,0,.75,0a1.49,1.49,0,0,0,1.22-2.29L263,47.64h1.78a1.5,1.5,0,0,0,1.38-2.2c-.07-.16-1.79-3.71-4.5-5.25a7.94,7.94,0,0,0-4-1Z" transform="translate(-6.88 -18.4)"/><path class="cls-3" d="M302.8,34.34a11.22,11.22,0,0,1-5.41-1.61,1.52,1.52,0,0,1-.64-1.52c.05-.2,1.12-4.85,4.83-6.37a8.88,8.88,0,0,1,3.33-.56,15.16,15.16,0,0,1,2.92.29.9.9,0,0,1,.54,1.49l-1.57,2,2.44.33A.93.93,0,0,1,310,29a.92.92,0,0,1-.12.91,12.23,12.23,0,0,1-4.54,4,6.64,6.64,0,0,1-2.54.48Z" transform="translate(-6.88 -18.4)"/><path class="cls-4" d="M304.91,24.82a14.39,14.39,0,0,1,2.8.28.37.37,0,0,1,.24.63L306.19,28c-.22.27-.11.53.24.58l2.74.36a.36.36,0,0,1,.27.61,11.89,11.89,0,0,1-4.31,3.8,6,6,0,0,1-2.33.44,10.88,10.88,0,0,1-5.12-1.52,1,1,0,0,1-.4-1s1-4.55,4.51-6a8.39,8.39,0,0,1,3.12-.52m0-1.08a9.31,9.31,0,0,0-3.53.6c-4,1.62-5.1,6.54-5.15,6.75a2,2,0,0,0,.87,2.09,11.88,11.88,0,0,0,5.7,1.7,7.26,7.26,0,0,0,2.74-.52,12.86,12.86,0,0,0,4.79-4.2,1.42,1.42,0,0,0-1-2.27l-1.51-.2,1-1.3a1.49,1.49,0,0,0,.25-1.41,1.47,1.47,0,0,0-1.11-.93,14.49,14.49,0,0,0-3-.31Z" transform="translate(-6.88 -18.4)"/><path class="cls-5" d="M97.31,46.38A7.83,7.83,0,0,1,95,46.07c-3.83-1.18-5.37-5.72-5.43-5.91A1.49,1.49,0,0,1,90,38.58a10.67,10.67,0,0,1,5.88-2.15,6.55,6.55,0,0,1,1.89.28c2.67.82,4.91,3.64,5,3.76a.92.92,0,0,1,.18.9.91.91,0,0,1-.7.59l-2.51.58,1.68,1.8a.93.93,0,0,1,.26.89,1,1,0,0,1-.67.63,14.84,14.84,0,0,1-3.72.52Z" transform="translate(-6.88 -18.4)"/><path class="cls-4" d="M95.9,37a5.81,5.81,0,0,1,1.73.26c2.55.78,4.74,3.57,4.74,3.57a.37.37,0,0,1-.22.64l-2.81.64a.34.34,0,0,0-.18.61l1.89,2a.36.36,0,0,1-.17.64,14,14,0,0,1-3.57.51,7.59,7.59,0,0,1-2.18-.29C91.53,44.45,90.06,40,90.06,40a1,1,0,0,1,.29-1,10.27,10.27,0,0,1,5.55-2m0-1.07a11.32,11.32,0,0,0-6.21,2.25A2,2,0,0,0,89,40.32c.06.21,1.69,5,5.78,6.27a8.58,8.58,0,0,0,2.49.33,15.45,15.45,0,0,0,3.87-.54,1.48,1.48,0,0,0,1-1,1.46,1.46,0,0,0-.37-1.4l-1-1.12,1.6-.36a1.45,1.45,0,0,0,.83-2.36c-.1-.12-2.44-3.06-5.27-3.93a7,7,0,0,0-2-.3Z" transform="translate(-6.88 -18.4)"/><path class="cls-5" d="M119.72,54a12.15,12.15,0,0,1-5.83-1.42c-3.37-2.16-3.63-7-3.64-7.16a1.49,1.49,0,0,1,.88-1.39,11.4,11.4,0,0,1,4.05-.77,7.09,7.09,0,0,1,3.93,1.06c2.36,1.51,3.76,4.82,3.82,5a.9.9,0,0,1-.85,1.3l-2.63-.12,1.13,2.18a.89.89,0,0,1-.81,1.36Z" transform="translate(-6.88 -18.4)"/><path class="cls-4" d="M115.18,43.82a6.65,6.65,0,0,1,3.64,1c2.24,1.43,3.61,4.71,3.61,4.71a.37.37,0,0,1-.35.56h0l-2.87-.13h0c-.33,0-.46.24-.31.54l1.28,2.45a.36.36,0,0,1-.34.57h0a11.64,11.64,0,0,1-5.54-1.34c-3.17-2-3.39-6.72-3.39-6.72a1,1,0,0,1,.55-.88,11.25,11.25,0,0,1,3.84-.72m0-1.08h0a12.1,12.1,0,0,0-4.26.81,2,2,0,0,0-1.21,1.91c0,.22.29,5.28,3.89,7.59a12.72,12.72,0,0,0,6.12,1.51h.07a1.5,1.5,0,0,0,1.26-.69,1.47,1.47,0,0,0,0-1.45l-.7-1.36,1.63.07h.09a1.44,1.44,0,0,0,1.34-2c-.06-.15-1.52-3.61-4-5.21a7.74,7.74,0,0,0-4.22-1.14Z" transform="translate(-6.88 -18.4)"/><path class="cls-3" d="M228.18,57.68a11.13,11.13,0,0,1-5.35-1.26c-3.16-2-3.45-6.42-3.46-6.61a1.39,1.39,0,0,1,.8-1.31,10.78,10.78,0,0,1,3.86-.76,6.61,6.61,0,0,1,3.57.95,11.37,11.37,0,0,1,3.59,4.57.86.86,0,0,1-.05.84.85.85,0,0,1-.74.38L228,54.39l1.08,2a.85.85,0,0,1,0,.86.86.86,0,0,1-.75.41Z" transform="translate(-6.88 -18.4)"/><path class="cls-4" d="M224,48.24a6.22,6.22,0,0,1,3.3.87,11,11,0,0,1,3.4,4.35.34.34,0,0,1-.33.52h0l-2.67-.1h0c-.3,0-.43.22-.28.5l1.21,2.27a.33.33,0,0,1-.31.53h-.12A10.78,10.78,0,0,1,223.09,56c-3-1.86-3.22-6.22-3.22-6.22a.89.89,0,0,1,.5-.82,10.31,10.31,0,0,1,3.66-.72m0-1h0A11.31,11.31,0,0,0,220,48a1.89,1.89,0,0,0-1.11,1.79c0,.2.32,4.91,3.69,7a11.66,11.66,0,0,0,5.62,1.34h.15a1.4,1.4,0,0,0,1.17-.65,1.38,1.38,0,0,0,0-1.35l-.67-1.26,1.52.06h.06a1.35,1.35,0,0,0,1.16-.6,1.37,1.37,0,0,0,.09-1.32,11.89,11.89,0,0,0-3.79-4.8,7.16,7.16,0,0,0-3.83-1Z" transform="translate(-6.88 -18.4)"/><path class="cls-3" d="M283.73,43.68a11.13,11.13,0,0,1-5.35-1.26c-3.15-2-3.45-6.42-3.46-6.61a1.42,1.42,0,0,1,.8-1.31,11,11,0,0,1,3.86-.75,6.58,6.58,0,0,1,3.57.94,11.53,11.53,0,0,1,3.6,4.57.91.91,0,0,1-.05.85.89.89,0,0,1-.74.37l-2.43-.09,1.08,2a.9.9,0,0,1,0,.87.85.85,0,0,1-.75.4Z" transform="translate(-6.88 -18.4)"/><path class="cls-4" d="M279.58,34.25a6.24,6.24,0,0,1,3.31.86,11.09,11.09,0,0,1,3.4,4.35A.34.34,0,0,1,286,40h0l-2.67-.1h0c-.31,0-.44.22-.29.5l1.22,2.27a.33.33,0,0,1-.31.53h-.13A10.75,10.75,0,0,1,278.65,42c-3-1.86-3.23-6.22-3.23-6.22a.91.91,0,0,1,.5-.82,10.43,10.43,0,0,1,3.66-.71m0-1h0a11.56,11.56,0,0,0-4.05.79,1.9,1.9,0,0,0-1.11,1.8c0,.2.33,4.9,3.7,7a11.61,11.61,0,0,0,5.61,1.33h.15a1.35,1.35,0,0,0,1.17-.65,1.41,1.41,0,0,0,0-1.35l-.67-1.26,1.52.06H286a1.35,1.35,0,0,0,1.16-.6,1.4,1.4,0,0,0,.09-1.32,12.06,12.06,0,0,0-3.79-4.79,7.1,7.1,0,0,0-3.84-1Z" transform="translate(-6.88 -18.4)"/><path class="cls-3" d="M190.38,50.44a10,10,0,0,1-5.63-2.15,1.42,1.42,0,0,1-.42-1.48c.07-.18,1.58-4.35,5.18-5.33a6.9,6.9,0,0,1,1.83-.22,13.3,13.3,0,0,1,4,.68.91.91,0,0,1,.6.62.86.86,0,0,1-.27.81L194,45.07l2.22.58a.83.83,0,0,1,.43,1.4A11.41,11.41,0,0,1,192,50.23a5.78,5.78,0,0,1-1.57.21Z" transform="translate(-6.88 -18.4)"/><path class="cls-4" d="M191.34,41.76a13.13,13.13,0,0,1,3.8.65.34.34,0,0,1,.14.61l-1.88,1.9a.31.31,0,0,0,.16.57l2.48.64c.32.09.4.35.19.59a11.06,11.06,0,0,1-4.41,3,5.48,5.48,0,0,1-1.44.19,9.63,9.63,0,0,1-5.32-2,.91.91,0,0,1-.26-.92s1.46-4.09,4.84-5a6.43,6.43,0,0,1,1.7-.2m0-1a7.41,7.41,0,0,0-2,.24c-3.85,1-5.45,5.46-5.52,5.64a1.91,1.91,0,0,0,.57,2,10.47,10.47,0,0,0,5.95,2.27,6.47,6.47,0,0,0,1.71-.23A12,12,0,0,0,197,47.38a1.32,1.32,0,0,0-.68-2.21l-1.38-.36L196,43.73a1.34,1.34,0,0,0-.52-2.26,13.93,13.93,0,0,0-4.13-.71Z" transform="translate(-6.88 -18.4)"/><path class="cls-3" d="M74.34,42.3c-3.71,0-6.58-3.29-6.7-3.43a1.53,1.53,0,0,1-.17-1.64c.1-.18,2.49-4.31,6.48-4.68a5.49,5.49,0,0,1,.58,0A12.87,12.87,0,0,1,80,34.11a.9.9,0,0,1,.09,1.58L78,37.18l2.24,1a.91.91,0,0,1,.57.73.94.94,0,0,1-.37.84,12.4,12.4,0,0,1-5.52,2.5l-.57,0Z" transform="translate(-6.88 -18.4)"/><path class="cls-4" d="M74.53,33.06a12.58,12.58,0,0,1,5.21,1.52.37.37,0,0,1,0,.67l-2.35,1.67a.33.33,0,0,0,.06.62L80,38.69a.36.36,0,0,1,.08.66,11.92,11.92,0,0,1-5.23,2.39l-.52,0c-3.51,0-6.29-3.24-6.29-3.24a1,1,0,0,1-.11-1s2.3-4.06,6.06-4.41l.53,0m0-1.08q-.32,0-.63,0c-4.27.4-6.79,4.77-6.89,5a2,2,0,0,0,.22,2.26c.13.15,3.15,3.62,7.11,3.62.21,0,.41,0,.62,0a13.06,13.06,0,0,0,5.81-2.62,1.44,1.44,0,0,0-.31-2.48l-1.4-.63,1.34-.95a1.47,1.47,0,0,0,.65-1.28,1.49,1.49,0,0,0-.78-1.21A13.56,13.56,0,0,0,74.53,32Z" transform="translate(-6.88 -18.4)"/><path class="cls-3" d="M133.27,41.8a10.84,10.84,0,0,1-5.88-2.1,1.5,1.5,0,0,1-.51-1.57c.06-.19,1.53-4.74,5.36-5.93a7.93,7.93,0,0,1,2.34-.32,14.35,14.35,0,0,1,3.91.59.93.93,0,0,1,.66.64,1,1,0,0,1-.25.89l-1.74,1.89,2.4.53a.94.94,0,0,1,.71.59.92.92,0,0,1-.19.9,12.34,12.34,0,0,1-4.87,3.6,6.5,6.5,0,0,1-1.94.29Z" transform="translate(-6.88 -18.4)"/><path class="cls-4" d="M134.58,32.42a14.29,14.29,0,0,1,3.75.56.37.37,0,0,1,.17.65l-1.95,2.12c-.23.25-.14.52.2.6l2.69.6a.35.35,0,0,1,.22.62A11.92,11.92,0,0,1,135.05,41a6.09,6.09,0,0,1-1.78.26,10.48,10.48,0,0,1-5.56-2,.94.94,0,0,1-.31-1s1.4-4.45,5-5.58a7.55,7.55,0,0,1,2.18-.29m0-1.08a8.34,8.34,0,0,0-2.5.35C128,33,126.43,37.76,126.37,38a2,2,0,0,0,.69,2.16,11.53,11.53,0,0,0,6.21,2.2,6.93,6.93,0,0,0,2.1-.31,12.9,12.9,0,0,0,5.13-3.77,1.43,1.43,0,0,0-.82-2.35l-1.49-.33,1.11-1.21a1.44,1.44,0,0,0-.65-2.41,15.52,15.52,0,0,0-4.07-.61Z" transform="translate(-6.88 -18.4)"/><path class="cls-5" d="M209.89,42.49c-3.66,0-6.29-3.49-6.4-3.63a1.41,1.41,0,0,1-.05-1.54c.11-.16,2.6-3.83,6.32-3.91h.12a11.46,11.46,0,0,1,5.39,1.86.83.83,0,0,1,0,1.47l-2,1.24,2,1.1a.86.86,0,0,1,.48.71.84.84,0,0,1-.4.75,11.38,11.38,0,0,1-5.28,2Z" transform="translate(-6.88 -18.4)"/><path class="cls-4" d="M209.88,33.91A11.2,11.2,0,0,1,215,35.68a.35.35,0,0,1,0,.63L212.7,37.7c-.28.17-.27.43,0,.58L215,39.52a.33.33,0,0,1,0,.61A11.09,11.09,0,0,1,210,42h-.11c-3.45,0-6-3.43-6-3.43a.92.92,0,0,1,0-1s2.41-3.62,5.91-3.69h.11m0-1h-.13c-4,.08-6.61,4-6.72,4.13a1.91,1.91,0,0,0,.05,2.11c.12.16,2.9,3.84,6.81,3.84H210a11.87,11.87,0,0,0,5.55-2,1.32,1.32,0,0,0-.12-2.31L214.2,38l1.3-.79a1.38,1.38,0,0,0,.7-1.14,1.39,1.39,0,0,0-.65-1.18,12.09,12.09,0,0,0-5.67-1.94Z" transform="translate(-6.88 -18.4)"/><path class="cls-5" d="M315.62,48.94c-3.66,0-6.29-3.49-6.4-3.64a1.39,1.39,0,0,1-.05-1.53c.11-.16,2.6-3.84,6.32-3.91h.11a11.47,11.47,0,0,1,5.4,1.86.86.86,0,0,1,.42.75.87.87,0,0,1-.45.73l-2,1.23,2,1.1A.83.83,0,0,1,321,47a11.5,11.5,0,0,1-5.28,1.95Z" transform="translate(-6.88 -18.4)"/><path class="cls-4" d="M315.6,40.35a11.11,11.11,0,0,1,5.12,1.78.35.35,0,0,1,0,.63l-2.29,1.38a.31.31,0,0,0,0,.59L320.7,46a.34.34,0,0,1,0,.62,11.09,11.09,0,0,1-5,1.86h-.1c-3.45,0-6-3.44-6-3.44a.9.9,0,0,1,0-1s2.41-3.61,5.91-3.68h.1m0-1h-.12c-4,.08-6.61,4-6.72,4.13a1.91,1.91,0,0,0,.05,2.11c.12.15,2.9,3.84,6.81,3.84h.12a12.1,12.1,0,0,0,5.56-2,1.33,1.33,0,0,0-.12-2.32l-1.25-.68,1.3-.79a1.37,1.37,0,0,0,.69-1.14,1.4,1.4,0,0,0-.64-1.18,12.1,12.1,0,0,0-5.68-1.94Z" transform="translate(-6.88 -18.4)"/><path class="cls-5" d="M55.74,50.87a10.74,10.74,0,0,1-6.12-2.39,1.52,1.52,0,0,1-.43-1.6c.08-.19,1.77-4.65,5.65-5.65A7.06,7.06,0,0,1,56.69,41a14.45,14.45,0,0,1,4.38.79.91.91,0,0,1,.33,1.55l-1.83,1.8,2.37.66a.9.9,0,0,1,.68.62.91.91,0,0,1-.23.89,12.25,12.25,0,0,1-5,3.35A6.49,6.49,0,0,1,55.74,50.87Z" transform="translate(-6.88 -18.4)"/><path class="cls-4" d="M56.69,41.55a13.83,13.83,0,0,1,4.19.76A.37.37,0,0,1,61,43L59,45c-.24.24-.17.51.17.6l2.66.73A.36.36,0,0,1,62,47a11.85,11.85,0,0,1-4.78,3.19,5.69,5.69,0,0,1-1.47.18A10.29,10.29,0,0,1,50,48.07a1,1,0,0,1-.27-1s1.62-4.38,5.27-5.32a6.58,6.58,0,0,1,1.72-.2m0-1.08a8.24,8.24,0,0,0-2,.23c-4.14,1.08-5.93,5.79-6,6a2.06,2.06,0,0,0,.58,2.2,11.37,11.37,0,0,0,6.47,2.52,6.69,6.69,0,0,0,1.74-.22,12.85,12.85,0,0,0,5.31-3.51,1.46,1.46,0,0,0,.35-1.4,1.48,1.48,0,0,0-1-1l-1.48-.41,1.17-1.15a1.43,1.43,0,0,0-.53-2.43,14.62,14.62,0,0,0-4.56-.83Z" transform="translate(-6.88 -18.4)"/></g></g></g></g></svg>