<svg xmlns="http://www.w3.org/2000/svg" xmlns:xlink="http://www.w3.org/1999/xlink" viewBox="0 0 394.28 50.89"><defs><style>.cls-1{fill:none;}.cls-2{clip-path:url(#clip-path);}.cls-3{fill:#4a9cbc;}.cls-4{fill:#fff6a6;}.cls-5{fill:#f98cb6;}.cls-6{fill:#fff;}.cls-7{fill:#ffcae0;}</style><clipPath id="clip-path" transform="translate(17.28 -3)"><rect class="cls-1" width="320" height="57"/></clipPath></defs><g id="レイヤー_2" data-name="レイヤー 2"><g id="レイヤー_1-2" data-name="レイヤー 1"><g class="cls-2"><polygon class="cls-3" points="140.22 38.65 222.87 29.98 0.71 1.91 0 32.25 2.46 32.36 140.22 38.65"/><polygon class="cls-4" points="160.15 39.56 391.26 50.11 394.27 12 222.87 29.98 140.22 38.65 160.15 39.56"/><path class="cls-5" d="M19.88,41.61a1.1,1.1,0,0,1-1.09-1.09l-.21-3.24L16.05,39a1.31,1.31,0,0,1-.7.22,1.08,1.08,0,0,1-1.06-1c0-.18-.54-4.44.93-7.42,2.17-4.42,8-5.38,8.24-5.42h.24a1.84,1.84,0,0,1,1.58.91c.12.22,2.93,5.42.75,9.84-1.52,3.09-5.37,5.25-5.54,5.34a1.28,1.28,0,0,1-.61.17Z" transform="translate(17.28 -3)"/><path class="cls-6" d="M23.7,26a1.22,1.22,0,0,1,1,.57s2.79,5.07.74,9.24c-1.45,2.94-5.27,5.06-5.27,5.06a.64.64,0,0,1-.3.09c-.24,0-.42-.18-.44-.49l-.23-3.56c0-.29-.17-.45-.38-.45a.54.54,0,0,0-.32.11l-2.83,1.89a.54.54,0,0,1-.32.11c-.22,0-.38-.16-.42-.45,0,0-.54-4.21.86-7C17.85,26.9,23.56,26,23.56,26h.14m0-1.3a1.83,1.83,0,0,0-.33,0c-.27,0-6.42,1.05-8.74,5.77-1.55,3.16-1,7.61-1,7.79a1.73,1.73,0,0,0,1.71,1.59,1.86,1.86,0,0,0,1.05-.33L18,38.47l.13,2.09a1.75,1.75,0,0,0,1.74,1.7A1.93,1.93,0,0,0,20.8,42c.18-.1,4.21-2.35,5.82-5.62,2.32-4.73-.64-10.21-.77-10.45A2.51,2.51,0,0,0,23.7,24.7Z" transform="translate(17.28 -3)"/><path class="cls-5" d="M25.24,20.32a1.69,1.69,0,0,1-.72-.15c-.23-.11-5.55-2.66-6.39-7.52-.59-3.39,1.26-7.41,1.34-7.58a1.13,1.13,0,0,1,1-.7,1.2,1.2,0,0,1,.9.45L23.45,7.3,24.5,4.43a1.11,1.11,0,0,1,1-.78,1.18,1.18,0,0,1,.86.4c.12.13,3.05,3.27,3.61,6.54.84,4.86-3.31,9.06-3.49,9.24a1.83,1.83,0,0,1-1.27.49Z" transform="translate(17.28 -3)"/><path class="cls-6" d="M25.53,4.3a.52.52,0,0,1,.38.19s2.91,3.1,3.45,6.21c.8,4.58-3.31,8.66-3.31,8.66a1.17,1.17,0,0,1-.81.31,1.13,1.13,0,0,1-.45-.09s-5.23-2.46-6-7c-.56-3.23,1.29-7.19,1.29-7.19A.49.49,0,0,1,20.49,5a.55.55,0,0,1,.4.22L23.17,8a.51.51,0,0,0,.38.21.44.44,0,0,0,.39-.34l1.17-3.19a.47.47,0,0,1,.42-.36m0-1.3a1.77,1.77,0,0,0-1.64,1.21L23.23,6l-1.34-1.6a1.83,1.83,0,0,0-1.4-.69A1.79,1.79,0,0,0,18.88,4.8c-.08.17-2,4.37-1.39,8,.89,5.19,6.51,7.89,6.75,8a2.36,2.36,0,0,0,1,.22A2.45,2.45,0,0,0,27,20.29c.19-.19,4.57-4.62,3.67-9.81C30.05,7,27,3.74,26.86,3.6A1.83,1.83,0,0,0,25.53,3Z" transform="translate(17.28 -3)"/><path class="cls-5" d="M14.63,27.3a7.73,7.73,0,0,1-1.08-.08c-3.41-.49-6.65-3.49-6.79-3.61a1.1,1.1,0,0,1,.36-1.91l3-1.19L7.71,18.62a1.13,1.13,0,0,1-.48-1,1.15,1.15,0,0,1,.69-.89,16.69,16.69,0,0,1,6.19-1.5,8.68,8.68,0,0,1,1.16.08c4.87.7,7.58,6,7.7,6.18a1.86,1.86,0,0,1-.29,2c-.15.16-3.65,3.83-8,3.83Z" transform="translate(17.28 -3)"/><path class="cls-6" d="M14.11,15.86a7.34,7.34,0,0,1,1.06.08c4.6.66,7.22,5.82,7.22,5.82A1.19,1.19,0,0,1,22.2,23s-3.4,3.63-7.57,3.63a6.78,6.78,0,0,1-1-.07c-3.24-.47-6.44-3.45-6.44-3.45a.46.46,0,0,1,.16-.82L10.67,21a.41.41,0,0,0,.11-.77l-2.67-2.1a.44.44,0,0,1,.09-.81,16.1,16.1,0,0,1,5.91-1.44m0-1.3a17.56,17.56,0,0,0-6.47,1.56,1.81,1.81,0,0,0-1,1.41,1.78,1.78,0,0,0,.71,1.6l1.51,1.19-1.94.78a1.75,1.75,0,0,0-.56,3c.15.13,3.54,3.27,7.15,3.79a9.08,9.08,0,0,0,1.17.08c4.68,0,8.37-3.87,8.52-4a2.49,2.49,0,0,0,.4-2.74c-.12-.23-3-5.77-8.19-6.52a8.45,8.45,0,0,0-1.25-.09Z" transform="translate(17.28 -3)"/><path class="cls-7" d="M35.15,23.73a14.34,14.34,0,0,1-5.86-1.4,1.87,1.87,0,0,1-.95-1.79c0-.25.82-6.1,5.19-8.41A12.86,12.86,0,0,1,39.25,11c1.1,0,1.86.09,1.89.09a1.2,1.2,0,0,1,.94.63A1.16,1.16,0,0,1,42,12.82l-1.71,2.72,3.05.12a1.09,1.09,0,0,1,.95,1.67c-.09.16-2.17,3.91-5.11,5.47a8.58,8.58,0,0,1-4,.93Z" transform="translate(17.28 -3)"/><path class="cls-6" d="M39.25,11.63a16.59,16.59,0,0,1,1.81.09.45.45,0,0,1,.36.75l-1.9,3c-.23.36-.06.67.37.69l3.39.13a.44.44,0,0,1,.41.71s-2,3.72-4.84,5.2a7.91,7.91,0,0,1-3.7.85,13.7,13.7,0,0,1-5.56-1.32,1.2,1.2,0,0,1-.6-1.13s.73-5.74,4.84-7.91a12.12,12.12,0,0,1,5.42-1.08m0-1.31a13.43,13.43,0,0,0-6,1.24c-4.66,2.46-5.49,8.63-5.52,8.9A2.51,2.51,0,0,0,29,22.91a15,15,0,0,0,6.16,1.47,9.07,9.07,0,0,0,4.3-1c3.12-1.64,5.29-5.56,5.38-5.72a1.84,1.84,0,0,0,0-1.76A1.8,1.8,0,0,0,43.34,15l-1.93-.08,1.11-1.76a1.75,1.75,0,0,0-1.3-2.74,14.87,14.87,0,0,0-2-.11Z" transform="translate(17.28 -3)"/><path class="cls-5" d="M37.39,38.49a1.23,1.23,0,0,1-.27,0c-.18,0-4.39-.86-6.77-3.17-3.54-3.44-2.64-9.27-2.6-9.52a1.83,1.83,0,0,1,1.4-1.45,13.3,13.3,0,0,1,2.35-.19,10.37,10.37,0,0,1,7.25,2.51c2.47,2.4,3.33,6.74,3.37,6.92a1.17,1.17,0,0,1-.23,1,1.05,1.05,0,0,1-.84.39h0a1.33,1.33,0,0,1-.34-.05l-3.12-.79.83,2.94a1.15,1.15,0,0,1-.16,1A1.09,1.09,0,0,1,37.39,38.49Z" transform="translate(17.28 -3)"/><path class="cls-6" d="M31.5,24.79a9.71,9.71,0,0,1,6.79,2.33c2.36,2.28,3.19,6.57,3.19,6.57.07.36-.12.6-.43.6a.55.55,0,0,1-.18,0l-3.46-.87-.18,0c-.3,0-.46.24-.36.59l.92,3.27c.11.36-.07.61-.4.61h-.15s-4.17-.79-6.44-3c-3.33-3.24-2.41-8.95-2.41-8.95a1.2,1.2,0,0,1,.89-.91,12.63,12.63,0,0,1,2.22-.18m0-1.3a14,14,0,0,0-2.47.2,2.48,2.48,0,0,0-1.93,2c0,.27-1,6.43,2.79,10.1,2.53,2.45,6.92,3.3,7.11,3.34a2.56,2.56,0,0,0,.39,0,1.72,1.72,0,0,0,1.39-.67,1.81,1.81,0,0,0,.27-1.59L38.52,35l2,.51a1.73,1.73,0,0,0,.5.07A1.76,1.76,0,0,0,42.39,35a1.84,1.84,0,0,0,.37-1.52c0-.21-.95-4.73-3.56-7.28a11,11,0,0,0-7.7-2.69Z" transform="translate(17.28 -3)"/><path class="cls-5" d="M158,49.81a1,1,0,0,1-.92-.77l-.67-2.41-1.66,1.68a1,1,0,0,1-.73.33,1,1,0,0,1-.91-.7,12.48,12.48,0,0,1-.47-6.11c1-3.91,5.54-5.63,5.73-5.7a1.33,1.33,0,0,1,.49-.09,1.57,1.57,0,0,1,1.18.52c.13.16,3.24,3.87,2.22,7.78-.72,2.73-3.45,5.1-3.57,5.2a1.09,1.09,0,0,1-.69.27Z" transform="translate(17.28 -3)"/><path class="cls-6" d="M158.9,36.64a1,1,0,0,1,.72.31s3,3.59,2.1,7.24c-.68,2.58-3.38,4.89-3.38,4.89a.44.44,0,0,1-.29.13.4.4,0,0,1-.36-.33l-.77-2.79c0-.2-.17-.31-.31-.31a.43.43,0,0,0-.3.15l-1.94,2a.45.45,0,0,1-.31.15.38.38,0,0,1-.34-.3,12,12,0,0,1-.46-5.75c1-3.66,5.36-5.3,5.36-5.3a.87.87,0,0,1,.28,0m0-1.2a2.06,2.06,0,0,0-.7.12c-.2.08-5,1.91-6.1,6.12-.74,2.81.44,6.3.49,6.45a1.56,1.56,0,0,0,1.47,1.11,1.65,1.65,0,0,0,1.17-.51l.92-.94.39,1.41a1.58,1.58,0,0,0,1.51,1.21,1.66,1.66,0,0,0,1.07-.42c.12-.1,3-2.58,3.76-5.49,1.1-4.21-2.2-8.16-2.34-8.33a2.19,2.19,0,0,0-1.64-.73Z" transform="translate(17.28 -3)"/><path class="cls-5" d="M158.73,32a1.65,1.65,0,0,1-.32,0c-.2-.05-4.89-1.23-6.37-5-1-2.62-.2-6.14-.16-6.29a1,1,0,0,1,.93-.8,1.11,1.11,0,0,1,.67.25l2,1.56.35-2.34a.94.94,0,0,1,.93-.86,1.11,1.11,0,0,1,.62.2,12.5,12.5,0,0,1,4,4.66c1.48,3.77-1.17,7.82-1.28,8a1.57,1.57,0,0,1-1.29.67Z" transform="translate(17.28 -3)"/><path class="cls-6" d="M156.71,19.06a.56.56,0,0,1,.28.1,11.94,11.94,0,0,1,3.75,4.39c1.38,3.52-1.22,7.44-1.22,7.44a1,1,0,0,1-.79.4l-.18,0s-4.57-1.11-6-4.63c-1-2.49-.14-5.94-.14-5.94a.38.38,0,0,1,.35-.34.48.48,0,0,1,.29.12l2.27,1.81a.5.5,0,0,0,.28.11c.15,0,.27-.12.31-.34l.41-2.74c0-.23.17-.36.34-.36m0-1.19a1.54,1.54,0,0,0-1.52,1.37l-.2,1.31-1.14-.91a1.65,1.65,0,0,0-1-.38,1.57,1.57,0,0,0-1.52,1.26c0,.15-.9,3.85.2,6.65,1.58,4.06,6.57,5.31,6.78,5.36a1.76,1.76,0,0,0,.46.06,2.19,2.19,0,0,0,1.79-.94c.12-.18,2.93-4.49,1.34-8.54-1.05-2.7-4.06-4.84-4.18-4.93a1.74,1.74,0,0,0-1-.31Z" transform="translate(17.28 -3)"/><path class="cls-5" d="M150.48,39.37a12.67,12.67,0,0,1-5.68-1.8,1,1,0,0,1,0-1.69l2.09-1.37-2.11-1.06a1,1,0,0,1-.15-1.68,12.48,12.48,0,0,1,5.66-2.34h.36c3.86,0,6.72,3.55,6.84,3.7a1.6,1.6,0,0,1,.1,1.73c-.11.17-2.68,4.27-6.72,4.51Z" transform="translate(17.28 -3)"/><path class="cls-6" d="M150.62,30c3.61,0,6.37,3.48,6.37,3.48a1,1,0,0,1,.06,1s-2.47,4-6.24,4.23h-.33a12.32,12.32,0,0,1-5.37-1.71.37.37,0,0,1,0-.68l2.42-1.59c.29-.2.28-.48,0-.64L145,32.91a.36.36,0,0,1-.06-.66A12,12,0,0,1,150.29,30h.33m0-1.2h-.4a13.1,13.1,0,0,0-6,2.46,1.59,1.59,0,0,0-.67,1.42,1.62,1.62,0,0,0,.91,1.28l1.18.59-1.22.8a1.56,1.56,0,0,0,.05,2.7,13.3,13.3,0,0,0,6,1.89h.4c4.34-.26,7.07-4.61,7.19-4.8a2.16,2.16,0,0,0-.14-2.41c-.13-.16-3.17-3.93-7.31-3.93Z" transform="translate(17.28 -3)"/><path class="cls-7" d="M165.48,33.24a12.49,12.49,0,0,1-2.92-.35,1.57,1.57,0,0,1-1.09-1.33c0-.21-.35-5,2.78-7.6,2.18-1.79,5.78-2.1,5.94-2.11h0a1,1,0,0,1,.91.41,1,1,0,0,1,.09.95l-.88,2.33,2.38-.4h.15a.94.94,0,0,1,.78.37,1,1,0,0,1,.13.91,12.4,12.4,0,0,1-3.2,5.22,7.9,7.9,0,0,1-5.08,1.6Z" transform="translate(17.28 -3)"/><path class="cls-6" d="M170.28,22.45a.36.36,0,0,1,.36.54l-1,2.72c-.11.29,0,.49.3.49h.1l2.73-.45h.1c.28,0,.43.21.34.51a12.05,12.05,0,0,1-3,4.93,7.31,7.31,0,0,1-4.7,1.46,11.39,11.39,0,0,1-2.75-.33,1,1,0,0,1-.67-.8s-.35-4.69,2.57-7.09c2.06-1.69,5.6-2,5.6-2h.05m0-1.2h-.14c-.16,0-3.95.32-6.27,2.23-3.37,2.76-3,7.89-3,8.11a2.15,2.15,0,0,0,1.53,1.86,12.36,12.36,0,0,0,3.08.38,8.53,8.53,0,0,0,5.46-1.73,13.12,13.12,0,0,0,3.39-5.51,1.62,1.62,0,0,0-.21-1.44,1.53,1.53,0,0,0-1.27-.62,1.46,1.46,0,0,0-.29,0l-1.31.22.51-1.36a1.62,1.62,0,0,0-.15-1.5,1.58,1.58,0,0,0-1.33-.67Z" transform="translate(17.28 -3)"/><path class="cls-5" d="M171.4,44.48a12.32,12.32,0,0,1-5.9-1.43c-3.4-2.19-3.65-7-3.66-7.22a1.59,1.59,0,0,1,.93-1.46,12.06,12.06,0,0,1,4.11-.77,7.26,7.26,0,0,1,4,1.07c2.38,1.52,3.78,4.85,3.84,5a1,1,0,0,1-.07,1,1,1,0,0,1-.84.42l-2.56-.11L172.32,43a1,1,0,0,1-.87,1.45Z" transform="translate(17.28 -3)"/><path class="cls-6" d="M166.88,34.2a6.72,6.72,0,0,1,3.66,1c2.24,1.44,3.61,4.72,3.61,4.72.12.32,0,.56-.36.56h0l-2.89-.13h0c-.32,0-.46.23-.3.53l1.27,2.46a.36.36,0,0,1-.34.57h0a11.83,11.83,0,0,1-5.58-1.34c-3.18-2-3.38-6.74-3.38-6.74a1,1,0,0,1,.56-.87,11.35,11.35,0,0,1,3.88-.73m0-1.2a12.75,12.75,0,0,0-4.34.82,2.15,2.15,0,0,0-1.29,2c0,.22.26,5.35,3.93,7.7a13,13,0,0,0,6.22,1.53h.06a1.55,1.55,0,0,0,1.39-2.32l-.61-1.18,1.46.07h.09a1.59,1.59,0,0,0,1.34-.69,1.62,1.62,0,0,0,.13-1.52c-.07-.15-1.54-3.65-4.08-5.28a7.83,7.83,0,0,0-4.3-1.16Z" transform="translate(17.28 -3)"/><path class="cls-5" d="M246.33,53.33a1,1,0,0,1-.91-.74l-.73-2.65-1.83,1.85a1,1,0,0,1-.72.32.93.93,0,0,1-.88-.69c0-.15-1.22-3.62-.5-6.37,1.06-4.08,5.78-5.87,6-5.95a1.58,1.58,0,0,1,1.67.44c.14.16,3.38,4,2.32,8.11C250,50.5,247.12,53,247,53.07a1,1,0,0,1-.67.26Z" transform="translate(17.28 -3)"/><path class="cls-6" d="M247.23,39.58a1.06,1.06,0,0,1,.76.32s3.2,3.77,2.2,7.61c-.71,2.71-3.55,5.14-3.55,5.14a.52.52,0,0,1-.31.13.4.4,0,0,1-.37-.34l-.81-2.94c-.06-.21-.18-.32-.33-.32a.45.45,0,0,0-.31.15l-2,2.07a.49.49,0,0,1-.33.15c-.15,0-.28-.1-.35-.31,0,0-1.18-3.43-.49-6.05,1-3.84,5.63-5.56,5.63-5.56a.73.73,0,0,1,.3-.05m0-1.12a1.91,1.91,0,0,0-.68.12c-.22.08-5.2,2-6.33,6.33-.76,2.91.46,6.54.51,6.69a1.51,1.51,0,0,0,1.41,1.07,1.58,1.58,0,0,0,1.13-.49L244.41,51l.47,1.71a1.51,1.51,0,0,0,1.45,1.16,1.56,1.56,0,0,0,1-.39c.13-.11,3.12-2.69,3.91-5.71,1.13-4.35-2.29-8.44-2.43-8.61a2.12,2.12,0,0,0-1.61-.72Z" transform="translate(17.28 -3)"/><path class="cls-5" d="M247.05,34.62a1.12,1.12,0,0,1-.32,0c-.21,0-5.1-1.28-6.64-5.2-1.07-2.74-.21-6.42-.17-6.57a.94.94,0,0,1,.91-.79,1.07,1.07,0,0,1,.66.25L243.63,24l.39-2.57a.93.93,0,0,1,.91-.85,1.08,1.08,0,0,1,.61.2c.13.09,3.11,2.22,4.14,4.86,1.54,3.92-1.22,8.15-1.34,8.33a1.59,1.59,0,0,1-1.29.67Z" transform="translate(17.28 -3)"/><path class="cls-6" d="M244.93,21.12a.51.51,0,0,1,.29.1s3,2.09,3.94,4.61c1.45,3.69-1.28,7.81-1.28,7.81a1,1,0,0,1-.83.42l-.19,0s-4.8-1.17-6.25-4.87c-1-2.6-.15-6.23-.15-6.23.06-.23.2-.36.37-.36a.53.53,0,0,1,.31.12l2.38,1.91a.48.48,0,0,0,.29.12c.16,0,.29-.13.33-.37l.43-2.87c0-.24.18-.37.36-.37m0-1.12a1.48,1.48,0,0,0-1.46,1.32l-.25,1.62-1.39-1.11a1.56,1.56,0,0,0-1-.36,1.49,1.49,0,0,0-1.45,1.21c0,.16-.95,4,.19,6.9,1.64,4.19,6.81,5.49,7,5.54a1.68,1.68,0,0,0,.45.06,2.15,2.15,0,0,0,1.76-.92c.12-.19,3-4.65,1.39-8.84-1.09-2.8-4.21-5-4.34-5.11a1.57,1.57,0,0,0-.93-.31Z" transform="translate(17.28 -3)"/><path class="cls-5" d="M238.39,42.37a13.54,13.54,0,0,1-5.94-1.87,1,1,0,0,1-.5-.83,1,1,0,0,1,.48-.83l2.29-1.51-2.33-1.17a.93.93,0,0,1-.14-1.64c.12-.09,3.07-2.28,5.9-2.44h.38c4,0,7,3.7,7.13,3.86a1.6,1.6,0,0,1,.1,1.73c-.12.18-2.8,4.45-7,4.7Z" transform="translate(17.28 -3)"/><path class="cls-6" d="M238.53,32.62c3.79,0,6.69,3.66,6.69,3.66a1,1,0,0,1,.06,1.08s-2.59,4.21-6.55,4.44h-.34A12.9,12.9,0,0,1,232.75,40a.39.39,0,0,1,0-.72l2.54-1.67a.36.36,0,0,0,0-.67l-2.6-1.3a.38.38,0,0,1-.06-.69s2.9-2.18,5.61-2.34h.34m0-1.11h-.41c-3,.18-6.08,2.45-6.21,2.55a1.54,1.54,0,0,0-.64,1.37,1.52,1.52,0,0,0,.87,1.22l1.46.73-1.48,1a1.5,1.5,0,0,0,0,2.6,14,14,0,0,0,6.23,2h.4c4.49-.27,7.32-4.78,7.44-5a2.13,2.13,0,0,0-.14-2.37c-.13-.17-3.28-4.07-7.56-4.07Z" transform="translate(17.28 -3)"/><path class="cls-7" d="M254.14,35.94a12.83,12.83,0,0,1-3-.37,1.6,1.6,0,0,1-1.1-1.34c0-.21-.36-5.25,2.9-7.92,2.27-1.87,6-2.18,6.2-2.19h0a1,1,0,0,1,.9.39,1,1,0,0,1,.08.93l-1,2.56,2.56-.42.2,0a1,1,0,0,1,.77.37,1,1,0,0,1,.12.9c0,.14-1.15,3.64-3.34,5.44a8.23,8.23,0,0,1-5.29,1.67Z" transform="translate(17.28 -3)"/><path class="cls-6" d="M259.18,24.67a.39.39,0,0,1,.38.57l-1.07,2.85c-.12.31,0,.53.31.53h.11l2.87-.48h.1c.29,0,.45.23.35.54,0,0-1.07,3.46-3.16,5.18a7.67,7.67,0,0,1-4.93,1.54,12,12,0,0,1-2.9-.35,1,1,0,0,1-.69-.84s-.37-4.93,2.7-7.45c2.16-1.78,5.88-2.07,5.88-2.07h.05m0-1.12H259c-.16,0-4.1.34-6.5,2.32-3.48,2.85-3.12,8.17-3.1,8.39a2.15,2.15,0,0,0,1.5,1.84,13.55,13.55,0,0,0,3.2.39,8.72,8.72,0,0,0,5.64-1.8c2.33-1.9,3.47-5.56,3.52-5.71a1.55,1.55,0,0,0-.2-1.39,1.49,1.49,0,0,0-1.22-.59,1.37,1.37,0,0,0-.28,0L260,27.3l.63-1.66a1.55,1.55,0,0,0-.15-1.44,1.52,1.52,0,0,0-1.28-.65Z" transform="translate(17.28 -3)"/><path class="cls-5" d="M260.36,47.74a12.83,12.83,0,0,1-6.16-1.49c-3.55-2.28-3.8-7.32-3.81-7.53a1.59,1.59,0,0,1,.93-1.46,12.49,12.49,0,0,1,4.29-.81,7.59,7.59,0,0,1,4.14,1.11c2.48,1.59,3.95,5.07,4,5.22a1,1,0,0,1-.07.95,1,1,0,0,1-.83.41l-2.8-.13,1.2,2.31a.94.94,0,0,1-.85,1.42Z" transform="translate(17.28 -3)"/><path class="cls-6" d="M255.61,37a7.09,7.09,0,0,1,3.84,1c2.36,1.52,3.79,5,3.79,5a.39.39,0,0,1-.38.59h0l-3.05-.14h0c-.34,0-.49.25-.32.56l1.33,2.58c.17.33,0,.59-.36.6h0a12.58,12.58,0,0,1-5.86-1.4C251.16,43.63,251,38.7,251,38.7a1,1,0,0,1,.58-.92,11.9,11.9,0,0,1,4.08-.77m0-1.11a13.26,13.26,0,0,0-4.5.84,2.15,2.15,0,0,0-1.28,2c0,.23.28,5.55,4.07,8a13.45,13.45,0,0,0,6.46,1.58h.06a1.49,1.49,0,0,0,1.34-2.23L261,44.62l1.78.08h.08a1.51,1.51,0,0,0,1.29-.66,1.56,1.56,0,0,0,.13-1.47c-.07-.16-1.6-3.8-4.23-5.48a8.14,8.14,0,0,0-4.44-1.19Z" transform="translate(17.28 -3)"/><path class="cls-5" d="M301.86,33.43a11,11,0,0,1-5.71-1.91,1.5,1.5,0,0,1-.56-1.55c.05-.2,1.37-4.78,5.16-6.11a8.37,8.37,0,0,1,2.69-.4,14.83,14.83,0,0,1,3.56.46,1,1,0,0,1,.68.63.94.94,0,0,1-.22.89l-1.68,1.95,2.42.45a1,1,0,0,1,.74.57.92.92,0,0,1-.17.9A12.2,12.2,0,0,1,304,33.07a6.4,6.4,0,0,1-2.16.36Z" transform="translate(17.28 -3)"/><path class="cls-6" d="M303.44,24a14.49,14.49,0,0,1,3.42.44.38.38,0,0,1,.2.65l-1.88,2.18c-.23.26-.13.53.21.59l2.72.51a.36.36,0,0,1,.24.62,11.9,11.9,0,0,1-4.5,3.57,6.1,6.1,0,0,1-2,.33,10.63,10.63,0,0,1-5.4-1.8,1,1,0,0,1-.35-1s1.25-4.49,4.81-5.74a7.7,7.7,0,0,1,2.52-.37m0-1.08a8.65,8.65,0,0,0-2.87.44c-4.05,1.41-5.44,6.26-5.5,6.46a2,2,0,0,0,.76,2.14,11.64,11.64,0,0,0,6,2,7.22,7.22,0,0,0,2.34-.38,12.86,12.86,0,0,0,5-3.94,1.45,1.45,0,0,0,.24-1.42,1.48,1.48,0,0,0-1.13-.91L306.8,27l1.07-1.24a1.48,1.48,0,0,0,.33-1.4,1.53,1.53,0,0,0-1.06-1,16,16,0,0,0-3.7-.48Z" transform="translate(17.28 -3)"/><path class="cls-7" d="M96.24,34.7a8.55,8.55,0,0,1-2.93-.45c-3.76-1.37-5.06-6-5.11-6.19a1.51,1.51,0,0,1,.55-1.55,10.92,10.92,0,0,1,5.61-1.84,6.45,6.45,0,0,1,2.25.39c2.63,1,4.71,3.88,4.8,4a.9.9,0,0,1,.13.91.92.92,0,0,1-.73.55L98.28,31l1.58,1.88a.92.92,0,0,1,.2.91.91.91,0,0,1-.7.59A15.13,15.13,0,0,1,96.24,34.7Z" transform="translate(17.28 -3)"/><path class="cls-6" d="M94.36,25.21a6,6,0,0,1,2.07.35c2.5.91,4.54,3.82,4.54,3.82a.36.36,0,0,1-.25.62l-2.84.5c-.34.06-.44.32-.21.59l1.78,2.12a.36.36,0,0,1-.21.63,14.44,14.44,0,0,1-3,.33,8.26,8.26,0,0,1-2.74-.42c-3.55-1.3-4.78-5.83-4.78-5.83a1,1,0,0,1,.35-1,10.42,10.42,0,0,1,5.29-1.74m0-1.08a11.46,11.46,0,0,0-5.91,1.94,2,2,0,0,0-.77,2.13c.06.21,1.43,5.09,5.45,6.56a9.07,9.07,0,0,0,3.11.48,15,15,0,0,0,3.25-.36,1.47,1.47,0,0,0,1.09-.94,1.49,1.49,0,0,0-.31-1.42l-1-1.18,1.61-.28a1.43,1.43,0,0,0,.95-2.3c-.09-.13-2.27-3.19-5-4.21a7,7,0,0,0-2.44-.42Z" transform="translate(17.28 -3)"/><path class="cls-7" d="M117.66,43.49a12.44,12.44,0,0,1-5.8-1.73c-3.25-2.33-3.27-7.13-3.26-7.34a1.49,1.49,0,0,1,1-1.34,11.37,11.37,0,0,1,3.56-.57,7.36,7.36,0,0,1,4.4,1.28c2.27,1.62,3.49,5,3.54,5.15a.94.94,0,0,1-.09.88.91.91,0,0,1-.76.37h-.12l-2.56-.26,1,2.25a.94.94,0,0,1,0,.91.91.91,0,0,1-.79.4Z" transform="translate(17.28 -3)"/><path class="cls-6" d="M113.11,33.05a6.9,6.9,0,0,1,4.08,1.17c2.16,1.55,3.36,4.9,3.36,4.9a.37.37,0,0,1-.35.54h-.07l-2.86-.28h-.07c-.3,0-.43.22-.3.51l1.15,2.52c.14.31,0,.55-.34.55h0a11.9,11.9,0,0,1-5.51-1.63c-3.06-2.2-3-6.89-3-6.89a1,1,0,0,1,.6-.85,11.34,11.34,0,0,1,3.38-.53m0-1.08a12.09,12.09,0,0,0-3.74.6,2,2,0,0,0-1.31,1.85c0,.22,0,5.28,3.48,7.78a12.78,12.78,0,0,0,6.1,1.82h.07a1.46,1.46,0,0,0,1.25-.65A1.49,1.49,0,0,0,119,42l-.64-1.4,1.64.16h.17a1.45,1.45,0,0,0,1.2-.6,1.5,1.5,0,0,0,.16-1.37c0-.15-1.33-3.69-3.74-5.41A7.86,7.86,0,0,0,113.11,32Z" transform="translate(17.28 -3)"/><path class="cls-5" d="M225.86,52.83a11.59,11.59,0,0,1-5.42-1.55c-3-2.14-3.1-6.6-3.1-6.79a1.39,1.39,0,0,1,.87-1.26,11,11,0,0,1,3.41-.56,6.78,6.78,0,0,1,4,1.14A11.3,11.3,0,0,1,229,48.56a.89.89,0,0,1-.08.83.84.84,0,0,1-.71.35h-.1l-2.38-.21,1,2.08a.82.82,0,0,1-.77,1.23Z" transform="translate(17.28 -3)"/><path class="cls-6" d="M221.62,43.17a6.41,6.41,0,0,1,3.71,1,11,11,0,0,1,3.16,4.51c.11.29,0,.51-.32.51h0L225.45,49h0c-.29,0-.41.21-.28.48l1.09,2.33c.13.29,0,.52-.32.52h0a11.12,11.12,0,0,1-5.14-1.46c-2.87-2-2.89-6.38-2.89-6.38a.89.89,0,0,1,.54-.79,10.56,10.56,0,0,1,3.24-.53m0-1a11.59,11.59,0,0,0-3.58.59,1.88,1.88,0,0,0-1.2,1.73c0,.21.06,4.92,3.32,7.2a12,12,0,0,0,5.69,1.64h0a1.39,1.39,0,0,0,1.21-.61,1.36,1.36,0,0,0,.06-1.33l-.61-1.29,1.52.13h.14a1.33,1.33,0,0,0,1.26-1.85,12,12,0,0,0-3.53-5,7.3,7.3,0,0,0-4.28-1.23Z" transform="translate(17.28 -3)"/><path class="cls-5" d="M282.07,41.75a11.37,11.37,0,0,1-5.41-1.54c-3.05-2.14-3.11-6.6-3.11-6.79a1.41,1.41,0,0,1,.87-1.26,11,11,0,0,1,3.41-.56,6.83,6.83,0,0,1,4,1.14,11.51,11.51,0,0,1,3.35,4.75.9.9,0,0,1-.08.82.85.85,0,0,1-.72.36h-.1l-2.38-.21,1,2.08a.88.88,0,0,1,0,.85.87.87,0,0,1-.75.37Z" transform="translate(17.28 -3)"/><path class="cls-6" d="M277.83,32.1a6.41,6.41,0,0,1,3.71,1,11,11,0,0,1,3.17,4.51c.1.29,0,.51-.33.51h-.05l-2.67-.23h-.05c-.29,0-.41.21-.28.48l1.09,2.33c.13.29,0,.51-.32.51h0a11.05,11.05,0,0,1-5.14-1.45c-2.87-2-2.89-6.38-2.89-6.38a.9.9,0,0,1,.54-.79,10.56,10.56,0,0,1,3.24-.53m0-1a11.59,11.59,0,0,0-3.58.59,1.9,1.9,0,0,0-1.2,1.73c0,.21.06,4.92,3.32,7.2a11.88,11.88,0,0,0,5.69,1.63h0a1.38,1.38,0,0,0,1.21-.6,1.36,1.36,0,0,0,.06-1.33L282.72,39l1.52.13h.14a1.35,1.35,0,0,0,1.13-.57,1.39,1.39,0,0,0,.13-1.29,11.92,11.92,0,0,0-3.53-5,7.28,7.28,0,0,0-4.28-1.23Z" transform="translate(17.28 -3)"/><path class="cls-5" d="M188.69,43.62a9.82,9.82,0,0,1-5.85-2.45,1.41,1.41,0,0,1-.33-1.5c.07-.18,1.8-4.26,5.44-5.05a6.21,6.21,0,0,1,1.4-.14,13,13,0,0,1,4.37.9.87.87,0,0,1,.56.65.86.86,0,0,1-.31.8l-1.76,1.61,2.18.69a.83.83,0,0,1,.36,1.42,11.46,11.46,0,0,1-4.81,2.93,5.7,5.7,0,0,1-1.25.14Z" transform="translate(17.28 -3)"/><path class="cls-6" d="M189.35,35a12.65,12.65,0,0,1,4.18.86.34.34,0,0,1,.11.62l-2,1.8c-.24.22-.18.47.13.57l2.45.78a.33.33,0,0,1,.15.59A11,11,0,0,1,189.83,43a4.92,4.92,0,0,1-1.14.13,9.39,9.39,0,0,1-5.51-2.32.91.91,0,0,1-.21-.94s1.66-4,5.09-4.75a6.14,6.14,0,0,1,1.29-.13m0-1a7.06,7.06,0,0,0-1.5.15c-3.9.85-5.73,5.16-5.81,5.35a1.91,1.91,0,0,0,.46,2.05,10.35,10.35,0,0,0,6.19,2.59,6.16,6.16,0,0,0,1.36-.15,12,12,0,0,0,5.06-3.07,1.37,1.37,0,0,0,.37-1.28,1.39,1.39,0,0,0-.94-1l-1.36-.43,1.13-1a1.36,1.36,0,0,0,.46-1.25,1.39,1.39,0,0,0-.86-1,14,14,0,0,0-4.56-.93Z" transform="translate(17.28 -3)"/><path class="cls-5" d="M73.23,29.41c-3.88,0-6.72-3.62-6.84-3.77A1.5,1.5,0,0,1,66.31,24c.11-.18,2.71-4.18,6.71-4.34h.24A12.62,12.62,0,0,1,79,21.52a.93.93,0,0,1,.48.8,1,1,0,0,1-.47.79l-2.18,1.38L79,25.62a.9.9,0,0,1,.11,1.58,12.34,12.34,0,0,1-5.63,2.21Z" transform="translate(17.28 -3)"/><path class="cls-6" d="M73.26,20.18A12.19,12.19,0,0,1,78.7,22a.37.37,0,0,1,0,.67l-2.43,1.54a.33.33,0,0,0,0,.63l2.45,1.28a.36.36,0,0,1,0,.66,11.87,11.87,0,0,1-5.35,2.11h-.22c-3.66,0-6.42-3.57-6.42-3.57a1,1,0,0,1,0-1s2.51-3.93,6.28-4.09h.22m0-1.08H73c-4.28.17-7,4.41-7.14,4.59A2,2,0,0,0,66,26c.13.17,3.13,4,7.27,4h.27a12.93,12.93,0,0,0,5.93-2.32,1.42,1.42,0,0,0-.18-2.48l-1.36-.71,1.39-.88A1.48,1.48,0,0,0,80,22.32a1.45,1.45,0,0,0-.72-1.25,13.11,13.11,0,0,0-6-2Z" transform="translate(17.28 -3)"/><path class="cls-5" d="M132.15,32A10.72,10.72,0,0,1,126,29.59a1.49,1.49,0,0,1-.42-1.59c.07-.2,1.78-4.66,5.66-5.65a7.34,7.34,0,0,1,1.82-.21,14.34,14.34,0,0,1,4.4.8.91.91,0,0,1,.34,1.56L136,26.29l2.37.66a.94.94,0,0,1,.68.63.92.92,0,0,1-.24.89c-.1.1-2.44,2.67-5.05,3.33a6.39,6.39,0,0,1-1.58.2Z" transform="translate(17.28 -3)"/><path class="cls-6" d="M133.07,22.68a13.9,13.9,0,0,1,4.22.77.37.37,0,0,1,.14.66l-2.06,2c-.24.25-.17.52.16.61l2.67.74a.35.35,0,0,1,.18.63,11.83,11.83,0,0,1-4.79,3.18,5.52,5.52,0,0,1-1.44.18,10.26,10.26,0,0,1-5.79-2.28,1,1,0,0,1-.27-1s1.64-4.37,5.29-5.31a6.79,6.79,0,0,1,1.69-.19m0-1.08a7.84,7.84,0,0,0-1.95.23c-4.16,1.06-6,5.77-6,6a2,2,0,0,0,.57,2.2,11.38,11.38,0,0,0,6.49,2.54,7,7,0,0,0,1.71-.21,12.93,12.93,0,0,0,5.32-3.5,1.43,1.43,0,0,0-.69-2.4L137,26l1.17-1.14a1.5,1.5,0,0,0,.45-1.37,1.53,1.53,0,0,0-1-1.07,14.94,14.94,0,0,0-4.59-.84Z" transform="translate(17.28 -3)"/><path class="cls-7" d="M208.37,36.7c-3.72-.12-6.21-3.82-6.32-4a1.41,1.41,0,0,1,0-1.54c.11-.14,2.7-3.57,6.33-3.57h.18A11.48,11.48,0,0,1,214,29.76a.9.9,0,0,1,.38.77.86.86,0,0,1-.49.7l-2.1,1.13,1.94,1.2a.88.88,0,0,1,.45.74.86.86,0,0,1-.44.73,11.67,11.67,0,0,1-5.21,1.67Z" transform="translate(17.28 -3)"/><path class="cls-6" d="M208.42,28.12h.17a11,11,0,0,1,5.12,2,.35.35,0,0,1,0,.63l-2.36,1.26a.31.31,0,0,0,0,.59L213.48,34a.33.33,0,0,1,0,.61,11.28,11.28,0,0,1-4.93,1.6h-.16c-3.51-.11-5.92-3.75-5.92-3.75a.9.9,0,0,1,0-1s2.51-3.37,5.93-3.37m0-1c-3.88,0-6.62,3.62-6.73,3.77a1.93,1.93,0,0,0-.06,2.11c.12.17,2.75,4.08,6.72,4.2h.2A12.11,12.11,0,0,0,214,35.45a1.32,1.32,0,0,0,0-2.31l-1.21-.75,1.34-.72a1.33,1.33,0,0,0,.16-2.31,11.88,11.88,0,0,0-5.68-2.24Z" transform="translate(17.28 -3)"/><path class="cls-7" d="M313.62,48.67c-3.72-.12-6.22-3.82-6.32-4a1.41,1.41,0,0,1,0-1.54c.12-.15,2.71-3.57,6.34-3.57h.18a11.26,11.26,0,0,1,5.4,2.14.88.88,0,0,1,.39.77.86.86,0,0,1-.49.7L317,44.33l1.95,1.2a.88.88,0,0,1,.45.74A.89.89,0,0,1,319,47a11.67,11.67,0,0,1-5.2,1.67Z" transform="translate(17.28 -3)"/><path class="cls-6" d="M313.67,40.09h.16a11.1,11.1,0,0,1,5.13,2,.34.34,0,0,1,0,.63L316.56,44a.31.31,0,0,0,0,.59L318.73,46a.33.33,0,0,1,0,.61,11.29,11.29,0,0,1-4.94,1.6h-.16c-3.5-.11-5.91-3.75-5.91-3.75a.9.9,0,0,1,0-1s2.51-3.37,5.93-3.37m0-1c-3.88,0-6.62,3.62-6.73,3.77a1.89,1.89,0,0,0-.06,2.11c.11.17,2.75,4.07,6.72,4.2h.19a12.31,12.31,0,0,0,5.47-1.75,1.32,1.32,0,0,0,0-2.31L318,44.36l1.35-.72a1.33,1.33,0,0,0,.16-2.31,11.94,11.94,0,0,0-5.69-2.24Z" transform="translate(17.28 -3)"/><path class="cls-7" d="M54.23,37a10.45,10.45,0,0,1-6.34-2.72,1.5,1.5,0,0,1-.34-1.61c.08-.19,2-4.56,5.93-5.36a7.63,7.63,0,0,1,1.39-.13,13.65,13.65,0,0,1,4.8,1,.92.92,0,0,1,.59.71.93.93,0,0,1-.33.85L58,31.49l2.34.77a1,1,0,0,1,.65.66,1,1,0,0,1-.29.88,12.3,12.3,0,0,1-5.21,3.08A6.56,6.56,0,0,1,54.23,37Z" transform="translate(17.28 -3)"/><path class="cls-6" d="M54.87,27.72a13.47,13.47,0,0,1,4.59,1,.37.37,0,0,1,.11.67l-2.16,1.91a.33.33,0,0,0,.13.61l2.63.87a.36.36,0,0,1,.15.65,11.87,11.87,0,0,1-4.94,2.93,5.69,5.69,0,0,1-1.15.12c-3.22,0-6-2.58-6-2.58a1,1,0,0,1-.22-1s1.85-4.29,5.55-5a6.77,6.77,0,0,1,1.28-.12m0-1.07a7,7,0,0,0-1.49.14c-4.2.85-6.24,5.47-6.32,5.66a2,2,0,0,0,.46,2.22c.13.12,3.1,2.87,6.71,2.87a6.92,6.92,0,0,0,1.37-.13,12.9,12.9,0,0,0,5.48-3.23,1.43,1.43,0,0,0-.57-2.43l-1.45-.48,1.22-1.09a1.44,1.44,0,0,0-.4-2.46,14.63,14.63,0,0,0-5-1.07Z" transform="translate(17.28 -3)"/></g></g></g></svg>