<svg id="レイヤー_1" data-name="レイヤー 1" xmlns="http://www.w3.org/2000/svg" viewBox="0 0 130 35"><defs><style>.cls-1{fill:#fff;}.cls-2{fill:#e86d99;}</style></defs><path class="cls-1" d="M32.41,11.76c-4.27,0-4.74-2.47-4.74-3.53a4,4,0,0,1,2-3.2,18,18,0,0,1-.17-3A1.48,1.48,0,0,1,30,.93,1.5,1.5,0,0,1,31.1.53l1.64.13a1.5,1.5,0,0,1,1.38,1.6A1.73,1.73,0,0,1,33.9,3c.23-.09.48-.18.74-.26a1.47,1.47,0,0,1,1.18.08,1.5,1.5,0,0,1,.75.92L37,5.07a1.51,1.51,0,0,1-1,1.86,2.11,2.11,0,0,1-.75.08c-.73.21-1.33.41-1.81.6a17.38,17.38,0,0,0,2-.19,1.51,1.51,0,0,1,1.18.28,1.53,1.53,0,0,1,.58,1.06l.11,1.18A1.49,1.49,0,0,1,36,11.57,34.45,34.45,0,0,1,32.41,11.76ZM36,4.2Z"/><path class="cls-1" d="M76.11,11.85a1.49,1.49,0,0,1-1.31-.76,1.51,1.51,0,0,1-.48-.05h0a4.16,4.16,0,0,1-1.2.18,2.77,2.77,0,0,1-2.85-2.88,4,4,0,0,1,1.11-2.77,1.53,1.53,0,0,1-.65-1.16l0-1.08A1.51,1.51,0,0,1,72.2,1.73h.41a1.51,1.51,0,0,1,.48-.86A1.58,1.58,0,0,1,74.21.5l1.44.11a1.55,1.55,0,0,1,1.09.59,1.58,1.58,0,0,1,.2.36c.46-.06.88-.13,1.25-.21a1.54,1.54,0,0,1,1.21.26A1.52,1.52,0,0,1,80,2.69l.1,1.12a1.52,1.52,0,0,1-.24,1,3.72,3.72,0,0,1,1.22,2.81c0,1.1-.47,3.72-4.79,4.26Z"/><path class="cls-2" d="M35.51,5.5h-.09a.39.39,0,0,1-.21-.06c-2.77.75-4.84,1.75-4.83,2.73,0,.69.73,1,2,1a21.15,21.15,0,0,0,3.27-.25l.11,1.18a32.88,32.88,0,0,1-3.35.17c-1.81,0-3.23-.44-3.23-2,0-1,.87-1.78,2.23-2.52A8.61,8.61,0,0,1,31,2l1.64.13c0,.14-.1.22-.3.24,0,.27,0,.52,0,.75a6.66,6.66,0,0,0,.21,2c.78-.35,1.67-.69,2.61-1Z"/><path class="cls-2" d="M77.73,5c0,.1,0,.2-.07.3a2.36,2.36,0,0,1,1.92,2.33c0,1.48-1.1,2.47-3.47,2.77a3.93,3.93,0,0,0-.48-.93c1.66-.19,2.75-.74,2.75-1.81a1.41,1.41,0,0,0-1.1-1.35,6.85,6.85,0,0,1-1.74,2.4,1.26,1.26,0,0,0,.13.31l-1,.61a2.08,2.08,0,0,1-.13-.3,3,3,0,0,1-1.49.42,1.26,1.26,0,0,1-1.34-1.37,3.22,3.22,0,0,1,2.29-2.81c0-.4,0-.8,0-1.23-.69,0-1.44,0-1.81,0l-.06-1.08h1.89c0-.4,0-.86,0-1.24l1.45.11c0,.09-.09.16-.25.18,0,.27-.05.62-.07.91a20.88,20.88,0,0,0,3.29-.38l.1,1.11a25.4,25.4,0,0,1-3.45.32c0,.32,0,.63,0,.94a4.83,4.83,0,0,1,1.38-.12,2.07,2.07,0,0,0,.08-.42ZM74.31,8.26a14.23,14.23,0,0,1-.21-1.68,1.89,1.89,0,0,0-1.23,1.54.43.43,0,0,0,.52.49A1.68,1.68,0,0,0,74.31,8.26Zm1.86-2.18a3.65,3.65,0,0,0-1,.13c0,.46.06.88.12,1.25A4.77,4.77,0,0,0,76.17,6.08Z"/><path class="cls-1" d="M6.58,34A5.25,5.25,0,0,1,1,28.71c0-2,1.27-4.12,3.48-5.69a18.52,18.52,0,0,1,2-1.16v-1c-.92,0-1.92,0-3.08,0a2,2,0,0,1-2-2l0-1.44A2,2,0,0,1,2,16a2,2,0,0,1,1.44-.59c1.18,0,2.18,0,3.05,0v-2a2,2,0,0,1,2.13-2l2.13.13a2,2,0,0,1,1.4.69,2,2,0,0,1,.49,1.48,2.62,2.62,0,0,1-.31,1c.24-.07.48-.15.71-.24a2,2,0,0,1,1.71.13l.15.09a2,2,0,0,1,2.27-.49,22.11,22.11,0,0,1,5.56,3.4,2,2,0,0,1,.26,2.69L22,21.45a2,2,0,0,1-1.09.74,6.6,6.6,0,0,1,1.53,4.37,6.67,6.67,0,0,1-7,7,6.82,6.82,0,0,1-4.6-1.64A5.22,5.22,0,0,1,6.58,34ZM6.4,28.64h.06v-.15C6.44,28.55,6.41,28.6,6.4,28.64Zm5.73-2.25a2,2,0,0,1,1.57.76,2.05,2.05,0,0,0,1.8,1c.35,0,1.41,0,1.41-1.56a1.42,1.42,0,0,0-.39-1,3,3,0,0,0-1.91-.57,11.49,11.49,0,0,0-2.75.46c0,.34,0,.67,0,1h.26Zm2.5-6.76a11.24,11.24,0,0,1,1.57.12c-.31-.17-.63-.33-.94-.48A1.79,1.79,0,0,1,14.63,19.63Z"/><path class="cls-1" d="M25.74,34.5H24.35a2,2,0,0,1-2-2V13.8a2,2,0,0,1,2-2H32a2,2,0,0,1,1,.26,2,2,0,0,1,1-.26h7.83a2,2,0,0,1,2,2V30.49a3.45,3.45,0,0,1-2.19,3.58,14.16,14.16,0,0,1-4.51.41,2,2,0,0,1-2-1.7,5.29,5.29,0,0,0-.32-.85,2.07,2.07,0,0,1-.18-.47h-2.5a2,2,0,0,1-1.87,1.29H28.92a2,2,0,0,1-1.17-.38v.12A2,2,0,0,1,25.74,34.5Z"/><path class="cls-1" d="M50.31,32.88c-3.68,0-6.4-3.66-6.8-9.13-.06-.77-.09-1.66-.09-2.78a53,53,0,0,1,.33-5.91,2,2,0,0,1,2.38-1.74l2.17.42a2.06,2.06,0,0,1,1.3.87,2,2,0,0,1,.28,1.54,2.3,2.3,0,0,1-.68,1.2,32.39,32.39,0,0,0-.24,4c0,.74,0,1.46.08,2.09a7.13,7.13,0,0,0,1,3.48,15,15,0,0,0,1.14-2.75,2,2,0,0,1,3.34-.8,5.72,5.72,0,0,0,.82.59,2,2,0,0,1,.88,2.38c-1,3-2.61,6.5-5.8,6.57Zm11.6-5.34a2,2,0,0,1-2-1.7,8.5,8.5,0,0,0-4.31-6.49,2,2,0,0,1-.58-3L56,15.18a2,2,0,0,1,2.51-.5,13.65,13.65,0,0,1,7,10.05A2,2,0,0,1,64.07,27l-1.57.49A2,2,0,0,1,61.91,27.54Z"/><path class="cls-1" d="M81.77,34.5H80.33a2,2,0,0,1-1.68-.91H71.84a2,2,0,0,1-1.68.91H68.77a2,2,0,0,1-2-2V24a2,2,0,0,1-2.29-.89,5.58,5.58,0,0,0-.58-.73,2,2,0,0,1-.57-1.73,2,2,0,0,1,1.07-1.48,22.57,22.57,0,0,0,8.31-7.32,2,2,0,0,1,1.85-1l2.08.13a2,2,0,0,1,1.55.88,2,2,0,0,1,.34,1.26,25.7,25.7,0,0,0,7.64,5.72,2,2,0,0,1,1.14,1.5,2.06,2.06,0,0,1-.61,1.79,3.66,3.66,0,0,0-.55.73,2,2,0,0,1-2.37.94.76.76,0,0,1,0,.15v8.55A2,2,0,0,1,81.77,34.5Zm-9.6-6.21h6.15v-1H72.17ZM74.9,17.86h.7l-.36-.37C75.13,17.62,75,17.74,74.9,17.86Z"/><path class="cls-1" d="M93,33.93H91.5a2,2,0,0,1-2-2c0-.48,0-1.67,0-3l-.66.61a2,2,0,0,1-3-.44L85,27.78a2,2,0,0,1,.36-2.57A21.32,21.32,0,0,0,89,21c-.48,0-1,.06-1.48.07a2,2,0,0,1-2.06-1.95l0-1.46A2,2,0,0,1,86,16.21a2,2,0,0,1,1.44-.61c.84,0,1.65,0,2.33-.07l.08-2.2a2,2,0,0,1,.68-1.45A2.06,2.06,0,0,1,92,11.39l2.13.22a2,2,0,0,1,1.45.84,2,2,0,0,1,.31,1.64,2.6,2.6,0,0,1-.64,1.15c0,.19,0,.39,0,.58a2,2,0,0,1,.56.81,1.91,1.91,0,0,1,.1.34,11.6,11.6,0,0,1,4-.73c4.64,0,7.64,3.16,7.64,8.06,0,3.64-1.91,8.14-11,9a2,2,0,0,1-1.65-.63,2.06,2.06,0,0,1-.46.72A2,2,0,0,1,93,33.93Zm2-10.51c0,1.5,0,3.1,0,4.65a1.8,1.8,0,0,1,.65-.18C102,27.3,102,25.37,102,24.32c0-2.67-1.66-2.67-2.21-2.67A8.32,8.32,0,0,0,95,23.42Z"/><path class="cls-1" d="M119.12,33.44c-3,0-8,0-8.5-6.47-.06-.72-.11-1.62-.14-2.73l-1.77.35a2,2,0,0,1-1.54-.32,2,2,0,0,1-.83-1.33l-.24-1.41a2.07,2.07,0,0,1,.36-1.51,2,2,0,0,1,1.33-.81l2.18-.36.41-.07c0-1.3,0-2.6,0-3.72a2,2,0,0,1,2.19-2l2.09.19a2,2,0,0,1,1.82,2.18,2.46,2.46,0,0,1-.53,1.31v1.1l2.76-.46c0-1.21-.11-2.55-.2-3.71a2,2,0,0,1,2.11-2.16l2,.11a2,2,0,0,1,1.91,2,2.44,2.44,0,0,1-.41,1.33c0,.51,0,1,.06,1.51l2.28-.36a2,2,0,0,1,1.54.41,2,2,0,0,1,.76,1.41l.13,1.48a2,2,0,0,1-1.8,2.17c-.77.07-1.72.19-2.82.35A18.9,18.9,0,0,1,124,25.3,4.39,4.39,0,0,1,122.42,28c.65,0,1.26-.1,1.79-.17a2,2,0,0,1,2.28,1.93l0,1.43a2,2,0,0,1-1.78,2.06C122.79,33.42,120.16,33.44,119.12,33.44ZM117.73,23a6.1,6.1,0,0,0,1,.4c0-.17,0-.36,0-.58Z"/><path class="cls-2" d="M14.11,18.08a23,23,0,0,1-3.86.78c0,1.16,0,2.38,0,3.44a15.1,15.1,0,0,1,4.38-.85c3.51,0,6,1.86,6,5.05,0,2.95-1.71,5.12-5.17,5.12a4.94,4.94,0,0,1-4-1.92,13.12,13.12,0,0,0,1-1.58,3.74,3.74,0,0,0,3,1.56,2.9,2.9,0,0,0,3-3.18c0-1.86-1.38-3.23-3.89-3.23a14.61,14.61,0,0,0-4.34.84c0,1.61,0,3.89,0,4.43A3.35,3.35,0,0,1,6.64,32,3.44,3.44,0,0,1,2.9,28.61a5.42,5.42,0,0,1,2.6-4.05A13.77,13.77,0,0,1,8.22,23V19c-1.45.1-3.08.12-4.85.12l0-2c1.79,0,3.42,0,4.87-.09V13.27l2.77.1a.58.58,0,0,1-.57.49c-.07.8-.09,1.92-.11,3a14.73,14.73,0,0,0,3.5-.82ZM8.22,25c-.65.31-3.4,1.71-3.4,3.58A1.61,1.61,0,0,0,6.6,30.23a1.59,1.59,0,0,0,1.64-1.79C8.24,27.91,8.24,26.41,8.22,25Zm11.92-4.6a17.19,17.19,0,0,0-4.79-2.94l1-1.73a17.9,17.9,0,0,1,5,2.9Z"/><path class="cls-2" d="M32.13,21.35H26.2v11.2h-2V13.65h7.91Zm-1.9-6.12h-4v1.52h4Zm-4,4.56h4V18.16h-4ZM37,29.54H30.74v1.24H28.88v-7.7H37Zm-1.88-4.79H30.74v3.12h4.39Zm6.81-11.1V30c0,2.43-1.11,2.53-5,2.53a6.59,6.59,0,0,0-.7-2c.81,0,1.65,0,2.28,0,1.35,0,1.44,0,1.44-.55V21.37H33.84V13.65Zm-2,1.56H35.76v1.54h4.16Zm-4.16,4.6h4.16V18.16H35.76Z"/><path class="cls-2" d="M48.53,15.69a.58.58,0,0,1-.57.36,34.78,34.78,0,0,0-.46,5.66c0,5.74,1.87,7,3,7,.78,0,1.77-2.15,2.36-4.18a10.65,10.65,0,0,0,1.73,1.29C53.34,29.56,52,31,50.35,31c-3,0-4.69-3.69-4.92-7.39-.06-.8-.09-1.68-.09-2.61a49.42,49.42,0,0,1,.34-5.8Zm12.85,10A10.27,10.27,0,0,0,56.23,18l1.33-1.58a11.69,11.69,0,0,1,6,8.63Z"/><path class="cls-2" d="M69.89,20a30,30,0,0,1-3.46,2.19,11.23,11.23,0,0,0-1.23-1.58,23.79,23.79,0,0,0,8.91-7.85l2.76.17a.57.57,0,0,1-.5.38,24.38,24.38,0,0,0,9,7,9.69,9.69,0,0,0-1.31,1.79,28.75,28.75,0,0,1-3.48-2.17V21.5H69.89ZM68.66,32.57V23.92H81.91v8.65h-2v-.84H70.63v.84ZM80.29,19.7a25.23,25.23,0,0,1-5.13-4.91,23.3,23.3,0,0,1-4.89,4.91Zm-.42,6H70.63v4.22h9.24Z"/><path class="cls-2" d="M91.52,15.17c0-.59,0-1.35,0-1.84l2.74.23c0,.24-.21.36-.59.43-.1,1-.12,1.92-.19,2.78.24.08.49.21.91.38a18.76,18.76,0,0,0-1,2.62,4.62,4.62,0,0,1-.09.69,11.49,11.49,0,0,1,6.48-2.36c3.61,0,5.76,2.45,5.76,6.16,0,4.54-3.5,6.54-9,7a11.56,11.56,0,0,0-.76-1.88c5-.51,7.68-1.84,7.68-5.13,0-2.32-1.2-4.24-3.8-4.24a10.2,10.2,0,0,0-6.35,2.64c0,2.87,0,6.79,0,9.24h-2V24a19,19,0,0,1-3.61,4.24l-1-1.82a25,25,0,0,0,3.27-3.5,17.4,17.4,0,0,0,1.37-2.3L91.37,19a30.38,30.38,0,0,1-4,.36l-.08-2a23.7,23.7,0,0,0,4.16-.31Z"/><path class="cls-2" d="M122.52,21.22c0,3,0,5.78-2.87,5.78a7.61,7.61,0,0,1-3.19-.86,9.34,9.34,0,0,0,.28-1.73,6.12,6.12,0,0,0,2.49.76,1.09,1.09,0,0,0,1.07-.89,21.63,21.63,0,0,0,.15-3.52c-2.19.36-4.43.72-6.14,1,0,6.42,0,7.77,3.46,7.89.32,0,.7,0,1.12,0a38,38,0,0,0,5.61-.37l0,2a49.4,49.4,0,0,1-5.38.25c-3.31,0-6.37-.1-6.77-4.72-.08-1.1-.13-2.83-.17-4.69-1.26.25-3,.57-3.92.78L108,21c1-.15,2.77-.44,4.22-.7,0-1.83-.06-3.84-.06-5.34l2.78.24c0,.25-.21.38-.59.46,0,1.14,0,2.79,0,4.28l6.1-1c-.06-1.77-.15-3.8-.27-5.4l2.65.12c0,.22-.14.32-.46.43.06,1.35.1,3,.15,4.49l4.3-.65.17,2c-1.18.13-2.76.34-4.43.57Z"/></svg>