<svg id="レイヤー_2" data-name="レイヤー 2" xmlns="http://www.w3.org/2000/svg" viewBox="0 0 70 25"><defs><style>.cls-1{fill:#fff;}.cls-2{fill:#e86d99;}</style></defs><path class="cls-1" d="M12.42,20.41H10.29a1.75,1.75,0,0,1-1.75-1.75v-4.4H6.26v4.4a1.76,1.76,0,0,1-1.75,1.75H2.38A1.75,1.75,0,0,1,.63,18.66V5.13A1.75,1.75,0,0,1,2.38,3.38H4.51A1.75,1.75,0,0,1,6.26,5.13V8.91H8.54V5.13a1.75,1.75,0,0,1,1.75-1.75h2.13a1.75,1.75,0,0,1,1.75,1.75V18.66A1.76,1.76,0,0,1,12.42,20.41Z"/><path class="cls-1" d="M19.82,20.65a6.64,6.64,0,0,1-6.51-7,6.9,6.9,0,0,1,4-6.56l-.16-.74a1.78,1.78,0,0,1,0-.83L17,5.25a1.79,1.79,0,0,1-.42-1.31l.13-1.36A1.76,1.76,0,0,1,18.48,1c4.5.15,4.85,3,4.85,3.87a3.43,3.43,0,0,1-.85,2.26,6.92,6.92,0,0,1,3.84,6.48A6.63,6.63,0,0,1,19.82,20.65Zm0-8.85c-.65,0-.82,1.14-.82,1.81,0,.07,0,1.81.82,1.81s.84-1.62.84-1.81S20.65,11.8,19.82,11.8Z"/><path class="cls-1" d="M29.16,20.41H27.05a1.76,1.76,0,0,1-1.75-1.75V8.56a1.75,1.75,0,0,1,.46-1.17,3,3,0,0,1-.71-2,3.06,3.06,0,0,1,6.12,0,3,3,0,0,1-.72,2,1.73,1.73,0,0,1,.46,1.18v10.1A1.75,1.75,0,0,1,29.16,20.41ZM28.1,4.92a.57.57,0,0,0-.43.49.57.57,0,0,0,.43.5.58.58,0,0,0,.44-.5A.59.59,0,0,0,28.1,4.92Z"/><path class="cls-1" d="M39.94,20.65C36.4,20.65,34,18,34,14a6.52,6.52,0,0,1,4-6.19A1.7,1.7,0,0,1,37.73,7V5.83a1.75,1.75,0,0,1,1.75-1.75H41V4a1.75,1.75,0,0,1,1.75-1.75h2.11A1.75,1.75,0,0,1,46.59,4V4.1a1.76,1.76,0,0,1,1.47,1.73v1a1.74,1.74,0,0,1-1.47,1.72V18.66a1.76,1.76,0,0,1-1.75,1.75H43.08a1.78,1.78,0,0,1-.91-.25A5.44,5.44,0,0,1,39.94,20.65Zm.57-8c-.47,0-.81.56-.81,1.33,0,1.39.52,1.39.73,1.39a.81.81,0,0,0,.55-.21V12.77A1.25,1.25,0,0,0,40.51,12.68Z"/><path class="cls-1" d="M50.4,20.65A4.55,4.55,0,0,1,45.68,16a4.39,4.39,0,0,1,1.75-3.64,1.85,1.85,0,0,1-.34-.44l-.79-1.43a1.75,1.75,0,0,1,.6-2.32,10.48,10.48,0,0,1,2.57-1.21,1.75,1.75,0,0,1,0-2.28l3-3.54A1.76,1.76,0,0,1,53.71.5,1.78,1.78,0,0,1,55,1l1.47,1.4A1.75,1.75,0,0,1,57,3.65a1.8,1.8,0,0,1-.56,1.27L54.25,7c2,.82,3.08,2.78,3.08,5.58v6.08a1.75,1.75,0,0,1-1.75,1.75H53.85a1.78,1.78,0,0,1-1-.32A5.75,5.75,0,0,1,50.4,20.65Z"/><path class="cls-1" d="M60.68,24.5H58.57a1.75,1.75,0,0,1-1.75-1.75V8.56a1.76,1.76,0,0,1,1.75-1.75H60.3a1.75,1.75,0,0,1,1,.3,5.72,5.72,0,0,1,2.36-.55c3.48,0,5.73,2.7,5.73,6.89,0,4.72-3.07,7.2-6.1,7.2a4.78,4.78,0,0,1-.84-.08v2.18A1.75,1.75,0,0,1,60.68,24.5Zm1.75-9.2a1,1,0,0,0,.44.1c.56,0,.82-1,.82-1.92,0-1.66-.42-1.66-.62-1.66a1.18,1.18,0,0,0-.64.28Z"/><path class="cls-2" d="M2.38,5.13H4.51v5.53h5.78V5.13h2.13V18.66H10.29V12.51H4.51v6.15H2.38Z"/><path class="cls-2" d="M15.06,13.61c0-3.36,2.26-5.3,4.76-5.3s4.75,1.94,4.75,5.3-2.26,5.29-4.75,5.29S15.06,17,15.06,13.61Zm7.35,0c0-2.13-1-3.56-2.59-3.56s-2.57,1.43-2.57,3.56,1,3.56,2.57,3.56S22.41,15.76,22.41,13.61ZM18.9,5.94C19.51,5.79,20,5.55,20,5s-.53-.88-1.69-.94l.13-1.36c2.11.08,3.16.85,3.16,2.13s-1.17,1.82-2.48,2Z"/><path class="cls-2" d="M26.79,5.41a1.32,1.32,0,0,1,2.63,0,1.32,1.32,0,0,1-2.63,0Zm.26,3.15h2.11v10.1H27.05Z"/><path class="cls-2" d="M35.77,14A4.54,4.54,0,0,1,40.1,9.19a3.88,3.88,0,0,1,2.72,1.12l-.09-1.66V7H39.48V5.83h3.25V4h2.11v1.8h1.47v1L44.84,7V18.66H43.08l-.17-1.07h0a4.25,4.25,0,0,1-2.92,1.31C37.4,18.9,35.77,17.06,35.77,14Zm7,1.89V11.87a3.19,3.19,0,0,0-2.22-.94C39.09,10.93,38,12.18,38,14s.9,3.14,2.47,3.14A3,3,0,0,0,42.73,15.92Z"/><path class="cls-2" d="M47.43,16c0-2.17,1.84-3.29,6-3.75,0-1.17-.44-2.2-1.93-2.2a5.6,5.6,0,0,0-2.92,1l-.79-1.43a7.75,7.75,0,0,1,4.08-1.32c2.51,0,3.67,1.59,3.67,4.27v6.08H53.85l-.16-1.16h-.07a5,5,0,0,1-3.22,1.4A2.79,2.79,0,0,1,47.43,16Zm6,.07V13.57c-3,.35-4,1.12-4,2.26s.68,1.4,1.58,1.4A3.58,3.58,0,0,0,53.47,16.05ZM50.79,5.79l3-3.54,1.47,1.39-3.4,3.2Z"/><path class="cls-2" d="M58.57,8.56H60.3l.16,1.1h.06a5.13,5.13,0,0,1,3.12-1.35c2.55,0,4,2,4,5.14,0,3.46-2.07,5.45-4.35,5.45a4.18,4.18,0,0,1-2.66-1.14l.07,1.72v3.27H58.57Zm6.87,4.92c0-2.11-.68-3.41-2.37-3.41a3.48,3.48,0,0,0-2.39,1.23v4.94a3.42,3.42,0,0,0,2.19.91C64.34,17.15,65.44,15.85,65.44,13.48Z"/></svg>