<svg xmlns="http://www.w3.org/2000/svg" viewBox="0 0 127.27 23.55"><defs><style>.cls-1{fill:#fff;}.cls-2{fill:#e86d99;}</style></defs><g id="レイヤー_2" data-name="レイヤー 2"><g id="レイヤー_1-2" data-name="レイヤー 1"><path class="cls-1" d="M5.55,23A5.22,5.22,0,0,1,0,17.79c0-2,1.26-4.1,3.47-5.66A14.07,14.07,0,0,1,5.42,11v-1c-.92,0-1.92,0-3.07,0a2,2,0,0,1-2-2l0-1.42A2,2,0,0,1,.94,5.12a2,2,0,0,1,1.44-.58c1.17,0,2.16,0,3,0v-2A2,2,0,0,1,6.05,1,2,2,0,0,1,7.54.49L9.66.61a2,2,0,0,1,1.39.69,2,2,0,0,1,.48,1.48,2.46,2.46,0,0,1-.31,1l.71-.24a2,2,0,0,1,1.7.12l.15.09A2,2,0,0,1,16,3.27a21.87,21.87,0,0,1,5.53,3.38,2,2,0,0,1,.26,2.68l-.93,1.24a2,2,0,0,1-1.07.73,6.61,6.61,0,0,1,1.51,4.35,6.63,6.63,0,0,1-6.93,6.93A6.81,6.81,0,0,1,9.83,21,5.16,5.16,0,0,1,5.55,23Zm-.17-5.31h0a.31.31,0,0,0,0-.1v-.05A.53.53,0,0,0,5.38,17.71Zm5.69-2.24a2,2,0,0,1,1.57.76,2,2,0,0,0,1.79,1c.35,0,1.4,0,1.4-1.55a1.42,1.42,0,0,0-.39-1.05,2.87,2.87,0,0,0-1.9-.56,11.28,11.28,0,0,0-2.73.45c0,.34,0,.67,0,1h.25Zm2.5-6.71a11,11,0,0,1,1.55.11c-.31-.17-.62-.33-.93-.47A2.24,2.24,0,0,1,13.57,8.76Z"/><path class="cls-1" d="M24.62,23.55H23.23a2,2,0,0,1-2-2V3a2,2,0,0,1,2-2h7.6a2,2,0,0,1,1,.26,2,2,0,0,1,1-.26h7.79a2,2,0,0,1,2,2v16.6a3.45,3.45,0,0,1-2.18,3.57,14,14,0,0,1-4.49.41,2,2,0,0,1-2-1.69,4.47,4.47,0,0,0-.32-.85,2.07,2.07,0,0,1-.18-.47H31a2,2,0,0,1-1.87,1.29H27.79a2,2,0,0,1-1.17-.38v.12A2,2,0,0,1,24.62,23.55Z"/><path class="cls-1" d="M49.06,21.93c-3.66,0-6.36-3.63-6.76-9.08-.06-.76-.09-1.65-.09-2.77a52.49,52.49,0,0,1,.33-5.88,2,2,0,0,1,2.37-1.73l2.16.42a2,2,0,0,1,1.29.87,2,2,0,0,1,.28,1.53A2.23,2.23,0,0,1,48,6.48a34.3,34.3,0,0,0-.24,3.94c0,.74,0,1.46.08,2.08a7,7,0,0,0,1,3.46,15.39,15.39,0,0,0,1.14-2.73,2,2,0,0,1,1.43-1.33,2,2,0,0,1,1.88.53A6.36,6.36,0,0,0,54,13a2,2,0,0,1,.88,2.37c-1,3-2.6,6.46-5.77,6.54Zm11.55-5.31a2,2,0,0,1-2-1.68,8.51,8.51,0,0,0-4.28-6.47,2,2,0,0,1-.58-3l.92-1.13a2,2,0,0,1,2.49-.5,13.55,13.55,0,0,1,7,10,2,2,0,0,1-1.38,2.22l-1.56.48A2,2,0,0,1,60.61,16.62Z"/><path class="cls-1" d="M80.37,23.55H78.94a2,2,0,0,1-1.67-.9H70.49a2,2,0,0,1-1.67.9H67.44a2,2,0,0,1-2-2V13.07a2,2,0,0,1-2.28-.89,5.54,5.54,0,0,0-.58-.72A2,2,0,0,1,62,9.74a2,2,0,0,1,1-1.47A22.66,22.66,0,0,0,71.35,1a2,2,0,0,1,1.83-1l2.08.13a2,2,0,0,1,1.88,2.14A25.6,25.6,0,0,0,84.74,8a2,2,0,0,1,.52,3.27,3.84,3.84,0,0,0-.53.72,2,2,0,0,1-2.37.94.76.76,0,0,1,0,.15v8.51A2,2,0,0,1,80.37,23.55Zm-9.55-6.19h6.12v-1H70.82ZM73.54,7h.7a4.17,4.17,0,0,1-.36-.37C73.77,6.75,73.65,6.87,73.54,7Z"/><path class="cls-1" d="M91.52,23H90.05a2,2,0,0,1-1.42-.6A2,2,0,0,1,88.05,21c0-.48,0-1.67,0-3-.21.21-.43.42-.65.61A2,2,0,0,1,85.8,19a2,2,0,0,1-1.41-.91l-.78-1.24A2,2,0,0,1,84,14.31a21.43,21.43,0,0,0,3.58-4.18c-.48,0-1,0-1.48.06a2,2,0,0,1-2-1.94L84,6.8a2,2,0,0,1,2-2c.83,0,1.63,0,2.32-.08l.07-2.19A2,2,0,0,1,90.56.56l2.13.21a2,2,0,0,1,1.43.84,2,2,0,0,1,.31,1.63,2.52,2.52,0,0,1-.64,1.14l0,.58a2.15,2.15,0,0,1,.56.8,2.14,2.14,0,0,1,.09.34,11.76,11.76,0,0,1,4-.72c4.62,0,7.6,3.15,7.6,8,0,3.62-1.9,8.1-10.95,8.9a2,2,0,0,1-1.64-.63A2,2,0,0,1,91.52,23Zm2-10.46v4.63a2.1,2.1,0,0,1,.65-.18c6.33-.58,6.33-2.51,6.33-3.55,0-2.66-1.65-2.66-2.2-2.66A8.29,8.29,0,0,0,93.5,12.52Z"/><path class="cls-1" d="M117.54,22.5c-3,0-8,0-8.46-6.44-.06-.72-.1-1.62-.14-2.72l-1.77.34a2,2,0,0,1-1.52-.32,1.92,1.92,0,0,1-.83-1.31l-.23-1.41a2,2,0,0,1,.35-1.5,2,2,0,0,1,1.32-.8L108.43,8l.41-.07c0-1.3,0-2.59,0-3.7a2,2,0,0,1,.65-1.48A2,2,0,0,1,111,2.21l2.08.19a2,2,0,0,1,1.81,2.18,2.4,2.4,0,0,1-.53,1.29V7l2.75-.46c0-1.2-.11-2.53-.2-3.69a2,2,0,0,1,.57-1.55A2,2,0,0,1,119,.68l2,.1a2,2,0,0,1,1.9,2,2.36,2.36,0,0,1-.41,1.33c0,.5,0,1,.06,1.5l2.27-.36a2,2,0,0,1,1.54.41,2,2,0,0,1,.75,1.4l.13,1.47a2,2,0,0,1-1.79,2.16c-.76.07-1.71.2-2.8.35a19.53,19.53,0,0,1-.27,3.35A4.44,4.44,0,0,1,120.82,17c.64,0,1.26-.1,1.78-.17a2,2,0,0,1,1.56.45,2,2,0,0,1,.71,1.47l0,1.43a2,2,0,0,1-1.77,2C121.19,22.47,118.57,22.5,117.54,22.5Zm-1.39-10.43a5.35,5.35,0,0,0,1,.4q0-.24,0-.57Z"/><path class="cls-2" d="M13,7.21A22.59,22.59,0,0,1,9.2,8c0,1.16,0,2.38,0,3.43a14.94,14.94,0,0,1,4.37-.84c3.48,0,5.94,1.84,5.94,5,0,2.93-1.7,5.1-5.14,5.1a4.94,4.94,0,0,1-4-1.91,18.8,18.8,0,0,0,1.05-1.58,3.74,3.74,0,0,0,3,1.56,2.89,2.89,0,0,0,3-3.17c0-1.85-1.37-3.22-3.86-3.22a14.55,14.55,0,0,0-4.33.84c0,1.6,0,3.87,0,4.41a3.33,3.33,0,0,1-3.59,3.47A3.42,3.42,0,0,1,1.9,17.68a5.37,5.37,0,0,1,2.58-4,13.89,13.89,0,0,1,2.71-1.51v-4c-1.45.11-3.07.13-4.83.13l0-2c1.78,0,3.4,0,4.85-.08V2.42l2.75.11c0,.25-.23.44-.57.48-.06.8-.08,1.91-.11,3a15.15,15.15,0,0,0,3.49-.82ZM7.19,14.05c-.65.32-3.38,1.7-3.38,3.57A1.58,1.58,0,0,0,5.57,19.3a1.59,1.59,0,0,0,1.64-1.78C7.21,17,7.21,15.5,7.19,14.05ZM19.05,9.48a16.81,16.81,0,0,0-4.77-2.92l1-1.72a17.73,17.73,0,0,1,5,2.87Z"/><path class="cls-2" d="M31,10.46h-5.9V21.61h-2V2.8H31ZM29.09,4.37h-4V5.89h4Zm-4,4.54h4V7.29h-4Zm10.75,9.7H29.59v1.24H27.75V12.18h8.08ZM34,13.84H29.59V17H34Zm6.78-11V19.07c0,2.42-1.11,2.52-5,2.52a6.93,6.93,0,0,0-.69-2c.8.05,1.64.05,2.27.05,1.34,0,1.43,0,1.43-.55V10.48h-6V2.8Zm-2,1.55H34.59V5.89h4.14ZM34.59,8.93h4.14V7.29H34.59Z"/><path class="cls-2" d="M47.3,4.84a.61.61,0,0,1-.57.35,34.4,34.4,0,0,0-.46,5.63c0,5.71,1.87,7,2.94,7,.77,0,1.76-2.14,2.35-4.16a10.11,10.11,0,0,0,1.72,1.28C52.08,18.63,50.74,20,49.1,20c-3,0-4.66-3.68-4.89-7.35-.06-.8-.08-1.68-.08-2.61a49.14,49.14,0,0,1,.33-5.77Zm12.78,10A10.23,10.23,0,0,0,55,7.08l1.32-1.57a11.58,11.58,0,0,1,6,8.58Z"/><path class="cls-2" d="M68.55,9.12A29,29,0,0,1,65.1,11.3a10.3,10.3,0,0,0-1.21-1.57,23.69,23.69,0,0,0,8.86-7.81l2.75.16a.57.57,0,0,1-.51.38,24.31,24.31,0,0,0,9,7,10.5,10.5,0,0,0-1.3,1.79,29.84,29.84,0,0,1-3.47-2.16v1.55H68.55ZM67.33,21.63V13H80.52v8.61h-2v-.84h-9.2v.84ZM78.9,8.82a24.45,24.45,0,0,1-5.1-4.89,23.12,23.12,0,0,1-4.87,4.89Zm-.42,6h-9.2V19h9.2Z"/><path class="cls-2" d="M90.07,4.31c0-.59.05-1.34.05-1.83l2.72.23c0,.24-.21.36-.58.42-.11,1-.13,1.92-.19,2.78.23.08.48.21.9.37a20.46,20.46,0,0,0-1,2.61,6.57,6.57,0,0,1-.08.69A11.41,11.41,0,0,1,98.3,7.23c3.59,0,5.74,2.43,5.74,6.13,0,4.51-3.49,6.51-9,7a11,11,0,0,0-.76-1.87c4.94-.5,7.65-1.82,7.65-5.1,0-2.31-1.2-4.22-3.78-4.22a10.07,10.07,0,0,0-6.32,2.63c0,2.85,0,6.76,0,9.19h-2V13.09a18.73,18.73,0,0,1-3.59,4.22l-1-1.81A24.85,24.85,0,0,0,88.5,12a16.19,16.19,0,0,0,1.36-2.29l.07-1.58a28.69,28.69,0,0,1-4,.36l-.09-2A23.39,23.39,0,0,0,90,6.2Z"/><path class="cls-2" d="M120.92,10.34c0,3,0,5.75-2.86,5.75a7.72,7.72,0,0,1-3.17-.86,9.36,9.36,0,0,0,.28-1.72,6.2,6.2,0,0,0,2.48.75,1.09,1.09,0,0,0,1.07-.88,22.94,22.94,0,0,0,.14-3.51c-2.18.36-4.41.72-6.11,1,0,6.39,0,7.73,3.45,7.86.31,0,.69,0,1.11,0a37.52,37.52,0,0,0,5.58-.38l0,2a49.15,49.15,0,0,1-5.36.25c-3.29,0-6.34-.1-6.74-4.7-.08-1.09-.12-2.81-.17-4.66-1.26.25-3,.57-3.9.78l-.32-2c1-.14,2.75-.44,4.2-.69,0-1.83-.06-3.82-.06-5.31l2.77.23c0,.25-.21.38-.59.46,0,1.14,0,2.77,0,4.26l6.07-1c-.06-1.76-.15-3.77-.27-5.37l2.64.13c0,.21-.14.31-.46.42.06,1.34.11,3,.15,4.47,1.57-.23,3.13-.49,4.28-.65l.17,2c-1.18.13-2.75.34-4.41.57Z"/></g></g></svg>