<svg id="レイヤー_1" data-name="レイヤー 1" xmlns="http://www.w3.org/2000/svg" viewBox="0 0 62 25"><defs><style>.cls-1{fill:#555;}</style></defs><path class="cls-1" d="M16.17,22V23H2.88V22H9V18.14H4.5V17.06H9V13.79H5.44a13.68,13.68,0,0,1-1.56,2.44,7.92,7.92,0,0,0-1-.66,13.74,13.74,0,0,0,2.78-5.52l1.12.24a21.84,21.84,0,0,1-.83,2.4H9V9.81H10.1v2.88h5.37v1.1H10.1v3.27h4.81v1.08H10.1V22Z"/><path class="cls-1" d="M31.85,20.07H26.42v3.44H25.29V20.07H18.37V19h2.46V15h4.46V12.69H21.65a13.61,13.61,0,0,1-2.28,3,7.24,7.24,0,0,0-1-.71,12.73,12.73,0,0,0,3.38-5.17l1.12.27c-.21.52-.45,1.06-.69,1.57h8.94v1.08H26.42V15h4.39v1H26.42v3h5.43ZM25.29,19V16H21.94v3Z"/><path class="cls-1" d="M45.17,21.87c0,.78-.23,1.17-.78,1.35a11.86,11.86,0,0,1-3.17.21,5,5,0,0,0-.46-1.15c1.24,0,2.44,0,2.79,0s.46-.12.46-.45v-3h-7.2a8.39,8.39,0,0,1-2.58,4.66,4.49,4.49,0,0,0-.82-.81c2.38-2.1,2.62-5.14,2.62-7.53V10.59h9.14ZM44,17.76V15.24H37.16A18.82,18.82,0,0,1,37,17.76Zm-6.85-6.07v2.49H44V11.69Z"/><path class="cls-1" d="M59.43,10.83V23.27H58.26v-.92H50.82v1H49.7V10.83Zm-8.61,1.1V16h7.44V11.93Zm7.44,9.33V17.07H50.82v4.19Z"/><path class="cls-1" d="M8.93,2.12c0,.41,0,.86,0,1.26l1-.06.7,0V4c-.15,0-.49,0-.71,0L8.89,4a13.72,13.72,0,0,1-.13,1.88c-.08.39-.28.51-.69.51A10,10,0,0,1,6.88,6.3l0-.63a4.14,4.14,0,0,0,.9.12c.22,0,.32,0,.34-.24s.08-.91.1-1.48c-.93.07-2,.18-2.88.27,0,.93,0,1.87,0,2.22,0,1,0,1.31,1.6,1.31a18.32,18.32,0,0,0,2.68-.21l0,.76c-.6.06-1.7.14-2.61.14-2.08,0-2.28-.47-2.32-1.9,0-.39,0-1.35,0-2.25l-1,.11-.91.13-.08-.74c.28,0,.62,0,.94-.05l1-.09c0-.61,0-1.1,0-1.26a5,5,0,0,0-.06-.76h.79c0,.21,0,.45,0,.73s0,.74,0,1.21l2.89-.26V2.15a6.74,6.74,0,0,0,0-.68H9A4.36,4.36,0,0,0,8.93,2.12Z"/><path class="cls-1" d="M12.88,3c0,.57,0,1.39.07,2.13.14,1.51.58,2.51,1.22,2.51.46,0,.88-.94,1.12-1.84l.56.64C15.31,8,14.77,8.49,14.16,8.49c-.85,0-1.67-.84-1.91-3.18-.09-.78-.1-1.88-.1-2.4a3.66,3.66,0,0,0-.07-.8l.88,0A6.11,6.11,0,0,0,12.88,3Zm6.35,3.85-.72.3a9.08,9.08,0,0,0-1.57-4.53l.71-.24A9.6,9.6,0,0,1,19.23,6.85Z"/><path class="cls-1" d="M22.38,1.26l.84,0c0,.23-.12.73-.18,1.36l.05,0,.26.32c-.11.17-.27.41-.4.63s0,.29,0,.45a5,5,0,0,1,2.87-1.49c1.21,0,1.86,1.09,1.86,2.58a8.44,8.44,0,0,1-.12,1.5,6.54,6.54,0,0,1,1,.88l-.39.59a7.54,7.54,0,0,0-.8-.8A1.7,1.7,0,0,1,25.6,8.5C24.74,8.5,24,8.14,24,7.23,24,6.51,24.65,6,25.57,6a3.23,3.23,0,0,1,1.31.27A9.7,9.7,0,0,0,27,5c0-1.13-.53-1.85-1.29-1.85a5,5,0,0,0-2.8,1.7c0,.42,0,.81,0,1.17,0,.81,0,1.36,0,2.17,0,.16,0,.38,0,.54h-.78a4.33,4.33,0,0,0,0-.53c0-.86,0-1.32,0-2.3,0-.09,0-.22,0-.36-.44.65-1,1.52-1.47,2.12l-.45-.61c.51-.63,1.54-2,2-2.75,0-.28,0-.58.07-.87l-1.77.24L20.48,3h.58c.3,0,.83-.08,1.3-.16,0-.43.05-.76.05-.86A5.24,5.24,0,0,0,22.38,1.26Zm3.17,6.62a1.22,1.22,0,0,0,1.2-1,2.57,2.57,0,0,0-1.24-.32c-.47,0-.89.25-.89.64S25,7.88,25.55,7.88Z"/><path class="cls-1" d="M33,2.17c-.39.62-1.22,2.12-1.69,3a2,2,0,0,1,1.34-.56,1,1,0,0,1,1.06,1.09c0,.53,0,1.23,0,1.67a.65.65,0,0,0,.73.64c1,0,1.6-1.25,1.83-2.2l.59.49c-.47,1.45-1.23,2.45-2.53,2.45A1.17,1.17,0,0,1,33.09,7.6c0-.52,0-1.21,0-1.71a.6.6,0,0,0-.65-.63c-.73,0-1.41.74-1.76,1.44a13.52,13.52,0,0,0-.77,2.05l-.78-.27A64,64,0,0,1,32.21,2.1c.11-.21.22-.43.33-.69l.79.32C33.25,1.84,33.15,2,33,2.17Z"/><path class="cls-1" d="M40.59,2c-.06.26-.14.79-.24,1.27.43,0,.8-.06,1-.06.81,0,1.47.31,1.47,1.53A8.7,8.7,0,0,1,42.31,8,1.27,1.27,0,0,1,41,8.7a5,5,0,0,1-1.06-.13l-.12-.75a4.78,4.78,0,0,0,1.1.19.76.76,0,0,0,.79-.47,7.54,7.54,0,0,0,.43-2.76c0-.82-.38-1-1-1-.21,0-.57,0-1,.06a18.4,18.4,0,0,1-1.9,4.86l-.73-.3A14.34,14.34,0,0,0,39.48,4l-1.14.11c-.21,0-.59.07-.81.11l-.09-.77c.29,0,.53,0,.81,0s.82-.06,1.37-.1a9.71,9.71,0,0,0,.24-2l.83.08A4.68,4.68,0,0,0,40.59,2Zm4.84,3.7L44.74,6a10.74,10.74,0,0,0-1.61-3.23l.65-.3A15.4,15.4,0,0,1,45.43,5.66Zm-.8-3.27-.5.22a10,10,0,0,0-.73-1.26l.49-.19A11.45,11.45,0,0,1,44.63,2.39Zm1-.37-.49.22A9.85,9.85,0,0,0,44.4,1l.48-.2A11.71,11.71,0,0,1,45.64,2Z"/><path class="cls-1" d="M46.72,4.59a12.48,12.48,0,0,1,3.17-.73,2,2,0,0,1,2.2,2c0,1.72-1.67,2.61-4.1,2.76l-.28-.69c1.94-.07,3.65-.63,3.65-2.09A1.38,1.38,0,0,0,49.84,4.5a12.91,12.91,0,0,0-3.66,1.06l-.31-.74A7.74,7.74,0,0,0,46.72,4.59Z"/><path class="cls-1" d="M60.87,5.71l-.47.64a7.08,7.08,0,0,1-1.22-1.79c.19,2.28-.49,4.45-3,4.45a2.2,2.2,0,0,1-2.44-2.29,5.84,5.84,0,0,1,1.67-3.86c-.45.07-1.2.16-1.52.19l-.51.09,0-.76a4,4,0,0,0,.49,0,13.64,13.64,0,0,0,2.83-.45l.22.63c-.12,0-.35.1-.48.16a5.44,5.44,0,0,0-1.94,3.85,1.57,1.57,0,0,0,1.75,1.7c2.08,0,2.84-2.16,2.25-5.51q-.1-.31-.21-.66L59,1.89A6.28,6.28,0,0,0,60.87,5.71Zm-.5-4.66a1,1,0,1,1,0,2,1,1,0,0,1-1-1A1,1,0,0,1,60.37,1.05Zm0,1.56A.57.57,0,0,0,61,2a.58.58,0,1,0-1.16,0A.57.57,0,0,0,60.37,2.61Z"/></svg>