<svg id="レイヤー_1" data-name="レイヤー 1" xmlns="http://www.w3.org/2000/svg" viewBox="0 0 81 25"><defs><style>.cls-1{fill:#555;}</style></defs><path class="cls-1" d="M11.19,16.91v1.77H15v4.78H13.88V23H7.59v.52H6.51V18.68h3.57V16.91H5.66v-1h4.42V14.25H5.33v.69c0,2.52-.23,6.15-1.81,8.57a4.72,4.72,0,0,0-1-.59c1.53-2.32,1.67-5.59,1.67-8V10.61h11v3.64h-4v1.67h4.89v1ZM5.33,13.25h8.74V11.6H5.33Zm8.55,6.42H7.59V22h6.29Z"/><path class="cls-1" d="M23.42,10.16a21.64,21.64,0,0,1-1.53,3.09v10.2H20.84v-8.6a16.06,16.06,0,0,1-1.66,2,8.83,8.83,0,0,0-.63-1.08,16.72,16.72,0,0,0,3.84-5.91Zm9.16,11.76V23H22.92V21.92h4.34V18.17H23.81V17.1h3.45V13.82h-4V12.77h5.12a20.71,20.71,0,0,0-3.11-2.21l.74-.79A21,21,0,0,1,29.36,12l-.65.74h3.65v1.05h-4V17.1h3.55v1.07H28.37v3.75Z"/><path class="cls-1" d="M38.65,18.78c.55-.24,1.12-.49,1.7-.72l.23,1c-1.59.74-3.29,1.49-4.6,2.07L35.54,20c.55-.19,1.27-.48,2.05-.81V14.45H35.67V13.38h1.92V10h1.06v3.4H40.4v1.07H38.65Zm8.63,3.38c.87,0,1-.41,1.13-2.13a3,3,0,0,0,1,.43c-.18,2-.52,2.7-2.1,2.7H43.64c-1.7,0-2.21-.4-2.21-2V16.43l-1.18.49-.44-1,1.62-.68V11.19H42.5v3.62l2-.84V9.8h1.06v3.72l2-.83.24-.21.21-.16.78.3-.06.21a53.33,53.33,0,0,1-.15,5.61,1,1,0,0,1-.79,1,6.7,6.7,0,0,1-1.41.1,3.57,3.57,0,0,0-.27-1c.36,0,.84,0,1,0s.38-.06.45-.39a43.94,43.94,0,0,0,.11-4.41l-2.09.88v5.51H44.51V15.12l-2,.86v5.19c0,.79.19,1,1.17,1Z"/><path class="cls-1" d="M57.71,9.51l.9.47a9.38,9.38,0,0,0,0,13.35l-.9.46a10,10,0,0,1,0-14.28Z"/><path class="cls-1" d="M73,10.49v13H71.79v-.75h-10v.75H60.65v-13ZM71.79,21.72V11.52h-10v10.2Zm-.87-2.32v.94H62.75V19.4H66.2V16.88H63.38v-1H66.2V13.79H63v-1h7.66v1H67.25v2.13h3v1h-3V19.4Zm-2-2.25a9.69,9.69,0,0,1,1.51,1.63l-.76.45a10.6,10.6,0,0,0-1.46-1.69Z"/><path class="cls-1" d="M75.89,23.79l-.9-.46A9.38,9.38,0,0,0,75,10l.9-.47a10,10,0,0,1,0,14.28Z"/><path class="cls-1" d="M6.58,1.33l.76-.1A7.27,7.27,0,0,0,7.56,2.3,9.68,9.68,0,0,0,9.4,1.89l.1.65a12,12,0,0,1-1.77.36,6.48,6.48,0,0,0,.2.62l.2.54a10.36,10.36,0,0,0,1.8-.38l.11.67a13.26,13.26,0,0,1-1.63.33A10,10,0,0,0,9,5.79a2.5,2.5,0,0,0,.34.39L9,6.73a15.49,15.49,0,0,0-2-.29l.06-.55L8.45,6a8.5,8.5,0,0,1-.7-1.29,25.92,25.92,0,0,1-4,0l0-.68a19.68,19.68,0,0,0,3.74,0c-.07-.16-.13-.31-.18-.46S7.13,3.18,7.06,3A20.63,20.63,0,0,1,4,2.9l0-.66a17.12,17.12,0,0,0,3,.11,1.8,1.8,0,0,1-.06-.22C6.76,1.86,6.67,1.58,6.58,1.33ZM4.68,7c0,.75.66,1.12,2.08,1.12A9.9,9.9,0,0,0,8.9,8l0,.72a13.55,13.55,0,0,1-2.1.15C5,8.84,4,8.32,4,7.17a2.61,2.61,0,0,1,.35-1.29l.7.15A1.76,1.76,0,0,0,4.68,7Z"/><path class="cls-1" d="M14.65,3.56V4.2c.6,0,1.59-.07,2.24-.15v.63c-.63.07-1.64.12-2.25.13V5c0,.44,0,1.08.06,1.68A5.61,5.61,0,0,1,17,8l-.38.63a5.4,5.4,0,0,0-1.88-1.26c0,.2,0,.38,0,.51,0,.59-.37,1.11-1.36,1.11s-1.81-.42-1.81-1.21.68-1.23,1.92-1.23a4.58,4.58,0,0,1,.53,0C14,6,14,5.44,14,5V3.57a3.64,3.64,0,0,0-.06-.75h.78A6.81,6.81,0,0,0,14.65,3.56ZM13.33,8.37a.66.66,0,0,0,.74-.71c0-.13,0-.3,0-.49a2.59,2.59,0,0,0-.63-.06c-.72,0-1.2.23-1.2.64S12.63,8.37,13.33,8.37Z"/><path class="cls-1" d="M20.11,2.37c0,1-.11,3.14-.11,4.48,0,1,.62,1.35,1.48,1.35A3.73,3.73,0,0,0,24.7,6.33l.52.61a4.54,4.54,0,0,1-3.76,2c-1.29,0-2.19-.54-2.19-2s.09-3.62.09-4.56a4.32,4.32,0,0,0-.08-.92h.91C20.15,1.76,20.12,2.07,20.11,2.37Zm3.44,1.26L23,3.87a10.4,10.4,0,0,0-.85-1.45l.52-.22A16.35,16.35,0,0,1,23.55,3.63Zm1.19-.49-.52.26A9.78,9.78,0,0,0,23.34,2l.51-.23A14.08,14.08,0,0,1,24.74,3.14Z"/><path class="cls-1" d="M31,3.75a2,2,0,0,1,2.24,2A2.12,2.12,0,0,1,30.89,8l-.26,0a3,3,0,0,1-1.06,1.2L29,8.79a2.63,2.63,0,0,0,1-1,2.31,2.31,0,0,1-1.19-1.14l.38-.53a1.94,1.94,0,0,0,1.08,1.08,5.47,5.47,0,0,0,.23-1.72c0-.43,0-.8,0-1.11A3,3,0,0,0,28.1,6.64a2,2,0,0,0,0,.45,6.38,6.38,0,0,0,.1.73l-.61.09A7.61,7.61,0,0,1,27.29,6a20.68,20.68,0,0,1,.21-2.38,2.28,2.28,0,0,0,0-.37l.76.07a2.47,2.47,0,0,0-.11.36,12.74,12.74,0,0,0-.23,2.12,3.43,3.43,0,0,1,2.45-2,3.85,3.85,0,0,0-.08-.49,3.56,3.56,0,0,0-.12-.42h.7C30.91,3.08,31,3.39,31,3.75Zm-.11,3.58h0a1.48,1.48,0,0,0,1.69-1.56,1.39,1.39,0,0,0-1.52-1.44c0,.38.05.79.05,1.19A6.46,6.46,0,0,1,30.89,7.33Z"/><path class="cls-1" d="M38.39,4.12a8.25,8.25,0,0,0-2.46.45c-.28.09-.54.19-.75.28L34.94,4a5,5,0,0,0,.83-.14,12.19,12.19,0,0,1,2.69-.43,2,2,0,0,1,2.24,2c0,1.95-1.76,3.05-4.09,3.4l-.41-.68c2.19-.27,3.73-1.13,3.73-2.75A1.36,1.36,0,0,0,38.39,4.12ZM40,1.78l-.11.69c-1-.06-2.82-.24-3.84-.42l.12-.69A23.84,23.84,0,0,0,40,1.78Z"/><path class="cls-1" d="M45,2.12c0,.14,0,.31-.09.52a21.42,21.42,0,0,0,3.51-.43V2.9a32.1,32.1,0,0,1-3.66.38,15.44,15.44,0,0,1-.57,2.12,4.29,4.29,0,0,1,2.54-.76c1.43,0,2.27.73,2.27,1.78C49,8.29,47.09,9,44.36,8.7L44.18,8c2.08.29,4.1-.07,4.1-1.55,0-.68-.56-1.2-1.61-1.2A3.38,3.38,0,0,0,44,6.33a1.71,1.71,0,0,0-.28.42l-.68-.25a14.82,14.82,0,0,0,1-3.2h0c-.62,0-1.19,0-1.71-.09v-.7a11.45,11.45,0,0,0,1.71.15h.15c0-.24.08-.43.1-.6a4.78,4.78,0,0,0,0-.74l.8,0C45.11,1.61,45.06,1.88,45,2.12Z"/><path class="cls-1" d="M63.65,2.28c-.62.54-1.91,1.57-2.58,2.13s-.55.6,0,1.08c.82.67,2.41,2,3.36,2.91l-.63.6q-.28-.33-.63-.66c-.63-.65-2-1.82-2.83-2.51s-.75-1.1.06-1.79,2-1.64,2.66-2.26a4.45,4.45,0,0,0,.51-.61l.67.6Z"/><path class="cls-1" d="M68.43,2.24A21,21,0,0,0,68,5.69,10.66,10.66,0,0,0,68.06,7c.16-.4.37-.94.53-1.31l.37.29c-.23.64-.55,1.59-.64,2a2.17,2.17,0,0,0,0,.41c0,.1,0,.22,0,.31l-.65.05a11.4,11.4,0,0,1-.33-2.89,25.25,25.25,0,0,1,.4-3.61,3.55,3.55,0,0,0,.06-.64l.8.07C68.55,1.79,68.47,2.08,68.43,2.24Zm2.1,4.59c0,.41.3.81,1.52.81a9.47,9.47,0,0,0,2.23-.24l0,.76a11.93,11.93,0,0,1-2.25.19c-1.51,0-2.19-.51-2.19-1.35A4.79,4.79,0,0,1,70,5.94l.65.06A3.12,3.12,0,0,0,70.53,6.83ZM74,2.33v.72a20.78,20.78,0,0,1-3.7,0V2.33A15.26,15.26,0,0,0,74,2.33Z"/></svg>