<svg id="レイヤー_1" data-name="レイヤー 1" xmlns="http://www.w3.org/2000/svg" viewBox="0 0 36 25"><defs><style>.cls-1{fill:#555;}</style></defs><path class="cls-1" d="M15.65,10.49v13H14.49v-.75h-10v.75H3.35v-13ZM14.49,21.72V11.52h-10v10.2Zm-.87-2.32v.94H5.45V19.4H8.9V16.88H6.08v-1H8.9V13.79H5.66v-1h7.66v1H10v2.13h3v1H10V19.4Zm-2-2.25a9.69,9.69,0,0,1,1.51,1.63l-.76.45a10.6,10.6,0,0,0-1.46-1.69Z"/><path class="cls-1" d="M23,18.66c.65.6,1.92,1.92,2.28,2.3l-.64.79c-.38-.48-1.19-1.39-1.83-2.08v3.85H21.8V20a12.87,12.87,0,0,1-2.18,2.83A4,4,0,0,0,19,22a10.75,10.75,0,0,0,2.55-3.38h-2.2v-.84H21.8v-1H19.9V16h1.9V15H19.67v-.84H21.8V13h1.05v1.14H24.8V15H22.85v1H24.6v.84H22.85v1H25v.84ZM21.68,12a10.84,10.84,0,0,1-1.45,1.79,11.3,11.3,0,0,0-.95-.65,8,8,0,0,0,2.34-3.43L22.7,10c-.14.37-.32.73-.48,1.09H25.8V12H23.85a7.13,7.13,0,0,1,.5,1.1l-1,.37A8.11,8.11,0,0,0,22.73,12Zm10.87,4.59v.89H25.2v-.89h1.86V15H25.5v-.84h1.56V13h1.05v1.21h1.82V13H31v1.21h1.45V15H31v1.59ZM27.6,12a8,8,0,0,1-1.14,1.53,6.38,6.38,0,0,0-1-.63A7.34,7.34,0,0,0,27.41,9.8l1.08.24c-.12.36-.26.69-.39,1h4.38V12H29.91a5.53,5.53,0,0,1,.36.76l-.94.39A5,5,0,0,0,28.8,12Zm-1.44,6.33h5.69v5.11H30.78v-.39H27.2v.45h-1Zm1,.79v1.17h3.58V19.14Zm3.58,3.12v-1.2H27.2v1.2Zm-2.67-5.64h1.82V15H28.11Z"/><path class="cls-1" d="M4.6,6.75c0,.68.7,1.16,2.14,1.16a11.17,11.17,0,0,0,3.08-.36v.77a12.82,12.82,0,0,1-3.07.32C4.93,8.64,3.87,8,3.87,6.9a5.21,5.21,0,0,1,.19-1.25l.72.07A3.49,3.49,0,0,0,4.6,6.75ZM6.8,2.21a24.08,24.08,0,0,0,2.43-.13v.74c-.61.05-1.59.11-2.43.11s-1.66-.05-2.38-.1V2.09A20.36,20.36,0,0,0,6.8,2.21Z"/><path class="cls-1" d="M15.77,2.28c-.62.54-1.91,1.57-2.58,2.13s-.55.6,0,1.08c.82.67,2.41,2,3.36,2.91L16,9q-.29-.33-.63-.66c-.63-.65-2-1.82-2.83-2.51s-.75-1.1.06-1.79,2-1.64,2.66-2.26a4.45,4.45,0,0,0,.51-.61l.67.6Z"/><path class="cls-1" d="M23.69,2.12c0,.41,0,.86,0,1.26l1-.06.7,0V4c-.15,0-.49,0-.71,0l-1,.06a13.72,13.72,0,0,1-.13,1.88c-.08.39-.28.51-.69.51a10,10,0,0,1-1.19-.12l0-.63a4.14,4.14,0,0,0,.9.12c.22,0,.32,0,.34-.24s.08-.91.1-1.48c-.93.07-2,.18-2.88.27,0,.93,0,1.87,0,2.22,0,1,.05,1.31,1.6,1.31a18.44,18.44,0,0,0,2.68-.21l0,.76c-.6.06-1.7.14-2.61.14-2.08,0-2.28-.47-2.32-1.9,0-.39,0-1.35,0-2.25l-1,.11-.91.13-.08-.74c.28,0,.62,0,.94-.05l1-.09c0-.61,0-1.1,0-1.26a5,5,0,0,0-.06-.76h.79c0,.21,0,.45,0,.73s0,.74,0,1.21L23,3.43V2.15a6.74,6.74,0,0,0,0-.68h.76A4.36,4.36,0,0,0,23.69,2.12Z"/><path class="cls-1" d="M30,1.33l.76-.1A7.27,7.27,0,0,0,31,2.3a9.68,9.68,0,0,0,1.84-.41l.1.65a12,12,0,0,1-1.77.36,6.48,6.48,0,0,0,.2.62l.2.54a10.36,10.36,0,0,0,1.8-.38l.11.67a13.26,13.26,0,0,1-1.63.33,10,10,0,0,0,.63,1.11,2.5,2.5,0,0,0,.34.39l-.37.55a15.49,15.49,0,0,0-2-.29l.06-.55L31.85,6a8.5,8.5,0,0,1-.7-1.29,25.92,25.92,0,0,1-4,0l0-.68a19.68,19.68,0,0,0,3.74,0c-.07-.16-.13-.31-.18-.46s-.18-.49-.25-.71a20.48,20.48,0,0,1-3.09-.06l-.05-.66a17.12,17.12,0,0,0,3,.11,1.8,1.8,0,0,1-.06-.22C30.16,1.86,30.07,1.58,30,1.33ZM28.08,7c0,.75.66,1.12,2.08,1.12A9.9,9.9,0,0,0,32.3,8l0,.72a13.55,13.55,0,0,1-2.1.15c-1.77,0-2.76-.52-2.77-1.67a2.61,2.61,0,0,1,.35-1.29l.7.15A1.76,1.76,0,0,0,28.08,7Z"/></svg>