<svg id="レイヤー_1" data-name="レイヤー 1" xmlns="http://www.w3.org/2000/svg" viewBox="0 0 35 25"><defs><style>.cls-1{fill:#555;}</style></defs><path class="cls-1" d="M13.88,14.49A11.74,11.74,0,0,1,11.45,20a28.25,28.25,0,0,1,4.44,2.55l-.84,1a28,28,0,0,0-4.49-2.7c-1.62,1.35-3.87,2.19-7,2.65a4.17,4.17,0,0,0-.59-1.05,13.68,13.68,0,0,0,6.43-2.19c-1.15-.52-2.34-1-3.46-1.44l-.35.74-1.09-.41c.6-1.23,1.35-2.92,2.08-4.68H2.81V13.37H7c.51-1.25,1-2.48,1.38-3.56L9.57,10c-.39,1-.84,2.18-1.32,3.35h8v1.12Zm-6.09,0c-.5,1.19-1,2.36-1.46,3.39,1.26.44,2.63,1,4,1.58a10.09,10.09,0,0,0,2.36-5Z"/><path class="cls-1" d="M17.46,16.47a15.11,15.11,0,0,0,.79-3.84l.83.12a16,16,0,0,1-.75,4ZM19.62,9.8h1.11V23.49H19.62Zm2,2.4a14.08,14.08,0,0,1,1.09,2.5l-.83.41a15.07,15.07,0,0,0-1-2.55Zm9.55,9.72V23H22V21.92h4.29V18.17H23.13v-1h3.18V14H24.12a10.43,10.43,0,0,1-1.05,2.32,8.35,8.35,0,0,0-1-.51,14.64,14.64,0,0,0,1.82-5.35l1.08.18c-.15.78-.33,1.56-.54,2.29h1.87V9.86h1.11V13h3.39V14H27.42v3.1h3.06v1H27.42v3.75Z"/><path class="cls-1" d="M3.17,2.37c0,1-.11,3.14-.11,4.48,0,1,.62,1.35,1.48,1.35A3.73,3.73,0,0,0,7.76,6.33l.52.61a4.54,4.54,0,0,1-3.76,2c-1.29,0-2.19-.54-2.19-2s.09-3.62.09-4.56a4.32,4.32,0,0,0-.08-.92h.91C3.21,1.76,3.18,2.07,3.17,2.37ZM6.61,3.63l-.53.24a10.4,10.4,0,0,0-.85-1.45l.52-.22A16.35,16.35,0,0,1,6.61,3.63ZM7.8,3.15l-.52.25A9.78,9.78,0,0,0,6.4,2l.51-.23A13.18,13.18,0,0,1,7.8,3.15Z"/><path class="cls-1" d="M12.83,3.56V4.2a22,22,0,0,0,2.24-.15v.63c-.63.07-1.64.12-2.25.13V5c0,.44,0,1.08.06,1.68A5.61,5.61,0,0,1,15.18,8l-.38.63a5.4,5.4,0,0,0-1.88-1.26c0,.2,0,.38,0,.51,0,.59-.37,1.11-1.36,1.11S9.77,8.57,9.77,7.78s.68-1.23,1.92-1.23a4.58,4.58,0,0,1,.53,0c0-.54-.06-1.14-.06-1.58V3.57a3.64,3.64,0,0,0-.06-.75h.78A6.81,6.81,0,0,0,12.83,3.56ZM11.51,8.37a.66.66,0,0,0,.74-.71c0-.13,0-.3,0-.49a2.59,2.59,0,0,0-.63-.06c-.72,0-1.2.23-1.2.64S10.81,8.37,11.51,8.37Z"/><path class="cls-1" d="M23.13,2.12c0,.41,0,.86,0,1.26l1-.06.7,0V4c-.14,0-.49,0-.71,0l-1,.06A13.72,13.72,0,0,1,23,5.91c-.08.4-.28.51-.69.51a10.18,10.18,0,0,1-1.19-.12l0-.63a4.14,4.14,0,0,0,.9.12c.22,0,.32,0,.34-.24s.08-.91.1-1.48c-.93.07-2,.18-2.88.27,0,.93,0,1.87,0,2.22,0,1,.05,1.31,1.6,1.31a18.32,18.32,0,0,0,2.68-.21l0,.76c-.6.06-1.7.14-2.61.14-2.08,0-2.28-.47-2.32-1.9,0-.39,0-1.35,0-2.25l-1,.11-.9.13-.09-.74c.28,0,.62,0,.94-.05l1-.09c0-.61,0-1.1,0-1.26a5,5,0,0,0-.06-.76h.79c0,.21,0,.45,0,.73s0,.74,0,1.21l2.89-.26V2.15a6.74,6.74,0,0,0,0-.68h.76A4.36,4.36,0,0,0,23.13,2.12Z"/><path class="cls-1" d="M27.08,3c0,.57,0,1.39.07,2.13.14,1.51.58,2.51,1.22,2.51.46,0,.88-.94,1.12-1.84l.56.64C29.51,8,29,8.49,28.36,8.49c-.85,0-1.67-.84-1.92-3.18-.08-.78-.09-1.88-.09-2.4a3.66,3.66,0,0,0-.07-.8l.88,0A6.11,6.11,0,0,0,27.08,3Zm6.35,3.85-.72.3a9.08,9.08,0,0,0-1.57-4.53l.71-.24A9.6,9.6,0,0,1,33.43,6.85Z"/></svg>