<svg id="レイヤー_1" data-name="レイヤー 1" xmlns="http://www.w3.org/2000/svg" viewBox="0 0 35 25"><defs><style>.cls-1{fill:#555;}</style></defs><path class="cls-1" d="M15.17,18.06s0,.35-.05.5c-.27,2.83-.55,4-1,4.45a1.62,1.62,0,0,1-1.17.44c-.48,0-1.4,0-2.34-.05a2.28,2.28,0,0,0-.38-1c1,.08,2,.09,2.31.09s.5,0,.65-.15c.34-.27.58-1.18.79-3.24H9.26c-.75,2.06-2.3,3.6-6,4.43a2.94,2.94,0,0,0-.58-1c3.21-.66,4.61-1.86,5.33-3.47H3.12v-1H8.39a10.37,10.37,0,0,0,.27-1.45H4.32v-6H14.67v6H9.81a11.26,11.26,0,0,1-.27,1.45ZM5.44,13.14H8.9V11.55H5.44Zm0,2.51H8.9V14H5.44Zm8.09-4.1H10v1.59h3.54Zm0,2.49H10v1.61h3.54Z"/><path class="cls-1" d="M18.06,16.47a15.11,15.11,0,0,0,.79-3.84l.84.12a16.93,16.93,0,0,1-.75,4ZM20.23,9.8h1.1V23.49h-1.1Zm2,2.4a14.08,14.08,0,0,1,1.09,2.5l-.83.41a15.07,15.07,0,0,0-1-2.55Zm9.55,9.72V23H22.62V21.92h4.29V18.17H23.73v-1h3.18V14H24.72a10.43,10.43,0,0,1-1,2.32,8.19,8.19,0,0,0-1-.51,14.82,14.82,0,0,0,1.81-5.35l1.08.18c-.15.78-.33,1.56-.54,2.29h1.87V9.86H28V13h3.39V14H28v3.1h3.06v1H28v3.75Z"/><path class="cls-1" d="M3.86,2.17c0,.2-.09.43-.13.67a13.9,13.9,0,0,0,1.73-.32v.71a18.24,18.24,0,0,1-1.87.3c-.09.4-.18.81-.29,1.21A27.53,27.53,0,0,1,1.89,8.86L1.1,8.59a19.47,19.47,0,0,0,1.51-4c.08-.3.17-.64.24-1L2,3.63c-.4,0-.72,0-1,0l0-.71A7.28,7.28,0,0,0,2,3c.3,0,.62,0,1,0,.06-.31.11-.6.14-.78a3.79,3.79,0,0,0,0-.74L4,1.46C4,1.65,3.9,2,3.86,2.17Zm1.08,5c0,.42.23.83,1.52.83a8.45,8.45,0,0,0,1.75-.18l0,.73a12.13,12.13,0,0,1-1.74.14c-1.42,0-2.2-.44-2.2-1.33a5.16,5.16,0,0,1,.14-1.07l.67.07A3.12,3.12,0,0,0,4.94,7.2ZM6.52,4.12a13.13,13.13,0,0,1,1.56.08l0,.68a11.9,11.9,0,0,0-1.51-.11,15.62,15.62,0,0,0-1.68.1V4.2C5.35,4.15,5.94,4.12,6.52,4.12ZM7.84,3l-.48.22a10.45,10.45,0,0,0-.73-1.25l.48-.21A10.9,10.9,0,0,1,7.84,3Zm1-.37-.48.22a9.62,9.62,0,0,0-.75-1.25l.47-.21A11.82,11.82,0,0,1,8.86,2.6Z"/><path class="cls-1" d="M13.22,2.17c-.39.62-1.22,2.12-1.69,3a2,2,0,0,1,1.34-.56,1,1,0,0,1,1.06,1.09c0,.53,0,1.23,0,1.67a.65.65,0,0,0,.73.64c1,0,1.6-1.25,1.83-2.2l.59.49c-.47,1.45-1.23,2.45-2.53,2.45A1.17,1.17,0,0,1,13.27,7.6c0-.52,0-1.21,0-1.71a.6.6,0,0,0-.65-.63c-.73,0-1.41.74-1.76,1.44a13.52,13.52,0,0,0-.77,2.05l-.78-.27A64,64,0,0,1,12.39,2.1c.11-.21.22-.43.33-.69l.79.32C13.43,1.84,13.33,2,13.22,2.17Z"/><path class="cls-1" d="M23.67,2.12c0,.41,0,.86,0,1.26l1-.06.7,0V4c-.14,0-.49,0-.71,0l-1,.06a13.72,13.72,0,0,1-.13,1.88c-.08.4-.28.51-.69.51a10.18,10.18,0,0,1-1.19-.12l0-.63a4.14,4.14,0,0,0,.9.12c.22,0,.32,0,.34-.24s.08-.91.1-1.48c-.93.07-2,.18-2.88.27,0,.93,0,1.87,0,2.22,0,1,0,1.31,1.6,1.31a18.32,18.32,0,0,0,2.68-.21l0,.76c-.6.06-1.7.14-2.61.14-2.08,0-2.28-.47-2.32-1.9,0-.39,0-1.35,0-2.25l-1,.11-.9.13-.09-.74c.28,0,.62,0,.94-.05l1-.09c0-.61,0-1.1,0-1.26a5,5,0,0,0-.06-.76h.79c0,.21,0,.45,0,.73s0,.74,0,1.21L23,3.43V2.15a6.74,6.74,0,0,0,0-.68h.76A4.36,4.36,0,0,0,23.67,2.12Z"/><path class="cls-1" d="M27.62,3c0,.57,0,1.39.07,2.13.14,1.51.58,2.51,1.22,2.51.46,0,.88-.94,1.12-1.84l.56.64C30.05,8,29.51,8.49,28.9,8.49c-.85,0-1.67-.84-1.92-3.18-.08-.78-.09-1.88-.09-2.4a3.66,3.66,0,0,0-.07-.8l.88,0A6.11,6.11,0,0,0,27.62,3ZM34,6.85l-.72.3a9.08,9.08,0,0,0-1.57-4.53l.71-.24A9.6,9.6,0,0,1,34,6.85Z"/></svg>