<svg id="レイヤー_1" data-name="レイヤー 1" xmlns="http://www.w3.org/2000/svg" viewBox="0 0 29 25"><defs><style>.cls-1{fill:#555;}</style></defs><path class="cls-1" d="M9,16.61c.55,3.49,1.71,5.82,3.25,5.8.45,0,.63-.6.74-2.28a3.25,3.25,0,0,0,1,.57c-.2,2.22-.63,2.85-1.77,2.85-2.34,0-3.72-2.88-4.34-6.94H3.21v5c1.46-.25,3.1-.55,4.69-.84L8,21.86c-2.58.51-5.34,1-7.28,1.39L.38,22.08l1.7-.27V11.27l.84.24a55.47,55.47,0,0,0,8.73-1.65l.85.93a39.71,39.71,0,0,1-3.91.9,32.71,32.71,0,0,0,.21,3.82h4.89v1.1Zm-1.31-1.1q-.19-1.71-.24-3.63c-1.39.24-2.83.44-4.19.59v3Z"/><path class="cls-1" d="M27.76,23.52H26.63v-.63H20.48v.6H19.39V18.75a18.39,18.39,0,0,1-3.69,1.68,3.47,3.47,0,0,0-.66-1,16.89,16.89,0,0,0,5.56-2.88,18.07,18.07,0,0,0-2.74-2.46,17,17,0,0,1-2,1.36,3.72,3.72,0,0,0-.79-.85,12.67,12.67,0,0,0,5-4.88L21.4,10c-.26.42-.54.85-.86,1.29h4.23l.21-.06.74.39a14.2,14.2,0,0,1-4.1,5.53h6.14Zm-8-11.22a12.16,12.16,0,0,1-1.06,1.1,19.28,19.28,0,0,1,2.83,2.41,12,12,0,0,0,2.7-3.51Zm6.9,9.57V18.18H20.48v3.69Z"/><path class="cls-1" d="M3.57,2.31c0,1-.11,3.14-.11,4.48,0,1,.62,1.34,1.48,1.34A3.75,3.75,0,0,0,8.16,6.27l.51.61a4.51,4.51,0,0,1-3.76,2c-1.3,0-2.19-.54-2.19-2s.09-3.61.09-4.55a5.07,5.07,0,0,0-.07-.92h.91A7,7,0,0,0,3.57,2.31Z"/><path class="cls-1" d="M15.46,2.15c-.05.19-.09.4-.15.62a2.8,2.8,0,0,1,2.43,2.89c0,1.79-1.28,2.88-3.21,3.15l-.42-.64C16,8,17,7,17,5.63a2.19,2.19,0,0,0-1.89-2.25,11.78,11.78,0,0,1-1.31,3.06,5.82,5.82,0,0,0,.56.63l-.57.47A5.6,5.6,0,0,1,13.4,7a2.45,2.45,0,0,1-1.79,1.12c-.68,0-1.25-.57-1.25-1.62a3.79,3.79,0,0,1,1.39-2.79c-.1-.28-.19-.56-.27-.83a5.92,5.92,0,0,0-.3-.81l.75-.24c0,.25.12.55.18.8a6.85,6.85,0,0,0,.22.7,4.54,4.54,0,0,1,2.31-.64c0-.22.11-.44.14-.65a4.92,4.92,0,0,0,.06-.69l.77.07C15.55,1.67,15.49,2,15.46,2.15ZM11.69,7.43c.44,0,.91-.45,1.31-1-.07-.11-.13-.23-.21-.34A10.55,10.55,0,0,1,12,4.38a3.07,3.07,0,0,0-1,2.09C11,7.06,11.28,7.43,11.69,7.43Zm1.72-1.59a11.55,11.55,0,0,0,1.06-2.51A4.09,4.09,0,0,0,12.53,4a11.32,11.32,0,0,0,.7,1.58Z"/><path class="cls-1" d="M20.52,3c0,.57,0,1.39.07,2.13.14,1.51.58,2.51,1.22,2.51.46,0,.88-.94,1.12-1.84l.56.64C23,8,22.41,8.49,21.8,8.49c-.85,0-1.67-.84-1.92-3.18-.08-.78-.09-1.88-.09-2.4a3.66,3.66,0,0,0-.07-.8l.88,0A6.11,6.11,0,0,0,20.52,3Zm6.35,3.85-.72.3a9.08,9.08,0,0,0-1.57-4.53l.71-.24A9.6,9.6,0,0,1,26.87,6.85Z"/></svg>