<svg id="レイヤー_1" data-name="レイヤー 1" xmlns="http://www.w3.org/2000/svg" viewBox="0 0 99 25"><defs><style>.cls-1{fill:#555;}</style></defs><path class="cls-1" d="M10.45,16.61c.55,3.49,1.71,5.82,3.25,5.8.45,0,.63-.6.74-2.28a3.25,3.25,0,0,0,1,.57c-.2,2.22-.63,2.85-1.77,2.85-2.34,0-3.72-2.88-4.34-6.94H4.71v5c1.46-.25,3.1-.55,4.69-.84l.07,1.07c-2.58.51-5.34,1-7.28,1.39l-.31-1.17,1.7-.27V11.27l.84.24a55.47,55.47,0,0,0,8.73-1.65l.85.93a39.71,39.71,0,0,1-3.91.9,32.71,32.71,0,0,0,.21,3.82h4.89v1.1Zm-1.31-1.1q-.2-1.71-.24-3.63c-1.39.24-2.83.44-4.19.59v3Z"/><path class="cls-1" d="M29.86,23.52H28.73v-.63H22.58v.6H21.49V18.75a18.39,18.39,0,0,1-3.69,1.68,3.27,3.27,0,0,0-.66-1,17,17,0,0,0,5.57-2.88A18.67,18.67,0,0,0,20,14.12a17,17,0,0,1-2,1.36,3.72,3.72,0,0,0-.79-.85,12.67,12.67,0,0,0,5-4.88L23.5,10c-.26.42-.54.85-.85,1.29h4.22l.21-.06.74.39a14.2,14.2,0,0,1-4.1,5.53h6.14Zm-8-11.22a12.16,12.16,0,0,1-1.06,1.1,18.77,18.77,0,0,1,2.83,2.41,12,12,0,0,0,2.7-3.51Zm6.9,9.57V18.18H22.58v3.69Z"/><path class="cls-1" d="M38.41,9.51l.9.47a9.38,9.38,0,0,0,0,13.35l-.9.46a10,10,0,0,1,0-14.28Z"/><path class="cls-1" d="M47.23,11.78c0,.54,0,1.05-.08,1.54h3.57a5.91,5.91,0,0,0,1-.07l.84.42a5.24,5.24,0,0,0-.07.73c-.06,1.44-.24,5.81-.92,7.25a1.55,1.55,0,0,1-1.6.91c-.76,0-1.64-.06-2.42-.1l-.15-1.25a17.46,17.46,0,0,0,2.24.17.82.82,0,0,0,.87-.5c.57-1.14.76-4.83.76-6.43H47c-.53,4.3-2.09,6.58-4.6,8.31l-1.1-.89a7.07,7.07,0,0,0,1.55-1.11,9.63,9.63,0,0,0,3-6.31H43.33a16.19,16.19,0,0,0-1.73.06V13.23a15.9,15.9,0,0,0,1.71.09H46c0-.48.06-1,.06-1.53a9.05,9.05,0,0,0-.11-1.24h1.41C47.27,10.89,47.25,11.42,47.23,11.78Z"/><path class="cls-1" d="M60,11.75a3.73,3.73,0,0,1-.31.54h4.06a3.05,3.05,0,0,0,1-.15l1,.6a5.38,5.38,0,0,0-.36.81A15.26,15.26,0,0,1,63,18.21c.62.47,1.22.93,1.71,1.32l-.89,1c-.45-.41-1-.87-1.64-1.37A14.11,14.11,0,0,1,56.47,23l-1.08-.93a13.21,13.21,0,0,0,5.8-3.61C60.12,17.69,59,16.91,58,16.31l.82-.83c1,.57,2.11,1.29,3.16,2a12.7,12.7,0,0,0,2-4.16H59a16.31,16.31,0,0,1-4,4l-1-.78a13.75,13.75,0,0,0,4.81-5.22,5,5,0,0,0,.48-1.19l1.37.44C60.38,11,60.12,11.48,60,11.75Z"/><path class="cls-1" d="M72.73,11.78c0,.54,0,1.05-.07,1.54h3.56a5.91,5.91,0,0,0,1-.07l.84.42a5.24,5.24,0,0,0-.07.73c-.06,1.44-.24,5.81-.91,7.25a1.57,1.57,0,0,1-1.61.91c-.76,0-1.64-.06-2.42-.1l-.14-1.25a17.19,17.19,0,0,0,2.23.17.81.81,0,0,0,.87-.5c.57-1.14.76-4.83.76-6.43H72.54c-.54,4.3-2.11,6.58-4.61,8.31l-1.1-.89a6.84,6.84,0,0,0,1.55-1.11,9.59,9.59,0,0,0,3-6.31H68.83a15.91,15.91,0,0,0-1.72.06V13.23a15.63,15.63,0,0,0,1.71.09h2.64c0-.48.05-1,.05-1.53a9,9,0,0,0-.1-1.24h1.41C72.77,10.89,72.75,11.42,72.73,11.78Z"/><path class="cls-1" d="M86.14,10.74h1.48c0,.3-.09,1-.09,1.5v2h4c.5,0,1.07,0,1.31-.06v1.28c-.24,0-.86-.05-1.32-.05h-4c0,3.3-1.12,5.73-4.15,7.5l-1.17-.87a6.68,6.68,0,0,0,4.06-6.63H81.88c-.55,0-1.11,0-1.42.05V14.18c.31,0,.87.07,1.39.07h4.42v-2A9,9,0,0,0,86.14,10.74Z"/><path class="cls-1" d="M94.39,23.79l-.9-.46a9.38,9.38,0,0,0,0-13.35l.9-.47a10,10,0,0,1,0,14.28Z"/><path class="cls-1" d="M5,2.31c0,1-.11,3.14-.11,4.48,0,1,.62,1.34,1.48,1.34A3.75,3.75,0,0,0,9.6,6.27l.51.61a4.51,4.51,0,0,1-3.76,2c-1.3,0-2.19-.54-2.19-2s.09-3.61.09-4.55a5.07,5.07,0,0,0-.07-.92h.91A7,7,0,0,0,5,2.31Z"/><path class="cls-1" d="M17.8,2.15c-.05.19-.09.4-.15.62a2.8,2.8,0,0,1,2.43,2.89c0,1.79-1.28,2.88-3.21,3.15l-.42-.64C18.33,8,19.37,7,19.37,5.63a2.19,2.19,0,0,0-1.89-2.25,11.78,11.78,0,0,1-1.31,3.06,5.82,5.82,0,0,0,.56.63l-.57.47A5.6,5.6,0,0,1,15.74,7,2.45,2.45,0,0,1,14,8.14c-.68,0-1.25-.57-1.25-1.62a3.79,3.79,0,0,1,1.39-2.79c-.1-.28-.19-.56-.27-.83a5.92,5.92,0,0,0-.3-.81l.75-.24c0,.25.12.55.18.8a6.85,6.85,0,0,0,.22.7A4.54,4.54,0,0,1,17,2.71c.05-.22.11-.44.14-.65a4.92,4.92,0,0,0,.06-.69l.77.07C17.89,1.67,17.83,2,17.8,2.15ZM14,7.43c.44,0,.91-.45,1.31-1-.07-.11-.13-.23-.21-.34a10.55,10.55,0,0,1-.81-1.73,3.07,3.07,0,0,0-1,2.09C13.35,7.06,13.62,7.43,14,7.43Zm1.72-1.59a11.55,11.55,0,0,0,1.06-2.51A4.09,4.09,0,0,0,14.87,4a11.32,11.32,0,0,0,.7,1.58Z"/><path class="cls-1" d="M23.76,3a20.29,20.29,0,0,0,.07,2.13c.14,1.51.58,2.51,1.22,2.51.46,0,.88-.94,1.12-1.84l.56.64C26.19,8,25.65,8.49,25,8.49c-.85,0-1.67-.84-1.92-3.18C23,4.53,23,3.43,23,2.91a3.66,3.66,0,0,0-.07-.8l.88,0A6.11,6.11,0,0,0,23.76,3Zm6.35,3.85-.72.3a9.08,9.08,0,0,0-1.57-4.53l.71-.24A9.6,9.6,0,0,1,30.11,6.85Z"/></svg>