<svg id="レイヤー_1" data-name="レイヤー 1" xmlns="http://www.w3.org/2000/svg" viewBox="0 0 75 25"><defs><style>.cls-1{fill:#555;}</style></defs><path class="cls-1" d="M15.72,10.43V23.49H14.54v-.81H4.42v.81H3.29V10.43Zm-1.18,11.2V11.54H4.42V21.63Zm-2.18-7.77v5.42H6.57V13.86Zm-1.09,1H7.64v3.42h3.63Z"/><path class="cls-1" d="M20.5,12.05a11.64,11.64,0,0,1-1.48,2,6.27,6.27,0,0,0-.91-.61,10.28,10.28,0,0,0,2.34-3.92l1.07.29c-.16.42-.33.82-.52,1.23h3.77v1h-2.6a9.63,9.63,0,0,1,.8,1.68l-1,.33a11.23,11.23,0,0,0-.9-2Zm5.05,1.2a16.12,16.12,0,0,0,6.58,4.26,4.91,4.91,0,0,0-.67.94,20.55,20.55,0,0,1-3.23-1.65v.69H22.07v-.66a20.47,20.47,0,0,1-3.32,1.82,4,4,0,0,0-.63-.89,15.53,15.53,0,0,0,6.35-4.5c-.18-.12-.38-.24-.51-.31a7.93,7.93,0,0,0,2.28-3.38l1.08.27a10.48,10.48,0,0,1-.54,1.25h5v1H28.58a10.47,10.47,0,0,1,1,1.62l-1,.36a8.34,8.34,0,0,0-1.17-2H26.19a9.52,9.52,0,0,1-1,1.2ZM20.81,18.8h8.65v4.65H28.37V23H21.88v.48H20.81Zm1.07,1V22h6.49V19.76Zm6-3.21a14,14,0,0,1-2.77-2.33,13.59,13.59,0,0,1-2.58,2.33Z"/><path class="cls-1" d="M36.06,12.18c-.07,1.7-.18,5.24-.18,7.47,0,1.65,1,2.24,2.46,2.24a6.25,6.25,0,0,0,5.37-3.11l.86,1a7.54,7.54,0,0,1-6.27,3.32c-2.16,0-3.65-.9-3.65-3.35,0-2.22.16-6,.16-7.59a8.88,8.88,0,0,0-.12-1.53l1.51,0A12.84,12.84,0,0,0,36.06,12.18Z"/><path class="cls-1" d="M51.38,12.77a13.84,13.84,0,0,0,2.35-.56l0,1.13a20.37,20.37,0,0,1-2.72.55,27,27,0,0,1-3.27,6.33l-1.16-.6A22.18,22.18,0,0,0,49.82,14c-.45,0-.9.05-1.34.05S47.3,14,46.73,14l-.07-1.12a14.91,14.91,0,0,0,1.82.1c.54,0,1.12,0,1.7-.07a13.57,13.57,0,0,0,.47-2.6l1.31.12C51.83,11,51.62,11.9,51.38,12.77Zm4.11,3.93c0,.55.07,1.53.1,2.46A10.19,10.19,0,0,1,58.71,21l-.64,1a11.47,11.47,0,0,0-2.43-1.73c0,.24,0,.45,0,.63,0,1.2-.76,2.18-2.62,2.18-1.65,0-3-.68-3-2.16s1.3-2.25,3-2.25a6.43,6.43,0,0,1,1.47.15c-.06-1.23-.14-2.72-.17-3.78H55.5C55.47,15.69,55.47,16.16,55.49,16.7ZM52.88,22c1.24,0,1.66-.66,1.66-1.49,0-.19,0-.42,0-.67A5.23,5.23,0,0,0,53,19.65c-1.09,0-1.84.51-1.84,1.2S51.71,22,52.88,22Zm2.19-8.63.61-.91a23,23,0,0,1,3.5,2l-.68,1A17.67,17.67,0,0,0,55.07,13.41Z"/><path class="cls-1" d="M62.82,13.34c0,.94,0,2.31.11,3.55.24,2.51,1,4.17,2,4.17.76,0,1.47-1.56,1.86-3.06l.94,1.07c-.9,2.55-1.81,3.42-2.82,3.42-1.42,0-2.79-1.41-3.19-5.3-.14-1.3-.17-3.13-.17-4a6.78,6.78,0,0,0-.1-1.34l1.45,0A11.5,11.5,0,0,0,62.82,13.34ZM73.4,19.76l-1.2.49c-.27-2.71-1.17-5.79-2.61-7.54l1.17-.41A16.23,16.23,0,0,1,73.4,19.76Z"/><path class="cls-1" d="M6.14,1.92c0,.26-.13.79-.23,1.29.42,0,.8-.07,1-.07.8,0,1.46.31,1.46,1.53a8.53,8.53,0,0,1-.53,3.25,1.26,1.26,0,0,1-1.31.75,5,5,0,0,1-1.06-.13l-.12-.75A4.23,4.23,0,0,0,6.48,8a.74.74,0,0,0,.78-.46,7.56,7.56,0,0,0,.43-2.75c0-.83-.38-1-1-1-.22,0-.58,0-1,.06A19,19,0,0,1,3.88,8.69L3.14,8.4A14.38,14.38,0,0,0,5,3.91L3.89,4l-.81.1L3,3.36a7.12,7.12,0,0,0,.8,0c.3,0,.83,0,1.37-.1a9.68,9.68,0,0,0,.23-2l.84.09C6.22,1.55,6.18,1.75,6.14,1.92ZM11,5.57l-.71.33a10.53,10.53,0,0,0-1.6-3.26l.66-.3A16.13,16.13,0,0,1,11,5.57Z"/><path class="cls-1" d="M12.88,3c0,.57,0,1.39.07,2.13.14,1.51.58,2.51,1.22,2.51.46,0,.88-.94,1.12-1.84l.56.64C15.31,8,14.77,8.49,14.16,8.49c-.85,0-1.67-.84-1.91-3.18-.09-.78-.1-1.88-.1-2.4a3.66,3.66,0,0,0-.07-.8l.88,0A6.11,6.11,0,0,0,12.88,3Zm6.35,3.85-.72.3a9.08,9.08,0,0,0-1.57-4.53l.71-.24A9.6,9.6,0,0,1,19.23,6.85Z"/><path class="cls-1" d="M22.85,4.08c.84-.51,1.82-1,2.31-1.26a5.08,5.08,0,0,0,.64-.42l.4.64-.7.38a27.49,27.49,0,0,0-2.73,1.49c-.84.54-1.34,1.13-1.34,1.82s.71,1.21,2.13,1.21a13.41,13.41,0,0,0,2.88-.3v.8a17.41,17.41,0,0,1-2.84.22c-1.7,0-2.92-.5-2.92-1.85a2.92,2.92,0,0,1,1.56-2.33,28,28,0,0,1-1.31-2.77l.71-.3A18.8,18.8,0,0,0,22.85,4.08Z"/><path class="cls-1" d="M31.37,4.12a8.25,8.25,0,0,0-2.46.45c-.28.09-.54.19-.75.28L27.92,4a5,5,0,0,0,.83-.14,12.19,12.19,0,0,1,2.69-.43,2,2,0,0,1,2.24,2c0,1.95-1.76,3.05-4.09,3.4l-.41-.68c2.19-.27,3.73-1.13,3.73-2.75A1.36,1.36,0,0,0,31.37,4.12ZM33,1.78l-.11.69c-1-.06-2.82-.24-3.84-.42l.12-.69A23.84,23.84,0,0,0,33,1.78Z"/></svg>