<svg id="レイヤー_1" data-name="レイヤー 1" xmlns="http://www.w3.org/2000/svg" viewBox="0 0 44 25"><defs><style>.cls-1{fill:#555;}</style></defs><path class="cls-1" d="M5.11,11.21c.66,0,3.75-.14,4.62-.24a4.53,4.53,0,0,0,.81-.14l.77.86a9.66,9.66,0,0,0-.81.55C9.39,13.17,7.21,15,6,15.93c2.28-.24,5-.43,7.14-.43v1.11a22.91,22.91,0,0,0-3.81.06,3.28,3.28,0,0,0-2.88,2.86c0,1.52,1.22,2,2.58,2.21a9.4,9.4,0,0,0,2.16,0L11,23c-3.66.16-5.66-1-5.66-3.29A3.59,3.59,0,0,1,7,16.88c-1.6.13-3.59.36-5.4.66l-.1-1.13,2.59-.3a63.35,63.35,0,0,0,5-4c-.66,0-3.3.17-3.94.21L4,12.38l-.06-1.23A10.56,10.56,0,0,0,5.11,11.21Z"/><path class="cls-1" d="M21.49,22.82l-.7-1.11a11.41,11.41,0,0,0,1.29-.2,4.52,4.52,0,0,0,3.81-4.45,4.18,4.18,0,0,0-4-4.35A29.13,29.13,0,0,1,21,17c-.91,3.09-2.1,4.66-3.49,4.66s-2.67-1.53-2.67-4a6.39,6.39,0,0,1,6.55-6.11,5.44,5.44,0,0,1,5.75,5.52C27.12,20.25,25.05,22.35,21.49,22.82Zm-4-2.51c.71,0,1.5-1,2.27-3.54a25.46,25.46,0,0,0,.84-4A5.23,5.23,0,0,0,16,17.58C16,19.47,16.86,20.31,17.53,20.31Z"/><path class="cls-1" d="M33,10.17a24.29,24.29,0,0,1-1.51,3.18V23.48h-1.1V15.06a14.21,14.21,0,0,1-1.48,1.8,8.33,8.33,0,0,0-.63-1,16.88,16.88,0,0,0,3.7-6Zm7.11,12.12c.92,0,1.07-.4,1.2-2.17a3.24,3.24,0,0,0,1,.46c-.2,2.06-.54,2.72-2.19,2.72H36.19c-1.78,0-2.31-.42-2.31-2.06V16.37l-1.45.57L32,16l1.89-.73v-4H35v3.51l2.19-.85V9.83h1.06v3.72l2.33-.9.15-.14.19-.16.77.31-.05.2a44.61,44.61,0,0,1-.18,5.49,1.16,1.16,0,0,1-.9,1.09,6.22,6.22,0,0,1-1.51.11,3.52,3.52,0,0,0-.27-1.05c.4,0,.94,0,1.14,0s.42-.06.51-.45a30.56,30.56,0,0,0,.16-4.32l-2.34.91v5.51H37.17V15.09L35,16v5.28c0,.86.19,1.05,1.26,1.05Z"/><path class="cls-1" d="M35.13,2.05c0,.19-.08.42-.13.66a13.9,13.9,0,0,0,1.73-.32V3.1c-.59.13-1.24.23-1.87.31-.09.39-.18.81-.29,1.2a28.07,28.07,0,0,1-1.41,4.13l-.79-.27a19.56,19.56,0,0,0,1.51-4c.08-.3.17-.64.24-1l-.83,0c-.4,0-.72,0-1,0l0-.7a8.75,8.75,0,0,0,1.08.06c.3,0,.62,0,1,0,.06-.32.11-.61.14-.79a3.87,3.87,0,0,0,0-.75l.87.08C35.24,1.52,35.17,1.87,35.13,2.05Zm1.08,5c0,.42.23.84,1.52.84a9.19,9.19,0,0,0,1.75-.18l0,.73a12.39,12.39,0,0,1-1.74.12c-1.42,0-2.2-.43-2.2-1.32a5.07,5.07,0,0,1,.14-1.06l.67.06A3.24,3.24,0,0,0,36.21,7.07ZM37.79,4c.53,0,1.07,0,1.56.08l0,.69a10.31,10.31,0,0,0-1.51-.11,15.62,15.62,0,0,0-1.68.09V4.07C36.62,4,37.21,4,37.79,4Z"/></svg>