<svg id="レイヤー_1" data-name="レイヤー 1" xmlns="http://www.w3.org/2000/svg" viewBox="0 0 115 25"><defs><style>.cls-1{fill:#555;}</style></defs><path class="cls-1" d="M5.74,12.27l1.33.29c-.09.33-.21.76-.27,1.08a32.93,32.93,0,0,1-1.36,4.69,22.1,22.1,0,0,1-2.21,4.13L2,21.92a19.83,19.83,0,0,0,2.31-4.08A23,23,0,0,0,5.74,12.27Zm3.73.26,1.22-.41a48.49,48.49,0,0,1,2.19,4.74c.61,1.49,1.41,3.78,1.8,5.13l-1.34.44a43.64,43.64,0,0,0-1.69-5.16A38,38,0,0,0,9.47,12.53Zm4.26-2.33a1.7,1.7,0,0,1,1.68,1.7,1.68,1.68,0,1,1-1.68-1.7Zm0,2.69a1,1,0,1,0-1-1A1,1,0,0,0,13.73,12.89Z"/><path class="cls-1" d="M28.22,13a18.78,18.78,0,0,1-2.52,4.39,40.26,40.26,0,0,1,4.38,4.49l-1,.9a34.56,34.56,0,0,0-4.12-4.46,18.92,18.92,0,0,1-5.85,4.38l-1-1a17.16,17.16,0,0,0,6.18-4.46,13.18,13.18,0,0,0,2.49-4.17H20.92c-.52,0-1.35.06-1.52.08V11.76c.21,0,1.07.09,1.52.09h5.79a3.9,3.9,0,0,0,1.12-.12l.77.59A4.29,4.29,0,0,0,28.22,13Z"/><path class="cls-1" d="M43.34,13.05a14.42,14.42,0,0,1-1.66,5.6A10.57,10.57,0,0,1,36,22.88l-1-1A9.48,9.48,0,0,0,40.55,18,11.44,11.44,0,0,0,42,13H33.7v3c0,.22,0,.6,0,1H32.38a8.8,8.8,0,0,0,.06-1v-3.2a8.26,8.26,0,0,0-.06-1c.4,0,1,0,1.6,0h7.7a4.41,4.41,0,0,0,.94-.09l.92.59A6.13,6.13,0,0,0,43.34,13.05Z"/><path class="cls-1" d="M47.81,15.93H56c.75,0,1.29,0,1.62-.07v1.47c-.3,0-.93-.08-1.6-.08H47.81c-.82,0-1.61,0-2.08.08V15.86C46.18,15.89,47,15.93,47.81,15.93Z"/><path class="cls-1" d="M60.17,12.5a9.43,9.43,0,0,0-.12-1.56h1.49a13.79,13.79,0,0,0-.11,1.56v2.44a50.44,50.44,0,0,1,6.41,2.48l-.53,1.27a39.26,39.26,0,0,0-5.88-2.4v4.94c0,.48,0,1.29.09,1.77H60.08a16.49,16.49,0,0,0,.09-1.77Zm6.63,1.32-.85.39a14.67,14.67,0,0,0-1.34-2.28l.83-.38A22.7,22.7,0,0,1,66.8,13.82Zm1.87-.8-.85.42a14.43,14.43,0,0,0-1.39-2.25l.82-.39A22.45,22.45,0,0,1,68.67,13Z"/><path class="cls-1" d="M75.91,9.51l.9.47a9.38,9.38,0,0,0,0,13.35l-.9.46a10,10,0,0,1,0-14.28Z"/><path class="cls-1" d="M91.54,22.85H85.41v.64H84.35V16.38a10.55,10.55,0,0,1-.79.71,7.26,7.26,0,0,0-.68-.71v5.28H80v1.17h-.91V18a9.77,9.77,0,0,1-.84,1.46,6.27,6.27,0,0,0-.63-1,16.61,16.61,0,0,0,2.12-6.58H78v-1H83.3v1H80.79a28,28,0,0,1-.68,3.33h2.77v1a10.43,10.43,0,0,0,3-3.89H84.31v1.58h-1V11.33h3a13.67,13.67,0,0,0,.5-1.53l1.06.21c-.13.45-.27.9-.42,1.32h4v2.55h-1V12.3H87.08a14.23,14.23,0,0,1-1.21,2.22H87.7a16.68,16.68,0,0,0,.68-1.77l1,.26-.71,1.51h2.36v1H88.48V17h2.35v.87H88.48v1.59h2.35v.87H88.48v1.56h3.06Zm-9.6-6.72H80v4.56h1.94Zm5.49-.66h-2V17h2Zm0,2.4h-2v1.59h2Zm-2,4h2V20.33h-2Z"/><path class="cls-1" d="M98.14,13.2H92.83v-.91h5.31Zm-.4,9.44H94.42v.69h-.94v-5h4.26Zm0-7.44H93.49v-.89h4.23Zm-4.23,1.09h4.23v.9H93.49Zm4.18-5.07h-4.1v-.9h4.1Zm-3.25,8v2.52h2.36V19.22Zm3.42,2.94A6.11,6.11,0,0,0,99,18.87l.89.23a6.3,6.3,0,0,1-1.27,3.58Zm5.31-7a13.46,13.46,0,0,0-1.55-1A5.89,5.89,0,0,1,98.88,17a3.75,3.75,0,0,0-.67-.78,5.1,5.1,0,0,0,2.5-2.38,18.16,18.16,0,0,0-2-.81l.56-.78c.56.18,1.15.43,1.75.69a10.75,10.75,0,0,0,.35-1.49H98.89v-1H106s0,.33,0,.47c-.14,3.52-.28,4.83-.66,5.26a1.08,1.08,0,0,1-.89.44,13.14,13.14,0,0,1-1.75,0,2.4,2.4,0,0,0-.29-1c.68.06,1.31.06,1.55.06s.39,0,.48-.15c.25-.27.39-1.32.51-4.1h-2.54a11.65,11.65,0,0,1-.46,1.94,16.56,16.56,0,0,1,1.73,1Zm.21,7.2c.39,0,.47-.21.51-1.71a2.74,2.74,0,0,0,.93.43c-.11,1.8-.38,2.25-1.32,2.25h-1.67c-1.1,0-1.38-.3-1.38-1.41v-3.6h1V22c0,.38.06.44.49.44Zm-2-6A10.6,10.6,0,0,1,104,18.3l-.69.74a11.44,11.44,0,0,0-2.62-2Zm3.72,2.25a10.29,10.29,0,0,1,1.69,3.57l-1,.41A11.2,11.2,0,0,0,104.17,19Z"/><path class="cls-1" d="M108.79,23.79l-.9-.46a9.38,9.38,0,0,0,0-13.35l.9-.47a10,10,0,0,1,0,14.28Z"/><path class="cls-1" d="M78.14,1.92c0,.26-.13.79-.23,1.29.42,0,.8-.06,1-.06.8,0,1.46.3,1.46,1.52a8.53,8.53,0,0,1-.53,3.25,1.26,1.26,0,0,1-1.31.75,5,5,0,0,1-1.06-.13l-.12-.75A4.23,4.23,0,0,0,78.48,8a.74.74,0,0,0,.78-.46,7.56,7.56,0,0,0,.43-2.75c0-.83-.38-1-1-1-.22,0-.58,0-1,.06a19,19,0,0,1-1.89,4.85l-.74-.29A14.38,14.38,0,0,0,77,3.91L75.89,4l-.81.1L75,3.36a7.12,7.12,0,0,0,.8,0c.3,0,.83,0,1.37-.1a9.68,9.68,0,0,0,.23-2l.84.09C78.22,1.55,78.18,1.75,78.14,1.92ZM83,5.57l-.71.33a10.53,10.53,0,0,0-1.6-3.26l.66-.3A16.13,16.13,0,0,1,83,5.57Z"/><path class="cls-1" d="M89,2.28c-.62.54-1.91,1.57-2.58,2.13s-.55.6,0,1.08c.82.67,2.41,2,3.36,2.91l-.63.6q-.28-.33-.63-.66c-.63-.65-2-1.82-2.83-2.51s-.75-1.1.06-1.78,2-1.65,2.66-2.27A4.45,4.45,0,0,0,89,1.17l.67.6Z"/><path class="cls-1" d="M94.53,2.24a21,21,0,0,0-.45,3.45A10.66,10.66,0,0,0,94.16,7c.16-.4.37-.94.53-1.31l.37.29c-.23.64-.55,1.59-.64,2a2.17,2.17,0,0,0,0,.41c0,.1,0,.22,0,.31l-.65.05a11.32,11.32,0,0,1-.34-2.89,25,25,0,0,1,.41-3.61,3.55,3.55,0,0,0,.06-.64l.8.07C94.65,1.79,94.57,2.08,94.53,2.24Zm2.1,4.59c0,.41.3.81,1.52.81a9.47,9.47,0,0,0,2.23-.24l0,.76a12,12,0,0,1-2.25.19C96.64,8.35,96,7.84,96,7a4.79,4.79,0,0,1,.16-1.06l.65.06A2.76,2.76,0,0,0,96.63,6.83Zm3.48-4.5v.73a22.85,22.85,0,0,1-3.7,0V2.33A15.26,15.26,0,0,0,100.11,2.33Z"/><path class="cls-1" d="M106,2.17c-.4.62-1.23,2.12-1.7,3a2,2,0,0,1,1.34-.56,1,1,0,0,1,1.06,1.09c0,.53,0,1.23,0,1.67a.65.65,0,0,0,.73.64c1,0,1.6-1.25,1.83-2.2l.59.49c-.47,1.45-1.23,2.45-2.54,2.45A1.17,1.17,0,0,1,106,7.6c0-.52,0-1.21,0-1.71a.6.6,0,0,0-.65-.63c-.73,0-1.41.74-1.76,1.44a13.52,13.52,0,0,0-.77,2.05L102,8.48a64,64,0,0,1,3.12-6.38c.11-.21.22-.43.33-.69l.79.32C106.15,1.84,106.05,2,106,2.17Z"/></svg>