<svg id="レイヤー_1" data-name="レイヤー 1" xmlns="http://www.w3.org/2000/svg" viewBox="0 0 41 32"><defs><style>.cls-1{fill:#e86d99;}.cls-2{fill:#fff;}</style></defs><rect class="cls-1" width="41" height="32" rx="5"/><path class="cls-2" d="M9.32,18.05a15.28,15.28,0,0,1-1.59,4.72l-1-.4a13.55,13.55,0,0,0,1.58-4.56Zm5.9,7.1c.81,0,.93-.44,1-2.64a2.88,2.88,0,0,0,1,.46c-.15,2.45-.5,3.2-2,3.2H12.48c-1.5,0-1.93-.38-1.93-1.8v-.7a23.19,23.19,0,0,1-3.1,1.8,5.08,5.08,0,0,0-.67-.8,20.06,20.06,0,0,0,3.77-2.24V17h1.07v4.58a22.73,22.73,0,0,0,5.58-7.1l1,.42a24.86,24.86,0,0,1-6.61,8v1.51c0,.65.15.77.94.77ZM14,17.06a42.88,42.88,0,0,0-3.46-2.64l.68-.74c1.16.78,2.67,1.9,3.46,2.55Zm3.36,1.22a18.56,18.56,0,0,1,2.26,4.39l-1,.48a18.94,18.94,0,0,0-2.21-4.45Z"/><path class="cls-2" d="M25.7,22a11.16,11.16,0,0,1-4.3,4,3.92,3.92,0,0,0-.73-.82,9.61,9.61,0,0,0,4.06-3.57Zm-.54-7.67a15,15,0,0,1-3.69,3,3.35,3.35,0,0,0-.76-.74,12.41,12.41,0,0,0,3.48-2.64Zm.22,3.85a13.33,13.33,0,0,1-3.73,3.21,4.29,4.29,0,0,0-.76-.78,11.12,11.12,0,0,0,3.55-2.83Zm3.25,6.36a12.84,12.84,0,0,1-3.5,1.8,7.24,7.24,0,0,0-.65-.73,10.2,10.2,0,0,0,3.27-1.64Zm-.12-8c.1-.4.21-.86.28-1.26H25.56v-.9H33.3v.9H30c-.13.43-.27.87-.41,1.26h3.27v7.15H26.2V16.47Zm3.3.8H27.17V18.6h4.64Zm0,2.08H27.17v1.36h4.64Zm0,2.11H27.17v1.35h4.64Zm-1,2.52a17.48,17.48,0,0,1,2.78,1.7l-.8.62a19.45,19.45,0,0,0-2.74-1.77Z"/><path class="cls-2" d="M17,8.77l-.48.67a7.7,7.7,0,0,1-1.28-1.85c.2,2.36-.51,4.61-3.1,4.61A2.3,2.3,0,0,1,9.54,9.83a6,6,0,0,1,1.75-4L9.7,6l-.52.08-.06-.79a4.16,4.16,0,0,0,.5,0,14.12,14.12,0,0,0,3-.47l.22.67a3.69,3.69,0,0,0-.5.17,5.58,5.58,0,0,0-2,4,1.64,1.64,0,0,0,1.83,1.77c2.15,0,2.94-2.26,2.33-5.73-.07-.22-.15-.44-.21-.69l.74-.2A6.57,6.57,0,0,0,17,8.77Z"/><path class="cls-2" d="M19.45,7.76A13.07,13.07,0,0,1,22.76,7,2.07,2.07,0,0,1,25,9.07c0,1.8-1.73,2.71-4.26,2.87l-.3-.72c2-.06,3.8-.64,3.8-2.17A1.43,1.43,0,0,0,22.7,7.67a13.91,13.91,0,0,0-3.81,1.09L18.58,8A7.57,7.57,0,0,0,19.45,7.76Z"/><path class="cls-2" d="M31.12,4.91v.61H34v.69c-.53,0-1.38,0-2.74,0h-.13c0,.54,0,1.12,0,1.55a2.21,2.21,0,0,1,.3,1.19c0,1.27-.61,2.67-2.79,3.32L28,11.62A3.27,3.27,0,0,0,30.49,10a1.33,1.33,0,0,1-.82.25,1.49,1.49,0,0,1-1.53-1.56A1.64,1.64,0,0,1,29.79,7a1.71,1.71,0,0,1,.62.11c0-.28,0-.62,0-1-1.42,0-3,.08-4.18.16V5.62l4.18-.09c0-.26,0-.49,0-.62s-.05-.51-.06-.59h.85C31.15,4.42,31.13,4.79,31.12,4.91ZM29.8,9.57c.55,0,.9-.44.82-1.33a.84.84,0,0,0-.83-.59,1,1,0,0,0-.95,1A.91.91,0,0,0,29.8,9.57Z"/></svg>