<svg id="レイヤー_1" data-name="レイヤー 1" xmlns="http://www.w3.org/2000/svg" viewBox="0 0 60 25"><defs><style>.cls-1{fill:#555;}</style></defs><path class="cls-1" d="M6.91,13H2.21v2.1h-1V12.23H6.91v-.92H2.05v-.87H12.94v.87H8v.92h5.82v2.91h-1V13H8v3.42H6.91Zm5.48,9.43c.79,0,.94-.25,1-1.75a3.15,3.15,0,0,0,1,.37c-.16,1.82-.51,2.27-1.92,2.27H9c-1.68,0-2.14-.29-2.14-1.49v-.48H3.54v.78H2.48V17h10.1v4.42H7.93v.48c0,.51.18.6,1.13.6ZM2.7,15.36H6.15v.71H2.7Zm3.45-.82H3v-.69H6.15ZM3.54,17.78v1H6.87v-1Zm3.33,2.8v-1H3.54v1Zm4.63-2.8H7.93v1H11.5Zm0,2.8v-1H7.93v1Zm.5-6.73v.69H8.79v-.69ZM8.79,15.36h3.57v.71H8.79Z"/><path class="cls-1" d="M15.93,12.32h5.55v.91H15.93ZM21,22.8H17.58v.68h-1v-5H21ZM21,15.27H16.63v-.88H21Zm-4.35,1.16H21v.88H16.63ZM21,11.22H16.72v-.9H21Zm-3.37,8.16v2.51h2.47V19.38Zm8.62-4.17v2.51H29V23.4H27.91v-.66H23.5v.75H22.45V17.72h2.63V15.21h-3.5V14.15h3.5V11.76c-1,.12-1.92.21-2.82.29a3.54,3.54,0,0,0-.32-.93,39,39,0,0,0,6.42-1.07l.81.9a23,23,0,0,1-3,.65v2.55h3.51v1.06Zm1.71,3.53H23.5v3h4.41Z"/><path class="cls-1" d="M39.49,14.91a14.48,14.48,0,0,0,5.28,2.72,3.79,3.79,0,0,0-.75.94q-.68-.22-1.38-.54v5.42H41.53V23h-7.3v.51H33.16V18a16.3,16.3,0,0,1-1.59.69,3.39,3.39,0,0,0-.7-.88A14.89,14.89,0,0,0,36,14.91H31.26V14H34.5a9.21,9.21,0,0,0-1.07-1.84l.9-.36-2,.09a3,3,0,0,0-.24-.86,71.1,71.1,0,0,0,10.17-1l.75.83a43.18,43.18,0,0,1-4.71.64V14h2.06l-.44-.16a12.51,12.51,0,0,0,1.23-2.31l1.2.33c-.45.75-1,1.56-1.38,2.14h3.41v1Zm2.6,2.85A14,14,0,0,1,38.29,15v2.45H37.21V15.09a14.92,14.92,0,0,1-3.6,2.67Zm-4.85.89h-3v1.29h3Zm-3,3.46h3V20.73h-3Zm3-10.54c-.93.07-1.89.13-2.82.18a7,7,0,0,1,1.17,2L35,14h2.2Zm4.32,7.08H38.29v1.29h3.24Zm0,3.46V20.73H38.29v1.38Z"/><path class="cls-1" d="M49.35,17l-.45,1.32h7.53s0,.36-.06.52c-.38,2.61-.74,3.78-1.31,4.28a1.82,1.82,0,0,1-1.27.42c-.5,0-1.5,0-2.55-.06a2,2,0,0,0-.38-1.05c1.07.09,2.15.1,2.57.1a1.22,1.22,0,0,0,.72-.13c.39-.32.69-1.2,1-3.05h-6.6l-.41,1L47,20.15c.36-.83.81-2.07,1.17-3.18H44.88V16H58.29v1Zm7.07-2.18H46.94V10.41h9.48Zm-1.13-3.37H48V13.8h7.26Z"/><path class="cls-1" d="M1.82,2.44c.59-.06,2.29-.23,3.94-.37,1-.08,1.83-.13,2.43-.16v.72a7.26,7.26,0,0,0-1.76.15A3.16,3.16,0,0,0,4.37,5.63C4.37,7.38,6,7.94,7.47,8l-.26.74c-1.66-.06-3.56-1-3.56-3a3.64,3.64,0,0,1,1.68-3c-1,.11-3.26.32-4.23.53L1,2.49C1.36,2.48,1.65,2.46,1.82,2.44ZM7.64,5l-.46.22a8.28,8.28,0,0,0-.74-1.27l.46-.2A10.32,10.32,0,0,1,7.64,5Zm1-.39-.47.23a7.91,7.91,0,0,0-.75-1.26l.44-.21A11,11,0,0,1,8.66,4.6Z"/><path class="cls-1" d="M13.22,2.17c-.39.62-1.22,2.12-1.69,3a2,2,0,0,1,1.34-.56,1,1,0,0,1,1.06,1.09c0,.53,0,1.23,0,1.67a.65.65,0,0,0,.73.64c1,0,1.6-1.25,1.83-2.2l.59.49c-.47,1.45-1.23,2.45-2.53,2.45A1.17,1.17,0,0,1,13.27,7.6c0-.52,0-1.21,0-1.71a.6.6,0,0,0-.65-.63c-.73,0-1.41.74-1.76,1.44a13.52,13.52,0,0,0-.77,2.05l-.78-.27A64,64,0,0,1,12.39,2.1c.11-.21.22-.43.33-.69l.79.32C13.43,1.84,13.33,2,13.22,2.17Z"/><path class="cls-1" d="M19.65,1.26l.85,0c-.05.23-.12.73-.18,1.36l0,0,.27.32a6.36,6.36,0,0,0-.4.63c0,.19,0,.38-.05.58A4.54,4.54,0,0,1,23.05,3a2.27,2.27,0,0,1,2.36,2.28c0,1.81-1.31,2.75-3.27,3.13l-.34-.68c1.52-.21,2.89-.92,2.88-2.47A1.64,1.64,0,0,0,23,3.69,4.21,4.21,0,0,0,20.13,5c0,.38,0,.74,0,1.07,0,.81,0,1.36,0,2.17,0,.16,0,.38,0,.54H19.4a4.33,4.33,0,0,0,0-.53c0-.86,0-1.32,0-2.3,0-.09,0-.22,0-.36-.44.66-1,1.52-1.47,2.13l-.45-.62c.51-.63,1.54-2,2-2.75,0-.28,0-.58.07-.87l-1.77.24L17.76,3c.2,0,.37,0,.59,0s.82-.08,1.29-.15c0-.43.05-.76.05-.86A3.94,3.94,0,0,0,19.65,1.26Z"/><path class="cls-1" d="M28,2.24a22.38,22.38,0,0,0-.45,3.62,7.63,7.63,0,0,0,.09,1.26c.14-.41.36-1,.51-1.32l.37.29c-.22.62-.55,1.55-.65,2a2,2,0,0,0,0,.4c0,.08,0,.22,0,.32l-.63,0A10.91,10.91,0,0,1,26.87,6a27.72,27.72,0,0,1,.41-3.78,4.91,4.91,0,0,0,.06-.65l.79.07A3.2,3.2,0,0,0,28,2.24Zm4.53-.12c0,.24,0,.67,0,1.09.55,0,1.09-.12,1.56-.21v.69a14.54,14.54,0,0,1-1.56.18c0,.9.08,1.8.11,2.56a6,6,0,0,1,1.78,1.16L34,8.2a7,7,0,0,0-1.36-1v.18A1.36,1.36,0,0,1,31.07,8.8c-1.2,0-1.86-.5-1.86-1.31s.67-1.35,1.84-1.35a4.44,4.44,0,0,1,.84.08c0-.69-.08-1.57-.09-2.32l-.86,0c-.52,0-1,0-1.52,0V3.19c.52,0,1,.07,1.53.07l.85,0V2.13c0-.16,0-.4,0-.56h.81A3.6,3.6,0,0,0,32.51,2.12ZM31,8.13c.75,0,1-.38,1-1,0-.09,0-.19,0-.3A2.83,2.83,0,0,0,31,6.7c-.66,0-1.14.29-1.14.73S30.3,8.13,31,8.13Zm2.93-5.6-.46.17a12.19,12.19,0,0,0-.51-1.28l.44-.14C33.51,1.61,33.75,2.17,33.88,2.53Zm.92-.29-.46.17a9,9,0,0,0-.53-1.26L34.25,1C34.42,1.34,34.66,1.88,34.8,2.24Z"/><path class="cls-1" d="M39.69,2.17c-.4.62-1.23,2.12-1.7,3a2,2,0,0,1,1.34-.56,1,1,0,0,1,1.06,1.09c0,.53,0,1.23,0,1.67a.65.65,0,0,0,.73.64c1,0,1.6-1.25,1.83-2.2l.59.49C43.1,7.74,42.34,8.74,41,8.74A1.17,1.17,0,0,1,39.73,7.6c0-.52,0-1.21,0-1.71A.6.6,0,0,0,39,5.26c-.73,0-1.41.74-1.76,1.44a13.52,13.52,0,0,0-.77,2.05l-.78-.27A64,64,0,0,1,38.85,2.1c.11-.21.22-.43.33-.69l.79.32C39.89,1.84,39.79,2,39.69,2.17Z"/><path class="cls-1" d="M45.64,6.84c0,.69.7,1.16,2.14,1.16a11.5,11.5,0,0,0,3.07-.35v.77a12.64,12.64,0,0,1-3.07.32C46,8.74,44.9,8.13,44.9,7a5.05,5.05,0,0,1,.19-1.25l.73.07A3.37,3.37,0,0,0,45.64,6.84Zm2.2-4.54a24.25,24.25,0,0,0,2.43-.13v.74c-.61,0-1.59.11-2.42.11s-1.68,0-2.39-.1V2.19A23.1,23.1,0,0,0,47.84,2.3Zm3.42.12-.49.23A9.36,9.36,0,0,0,50,1.39l.48-.21A14,14,0,0,1,51.26,2.42Zm1-.36-.5.21A8.12,8.12,0,0,0,51,1l.47-.21A12,12,0,0,1,52.28,2.06Z"/><path class="cls-1" d="M56.37,4.12a8.25,8.25,0,0,0-2.46.45c-.28.09-.54.19-.75.28L52.92,4a5,5,0,0,0,.83-.14,12.19,12.19,0,0,1,2.69-.43,2,2,0,0,1,2.24,2c0,1.95-1.76,3.05-4.09,3.4l-.41-.68c2.19-.27,3.73-1.13,3.73-2.75A1.36,1.36,0,0,0,56.37,4.12ZM58,1.78l-.11.69c-1-.06-2.82-.24-3.84-.42l.12-.69A23.84,23.84,0,0,0,58,1.78Z"/></svg>