<svg id="レイヤー_1" data-name="レイヤー 1" xmlns="http://www.w3.org/2000/svg" viewBox="0 0 74 25"><defs><style>.cls-1{fill:#fff;}.cls-2{fill:#e86d99;}</style></defs><path class="cls-1" d="M8,19.92a9.1,9.1,0,0,1-6.44-2.66,1.87,1.87,0,0,1-.1-2.52l1.33-1.56a1.88,1.88,0,0,1,2.74-.11A3.72,3.72,0,0,0,8,14.23a1.64,1.64,0,0,0,.87-.17,6.22,6.22,0,0,0-1.14-.58l-2-.88C3.09,11.49,1.65,9.54,1.65,7.11c0-3.32,2.83-5.83,6.59-5.83a8,8,0,0,1,5.69,2.38A1.87,1.87,0,0,1,14,6.15l-1.2,1.44a1.84,1.84,0,0,1-2.67.21A2.77,2.77,0,0,0,8.24,7a1.75,1.75,0,0,0-.35,0c.28.14.67.3.94.41l2,.85a5.91,5.91,0,0,1,4.06,5.61C14.91,17.38,12,19.92,8,19.92ZM8.89,14h0Z"/><path class="cls-1" d="M17.82,19.67H15.57a1.86,1.86,0,0,1-1.86-1.86V7.05A1.81,1.81,0,0,1,14.2,5.8a3.21,3.21,0,0,1-.76-2.11A3.14,3.14,0,0,1,16.69.5,3.16,3.16,0,0,1,20,3.69,3.26,3.26,0,0,1,19.2,5.8a1.85,1.85,0,0,1,.48,1.25V17.81A1.86,1.86,0,0,1,17.82,19.67ZM16.69,3.18a.59.59,0,0,0-.46.51.59.59,0,0,0,.46.53.6.6,0,0,0,.47-.53A.61.61,0,0,0,16.69,3.18Z"/><path class="cls-1" d="M24.86,24.5c-4.66,0-6.32-2.53-6.32-4.7a4.18,4.18,0,0,1,.92-2.59,4,4,0,0,1-.33-1.63,3.89,3.89,0,0,1,.61-2.06,5.52,5.52,0,0,1-.83-2.89,5.74,5.74,0,0,1,6-5.71,6.57,6.57,0,0,1,1.87.27h3.51a1.87,1.87,0,0,1,1.86,1.86V8.74a1.86,1.86,0,0,1-1.35,1.79v.18a5.39,5.39,0,0,1-1.69,4,4.13,4.13,0,0,1,3.21,4.16C32.35,22.14,29.2,24.5,24.86,24.5ZM27,20h0Zm-2.07-9.75h-.07a.78.78,0,0,0-.07.39s0,.47.17.47.17-.46.17-.47a.58.58,0,0,0-.09-.39Z"/><path class="cls-1" d="M41.42,19.67H39.17a1.86,1.86,0,0,1-1.86-1.86V11.32a4,4,0,0,0-.05-.74,1.31,1.31,0,0,0-.66.4v6.83a1.86,1.86,0,0,1-1.86,1.86H32.49a1.87,1.87,0,0,1-1.87-1.86V7.05a1.87,1.87,0,0,1,1.87-1.86h1.84a1.82,1.82,0,0,1,1.12.38,5.79,5.79,0,0,1,2.67-.65c1.55,0,5.16.6,5.16,6.12v6.77A1.86,1.86,0,0,1,41.42,19.67Z"/><path class="cls-1" d="M52.26,19.92c-1.56,0-5.17-.59-5.17-6.1V7.05A1.86,1.86,0,0,1,49,5.19H51.2a1.86,1.86,0,0,1,1.86,1.86v6.5a4.88,4.88,0,0,0,0,.71c.13,0,.3-.1.61-.42V7.05a1.86,1.86,0,0,1,1.86-1.86h2.25a1.86,1.86,0,0,1,1.86,1.86V17.81a1.86,1.86,0,0,1-1.86,1.86H56a1.9,1.9,0,0,1-1.12-.37A5.65,5.65,0,0,1,52.26,19.92Z"/><path class="cls-1" d="M63.46,24H61.21a1.86,1.86,0,0,1-1.86-1.86V7.05a1.86,1.86,0,0,1,1.86-1.86h1.84a1.88,1.88,0,0,1,1,.32,6.05,6.05,0,0,1,2.52-.59c3.71,0,6.1,2.88,6.1,7.34,0,5.5-3.9,8.18-7.39,7.59v2.32A1.86,1.86,0,0,1,63.46,24Zm1.86-9.8a1.13,1.13,0,0,0,.47.11c.6,0,.87-1.06.87-2.05,0-1.77-.44-1.77-.66-1.77a1.33,1.33,0,0,0-.68.3Z"/><path class="cls-2" d="M2.86,16l1.33-1.56A5.62,5.62,0,0,0,8,16.09c1.74,0,2.72-.82,2.72-2s-1-1.72-2.31-2.3l-2-.86C5.05,10.3,3.51,9.21,3.51,7.11c0-2.27,2-4,4.73-4A6.2,6.2,0,0,1,12.6,5L11.41,6.41A4.6,4.6,0,0,0,8.24,5.12c-1.47,0-2.43.7-2.43,1.84S7,8.68,8.14,9.15l2,.84c1.7.72,2.93,1.78,2.93,3.89,0,2.3-1.92,4.18-5.07,4.18A7.18,7.18,0,0,1,2.86,16Z"/><path class="cls-2" d="M15.3,3.69a1.29,1.29,0,0,1,1.39-1.33,1.3,1.3,0,0,1,1.4,1.33A1.3,1.3,0,0,1,16.69,5,1.3,1.3,0,0,1,15.3,3.69Zm.27,3.36h2.25V17.81H15.57Z"/><path class="cls-2" d="M20.4,19.8A2.82,2.82,0,0,1,22,17.46v-.1a2,2,0,0,1-1-1.78,2.66,2.66,0,0,1,1.21-2v-.07a3.67,3.67,0,0,1-1.43-2.88,3.88,3.88,0,0,1,4.17-3.85,4.64,4.64,0,0,1,1.56.27h3.82V8.74H28.26a2.9,2.9,0,0,1,.71,2c0,2.35-1.78,3.7-4,3.7a3.69,3.69,0,0,1-1.51-.34,1.42,1.42,0,0,0-.58,1.14c0,.64.43,1.05,1.8,1.05h2c2.54,0,3.87.79,3.87,2.62,0,2.08-2.19,3.76-5.63,3.76C22.28,22.64,20.4,21.68,20.4,19.8Zm7.92-.57c0-.89-.7-1.17-2-1.17H24.68a7.39,7.39,0,0,1-1.44-.15,1.9,1.9,0,0,0-.92,1.56c0,1.06,1.09,1.68,2.87,1.68S28.32,20.23,28.32,19.23ZM27,10.63a2,2,0,1,0-4.06,0,2,2,0,1,0,4.06,0Z"/><path class="cls-2" d="M32.49,7.05h1.84l.17,1.49h.06a5.12,5.12,0,0,1,3.56-1.76c2.29,0,3.3,1.53,3.3,4.26v6.77H39.17V11.32c0-1.86-.54-2.6-1.81-2.6a3.57,3.57,0,0,0-2.62,1.46v7.63H32.49Z"/><path class="cls-2" d="M49,13.82V7.05H51.2v6.5c0,1.83.53,2.58,1.8,2.58,1,0,1.68-.47,2.58-1.61V7.05h2.25V17.81H56l-.18-1.63h-.05a4.5,4.5,0,0,1-3.5,1.88C50,18.06,49,16.56,49,13.82Z"/><path class="cls-2" d="M61.21,7.05h1.84l.18,1.18h.06a5.45,5.45,0,0,1,3.32-1.45c2.72,0,4.24,2.17,4.24,5.48,0,3.69-2.21,5.8-4.63,5.8a4.45,4.45,0,0,1-2.84-1.21l.08,1.84v3.48H61.21Zm7.32,5.24c0-2.24-.73-3.63-2.53-3.63A3.7,3.7,0,0,0,63.46,10v5.26a3.6,3.6,0,0,0,2.33,1C67.35,16.2,68.53,14.82,68.53,12.29Z"/></svg>