<svg id="レイヤー_1" data-name="レイヤー 1" xmlns="http://www.w3.org/2000/svg" viewBox="0 0 203 25"><defs><style>.cls-1{fill:#fff;}.cls-2{fill:#e86d99;}</style></defs><path class="cls-1" d="M6,24.19H3.26A2.26,2.26,0,0,1,1,21.94V4.48A2.26,2.26,0,0,1,3.26,2.23H8.54c8,0,8.91,5.27,8.91,7.53,0,4.76-3.46,7.83-8.82,7.83H8.26v4.35A2.26,2.26,0,0,1,6,24.19ZM8.26,10.87h.11c1.87,0,1.87-.39,1.87-1.11a1,1,0,0,0-.08-.52h0A3.68,3.68,0,0,0,8.28,9h0Z"/><path class="cls-1" d="M23.76,24.5c-5,0-8.6-3.82-8.6-9.08,0-5.69,4.17-9.09,8.2-9.09C28,6.33,31,9.63,31,14.74a9,9,0,0,1-.2,1.87,2.24,2.24,0,0,1-1.44,1.65l.84,1.53a2.26,2.26,0,0,1-.73,3A10.23,10.23,0,0,1,23.76,24.5Z"/><path class="cls-1" d="M42.54,24.19H39.82a2.25,2.25,0,0,1-2.25-2.25V14.07a4.29,4.29,0,0,0-.07-.89,1.64,1.64,0,0,0-.8.48v8.28a2.25,2.25,0,0,1-2.25,2.25H31.72a2.25,2.25,0,0,1-2.25-2.25v-13a2.25,2.25,0,0,1,2.25-2.25H34a2.23,2.23,0,0,1,1.36.46,7,7,0,0,1,3.23-.79c1.88,0,6.26.72,6.26,7.41v8.2A2.26,2.26,0,0,1,42.54,24.19Z"/><path class="cls-1" d="M51,24.5c-4.63,0-7.63-3.56-7.63-9.08,0-5.18,3.37-9.09,7.84-9.09a6.68,6.68,0,0,1,1.13.08V3.06A2.26,2.26,0,0,1,54.6.81h2.72a2.26,2.26,0,0,1,2.26,2.25V21.94a2.26,2.26,0,0,1-2.26,2.25H55.1a2.25,2.25,0,0,1-1.2-.35A6.9,6.9,0,0,1,51,24.5Zm.74-11.39c-.51,0-1,.86-1,2.29,0,1.07.16,2.34.94,2.34a1,1,0,0,0,.7-.27V13.22A1.42,1.42,0,0,0,51.74,13.11Z"/><path class="cls-1" d="M64.5,24.5a5.85,5.85,0,0,1-6.09-6,5.67,5.67,0,0,1,2.26-4.7,2.18,2.18,0,0,1-.44-.56l-1-1.85a2.25,2.25,0,0,1,.77-3,12.11,12.11,0,0,1,6.46-2.05c4.38,0,7,2.9,7,7.77v7.84a2.25,2.25,0,0,1-2.25,2.25H69a2.26,2.26,0,0,1-1.3-.41A7.45,7.45,0,0,1,64.5,24.5Z"/><path class="cls-1" d="M78.21,24.19H75.49a2.25,2.25,0,0,1-2.25-2.25V13.3a2.26,2.26,0,0,1-1.78-2.21v-2a2.26,2.26,0,0,1,1.78-2.2C73.41,2.92,75.82.5,79.61.5a8.58,8.58,0,0,1,3.13.59,2.26,2.26,0,0,1,1.35,2.67l-.55,2.06a2.26,2.26,0,0,1-1.16,1.44,2.26,2.26,0,0,1,.72,1.65v2.18a2.26,2.26,0,0,1-2.26,2.26h-.37v8.59A2.26,2.26,0,0,1,78.21,24.19ZM73.71,9.05h0Z"/><path class="cls-1" d="M87.59,24.5c-1.87,0-6.21-.67-6.21-6.83V13.32a2.27,2.27,0,0,1-1.89-2.23v-2a2.26,2.26,0,0,1,2.1-2.25h.11l.14-1.68a2.25,2.25,0,0,1,2.25-2.06h2.27a2.26,2.26,0,0,1,2.26,2.25V6.66h1.13A2.25,2.25,0,0,1,92,8.91v2.18a2.26,2.26,0,0,1-2.25,2.26H88.62v4.39l.13,0a2.26,2.26,0,0,1,3.09,1.53l.5,2a2.26,2.26,0,0,1-1.5,2.69A10.69,10.69,0,0,1,87.59,24.5Zm1.08-6.28ZM81.74,9.05h0Z"/><path class="cls-1" d="M95.67,24.5a5.85,5.85,0,0,1-6.09-6,5.66,5.66,0,0,1,2.25-4.7,2.14,2.14,0,0,1-.43-.56l-1-1.85a2.25,2.25,0,0,1,.77-3,12.11,12.11,0,0,1,6.46-2.05c4.38,0,7,2.9,7,7.77v7.84a2.26,2.26,0,0,1-2.26,2.25h-2.22a2.26,2.26,0,0,1-1.3-.41A7.45,7.45,0,0,1,95.67,24.5Z"/><path class="cls-1" d="M108.93,24.19h-2.72A2.26,2.26,0,0,1,104,21.94v-13a2.26,2.26,0,0,1,2.26-2.25h2.22a2.23,2.23,0,0,1,1.28.39,5.79,5.79,0,0,1,5.13-.23,2.27,2.27,0,0,1,1.25,2.51l-.5,2.37a2.25,2.25,0,0,1-2.89,1.68,1.66,1.66,0,0,0-.62-.11c-.15,0-.53.26-.89,1v7.66A2.26,2.26,0,0,1,108.93,24.19Z"/><path class="cls-1" d="M119,24.5a5.85,5.85,0,0,1-6.09-6,5.67,5.67,0,0,1,2.26-4.7,2.42,2.42,0,0,1-.44-.56l-1-1.85a2.26,2.26,0,0,1,.77-3,12.11,12.11,0,0,1,6.46-2.05c4.38,0,7,2.9,7,7.77v7.84a2.26,2.26,0,0,1-2.26,2.25h-2.22a2.26,2.26,0,0,1-1.31-.41A7.42,7.42,0,0,1,119,24.5Z"/><path class="cls-1" d="M140.33,24.19h-2.72a2.25,2.25,0,0,1-2.25-2.25V14.07a5.15,5.15,0,0,0-.07-.89,1.64,1.64,0,0,0-.8.48v8.28a2.25,2.25,0,0,1-2.25,2.25h-2.73a2.25,2.25,0,0,1-2.25-2.25v-13a2.25,2.25,0,0,1,2.25-2.25h2.23a2.23,2.23,0,0,1,1.36.46,7.07,7.07,0,0,1,3.23-.79c1.88,0,6.26.72,6.26,7.41v8.2A2.26,2.26,0,0,1,140.33,24.19Zm-4.77-11Z"/><path class="cls-1" d="M155.68,24.19h-5.82a2.26,2.26,0,0,1-2.26-2.25V4.48a2.26,2.26,0,0,1,2.26-2.25h5.39c7.6,0,8.42,4.59,8.42,6.56a6.55,6.55,0,0,1-.93,3.39,6.29,6.29,0,0,1,1.87,4.64C164.61,21.3,161.11,24.19,155.68,24.19Zm-.82-6.66h.51c2,0,2-.53,2-.85a1.5,1.5,0,0,0,0-.24h0s-.4-.35-2-.35h-.51Zm0-8H155a3.15,3.15,0,0,0,1.5-.24s0-.06,0-.13a.22.22,0,0,0,0-.09A4.09,4.09,0,0,0,155,8.89h-.16Z"/><path class="cls-1" d="M168.5,24.5a5.86,5.86,0,0,1-6.1-6,5.67,5.67,0,0,1,2.26-4.7,2.42,2.42,0,0,1-.44-.56l-1-1.85a2.26,2.26,0,0,1,.78-3,12.08,12.08,0,0,1,6.46-2.05c4.37,0,7,2.9,7,7.77v7.84a2.26,2.26,0,0,1-2.26,2.25H173a2.26,2.26,0,0,1-1.31-.41A7.38,7.38,0,0,1,168.5,24.5Z"/><path class="cls-1" d="M181.76,24.19H179a2.26,2.26,0,0,1-2.26-2.25v-13A2.26,2.26,0,0,1,179,6.66h2.22a2.27,2.27,0,0,1,1.28.39,5.79,5.79,0,0,1,5.13-.23,2.28,2.28,0,0,1,1.25,2.51l-.5,2.37a2.25,2.25,0,0,1-2.89,1.68,1.69,1.69,0,0,0-.62-.11c-.15,0-.53.26-.9,1v7.66A2.25,2.25,0,0,1,181.76,24.19Z"/><path class="cls-1" d="M192.56,24.5c-1.88,0-6.26-.72-6.26-7.39V8.91a2.26,2.26,0,0,1,2.26-2.25h2.72a2.25,2.25,0,0,1,2.25,2.25v7.86a5.24,5.24,0,0,0,.06.87c.16,0,.36-.12.74-.51V8.91a2.25,2.25,0,0,1,2.25-2.25h2.73a2.25,2.25,0,0,1,2.25,2.25v13a2.25,2.25,0,0,1-2.25,2.25h-2.23a2.21,2.21,0,0,1-1.35-.45A6.87,6.87,0,0,1,192.56,24.5Z"/><path class="cls-2" d="M3.26,4.48H8.54c3.88,0,6.65,1.35,6.65,5.28s-2.77,5.57-6.56,5.57H6v6.61H3.26Zm5.11,8.65c2.79,0,4.12-1.07,4.12-3.37s-1.44-3-4.21-3H6v6.42Z"/><path class="cls-2" d="M17.42,15.42c0-4.21,2.91-6.84,5.94-6.84,3.46,0,5.33,2.49,5.33,6.16a7.11,7.11,0,0,1-.14,1.39H20.09c.22,2.49,1.78,4,4,4a5.5,5.5,0,0,0,3.1-1l1,1.73a7.87,7.87,0,0,1-4.41,1.37C20.24,22.24,17.42,19.73,17.42,15.42Zm8.9-1.18c0-2.23-1-3.53-2.91-3.53-1.63,0-3.08,1.26-3.34,3.53Z"/><path class="cls-2" d="M31.72,8.91H34l.21,1.8h.07a6.22,6.22,0,0,1,4.31-2.13c2.77,0,4,1.85,4,5.16v8.2H39.82V14.07c0-2.24-.66-3.15-2.2-3.15-1.21,0-2,.62-3.17,1.78v9.24H31.72Z"/><path class="cls-2" d="M45.63,15.42c0-4.21,2.67-6.84,5.58-6.84a5,5,0,0,1,3.51,1.47L54.6,7.89V3.06h2.72V21.94H55.1l-.22-1.47h-.09A5.47,5.47,0,0,1,51,22.24C47.73,22.24,45.63,19.76,45.63,15.42Zm9,3V12a4.06,4.06,0,0,0-2.86-1.19c-1.83,0-3.3,1.73-3.3,4.55S49.6,20,51.64,20A3.82,3.82,0,0,0,54.6,18.41Z"/><path class="cls-2" d="M60.67,18.48c0-2.8,2.36-4.24,7.79-4.83,0-1.52-.57-2.84-2.49-2.84a7.21,7.21,0,0,0-3.77,1.32l-1-1.84a9.9,9.9,0,0,1,5.25-1.71c3.25,0,4.74,2.06,4.74,5.52v7.84H69l-.21-1.5h-.09a6.5,6.5,0,0,1-4.15,1.8A3.59,3.59,0,0,1,60.67,18.48Zm7.79.09V15.38c-3.86.45-5.17,1.44-5.17,2.91,0,1.28.88,1.8,2,1.8A4.61,4.61,0,0,0,68.46,18.57Z"/><path class="cls-2" d="M75.49,11.09H73.71v-2l1.78-.14V7.28c0-2.68,1.21-4.52,4.12-4.52a6.56,6.56,0,0,1,2.3.42l-.55,2.06a3.58,3.58,0,0,0-1.42-.33c-1.16,0-1.73.76-1.73,2.34V8.91h2.63v2.18H78.21V21.94H75.49Z"/><path class="cls-2" d="M83.64,17.67V11.09h-1.9v-2l2-.14.31-3.6h2.27v3.6h3.39v2.18H86.36V17.7c0,1.56.55,2.37,1.9,2.37a4,4,0,0,0,1.39-.31l.5,2a8.28,8.28,0,0,1-2.56.47C84.66,22.24,83.64,20.42,83.64,17.67Z"/><path class="cls-2" d="M91.83,18.48c0-2.8,2.37-4.24,7.79-4.83,0-1.52-.57-2.84-2.48-2.84a7.15,7.15,0,0,0-3.77,1.32l-1-1.84a9.94,9.94,0,0,1,5.26-1.71c3.24,0,4.73,2.06,4.73,5.52v7.84h-2.22l-.21-1.5h-.1a6.45,6.45,0,0,1-4.14,1.8A3.6,3.6,0,0,1,91.83,18.48Zm7.79.09V15.38c-3.86.45-5.16,1.44-5.16,2.91,0,1.28.88,1.8,2,1.8A4.59,4.59,0,0,0,99.62,18.57Z"/><path class="cls-2" d="M106.21,8.91h2.22l.22,2.35h.07a4.5,4.5,0,0,1,3.69-2.68,3.37,3.37,0,0,1,1.47.28l-.5,2.37a3.9,3.9,0,0,0-1.3-.21c-1.07,0-2.34.73-3.15,2.79v8.13h-2.72Z"/><path class="cls-2" d="M115.14,18.48c0-2.8,2.36-4.24,7.79-4.83,0-1.52-.57-2.84-2.49-2.84a7.14,7.14,0,0,0-3.76,1.32l-1-1.84a9.9,9.9,0,0,1,5.25-1.71c3.25,0,4.74,2.06,4.74,5.52v7.84h-2.22l-.22-1.5h-.09a6.48,6.48,0,0,1-4.15,1.8A3.59,3.59,0,0,1,115.14,18.48Zm7.79.09V15.38c-3.86.45-5.16,1.44-5.16,2.91,0,1.28.87,1.8,2,1.8A4.61,4.61,0,0,0,122.93,18.57Z"/><path class="cls-2" d="M129.51,8.91h2.23l.21,1.8H132a6.22,6.22,0,0,1,4.31-2.13c2.77,0,4,1.85,4,5.16v8.2h-2.72V14.07c0-2.24-.66-3.15-2.2-3.15-1.21,0-2,.62-3.17,1.78v9.24h-2.73Z"/><path class="cls-2" d="M149.86,4.48h5.39c3.58,0,6.16,1.16,6.16,4.31a3.88,3.88,0,0,1-2.48,3.77v.12a4,4,0,0,1,3.43,4.14c0,3.46-2.82,5.12-6.68,5.12h-5.82Zm5.09,7.3c2.65,0,3.76-1,3.76-2.63,0-1.82-1.23-2.51-3.69-2.51H152.6v5.14Zm.42,8c2.73,0,4.29-1,4.29-3.1,0-2-1.52-2.84-4.29-2.84H152.6v5.94Z"/><path class="cls-2" d="M164.66,18.48c0-2.8,2.37-4.24,7.79-4.83,0-1.52-.57-2.84-2.49-2.84a7.14,7.14,0,0,0-3.76,1.32l-1-1.84a9.91,9.91,0,0,1,5.26-1.71c3.24,0,4.73,2.06,4.73,5.52v7.84H173l-.22-1.5h-.09a6.48,6.48,0,0,1-4.14,1.8A3.6,3.6,0,0,1,164.66,18.48Zm7.79.09V15.38c-3.86.45-5.16,1.44-5.16,2.91,0,1.28.87,1.8,2,1.8A4.61,4.61,0,0,0,172.45,18.57Z"/><path class="cls-2" d="M179,8.91h2.22l.21,2.35h.07a4.52,4.52,0,0,1,3.7-2.68,3.41,3.41,0,0,1,1.47.28l-.5,2.37a3.9,3.9,0,0,0-1.3-.21c-1.07,0-2.35.73-3.15,2.79v8.13H179Z"/><path class="cls-2" d="M188.56,17.11V8.91h2.72v7.86c0,2.23.64,3.13,2.18,3.13,1.21,0,2-.57,3.12-1.94v-9h2.73v13h-2.23l-.21-2h-.07a5.48,5.48,0,0,1-4.24,2.27C189.76,22.24,188.56,20.42,188.56,17.11Z"/></svg>