<svg id="レイヤー_1" data-name="レイヤー 1" xmlns="http://www.w3.org/2000/svg" viewBox="0 0 111 25"><defs><style>.cls-1{fill:#fff;}.cls-2{fill:#e86d99;}</style></defs><path class="cls-1" d="M7.85,20.05H4.3a1.71,1.71,0,0,1-1.71-1.72V13.66A1.71,1.71,0,0,1,1,12v-1A1.71,1.71,0,0,1,2.59,9.23V5.05A1.71,1.71,0,0,1,4.3,3.33H7.75c5.08,0,8.11,3.11,8.11,8.31S12.79,20.05,7.85,20.05Zm.26-6.38v1.21A2,2,0,0,0,10,13.5a1.63,1.63,0,0,1-.73.17ZM2.72,10.94h0ZM8.11,9.13H9.26a1.74,1.74,0,0,1,.39,0A2.1,2.1,0,0,0,8.11,8.5Z"/><path class="cls-1" d="M19.07,20.28a4.45,4.45,0,0,1-4.64-4.58,4.28,4.28,0,0,1,1.72-3.57,1.7,1.7,0,0,1-.33-.43L15,10.29A1.72,1.72,0,0,1,15.63,8a11,11,0,0,1,1.55-.82,5.06,5.06,0,0,1-1.5-3.45A1.71,1.71,0,0,1,17.12,2l1.24-.2a1.71,1.71,0,0,1,2,1.45c.07.47.24.47.31.47s.23,0,.3-.47a1.71,1.71,0,0,1,2-1.45l1.24.2a1.71,1.71,0,0,1,1.44,1.79,4.93,4.93,0,0,1-1.78,3.69,5.88,5.88,0,0,1,2.06,4.94v6a1.72,1.72,0,0,1-1.72,1.72H22.46a1.75,1.75,0,0,1-1-.32A5.56,5.56,0,0,1,19.07,20.28Z"/><path class="cls-1" d="M35.33,20.05H33.25a1.72,1.72,0,0,1-1.71-1.72v-6a4.27,4.27,0,0,0-.05-.68c-.12,0-.28.07-.61.36v6.3a1.72,1.72,0,0,1-1.72,1.72H27.09a1.72,1.72,0,0,1-1.72-1.72V8.42A1.72,1.72,0,0,1,27.09,6.7h1.69a1.71,1.71,0,0,1,1,.35,5.35,5.35,0,0,1,2.46-.6C33.71,6.45,37,7,37,12.09v6.24A1.71,1.71,0,0,1,35.33,20.05Z"/><path class="cls-1" d="M41.73,24.5c-4.3,0-5.83-2.33-5.83-4.33a3.88,3.88,0,0,1,.85-2.39,3.76,3.76,0,0,1-.31-1.5,3.57,3.57,0,0,1,.57-1.9,5.08,5.08,0,0,1-.77-2.66A5.3,5.3,0,0,1,41.8,6.45a5.92,5.92,0,0,1,1.72.25h3.24a1.72,1.72,0,0,1,1.71,1.72V10a1.71,1.71,0,0,1-1.24,1.65v.17a5,5,0,0,1-1.56,3.69,3.82,3.82,0,0,1,3,3.84C48.64,22.32,45.73,24.5,41.73,24.5Zm2-4.17h0Zm-1.9-9h-.07a.68.68,0,0,0-.07.36s0,.42.16.42.16-.42.16-.42a.68.68,0,0,0-.08-.37Z"/><path class="cls-1" d="M61.45,20.05H59.2a1.72,1.72,0,0,1-1.48-.84l-1.15-1.92v1a1.72,1.72,0,0,1-1.72,1.72h-2a1.72,1.72,0,0,1-1.71-1.72V4a1.72,1.72,0,0,1,1.71-1.72h2A1.72,1.72,0,0,1,56.57,4V8.41l.85-1.07a1.74,1.74,0,0,1,1.34-.64h2.31a1.71,1.71,0,0,1,1.55,1,1.68,1.68,0,0,1-.23,1.82l-2.55,3.08,3.06,4.82A1.74,1.74,0,0,1,63,19.16,1.71,1.71,0,0,1,61.45,20.05Z"/><path class="cls-1" d="M63.63,24.19a5.38,5.38,0,0,1-1.84-.3,1.71,1.71,0,0,1-1.07-2l.4-1.62a1.68,1.68,0,0,1,.81-1.08A1.7,1.7,0,0,1,63.27,19l.28.08c.16,0,.36-.58.4-.7v0l-3.71-9.3a1.73,1.73,0,0,1,.18-1.6,1.7,1.7,0,0,1,1.42-.75h2.27a1.73,1.73,0,0,1,.08-2.13l3-3.47A1.76,1.76,0,0,1,68.37.5,1.71,1.71,0,0,1,69.64,1l1.45,1.37a1.74,1.74,0,0,1,.53,1.25,1.72,1.72,0,0,1-.54,1.25l-2,1.86h2.09A1.72,1.72,0,0,1,72.81,9L69.16,19.49C68.69,20.79,67.45,24.19,63.63,24.19Zm2.1-16,.91,2.52.8-2.55A1.74,1.74,0,0,1,65.73,8.23Z"/><path class="cls-1" d="M91,20.05H89a1.72,1.72,0,0,1-1.72-1.72v-6a4.43,4.43,0,0,0,0-.64,2.34,2.34,0,0,0-.42.31v6.31a1.72,1.72,0,0,1-1.72,1.72H83a1.72,1.72,0,0,1-1.72-1.72v-6a3.14,3.14,0,0,0,0-.63,2.36,2.36,0,0,0-.4.29v6.32a1.72,1.72,0,0,1-1.71,1.72H77a1.71,1.71,0,0,1-1.71-1.72V8.42A1.71,1.71,0,0,1,77,6.7h1.7a1.73,1.73,0,0,1,1,.32A5,5,0,0,1,82,6.45a4.53,4.53,0,0,1,3,1,5,5,0,0,1,3-1c1.12,0,4.77.41,4.77,5.64v6.24A1.72,1.72,0,0,1,91,20.05Z"/><path class="cls-1" d="M98,20.28c-3.64,0-6.38-3-6.38-6.9a6.78,6.78,0,0,1,4-6.48,1.72,1.72,0,0,1-.08-2.32l3-3.47A1.71,1.71,0,0,1,101,1l1.42,1.37a1.71,1.71,0,0,1,.47.78,1.75,1.75,0,0,1,1.36.77,4.91,4.91,0,0,1,.81,2.64,4.38,4.38,0,0,1-1.47,3.36,7.75,7.75,0,0,1,.79,3.48A6.51,6.51,0,0,1,98,20.28Zm0-8.69c-.64,0-.81,1.12-.81,1.79,0,.07,0,1.77.81,1.77s.82-1.59.82-1.77S98.81,11.59,98,11.59Z"/><path class="cls-1" d="M107.17,20.05h-2.08a1.72,1.72,0,0,1-1.71-1.72V8.42a1.75,1.75,0,0,1,.44-1.16,2.93,2.93,0,0,1-.7-1.94,3,3,0,0,1,6,0,2.91,2.91,0,0,1-.71,1.94,1.69,1.69,0,0,1,.45,1.16v9.91A1.72,1.72,0,0,1,107.17,20.05Zm-1-15.21a.56.56,0,0,0-.42.48.55.55,0,0,0,.42.49.57.57,0,0,0,.44-.49A.58.58,0,0,0,106.12,4.84Z"/><path class="cls-2" d="M4.3,12H2.72v-1l1.58-.09V5.05H7.75c4.07,0,6.39,2.27,6.39,6.59s-2.32,6.69-6.29,6.69H4.3Zm3.3,4.67c2.85,0,4.38-1.68,4.38-5S10.45,6.76,7.6,6.76H6.39v4.09H9.26V12H6.39v4.67Z"/><path class="cls-2" d="M16.15,15.7c0-2.13,1.8-3.23,5.93-3.68,0-1.15-.44-2.16-1.9-2.16a5.46,5.46,0,0,0-2.86,1l-.78-1.41a7.61,7.61,0,0,1,4-1.29c2.46,0,3.6,1.56,3.6,4.2v6H22.46l-.17-1.13h-.07a4.94,4.94,0,0,1-3.15,1.37A2.74,2.74,0,0,1,16.15,15.7ZM17.39,3.64l1.24-.2a2,2,0,0,0,4,0l1.24.2a3,3,0,0,1-3.24,3.12A3.05,3.05,0,0,1,17.39,3.64Zm4.69,12.13V13.34c-2.94.34-3.93,1.1-3.93,2.22s.66,1.37,1.55,1.37A3.51,3.51,0,0,0,22.08,15.77Z"/><path class="cls-2" d="M27.09,8.42h1.69L29,9.79H29a4.74,4.74,0,0,1,3.28-1.62c2.11,0,3,1.4,3,3.92v6.24H33.25v-6c0-1.71-.5-2.4-1.67-2.4a3.35,3.35,0,0,0-2.42,1.35v7H27.09Z"/><path class="cls-2" d="M37.62,20.17A2.61,2.61,0,0,1,39.06,18v-.09a1.84,1.84,0,0,1-.9-1.64,2.4,2.4,0,0,1,1.12-1.84v-.07A3.36,3.36,0,0,1,38,11.72,3.57,3.57,0,0,1,41.8,8.17a4,4,0,0,1,1.44.25h3.52V10h-1.9a2.65,2.65,0,0,1,.65,1.82A3.39,3.39,0,0,1,41.8,15.2a3.42,3.42,0,0,1-1.39-.31,1.3,1.3,0,0,0-.54,1c0,.6.4,1,1.66,1h1.82c2.34,0,3.57.72,3.57,2.41,0,1.91-2,3.46-5.19,3.46C39.35,22.78,37.62,21.9,37.62,20.17Zm7.3-.52c0-.83-.65-1.08-1.86-1.08H41.57a6.39,6.39,0,0,1-1.34-.15,1.8,1.8,0,0,0-.85,1.44c0,1,1,1.55,2.65,1.55S44.92,20.57,44.92,19.65Zm-1.25-7.93a1.88,1.88,0,1,0-3.74,0,1.89,1.89,0,1,0,3.74,0Z"/><path class="cls-2" d="M52.81,4h2v9.24h.07l3.84-4.79h2.31l-3.35,4,3.73,5.87H59.2l-2.69-4.49-1.66,1.91v2.58h-2Z"/><path class="cls-2" d="M62.39,22.28l.39-1.62a2.87,2.87,0,0,0,.72.14c1.09,0,1.72-.79,2.08-1.86l.2-.68L61.85,8.42H64l1.84,5.1c.29.88.6,1.87.9,2.79h.09c.26-.9.53-1.89.78-2.79l1.58-5.1h2L67.54,18.93c-.77,2.12-1.82,3.55-3.91,3.55A3.66,3.66,0,0,1,62.39,22.28ZM65.51,5.7l2.95-3.48L69.9,3.59,66.55,6.72Z"/><path class="cls-2" d="M77,8.42h1.7l.16,1.39h0A4.33,4.33,0,0,1,82,8.17,2.65,2.65,0,0,1,84.76,10,4.54,4.54,0,0,1,88,8.17c2.08,0,3,1.4,3,3.92v6.24H89v-6c0-1.71-.54-2.4-1.66-2.4a3.31,3.31,0,0,0-2.24,1.35v7H83v-6c0-1.71-.52-2.4-1.66-2.4a3.28,3.28,0,0,0-2.21,1.35v7H77Z"/><path class="cls-2" d="M93.32,13.38c0-3.3,2.22-5.21,4.67-5.21a4.71,4.71,0,0,1,1.93.41,1.76,1.76,0,0,0,1.64-1.89,2.12,2.12,0,0,0-.31-1.12l1.57-.72a3.16,3.16,0,0,1,.52,1.69,2.87,2.87,0,0,1-2.29,2.82,5.24,5.24,0,0,1,1.61,4c0,3.29-2.22,5.19-4.67,5.19S93.32,16.67,93.32,13.38Zm7.21,0c0-2.1-1-3.5-2.54-3.5s-2.52,1.4-2.52,3.5,1,3.49,2.52,3.49S100.53,15.48,100.53,13.38ZM96.85,5.7l3-3.48,1.42,1.37L97.9,6.72Z"/><path class="cls-2" d="M104.84,5.32a1.19,1.19,0,0,1,1.28-1.23,1.21,1.21,0,0,1,1.3,1.23,1.21,1.21,0,0,1-1.3,1.24A1.19,1.19,0,0,1,104.84,5.32Zm.25,3.1h2.08v9.91h-2.08Z"/></svg>