<svg id="レイヤー_1" data-name="レイヤー 1" xmlns="http://www.w3.org/2000/svg" viewBox="0 0 90 35"><defs><style>.cls-1{fill:#e86d99;}.cls-2{fill:#fff;}</style></defs><g id="新規登録"><path class="cls-1" d="M11.43,29.39c-.42-.5-1.26-1.34-2-2.08v5H7.5V27.37a16,16,0,0,1-3.14,3.54A7.39,7.39,0,0,0,3.1,29.5a14.38,14.38,0,0,0,4-4.42H3.61V23.42H7.5V21.51h-4V19.85H5.71A9.9,9.9,0,0,0,5,17.13l1.43-.35H3.82V15.16H7.5v-2H9.39v2h3.68v1.62H10.52l1.48.33c-.4,1-.8,2-1.16,2.74H13.3v1.66H9.39v1.91h3.72v1.66H9.39v.36c.76.52,2.69,2.1,3.17,2.5ZM6.49,16.78a9.85,9.85,0,0,1,.84,2.75l-1.22.32h4.62l-1.45-.32a19.83,19.83,0,0,0,1-2.75Zm16.17,5H20.45V32.21H18.56V21.8H15.84V22c0,3.11-.37,7.49-3.28,10.41a4.68,4.68,0,0,0-1.38-1.35C13.72,28.47,14,24.87,14,22V14.69l1.31.38a27,27,0,0,0,5.59-1.81l1.58,1.41a32.07,32.07,0,0,1-6.61,1.92V20h6.82Z"/><path class="cls-2" d="M12.56,34.5l-.29,0a2.08,2.08,0,0,1-1.34-.76,2.07,2.07,0,0,1-1.54.68H7.5a2.1,2.1,0,0,1-2.06-1.69,2.11,2.11,0,0,1-2.83-.64,5.58,5.58,0,0,0-.86-1,2.11,2.11,0,0,1,.19-3.37,7.6,7.6,0,0,0,.9-.7,2.12,2.12,0,0,1-1.34-2V23.42a2.19,2.19,0,0,1,.2-.89,2.21,2.21,0,0,1-.26-1V19.85a2.11,2.11,0,0,1,.82-1.67,2.06,2.06,0,0,1-.55-1.4V15.16a2.12,2.12,0,0,1,2.11-2.11H5.4a2.09,2.09,0,0,1,2.1-2H9.39a2.11,2.11,0,0,1,2.1,2h1.17l.05,0a2.1,2.1,0,0,1,1.85-.33l.77.22a23.64,23.64,0,0,0,4.57-1.5,2.11,2.11,0,0,1,2.37.3l1.58,1.41a2.11,2.11,0,0,1-.54,3.48,25.19,25.19,0,0,1-3.76,1.3h3.11a2.1,2.1,0,0,1,2.1,2.1V21.8a2.1,2.1,0,0,1-2.1,2.1h-.11v8.31a2.1,2.1,0,0,1-2.1,2.1H18.56a2.11,2.11,0,0,1-2.11-2.1V30.32a11.85,11.85,0,0,1-2.39,3.56A2.12,2.12,0,0,1,12.56,34.5Z"/><path class="cls-1" d="M31.59,29.2a40.76,40.76,0,0,0-2.46-3.3,10.46,10.46,0,0,1-3.49,6.16,7.35,7.35,0,0,0-1.35-1.39c2.52-1.87,3.22-4.92,3.41-7.69H24.5V21.19h3.26V18.12H24.9V16.38h2.86V13.24h1.83v3.14h2.82v1.74H29.59v3.07h3.18V23H29.53c0,.29-.07.61-.09.9.87.84,3,3.26,3.49,3.89Zm10.11,1c.38,0,.46-.29.53-2.65a4.37,4.37,0,0,0,1.59.74c-.14,2.9-.6,3.64-2,3.64H40.31c-1.62,0-2-.57-2-2.3V25.59H36.84c-.37,3.11-1.38,5.42-5,6.72a5.21,5.21,0,0,0-1.09-1.45c3.13-1,3.91-2.84,4.22-5.27H33.48V13.81h9.06V25.59H40.17v4.05c0,.53.06.59.46.59Zm-6.39-13h5.36V15.58H35.31Zm0,3.3h5.36V18.82H35.31Zm0,3.28h5.36v-1.7H35.31Z"/><path class="cls-2" d="M31.86,34.42A2.12,2.12,0,0,1,30,33.25a3.46,3.46,0,0,0-.53-.75,2,2,0,0,1-.6-.76A10.91,10.91,0,0,1,27,33.69a2.1,2.1,0,0,1-3.06-.44,5.31,5.31,0,0,0-.84-.88A2.09,2.09,0,0,1,23,29a6.3,6.3,0,0,0,2.26-3.91h-.8A2.1,2.1,0,0,1,22.4,23V21.19a2.1,2.1,0,0,1,.89-1.72,2.05,2.05,0,0,1-.49-1.35V16.38a2.11,2.11,0,0,1,2.1-2.11h.76v-1a2.1,2.1,0,0,1,2.1-2.1h1.83a2.1,2.1,0,0,1,2.05,1.65,2.1,2.1,0,0,1,1.84-1.08h9.06a2.1,2.1,0,0,1,2.1,2.1V25.59a2,2,0,0,1-.13.74,2.09,2.09,0,0,1,1.41,2.1c-.09,1.82-.28,5.63-4.05,5.63H40.31c-2.37,0-3.35-1.13-3.76-2.28a9.81,9.81,0,0,1-4,2.51A2,2,0,0,1,31.86,34.42Z"/><path class="cls-1" d="M64.26,16.67a31.1,31.1,0,0,1-3,2.33,13.63,13.63,0,0,0,3.6,2.09,6.57,6.57,0,0,0-1.3,1.62,15.78,15.78,0,0,1-4.71-3.35v1H51.2v-.86A17.43,17.43,0,0,1,46.28,23a7.24,7.24,0,0,0-1.16-1.41A14.77,14.77,0,0,0,49,19.07a15.36,15.36,0,0,0-2.5-2l1-1.07A12.63,12.63,0,0,1,50.19,18a12.87,12.87,0,0,0,1.89-2.52H47.29V13.81H53l.34-.08,1.26.65A14.1,14.1,0,0,1,52,18.71h6.31a19,19,0,0,1-3.24-5.11l1.66-.5A14.14,14.14,0,0,0,58,15.47a20.23,20.23,0,0,0,2.44-2.25l1.47,1a33.19,33.19,0,0,1-3,2.4A17.14,17.14,0,0,0,60.18,18a20.62,20.62,0,0,0,2.63-2.36Zm-4.42,11c-.46.94-1,1.89-1.39,2.6h5.66v1.64h-18V30.23h5.4a12.16,12.16,0,0,0-1.09-2.52l1.16-.32H49.18V21.86H60.94v5.53h-2Zm-8.77-1.81h7.87V23.46H51.07Zm1.18,1.57A9.72,9.72,0,0,1,53.45,30l-.84.23h4.62l-.65-.17a19.49,19.49,0,0,0,1.31-2.67Z"/><path class="cls-2" d="M64.11,34h-18a2.1,2.1,0,0,1-2.1-2.1V30.23a2.1,2.1,0,0,1,2.1-2.1h1.14a2.26,2.26,0,0,1-.13-.74V24.9A2.11,2.11,0,0,1,44.46,24a5.29,5.29,0,0,0-.73-.89,2.11,2.11,0,0,1-.68-1.92,2.08,2.08,0,0,1,1.27-1.59A10.57,10.57,0,0,0,45.58,19l-.17-.11A2.1,2.1,0,0,1,45,15.62l.16-.16V13.81a2.1,2.1,0,0,1,2.1-2.1l5.57,0a2.13,2.13,0,0,1,1.2.05,2.5,2.5,0,0,1,.38-.15l1.66-.51a2.11,2.11,0,0,1,2.49,1.08l.3-.32a2.09,2.09,0,0,1,2.8-.33l1.48,1.05A2.18,2.18,0,0,1,64,13.92h0l1.46,1a2.1,2.1,0,0,1,.19,3.27l-.69.6c.22.11.45.2.67.29a2.1,2.1,0,0,1,.63,3.56,5.21,5.21,0,0,0-.83,1,2.1,2.1,0,0,1-2.41,1v2.66a2.26,2.26,0,0,1-.13.74h1.2a2.1,2.1,0,0,1,2.1,2.1v1.64A2.1,2.1,0,0,1,64.11,34Z"/><path class="cls-1" d="M78.82,28.07c-1.28,1-2.67,2-3.89,2.84l-.5-.89,0,.17c-2.63.57-5.38,1.16-7.48,1.58L66.57,30c.92-.15,2.06-.36,3.3-.59V23.46H66.8v-1.7h3.07V19.85h-2v-.93l-.65.61A5.67,5.67,0,0,0,66,18.29,14.33,14.33,0,0,0,69.8,13h1.66A24.84,24.84,0,0,1,75,16.71l-1.27,1.47h.17v1.67H71.57v1.91h2.84v1.7H71.57v5.62l2.73-.53,0,.57c1.05-.65,2.46-1.58,3.89-2.53ZM68.44,24.41a19.47,19.47,0,0,1,.82,3.8l-1.39.36a17.9,17.9,0,0,0-.72-3.83Zm5.23-6.23a22,22,0,0,0-2.77-3.32,20.46,20.46,0,0,1-2.38,3.32ZM72.1,27.86a27.16,27.16,0,0,0,.82-3.62l1.47.38c-.36,1.22-.74,2.63-1,3.57ZM82,25.29a9.62,9.62,0,0,0,4,4.25,8.32,8.32,0,0,0-1.26,1.6,11.33,11.33,0,0,1-4-4.8v4c0,.88-.12,1.37-.69,1.66a6.17,6.17,0,0,1-2.5.3,6.88,6.88,0,0,0-.49-1.71c.7,0,1.37,0,1.58,0s.29-.08.29-.31V21.65H74.51V20h7.7V18.48H76V16.94h6.2V15.45H75.59V13.81H84V20h1.64v1.68H80.84v.53a17,17,0,0,0,1,2.84,17.73,17.73,0,0,0,2.21-2.78l1.54,1A32.06,32.06,0,0,1,83,26Zm-5.91-2.71a12.71,12.71,0,0,1,2.25,2.71L77,26.24a11.94,11.94,0,0,0-2.14-2.82Z"/><path class="cls-2" d="M77.65,34.44a2.11,2.11,0,0,1-2-1.55,2.14,2.14,0,0,1-1.15.07,2.33,2.33,0,0,1-.88-.43c-2.22.47-4.45.95-6.21,1.3a2.11,2.11,0,0,1-2.47-1.6l-.4-1.79a2.11,2.11,0,0,1,.32-1.64,2.07,2.07,0,0,1,.89-.74,17.55,17.55,0,0,0-.58-2.71,1.92,1.92,0,0,1-.08-.71,2.09,2.09,0,0,1-.37-1.18v-1.7a2.09,2.09,0,0,1,.51-1.37,4.16,4.16,0,0,0-.41-.38,2.13,2.13,0,0,1-.89-1.63,2.07,2.07,0,0,1,.74-1.69,12.3,12.3,0,0,0,3.22-4.45,2.1,2.1,0,0,1,1.94-1.31h1.66a2.1,2.1,0,0,1,1.38.51c.35.31.74.66,1.13,1a2.11,2.11,0,0,1,1.62-.76H84a2.1,2.1,0,0,1,2.1,2.1v4.11a2.1,2.1,0,0,1,1.64,2v1.68a2.17,2.17,0,0,1-.16.81,2.14,2.14,0,0,1-.36,2.11c-.57.67-1.19,1.35-1.77,1.95A6.4,6.4,0,0,0,87,27.67a2.13,2.13,0,0,1,1.12,1.57,2.09,2.09,0,0,1-.64,1.83,6.37,6.37,0,0,0-.87,1.1,2.11,2.11,0,0,1-2.94.75,9.35,9.35,0,0,1-1-.74,3.18,3.18,0,0,1-1.55,1.73A7.56,7.56,0,0,1,77.65,34.44Z"/><path class="cls-1" d="M11.43,29.39c-.42-.5-1.26-1.34-2-2.08v5H7.5V27.37a16,16,0,0,1-3.14,3.54A7.39,7.39,0,0,0,3.1,29.5a14.38,14.38,0,0,0,4-4.42H3.61V23.42H7.5V21.51h-4V19.85H5.71A9.9,9.9,0,0,0,5,17.13l1.43-.35H3.82V15.16H7.5v-2H9.39v2h3.68v1.62H10.52l1.48.33c-.4,1-.8,2-1.16,2.74H13.3v1.66H9.39v1.91h3.72v1.66H9.39v.36c.76.52,2.69,2.1,3.17,2.5ZM6.49,16.78a9.85,9.85,0,0,1,.84,2.75l-1.22.32h4.62l-1.45-.32a19.83,19.83,0,0,0,1-2.75Zm16.17,5H20.45V32.21H18.56V21.8H15.84V22c0,3.11-.37,7.49-3.28,10.41a4.68,4.68,0,0,0-1.38-1.35C13.72,28.47,14,24.87,14,22V14.69l1.31.38a27,27,0,0,0,5.59-1.81l1.58,1.41a32.07,32.07,0,0,1-6.61,1.92V20h6.82Z"/><path class="cls-1" d="M31.59,29.2a40.76,40.76,0,0,0-2.46-3.3,10.46,10.46,0,0,1-3.49,6.16,7.35,7.35,0,0,0-1.35-1.39c2.52-1.87,3.22-4.92,3.41-7.69H24.5V21.19h3.26V18.12H24.9V16.38h2.86V13.24h1.83v3.14h2.82v1.74H29.59v3.07h3.18V23H29.53c0,.29-.07.61-.09.9.87.84,3,3.26,3.49,3.89Zm10.11,1c.38,0,.46-.29.53-2.65a4.37,4.37,0,0,0,1.59.74c-.14,2.9-.6,3.64-2,3.64H40.31c-1.62,0-2-.57-2-2.3V25.59H36.84c-.37,3.11-1.38,5.42-5,6.72a5.21,5.21,0,0,0-1.09-1.45c3.13-1,3.91-2.84,4.22-5.27H33.48V13.81h9.06V25.59H40.17v4.05c0,.53.06.59.46.59Zm-6.39-13h5.36V15.58H35.31Zm0,3.3h5.36V18.82H35.31Zm0,3.28h5.36v-1.7H35.31Z"/><path class="cls-1" d="M64.26,16.67a31.1,31.1,0,0,1-3,2.33,13.63,13.63,0,0,0,3.6,2.09,6.57,6.57,0,0,0-1.3,1.62,15.78,15.78,0,0,1-4.71-3.35v1H51.2v-.86A17.43,17.43,0,0,1,46.28,23a7.24,7.24,0,0,0-1.16-1.41A14.77,14.77,0,0,0,49,19.07a15.36,15.36,0,0,0-2.5-2l1-1.07A12.63,12.63,0,0,1,50.19,18a12.87,12.87,0,0,0,1.89-2.52H47.29V13.81H53l.34-.08,1.26.65A14.1,14.1,0,0,1,52,18.71h6.31a19,19,0,0,1-3.24-5.11l1.66-.5A14.14,14.14,0,0,0,58,15.47a20.23,20.23,0,0,0,2.44-2.25l1.47,1a33.19,33.19,0,0,1-3,2.4A17.14,17.14,0,0,0,60.18,18a20.62,20.62,0,0,0,2.63-2.36Zm-4.42,11c-.46.94-1,1.89-1.39,2.6h5.66v1.64h-18V30.23h5.4a12.16,12.16,0,0,0-1.09-2.52l1.16-.32H49.18V21.86H60.94v5.53h-2Zm-8.77-1.81h7.87V23.46H51.07Zm1.18,1.57A9.72,9.72,0,0,1,53.45,30l-.84.23h4.62l-.65-.17a19.49,19.49,0,0,0,1.31-2.67Z"/><path class="cls-1" d="M78.82,28.07c-1.28,1-2.67,2-3.89,2.84l-.5-.89,0,.17c-2.63.57-5.38,1.16-7.48,1.58L66.57,30c.92-.15,2.06-.36,3.3-.59V23.46H66.8v-1.7h3.07V19.85h-2v-.93l-.65.61A5.67,5.67,0,0,0,66,18.29,14.33,14.33,0,0,0,69.8,13h1.66A24.84,24.84,0,0,1,75,16.71l-1.27,1.47h.17v1.67H71.57v1.91h2.84v1.7H71.57v5.62l2.73-.53,0,.57c1.05-.65,2.46-1.58,3.89-2.53ZM68.44,24.41a19.47,19.47,0,0,1,.82,3.8l-1.39.36a17.9,17.9,0,0,0-.72-3.83Zm5.23-6.23a22,22,0,0,0-2.77-3.32,20.46,20.46,0,0,1-2.38,3.32ZM72.1,27.86a27.16,27.16,0,0,0,.82-3.62l1.47.38c-.36,1.22-.74,2.63-1,3.57ZM82,25.29a9.62,9.62,0,0,0,4,4.25,8.32,8.32,0,0,0-1.26,1.6,11.33,11.33,0,0,1-4-4.8v4c0,.88-.12,1.37-.69,1.66a6.17,6.17,0,0,1-2.5.3,6.88,6.88,0,0,0-.49-1.71c.7,0,1.37,0,1.58,0s.29-.08.29-.31V21.65H74.51V20h7.7V18.48H76V16.94h6.2V15.45H75.59V13.81H84V20h1.64v1.68H80.84v.53a17,17,0,0,0,1,2.84,17.73,17.73,0,0,0,2.21-2.78l1.54,1A32.06,32.06,0,0,1,83,26Zm-5.91-2.71a12.71,12.71,0,0,1,2.25,2.71L77,26.24a11.94,11.94,0,0,0-2.14-2.82Z"/></g><path class="cls-2" d="M8.35,12.26c-2.85,0-4.54-1.73-4.54-4.64,0-1.29.06-4.12.13-5.34A1.58,1.58,0,0,1,5.59.8L7.25.88a1.58,1.58,0,0,1,1.15.58,1.6,1.6,0,0,1,.33,1.25,1.84,1.84,0,0,1-.32.76c-.07,1.29-.13,3-.13,4.15a1.56,1.56,0,0,0,0,.24h.07a3.21,3.21,0,0,0,2-1.13,1.55,1.55,0,0,1,1.34-.44,1.58,1.58,0,0,1,1.16.81,7.57,7.57,0,0,0,.49.79,1.62,1.62,0,0,1-.07,2.16A6.89,6.89,0,0,1,8.35,12.26Z"/><path class="cls-2" d="M19.65,12.26a3.32,3.32,0,0,1-3.08-1.69c-.06.18-.12.36-.17.54a1.6,1.6,0,0,1-.78.93,1.52,1.52,0,0,1-1.2.11l-1.23-.38a1.58,1.58,0,0,1-1-2C12.75,8,14,4.46,14.3,3.56c.2-.54.48-1.4.53-1.63A1.59,1.59,0,0,1,16.73.76l1.65.4a1.59,1.59,0,0,1,1,.76,1.63,1.63,0,0,1,.12,1.26,1.86,1.86,0,0,1-.71,1l-.15.38a2.64,2.64,0,0,1,1.68,1.34,1.53,1.53,0,0,1,.55-.33,1.58,1.58,0,0,1,1.44.21,6.62,6.62,0,0,0,.87.52A1.58,1.58,0,0,1,24,8.17C23,11.55,21.06,12.26,19.65,12.26Z"/><path class="cls-2" d="M34.87,12.33h-.73c-3.25,0-4.4-1.79-4.4-3.27a2.7,2.7,0,0,1,.2-1A1.55,1.55,0,0,1,28.8,6.54l0-1a1.56,1.56,0,0,1,.46-1.14l.14-.13V3.51a1.6,1.6,0,0,1,.5-1.13A1.57,1.57,0,0,1,31.06,2l.57,0A1.58,1.58,0,0,1,32,1.11a1.55,1.55,0,0,1,1.2-.52l1.53,0a1.56,1.56,0,0,1,1.42,1l.31-.09a1.56,1.56,0,0,1,2.07,1.14l.19.8a1.59,1.59,0,0,1,.71,1l.2,1a1.58,1.58,0,0,1-1,1.79l-.22.07a1.52,1.52,0,0,1-.29,1.07l-.28.4a1.54,1.54,0,0,1,.18.82L38,10.77a1.57,1.57,0,0,1-1.41,1.48A16.38,16.38,0,0,1,34.87,12.33Z"/><path class="cls-2" d="M50,12.37c-4.46,0-4.94-2.59-4.94-3.7a4.23,4.23,0,0,1,2.05-3.34,17.62,17.62,0,0,1-.17-3.14A1.58,1.58,0,0,1,47.39,1,1.6,1.6,0,0,1,48.58.63L50.3.76a1.59,1.59,0,0,1,1.45,1.68,1.89,1.89,0,0,1-.24.79L52.28,3a1.58,1.58,0,0,1,2,1l.4,1.38a1.58,1.58,0,0,1-1,1.94,2.28,2.28,0,0,1-.78.08A18.83,18.83,0,0,0,51,8a18.64,18.64,0,0,0,2-.21,1.63,1.63,0,0,1,1.23.3,1.58,1.58,0,0,1,.61,1.11L55,10.46a1.57,1.57,0,0,1-1.37,1.71C52.42,12.33,50.42,12.37,50,12.37Zm3.8-7.91Z"/><path class="cls-2" d="M58.74,12.51a1.56,1.56,0,0,1-1.37-.8,5.9,5.9,0,0,0-.58-.74,1.57,1.57,0,0,1,.76-2.62,5.43,5.43,0,0,0,2-.85,11.63,11.63,0,0,0-1.63.44,2.13,2.13,0,0,1-.62.4,1.57,1.57,0,0,1-1.24,0,1.56,1.56,0,0,1-.84-.92L54.76,6a1.6,1.6,0,0,1,.1-1.25,1.63,1.63,0,0,1,1-.78L56,3.9a1.65,1.65,0,0,1,0-1l.31-1.16A1.58,1.58,0,0,1,57.91.62a18.25,18.25,0,0,1,4.21.71,1.56,1.56,0,0,1,1,1.9L63,3.92l.33.29A3.82,3.82,0,0,1,64.37,7c0,2.56-1.75,4.38-5.18,5.41A1.74,1.74,0,0,1,58.74,12.51Z"/><path class="cls-2" d="M70.22,12.33a1.58,1.58,0,0,1-1.55-1.28,3,3,0,0,0-.23-.63l-.06-.12h-.11a1.58,1.58,0,0,1-1.1-.45L66.32,9a1.59,1.59,0,0,1-.09-2.19c.32-.35.82-.88,1.4-1.47l-.06,0a1.58,1.58,0,0,1-.63-1.15l-.11-1.32a1.63,1.63,0,0,1,.41-1.2,1.6,1.6,0,0,1,1.16-.51c1.18,0,3.21-.14,3.83-.22a1.6,1.6,0,0,1,1.82.36l.86.94a1.57,1.57,0,0,1-.12,2.26l-.05,0a3.71,3.71,0,0,1,2,3.39c0,2.73-2.15,4.21-6.4,4.4Zm-3-9Zm6.1-1.52h0Z"/><path class="cls-2" d="M82.48,12.57a1.58,1.58,0,0,1-1.2-.55A26.08,26.08,0,0,0,77.8,8.83a2.9,2.9,0,0,1-1.32-2.44,2.78,2.78,0,0,1,1-2.08c1-.92,2.67-2.59,3.36-3.32a1.58,1.58,0,0,1,2-.24l1.38.89a1.55,1.55,0,0,1,.71,1.15,1.61,1.61,0,0,1-.45,1.29,2,2,0,0,1-.78.47L82.43,5.64l-.66.6a31,31,0,0,1,3,2.69,1.57,1.57,0,0,1,.46,1.21,1.59,1.59,0,0,1-.61,1.15l-1.23,1A1.59,1.59,0,0,1,82.48,12.57Z"/><path class="cls-1" d="M7.17,2.45c0,.12-.1.19-.29.22C6.8,4,6.7,6.21,6.7,7.62c0,1.24.63,1.81,1.66,1.81a4.56,4.56,0,0,0,3.11-1.59,7.83,7.83,0,0,0,.7,1.09,5.31,5.31,0,0,1-3.82,1.76c-2.14,0-3-1.17-3-3.07,0-1.29.07-4.08.14-5.25Z"/><path class="cls-1" d="M13.66,10.26c.58-1.74,1.81-5.28,2.13-6.17.2-.55.5-1.48.57-1.79L18,2.69c-.05.15-.17.23-.41.24-.4.91-1.16,2.91-1.51,3.86A2.67,2.67,0,0,1,17.86,6c.8,0,1.25.54,1.25,1.41,0,.17,0,1,0,1.22,0,.56.22.8.63.8.72,0,1.28-.85,1.7-2.41a6.85,6.85,0,0,0,1.13.67c-.59,1.86-1.49,3-2.88,3-1.18,0-1.87-.63-1.87-1.66,0-.17,0-1,0-1.22,0-.45-.13-.65-.39-.65-.9,0-1.83,1.33-2.11,2.15-.12.38-.29.87-.43,1.34Z"/><path class="cls-1" d="M38.11,5.81a13.3,13.3,0,0,1-2.67.52,3.36,3.36,0,0,0,1.41,1.2l-.67.94a2.33,2.33,0,0,0-1.49-.41,3.08,3.08,0,0,0-.53,0l-.29-.89.43,0,.42,0a4.35,4.35,0,0,1-.52-.75c-.7,0-1.46.07-2.07.07s-1.16,0-1.76,0l0-1,1.28,0c.74,0,1.49,0,2.23,0-.07-.24-.2-.62-.27-.94-.32,0-.74,0-1.11,0-.53,0-1,0-1.52,0v-1c.51,0,1,0,1.46,0,.29,0,.68,0,1,0-.08-.4-.15-.92-.21-1.37l1.53,0c0,.12-.09.2-.26.23,0,.31.07.7.13,1A10.68,10.68,0,0,0,37,3l.23,1a12,12,0,0,1-2.46.45c.09.33.17.7.25.94a13.29,13.29,0,0,0,2.86-.62ZM36.4,10.69a14.8,14.8,0,0,1-1.53.06h-.73c-1.67,0-2.83-.58-2.83-1.69a2,2,0,0,1,1.05-1.54l.8.74a1,1,0,0,0-.61.74c0,.67,1.11.69,1.79.69a20.11,20.11,0,0,0,2.12-.1Z"/><path class="cls-1" d="M53.2,5.82h-.1a.43.43,0,0,1-.22-.06c-2.9.78-5.05,1.82-5,2.85,0,.73.76,1,2.09,1a23.2,23.2,0,0,0,3.41-.26l.12,1.23c-1.11.14-3,.18-3.51.18-1.88,0-3.37-.46-3.37-2.12,0-1,.91-1.86,2.33-2.63a9.06,9.06,0,0,1-.45-3.84l1.72.13c0,.15-.11.23-.32.26,0,.27,0,.53,0,.78a7.06,7.06,0,0,0,.22,2.12c.82-.36,1.74-.71,2.73-1Z"/><path class="cls-1" d="M56.25,5.48a21.92,21.92,0,0,1,4.1-.81A2.2,2.2,0,0,1,62.8,7c0,1.86-1.4,3.1-4.06,3.9a6.31,6.31,0,0,0-.82-1.06c2.28-.56,3.53-1.58,3.53-2.78a1.1,1.1,0,0,0-1.17-1.26,10.53,10.53,0,0,0-3.35.79c0,.1-.11.2-.2.24Zm1.57-3.29a16.88,16.88,0,0,1,3.82.64l-.33,1.22a15.63,15.63,0,0,0-3.79-.7Z"/><path class="cls-1" d="M72.89,2.37l.87.94a.46.46,0,0,1-.27.09c-.72.56-2.33,2.1-2.92,2.7h0a4.92,4.92,0,0,1,2.06-.47,2.25,2.25,0,0,1,2.48,2.3c0,1.85-1.67,2.68-4.9,2.82a5.07,5.07,0,0,0-.41-1.11c2.89-.1,4-.63,4-1.68,0-.79-.65-1.27-1.6-1.27a5,5,0,0,0-3.09,1.16,10.42,10.42,0,0,0-.87.88l-.86-.83c.79-.88,3-3.14,4.13-4.24-.51.06-2.09.21-2.8.25a.39.39,0,0,1-.23.16L68.4,2.74a33.94,33.94,0,0,0,4.34-.29Z"/><path class="cls-1" d="M82.48,11a28.5,28.5,0,0,0-3.71-3.41c-.58-.45-.72-.72-.72-1.19a1.19,1.19,0,0,1,.46-.93c1-.9,2.68-2.6,3.43-3.39L83.31,3a.38.38,0,0,1-.37.11c-.89.82-2.25,2-3,2.73-.21.21-.43.41-.43.54s.24.35.59.59A31,31,0,0,1,83.71,10Z"/></svg>