<svg xmlns="http://www.w3.org/2000/svg" viewBox="0 0 83 22.44"><defs><style>.cls-1{fill:#e86d99;}.cls-2{fill:#fff;}</style></defs><g id="レイヤー_2" data-name="レイヤー 2"><g id="レイヤー_1-2" data-name="レイヤー 1"><g id="新規登録"><path class="cls-1" d="M9.93,17.58c-.4-.48-1.2-1.29-1.94-2v4.75H6.19V15.65A15.39,15.39,0,0,1,3.2,19,7.66,7.66,0,0,0,2,17.68a13.82,13.82,0,0,0,3.82-4.21H2.48V11.89H6.19V10.07H2.42V8.49H4.48a9.75,9.75,0,0,0-.7-2.59l1.36-.34H2.68V4H6.19V2.12H8V4h3.5V5.56H9.07l1.4.32c-.38,1-.76,1.93-1.1,2.61h2.34v1.58H8v1.82h3.54v1.58H8v.34c.72.5,2.56,2,3,2.38Zm-4.71-12A9.41,9.41,0,0,1,6,8.19l-1.16.3H9.27l-1.38-.3a18.94,18.94,0,0,0,.9-2.63Zm15.4,4.79h-2.1v9.91H16.71V10.35H14.13v.18c0,3-.36,7.13-3.12,9.91a4.48,4.48,0,0,0-1.32-1.28c2.42-2.47,2.66-5.89,2.66-8.65V3.58l1.24.36a26.53,26.53,0,0,0,5.33-1.72l1.5,1.34a30.58,30.58,0,0,1-6.29,1.82V8.63h6.49Z"/><path class="cls-2" d="M11,22.44l-.28,0a2,2,0,0,1-1.27-.72A2,2,0,0,1,8,22.34H6.19a2,2,0,0,1-2-1.6A2,2,0,0,1,2.88,21a2,2,0,0,1-1.34-.86,5.57,5.57,0,0,0-.83-.92A2,2,0,0,1,0,17.56,2,2,0,0,1,.9,16a9.16,9.16,0,0,0,.85-.67A2,2,0,0,1,.48,13.47V11.89A2,2,0,0,1,.67,11a2,2,0,0,1-.25-1V8.49A2,2,0,0,1,1.2,6.91,2,2,0,0,1,.68,5.56V4a2,2,0,0,1,2-2H4.19a2,2,0,0,1,2-1.9H8A2,2,0,0,1,10,2H11.1l.05,0a2,2,0,0,1,1.76-.32l.73.21A22.19,22.19,0,0,0,18,.44a2,2,0,0,1,2.25.29l1.5,1.34a2,2,0,0,1,.65,1.8,2,2,0,0,1-1.16,1.52,25.54,25.54,0,0,1-3.58,1.24h3a2,2,0,0,1,2,2v1.72a2,2,0,0,1-2,2h-.1v7.91a2,2,0,0,1-2,2H16.71a2,2,0,0,1-2-2v-1.8a11.24,11.24,0,0,1-2.28,3.39A2,2,0,0,1,11,22.44Z"/><path class="cls-1" d="M29.12,17.4a34.39,34.39,0,0,0-2.34-3.15,9.9,9.9,0,0,1-3.32,5.87,6.62,6.62,0,0,0-1.28-1.32c2.4-1.79,3.06-4.69,3.24-7.33h-3V9.77h3.1V6.85H22.76V5.18h2.72v-3h1.74v3H29.9V6.85H27.22V9.77h3v1.7H27.16c0,.28-.06.58-.08.86.82.8,2.84,3.1,3.32,3.7Zm9.63,1c.36,0,.44-.28.5-2.53a4.22,4.22,0,0,0,1.52.7c-.14,2.77-.58,3.47-1.86,3.47H37.43c-1.54,0-1.86-.54-1.86-2.18V14H34.13c-.36,3-1.33,5.17-4.75,6.41a4.92,4.92,0,0,0-1-1.38c3-1,3.72-2.71,4-5H30.92V2.74h8.63V14H37.29v3.87c0,.5.06.56.44.56ZM32.66,6h5.11V4.42H32.66Zm0,3.14h5.11V7.51H32.66Zm0,3.12h5.11V10.65H32.66Z"/><path class="cls-2" d="M29.38,22.36a2,2,0,0,1-1.79-1.11,3.44,3.44,0,0,0-.51-.72,1.9,1.9,0,0,1-.57-.72,10.51,10.51,0,0,1-1.79,1.86,2,2,0,0,1-1.55.43,2,2,0,0,1-1.36-.85,4.87,4.87,0,0,0-.81-.83,2,2,0,0,1,0-3.23,6,6,0,0,0,2.15-3.72h-.75a2,2,0,0,1-2-2V9.77a2,2,0,0,1,.85-1.64,2,2,0,0,1-.47-1.28V5.18a2,2,0,0,1,2-2h.72v-1a2,2,0,0,1,2-2h1.74a2,2,0,0,1,2,1.57,2,2,0,0,1,1.75-1h8.63a2,2,0,0,1,2,2V14a1.87,1.87,0,0,1-.13.71,2,2,0,0,1,1.35,2C42.68,18.4,42.5,22,38.91,22H37.43c-2.26,0-3.2-1.07-3.59-2.17a9.29,9.29,0,0,1-3.78,2.39A2,2,0,0,1,29.38,22.36Z"/><path class="cls-1" d="M60.22,5.46a28.21,28.21,0,0,1-2.8,2.23,12.7,12.7,0,0,0,3.43,2,6.36,6.36,0,0,0-1.25,1.54A15.15,15.15,0,0,1,55.12,8V9H47.79V8.19a16.49,16.49,0,0,1-4.68,3.26A6.87,6.87,0,0,0,42,10.11a14.17,14.17,0,0,0,3.72-2.36,14.88,14.88,0,0,0-2.38-1.89l1-1a12.32,12.32,0,0,1,2.48,1.85,13.15,13.15,0,0,0,1.8-2.41H44.07V2.74h5.46l.33-.08,1.2.62a13.43,13.43,0,0,1-2.53,4.13h6a18.29,18.29,0,0,1-3.08-4.87L53,2.06A13.24,13.24,0,0,0,54.3,4.32a20.66,20.66,0,0,0,2.32-2.14l1.4,1a33.2,33.2,0,0,1-2.86,2.28,14.09,14.09,0,0,0,1.18,1.27,18.65,18.65,0,0,0,2.5-2.25ZM56,15.89c-.44.9-.92,1.81-1.32,2.49h5.38v1.56H42.91V18.38h5.14A11.4,11.4,0,0,0,47,16l1.1-.3H45.87V10.41H57.06v5.26H55.14Zm-8.35-1.72h7.49V11.93H47.67Zm1.12,1.5a9.47,9.47,0,0,1,1.15,2.49l-.81.22h4.41l-.62-.16a18.84,18.84,0,0,0,1.24-2.55Z"/><path class="cls-2" d="M60.08,21.94H42.91a2,2,0,0,1-2-2V18.38a2,2,0,0,1,2-2H44a1.78,1.78,0,0,1-.13-.7V13.3a2,2,0,0,1-2.49-.85,4.87,4.87,0,0,0-.7-.84,2,2,0,0,1,.56-3.35,9.59,9.59,0,0,0,1.2-.6l-.16-.11a2,2,0,0,1-.36-3.09l.15-.15V2.74a2,2,0,0,1,2-2l5.3,0a2,2,0,0,1,1.15.05,1.42,1.42,0,0,1,.36-.14L52.46.15a2,2,0,0,1,2.37,1,3.73,3.73,0,0,0,.28-.31A2,2,0,0,1,57.78.55l1.41,1A2,2,0,0,1,60,2.85h0l1.38,1A2,2,0,0,1,61.57,7l-.66.57.64.28a2,2,0,0,1,1.27,1.52,2,2,0,0,1-.67,1.87,4.66,4.66,0,0,0-.79,1,2,2,0,0,1-2.3,1v2.53a2,2,0,0,1-.12.7h1.14a2,2,0,0,1,2,2v1.56A2,2,0,0,1,60.08,21.94Z"/><path class="cls-1" d="M74.09,16.31c-1.22.94-2.54,1.91-3.7,2.71l-.48-.84,0,.16c-2.5.54-5.13,1.1-7.13,1.5l-.38-1.7c.88-.14,2-.34,3.15-.56V11.93H62.64V10.31h2.93V8.49H63.64V7.61L63,8.19A5.33,5.33,0,0,0,61.88,7a13.92,13.92,0,0,0,3.63-5h1.58a23.39,23.39,0,0,1,3.34,3.5l-1.2,1.41h.16V8.49h-2.2v1.82h2.7v1.62h-2.7v5.34l2.6-.5,0,.54c1-.62,2.34-1.5,3.7-2.4ZM64.2,12.83A18.2,18.2,0,0,1,65,16.45l-1.32.34A17.23,17.23,0,0,0,63,13.15Zm5-5.92a20.66,20.66,0,0,0-2.64-3.17,20.27,20.27,0,0,1-2.27,3.17Zm-1.5,9.2a24.53,24.53,0,0,0,.78-3.44l1.4.36c-.34,1.16-.7,2.5-1,3.4Zm9.47-2.44a9.2,9.2,0,0,0,3.84,4,8.21,8.21,0,0,0-1.2,1.52A10.8,10.8,0,0,1,76,14.67v3.85c0,.84-.12,1.3-.66,1.58a5.82,5.82,0,0,1-2.38.28,6.17,6.17,0,0,0-.46-1.62c.66,0,1.3,0,1.5,0s.28-.08.28-.3V10.21H70V8.61h7.33V7.19H71.41V5.72h5.91V4.3H71V2.74h8V8.61H80.6v1.6H76v.5a15.19,15.19,0,0,0,1,2.7,17.13,17.13,0,0,0,2.1-2.64l1.46.92a32,32,0,0,1-2.48,2.62Zm-5.63-2.58a12.07,12.07,0,0,1,2.14,2.58l-1.34.9a11.61,11.61,0,0,0-2-2.68Z"/><path class="cls-2" d="M73,22.38A2,2,0,0,1,71,20.91a2,2,0,0,1-1.93-.35c-2.11.45-4.23.9-5.92,1.24a2,2,0,0,1-2.34-1.53l-.38-1.7a2,2,0,0,1,.3-1.56,2,2,0,0,1,.84-.7,17.09,17.09,0,0,0-.54-2.59,1.9,1.9,0,0,1-.09-.67,2,2,0,0,1-.34-1.12V10.31A2,2,0,0,1,61.12,9a4,4,0,0,0-.39-.37,2,2,0,0,1-.14-3.16,11.66,11.66,0,0,0,3.06-4.24A2,2,0,0,1,65.51,0h1.58A2,2,0,0,1,68.4.49c.33.29.7.62,1.07,1A2,2,0,0,1,71,.74h8a2,2,0,0,1,2,2V6.65a2,2,0,0,1,1.56,2v1.6a2,2,0,0,1-.15.77,2.75,2.75,0,0,1,.11.41A2,2,0,0,1,82.1,13c-.54.64-1.13,1.28-1.68,1.85a5.94,5.94,0,0,0,1.49,1.09A2,2,0,0,1,83,17.43a2,2,0,0,1-.61,1.74,6.84,6.84,0,0,0-.83,1,2,2,0,0,1-1.25,1,2.06,2.06,0,0,1-1.55-.24,9.47,9.47,0,0,1-1-.71,3,3,0,0,1-1.47,1.64A7.18,7.18,0,0,1,73,22.38Z"/><path class="cls-1" d="M9.93,17.58c-.4-.48-1.2-1.29-1.94-2v4.75H6.19V15.65A15.39,15.39,0,0,1,3.2,19,7.66,7.66,0,0,0,2,17.68a13.82,13.82,0,0,0,3.82-4.21H2.48V11.89H6.19V10.07H2.42V8.49H4.48a9.75,9.75,0,0,0-.7-2.59l1.36-.34H2.68V4H6.19V2.12H8V4h3.5V5.56H9.07l1.4.32c-.38,1-.76,1.93-1.1,2.61h2.34v1.58H8v1.82h3.54v1.58H8v.34c.72.5,2.56,2,3,2.38Zm-4.71-12A9.41,9.41,0,0,1,6,8.19l-1.16.3H9.27l-1.38-.3a18.94,18.94,0,0,0,.9-2.63Zm15.4,4.79h-2.1v9.91H16.71V10.35H14.13v.18c0,3-.36,7.13-3.12,9.91a4.48,4.48,0,0,0-1.32-1.28c2.42-2.47,2.66-5.89,2.66-8.65V3.58l1.24.36a26.53,26.53,0,0,0,5.33-1.72l1.5,1.34a30.58,30.58,0,0,1-6.29,1.82V8.63h6.49Z"/><path class="cls-1" d="M29.12,17.4a34.39,34.39,0,0,0-2.34-3.15,9.9,9.9,0,0,1-3.32,5.87,6.62,6.62,0,0,0-1.28-1.32c2.4-1.79,3.06-4.69,3.24-7.33h-3V9.77h3.1V6.85H22.76V5.18h2.72v-3h1.74v3H29.9V6.85H27.22V9.77h3v1.7H27.16c0,.28-.06.58-.08.86.82.8,2.84,3.1,3.32,3.7Zm9.63,1c.36,0,.44-.28.5-2.53a4.22,4.22,0,0,0,1.52.7c-.14,2.77-.58,3.47-1.86,3.47H37.43c-1.54,0-1.86-.54-1.86-2.18V14H34.13c-.36,3-1.33,5.17-4.75,6.41a4.92,4.92,0,0,0-1-1.38c3-1,3.72-2.71,4-5H30.92V2.74h8.63V14H37.29v3.87c0,.5.06.56.44.56ZM32.66,6h5.11V4.42H32.66Zm0,3.14h5.11V7.51H32.66Zm0,3.12h5.11V10.65H32.66Z"/><path class="cls-1" d="M60.22,5.46a28.21,28.21,0,0,1-2.8,2.23,12.7,12.7,0,0,0,3.43,2,6.36,6.36,0,0,0-1.25,1.54A15.15,15.15,0,0,1,55.12,8V9H47.79V8.19a16.49,16.49,0,0,1-4.68,3.26A6.87,6.87,0,0,0,42,10.11a14.17,14.17,0,0,0,3.72-2.36,14.88,14.88,0,0,0-2.38-1.89l1-1a12.32,12.32,0,0,1,2.48,1.85,13.15,13.15,0,0,0,1.8-2.41H44.07V2.74h5.46l.33-.08,1.2.62a13.43,13.43,0,0,1-2.53,4.13h6a18.29,18.29,0,0,1-3.08-4.87L53,2.06A13.24,13.24,0,0,0,54.3,4.32a20.66,20.66,0,0,0,2.32-2.14l1.4,1a33.2,33.2,0,0,1-2.86,2.28,14.09,14.09,0,0,0,1.18,1.27,18.65,18.65,0,0,0,2.5-2.25ZM56,15.89c-.44.9-.92,1.81-1.32,2.49h5.38v1.56H42.91V18.38h5.14A11.4,11.4,0,0,0,47,16l1.1-.3H45.87V10.41H57.06v5.26H55.14Zm-8.35-1.72h7.49V11.93H47.67Zm1.12,1.5a9.47,9.47,0,0,1,1.15,2.49l-.81.22h4.41l-.62-.16a18.84,18.84,0,0,0,1.24-2.55Z"/><path class="cls-1" d="M74.09,16.31c-1.22.94-2.54,1.91-3.7,2.71l-.48-.84,0,.16c-2.5.54-5.13,1.1-7.13,1.5l-.38-1.7c.88-.14,2-.34,3.15-.56V11.93H62.64V10.31h2.93V8.49H63.64V7.61L63,8.19A5.33,5.33,0,0,0,61.88,7a13.92,13.92,0,0,0,3.63-5h1.58a23.39,23.39,0,0,1,3.34,3.5l-1.2,1.41h.16V8.49h-2.2v1.82h2.7v1.62h-2.7v5.34l2.6-.5,0,.54c1-.62,2.34-1.5,3.7-2.4ZM64.2,12.83A18.2,18.2,0,0,1,65,16.45l-1.32.34A17.23,17.23,0,0,0,63,13.15Zm5-5.92a20.66,20.66,0,0,0-2.64-3.17,20.27,20.27,0,0,1-2.27,3.17Zm-1.5,9.2a24.53,24.53,0,0,0,.78-3.44l1.4.36c-.34,1.16-.7,2.5-1,3.4Zm9.47-2.44a9.2,9.2,0,0,0,3.84,4,8.21,8.21,0,0,0-1.2,1.52A10.8,10.8,0,0,1,76,14.67v3.85c0,.84-.12,1.3-.66,1.58a5.82,5.82,0,0,1-2.38.28,6.17,6.17,0,0,0-.46-1.62c.66,0,1.3,0,1.5,0s.28-.08.28-.3V10.21H70V8.61h7.33V7.19H71.41V5.72h5.91V4.3H71V2.74h8V8.61H80.6v1.6H76v.5a15.19,15.19,0,0,0,1,2.7,17.13,17.13,0,0,0,2.1-2.64l1.46.92a32,32,0,0,1-2.48,2.62Zm-5.63-2.58a12.07,12.07,0,0,1,2.14,2.58l-1.34.9a11.61,11.61,0,0,0-2-2.68Z"/></g></g></g></svg>