<svg id="レイヤー_1" data-name="レイヤー 1" xmlns="http://www.w3.org/2000/svg" viewBox="0 0 30 16"><defs><style>.cls-1{fill:#555;}</style></defs><path class="cls-1" d="M6.6,2.08c-.09.45-.23,1.37-.4,2.22.73-.06,1.38-.11,1.76-.11,1.38,0,2.52.53,2.52,2.64a14.87,14.87,0,0,1-.9,5.62A2.2,2.2,0,0,1,7.3,13.76a8.64,8.64,0,0,1-1.83-.23l-.21-1.3a7.28,7.28,0,0,0,1.92.31,1.27,1.27,0,0,0,1.35-.79A13.15,13.15,0,0,0,9.28,7c0-1.43-.67-1.7-1.65-1.7-.37,0-1,0-1.68.11a32.26,32.26,0,0,1-3.27,8.4l-1.28-.5A24.85,24.85,0,0,0,4.69,5.52c-.83.08-1.58.17-2,.22l-1.4.18L1.18,4.57c.48,0,.89,0,1.39,0S4,4.47,4.94,4.4A16.31,16.31,0,0,0,5.34,1l1.45.16C6.73,1.44,6.67,1.78,6.6,2.08ZM15,8.38,13.78,9A18.19,18.19,0,0,0,11,3.32l1.14-.51A28.16,28.16,0,0,1,15,8.38Z"/><path class="cls-1" d="M19.77,8.31a7.46,7.46,0,0,1,5.08-1.9c2.38,0,4,1.43,4,3.25,0,2.79-2.46,4.68-8.26,4.19l-.37-1.27c4.92.6,7.32-.81,7.32-2.95,0-1.25-1.15-2.13-2.74-2.13a6.12,6.12,0,0,0-4.83,2.08,2.53,2.53,0,0,0-.47.78l-1.15-.28a55.08,55.08,0,0,0,.79-6.32l1.31.17C20.2,5,19.94,7.31,19.77,8.31Zm7-6-.29,1.2c-1.48-.2-4.86-.89-6.05-1.21l.31-1.19A42,42,0,0,0,26.79,2.29Z"/></svg>