<svg id="レイヤー_1" data-name="レイヤー 1" xmlns="http://www.w3.org/2000/svg" viewBox="0 0 94 16"><defs><style>.cls-1{fill:#555;}</style></defs><path class="cls-1" d="M6.46,11.11C6.12,10.63,5.32,9.66,4.7,9v6.3H3.56V9.49a15.62,15.62,0,0,1-2,1.92,4.39,4.39,0,0,0-.64-1A15.53,15.53,0,0,0,5.45,4.94H1.32V3.88H3.56V1.05H4.7V3.88H6l.2-.06.65.45a16.78,16.78,0,0,1-2,3.6l.58.58A15,15,0,0,0,6.62,6.78l.76.62C6.9,8,6.4,8.56,6,9c.5.52,1,1,1.18,1.25ZM15,3.1c-.19,7.9-.34,10.52-.94,11.3a1.43,1.43,0,0,1-1.18.68,16.1,16.1,0,0,1-2.21,0,2.86,2.86,0,0,0-.38-1.18c.92.08,1.76.08,2.11.08a.64.64,0,0,0,.61-.27c.46-.54.67-3.13.82-10.16H10.68c-.12,4.4-.49,9.2-4.06,11.72a4.33,4.33,0,0,0-.89-.87C9.17,12.12,9.42,7.62,9.5,3.55H6.87V2.46H15Z"/><path class="cls-1" d="M26.15,3.23c-.07.34-.15.7-.24,1.07a4.85,4.85,0,0,1,4.2,5c0,3.1-2.23,5-5.56,5.46l-.73-1.11c3.25-.28,5.06-2,5.06-4.39a3.78,3.78,0,0,0-3.27-3.9,20.11,20.11,0,0,1-2.28,5.3,10.55,10.55,0,0,0,1,1.09l-1,.81a11,11,0,0,1-.73-.9c-1,1.16-1.92,1.94-3.09,1.94s-2.16-1-2.16-2.8A6.52,6.52,0,0,1,19.74,6c-.18-.48-.33-1-.47-1.43a10.1,10.1,0,0,0-.52-1.41l1.3-.42c.08.44.2,1,.31,1.39s.23.78.37,1.22a7.83,7.83,0,0,1,4-1.11c.09-.39.18-.76.25-1.14a10.68,10.68,0,0,0,.09-1.18L26.42,2C26.31,2.4,26.22,2.93,26.15,3.23Zm-6.52,9.14c.76,0,1.59-.78,2.27-1.7-.12-.18-.23-.38-.36-.59a17.35,17.35,0,0,1-1.4-3,5.29,5.29,0,0,0-1.68,3.62C18.46,11.73,18.93,12.37,19.63,12.37Zm3-2.75a20,20,0,0,0,1.82-4.34,7,7,0,0,0-3.35,1.08A17.09,17.09,0,0,0,22.31,9.1C22.4,9.27,22.51,9.44,22.62,9.62Z"/><path class="cls-1" d="M34.29,3.65c1-.11,4-.41,6.82-.64,1.7-.16,3.16-.23,4.21-.28V4a13.33,13.33,0,0,0-3.06.24A5.49,5.49,0,0,0,38.7,9.15c0,3,2.83,4,5.37,4.11l-.45,1.29c-2.88-.11-6.17-1.65-6.17-5.12a6.35,6.35,0,0,1,2.91-5.27c-1.66.19-5.64.56-7.32.92L32.9,3.73C33.49,3.71,34,3.68,34.29,3.65Z"/><path class="cls-1" d="M55.46,14.55l-.73-1.15a12.1,12.1,0,0,0,1.34-.2,4.7,4.7,0,0,0,4-4.63,4.34,4.34,0,0,0-4.16-4.52,29.86,29.86,0,0,1-.93,4.49c-1,3.21-2.18,4.85-3.63,4.85s-2.77-1.59-2.77-4.16a6.64,6.64,0,0,1,6.81-6.35,5.65,5.65,0,0,1,6,5.74C61.3,11.89,59.15,14.07,55.46,14.55ZM51.35,12c.73,0,1.55-1,2.35-3.67a25.52,25.52,0,0,0,.87-4.21,5.43,5.43,0,0,0-4.83,5C49.74,11.08,50.65,12,51.35,12Z"/><path class="cls-1" d="M69.64,4.82c0,.84-.11,1.69-.24,2.55h6.2s0,.38,0,.56c-.31,4.44-.62,6.16-1.23,6.78a1.74,1.74,0,0,1-1.32.51c-.55,0-1.56,0-2.6,0A2.59,2.59,0,0,0,70,14.06c1.11.1,2.21.1,2.6.1s.58,0,.73-.17c.47-.4.77-1.93,1-5.53H69.23a8.9,8.9,0,0,1-5,6.86,3.71,3.71,0,0,0-.83-1c4.3-1.93,4.75-6,4.94-9.55H63.61V3.71h6.28V1h1.16V3.71h6.39V4.82Z"/><path class="cls-1" d="M82,3.23a38.76,38.76,0,0,0-.78,6.28,14.47,14.47,0,0,0,.16,2.16c.25-.7.62-1.65.89-2.29l.64.5c-.38,1.09-1,2.68-1.11,3.44a2.49,2.49,0,0,0-.06.7,5.21,5.21,0,0,0,0,.55l-1.09.08a18.94,18.94,0,0,1-.59-4.93,46.67,46.67,0,0,1,.71-6.55,8.79,8.79,0,0,0,.1-1.11l1.37.11A7.48,7.48,0,0,0,82,3.23ZM89.89,3c0,.42,0,1.15,0,1.88a26.07,26.07,0,0,0,2.7-.35v1.2c-.86.14-1.76.23-2.7.29,0,1.58.13,3.13.19,4.44a10.39,10.39,0,0,1,3.09,2l-.69,1a12.46,12.46,0,0,0-2.35-1.81v.33c0,1.27-.59,2.5-2.7,2.5s-3.24-.82-3.24-2.22S85.31,10,87.35,10a7.36,7.36,0,0,1,1.45.14c0-1.2-.14-2.72-.16-4-.49,0-1,0-1.49,0-.89,0-1.7,0-2.62-.11V4.86c.89.08,1.71.13,2.65.13l1.46,0V3c0-.26,0-.68-.06-1H90C89.94,2.39,89.91,2.7,89.89,3ZM87.16,13.43c1.31,0,1.7-.67,1.7-1.7,0-.15,0-.34,0-.54a5.19,5.19,0,0,0-1.59-.25c-1.17,0-2,.5-2,1.26S86,13.43,87.16,13.43Z"/></svg>