<svg id="レイヤー_1" data-name="レイヤー 1" xmlns="http://www.w3.org/2000/svg" viewBox="0 0 46 23"><defs><style>.cls-1{fill:#037abc;}</style></defs><path class="cls-1" d="M3.39,17.39c0,1.19,1.22,2,3.71,2a19,19,0,0,0,5.33-.62v1.34a22.17,22.17,0,0,1-5.31.55c-3.16,0-5-1.05-5-3a9.89,9.89,0,0,1,.33-2.17l1.26.13A5.79,5.79,0,0,0,3.39,17.39ZM7.21,9.54c1.5,0,3.08-.11,4.21-.22V10.6c-1.06.08-2.76.19-4.21.19s-2.88-.08-4.11-.17V9.34A34.82,34.82,0,0,0,7.21,9.54Z"/><path class="cls-1" d="M21.33,9.39c0,.25-.1.54-.18.9a37.81,37.81,0,0,0,6.08-.75l0,1.2a54.14,54.14,0,0,1-6.33.66,28.33,28.33,0,0,1-1,3.67,7.26,7.26,0,0,1,4.39-1.32c2.48,0,3.93,1.26,3.93,3.08,0,3.24-3.34,4.46-8.07,3.94l-.31-1.23c3.6.5,7.1-.12,7.1-2.68,0-1.16-1-2.07-2.79-2.07a5.85,5.85,0,0,0-4.59,1.89,2.9,2.9,0,0,0-.49.71L17.94,17a25,25,0,0,0,1.81-5.54h0a27,27,0,0,1-3-.16l0-1.21a19.88,19.88,0,0,0,3,.26H20c.07-.4.14-.75.17-1A8.28,8.28,0,0,0,20.22,8l1.39.08C21.5,8.5,21.4,9,21.33,9.39Z"/><path class="cls-1" d="M34.82,15.28a7.46,7.46,0,0,1,5.08-1.9c2.38,0,4,1.43,4,3.25,0,2.79-2.46,4.67-8.26,4.19l-.37-1.28c4.92.61,7.32-.81,7.32-2.94,0-1.25-1.15-2.13-2.74-2.13A6.09,6.09,0,0,0,35,16.55a2.35,2.35,0,0,0-.47.78l-1.15-.28a55.36,55.36,0,0,0,.79-6.32l1.31.17C35.25,12,35,14.28,34.82,15.28Zm7-6-.29,1.2c-1.48-.2-4.86-.89-6-1.21l.31-1.19A42,42,0,0,0,41.84,9.26Z"/></svg>