<svg id="レイヤー_1" data-name="レイヤー 1" xmlns="http://www.w3.org/2000/svg" viewBox="0 0 94 23"><defs><style>.cls-1{fill:#555;}</style></defs><path class="cls-1" d="M6.46,18.11C6.12,17.63,5.32,16.66,4.7,16v6.3H3.56V16.49a15.62,15.62,0,0,1-2,1.92,4.39,4.39,0,0,0-.64-1,15.53,15.53,0,0,0,4.57-5.47H1.32V10.88H3.56V8.05H4.7v2.83H6l.2-.06.65.45a16.78,16.78,0,0,1-2,3.6l.58.58a15,15,0,0,0,1.17-1.67l.76.62C6.9,15,6.4,15.56,6,16c.5.52,1,1,1.18,1.25Zm8.54-8c-.19,7.9-.34,10.52-.94,11.3a1.43,1.43,0,0,1-1.18.68,16.1,16.1,0,0,1-2.21,0,2.86,2.86,0,0,0-.38-1.18c.92.08,1.76.08,2.11.08a.64.64,0,0,0,.61-.27c.46-.54.67-3.13.82-10.16H10.68c-.12,4.4-.49,9.2-4.06,11.72a4.33,4.33,0,0,0-.89-.87c3.44-2.28,3.69-6.78,3.77-10.85H6.87V9.46H15Z"/><path class="cls-1" d="M26.15,10.23c-.07.34-.15.7-.24,1.07a4.85,4.85,0,0,1,4.2,5c0,3.1-2.23,5-5.56,5.46l-.73-1.11c3.25-.28,5.06-2,5.06-4.39a3.78,3.78,0,0,0-3.27-3.9,20.11,20.11,0,0,1-2.28,5.3,10.55,10.55,0,0,0,1,1.09l-1,.81a11,11,0,0,1-.73-.9c-1,1.16-1.92,1.94-3.09,1.94s-2.16-1-2.16-2.8A6.52,6.52,0,0,1,19.74,13c-.18-.48-.33-1-.47-1.43a10.1,10.1,0,0,0-.52-1.41l1.3-.42c.08.44.2.95.31,1.39s.23.78.37,1.22a7.83,7.83,0,0,1,4-1.11c.09-.39.18-.76.25-1.14a10.68,10.68,0,0,0,.09-1.18L26.42,9C26.31,9.4,26.22,9.93,26.15,10.23Zm-6.52,9.14c.76,0,1.59-.78,2.27-1.7-.12-.18-.23-.38-.36-.59a17.35,17.35,0,0,1-1.4-3,5.29,5.29,0,0,0-1.68,3.62C18.46,18.73,18.93,19.37,19.63,19.37Zm3-2.75a20,20,0,0,0,1.82-4.34,7,7,0,0,0-3.35,1.08,17.09,17.09,0,0,0,1.22,2.74C22.4,16.27,22.51,16.44,22.62,16.62Z"/><path class="cls-1" d="M34.29,10.65c1-.11,4-.41,6.82-.64,1.7-.16,3.16-.23,4.21-.28V11a13.33,13.33,0,0,0-3.06.24,5.49,5.49,0,0,0-3.56,4.93c0,3.05,2.83,4,5.37,4.11l-.45,1.29c-2.88-.11-6.17-1.65-6.17-5.12a6.35,6.35,0,0,1,2.91-5.27c-1.66.19-5.64.56-7.32.92l-.14-1.35C33.49,10.71,34,10.68,34.29,10.65Z"/><path class="cls-1" d="M55.46,21.55l-.73-1.15a12.1,12.1,0,0,0,1.34-.2,4.7,4.7,0,0,0,4-4.63,4.34,4.34,0,0,0-4.16-4.52,29.86,29.86,0,0,1-.93,4.49c-1,3.21-2.18,4.85-3.63,4.85s-2.77-1.59-2.77-4.16a6.64,6.64,0,0,1,6.81-6.35,5.65,5.65,0,0,1,6,5.74C61.3,18.89,59.15,21.07,55.46,21.55ZM51.35,19c.73,0,1.55-1,2.35-3.67a25.52,25.52,0,0,0,.87-4.21,5.43,5.43,0,0,0-4.83,5.05C49.74,18.08,50.65,19,51.35,19Z"/><path class="cls-1" d="M69.64,11.82c0,.84-.11,1.69-.24,2.55h6.2s0,.38,0,.56c-.31,4.44-.62,6.16-1.23,6.78a1.74,1.74,0,0,1-1.32.51c-.55,0-1.56,0-2.6,0A2.59,2.59,0,0,0,70,21.06c1.11.1,2.21.1,2.6.1s.58,0,.73-.17c.47-.4.77-1.93,1-5.53H69.23a8.9,8.9,0,0,1-5,6.86,3.71,3.71,0,0,0-.83-.95c4.3-1.93,4.75-6,4.94-9.55H63.61V10.71h6.28V8h1.16v2.71h6.39v1.11Z"/><path class="cls-1" d="M82,10.23a38.76,38.76,0,0,0-.78,6.28,14.47,14.47,0,0,0,.16,2.16c.25-.7.62-1.65.89-2.29l.64.5c-.38,1.09-1,2.68-1.11,3.44a2.49,2.49,0,0,0-.06.7,5.21,5.21,0,0,0,0,.55l-1.09.08a18.94,18.94,0,0,1-.59-4.93,46.67,46.67,0,0,1,.71-6.55,8.79,8.79,0,0,0,.1-1.11l1.37.11A7.48,7.48,0,0,0,82,10.23ZM89.89,10c0,.42,0,1.15,0,1.88a26.07,26.07,0,0,0,2.7-.35v1.2c-.86.14-1.76.23-2.7.29,0,1.58.13,3.13.19,4.44a10.39,10.39,0,0,1,3.09,2l-.69,1.05a12.46,12.46,0,0,0-2.35-1.81v.33c0,1.27-.59,2.5-2.7,2.5s-3.24-.82-3.24-2.22S85.31,17,87.35,17a7.36,7.36,0,0,1,1.45.14c0-1.2-.14-2.72-.16-4-.49,0-1,0-1.49,0-.89,0-1.7-.05-2.62-.11V11.86c.89.08,1.71.13,2.65.13l1.46,0V10c0-.26,0-.68-.06-.95H90C89.94,9.39,89.91,9.7,89.89,10ZM87.16,20.43c1.31,0,1.7-.67,1.7-1.7,0-.15,0-.34,0-.54a5.19,5.19,0,0,0-1.59-.25c-1.17,0-2,.5-2,1.26S86,20.43,87.16,20.43Z"/><path class="cls-1" d="M2.44,1.48a20.79,20.79,0,0,0-.39,3.18,5,5,0,0,0,.06.86c.11-.33.29-.73.42-1l.4.31a19.29,19.29,0,0,0-.58,1.84,2.46,2.46,0,0,0,0,.37c0,.08,0,.2,0,.3l-.72.05a9.35,9.35,0,0,1-.31-2.55,25.62,25.62,0,0,1,.35-3.36c0-.2.06-.46.07-.67L2.6.86C2.55,1,2.47,1.34,2.44,1.48Zm4.05-.19c0,.2,0,.54,0,.91A12.59,12.59,0,0,0,7.8,2V2.8c-.42.06-.86.12-1.33.15,0,.8.06,1.52.09,2.14a5.48,5.48,0,0,1,1.58,1l-.43.67a7.78,7.78,0,0,0-1.12-.89V6c0,.74-.35,1.37-1.47,1.37S3.4,6.87,3.4,6.1,4,4.82,5.11,4.82a4.51,4.51,0,0,1,.65,0c0-.56-.06-1.25-.08-1.88L5,3C4.54,3,4.1,3,3.64,3V2.2c.46,0,.91.07,1.39.07l.66,0V1.3a3.14,3.14,0,0,0,0-.51h.91C6.52,1,6.5,1.13,6.49,1.29ZM5,6.58c.59,0,.78-.31.78-.81V5.55a2.72,2.72,0,0,0-.75-.11c-.54,0-.92.23-.92.58S4.5,6.58,5,6.58Z"/><path class="cls-1" d="M11.12,1.69c0,.89-.1,2.74-.1,3.85,0,.85.52,1.14,1.22,1.14A3.29,3.29,0,0,0,15.07,5l.57.69a4.11,4.11,0,0,1-3.41,1.8c-1.22,0-2-.52-2-1.86,0-1.14.08-3.2.08-4a4.45,4.45,0,0,0-.09-.93h1A7.34,7.34,0,0,0,11.12,1.69Zm3,1L13.54,3a7.54,7.54,0,0,0-.74-1.31l.56-.24A10,10,0,0,1,14.12,2.71Zm1.09-.46-.57.27a8.66,8.66,0,0,0-.78-1.26L14.42,1C14.64,1.3,15,1.89,15.21,2.25Z"/><path class="cls-1" d="M65.94,1.28c0,.25-.12.63-.19,1,.33,0,.62,0,.8,0,.78,0,1.37.32,1.37,1.44a7.67,7.67,0,0,1-.46,2.91,1.18,1.18,0,0,1-1.24.7,4.76,4.76,0,0,1-1-.11l-.13-.84a4,4,0,0,0,1,.17.64.64,0,0,0,.66-.39,6.56,6.56,0,0,0,.36-2.35c0-.69-.32-.81-.82-.81a5.9,5.9,0,0,0-.74,0,16.92,16.92,0,0,1-1.66,4.31L63.09,7a12.92,12.92,0,0,0,1.67-3.91l-.88.1-.8.11L63,2.44c.28,0,.51,0,.78,0l1.15-.08A9.09,9.09,0,0,0,65.11.63l.94.1C66,.9,66,1.1,65.94,1.28Zm4.32,3.18-.8.37a9.48,9.48,0,0,0-1.38-3l.74-.32A13.67,13.67,0,0,1,70.26,4.46Z"/><path class="cls-1" d="M74,1.35c0,.14-.06.3-.1.48.49-.08,1-.16,1.45-.28v.79a13.18,13.18,0,0,1-1.61.27c-.08.35-.17.72-.26,1.05a23.57,23.57,0,0,1-1.27,3.7l-.87-.3a18.39,18.39,0,0,0,1.36-3.6c.07-.25.13-.51.2-.77h-.65c-.37,0-.67,0-1,0V1.88a7.24,7.24,0,0,0,1,.07,7.7,7.7,0,0,0,.81,0c0-.24.08-.45.09-.6a3.75,3.75,0,0,0,0-.72l1,.07C74.09.86,74,1.19,74,1.35Zm1,4.43c0,.36.22.69,1.24.69a8.79,8.79,0,0,0,1.61-.16l0,.81a11.46,11.46,0,0,1-1.58.12c-1.31,0-2-.43-2-1.22a4.91,4.91,0,0,1,.14-1l.74.07A3.18,3.18,0,0,0,75,5.78ZM76.27,3c.47,0,1,0,1.41.06l0,.77a11.11,11.11,0,0,0-1.36-.1,12.79,12.79,0,0,0-1.52.09V3.1C75.21,3.06,75.76,3,76.27,3Z"/></svg>