<svg id="レイヤー_1" data-name="レイヤー 1" xmlns="http://www.w3.org/2000/svg" viewBox="0 0 94 26"><defs><style>.cls-1{fill:#027abb;}</style></defs><path class="cls-1" d="M5.81,12.86c0,.38,0,1-.06,1.71A22,22,0,0,0,9,13.93l0,1.24a30,30,0,0,1-3.31.55c0,.74,0,1.5,0,2.13v.55a11.83,11.83,0,0,1,3.47-.58c2.3,0,4,1.24,4,3.14s-1.2,3.12-3.36,3.64a11.62,11.62,0,0,1-2,.22l-.44-1.28a7.59,7.59,0,0,0,1.84-.11c1.39-.27,2.65-1,2.65-2.46S10.64,18.9,9.14,18.9a10.24,10.24,0,0,0-3.44.62c0,1.34.06,2.74.06,3.42,0,1.47-.53,1.94-1.38,1.94-1.23,0-3.29-1.21-3.29-2.62s1.65-2.68,3.46-3.45v-.9c0-.63,0-1.37,0-2.07-.45,0-.84.05-1.17.05a15.82,15.82,0,0,1-2-.08l0-1.2a14.64,14.64,0,0,0,2,.13c.36,0,.77,0,1.21-.05,0-.82,0-1.51,0-1.8a8,8,0,0,0-.08-1.12h1.4A10.83,10.83,0,0,0,5.81,12.86ZM4,23.54c.37,0,.59-.25.59-.77s0-1.64,0-2.79c-1.29.6-2.26,1.51-2.26,2.22S3.43,23.54,4,23.54Zm10.39-7.71-.65,1a20.15,20.15,0,0,0-3.53-2.37l.56-1A29.5,29.5,0,0,1,14.43,15.83Z"/><path class="cls-1" d="M17.87,17.37v8.22H16.72V11.85h5.67v5.52Zm0-4.57v1.32h3.39V12.8Zm3.39,3.63V15H17.87v1.44Zm-.07,6.94v.95H20.11V18.78H26v4.59Zm0-3.6v2.61h3.7V19.77ZM29.6,24c0,.77-.19,1.17-.7,1.37a10.21,10.21,0,0,1-2.82.21,6.54,6.54,0,0,0-.41-1.2c1,.05,2,0,2.36,0s.38-.09.38-.39V17.37H23.79V11.85H29.6ZM24.91,12.78v1.34h3.5V12.78Zm3.5,3.66V15h-3.5v1.45Z"/><path class="cls-1" d="M34.4,14.9c0,1,0,2.43.11,3.74.25,2.63,1,4.38,2.14,4.38.81,0,1.55-1.64,2-3.22l1,1.12c-.94,2.69-1.9,3.6-3,3.6-1.5,0-2.94-1.48-3.36-5.57-.14-1.37-.18-3.3-.18-4.21A6.81,6.81,0,0,0,33,13.33l1.53,0A12.64,12.64,0,0,0,34.4,14.9Zm11.12,6.75-1.26.52C44,19.31,43,16.08,41.51,14.23l1.23-.42A16.91,16.91,0,0,1,45.52,21.65Z"/><path class="cls-1" d="M55.17,11.22a18.74,18.74,0,0,0,6.92,5.63,5.86,5.86,0,0,0-.77,1,21.07,21.07,0,0,1-6.67-5.5A19.58,19.58,0,0,1,48.1,18a4.08,4.08,0,0,0-.73-.93A17.81,17.81,0,0,0,54,11.22Zm-5.26,8.09h9.6v6.28h-1.2V25H51.07v.64H49.91Zm8.73-3v1H50.73v-1Zm-7.57,4.07v3.52h7.24V20.37Z"/><path class="cls-1" d="M67.13,11.85l1.49.05c-.08.39-.21,1.28-.32,2.38l.08,0,.47.55c-.2.29-.47.71-.71,1.11,0,.33-.06.67-.07,1a8,8,0,0,1,5-2,4,4,0,0,1,4.13,4c0,3.17-2.3,4.82-5.74,5.49l-.58-1.19c2.66-.38,5.06-1.62,5-4.34a2.88,2.88,0,0,0-3-2.8A7.37,7.37,0,0,0,68,18.35c0,.66,0,1.3,0,1.86,0,1.44,0,2.4.07,3.81,0,.28,0,.67.08,1H66.69a9.16,9.16,0,0,0,0-.93c0-1.52,0-2.32.05-4,0-.16,0-.38,0-.63C66,20.54,65,22,64.23,23.12L63.44,22c.89-1.11,2.7-3.57,3.49-4.81,0-.51.06-1,.11-1.53L64,16.11l-.13-1.31c.35,0,.65,0,1,0s1.45-.15,2.27-.27c0-.74.08-1.33.08-1.5A6.85,6.85,0,0,0,67.13,11.85Z"/><path class="cls-1" d="M90,13.35c0,.73,0,1.52,0,2.21.63-.05,1.23-.08,1.76-.11l1.23-.08V16.6c-.26,0-.86,0-1.25,0s-1.07,0-1.77.1A22.91,22.91,0,0,1,89.67,20c-.14.7-.49.9-1.21.9a15.61,15.61,0,0,1-2.09-.22l0-1.09a7.83,7.83,0,0,0,1.57.21c.38,0,.56-.07.6-.43.08-.52.14-1.59.18-2.59-1.63.13-3.48.32-5.05.48,0,1.62,0,3.26,0,3.88,0,1.7.08,2.3,2.81,2.3a29.78,29.78,0,0,0,4.68-.38l0,1.34c-1.05.11-3,.26-4.57.26-3.65,0-4-.84-4.07-3.35,0-.68,0-2.35,0-3.93l-1.69.19-1.59.22-.14-1.29a16.18,16.18,0,0,0,1.64-.09l1.78-.16c0-1.06,0-1.93,0-2.2a8.73,8.73,0,0,0-.1-1.34h1.38A11.73,11.73,0,0,0,83.72,14c0,.52,0,1.3,0,2.13l5.06-.46V13.4a8.57,8.57,0,0,0-.08-1.19H90C90,12.48,90,13,90,13.35Z"/><path class="cls-1" d="M22,3.85c1-.63,2.22-1.21,2.82-1.54a5.86,5.86,0,0,0,.78-.52l.49.78c-.25.16-.53.3-.85.47a36.31,36.31,0,0,0-3.34,1.82c-1,.66-1.64,1.39-1.64,2.22s.87,1.49,2.61,1.49A16.46,16.46,0,0,0,26.4,8.2v1a20.94,20.94,0,0,1-3.48.28c-2.07,0-3.57-.62-3.57-2.27,0-1.13.73-2,1.91-2.85-.51-.9-1.09-2.19-1.6-3.38l.87-.37A23.07,23.07,0,0,0,22,3.85Z"/><path class="cls-1" d="M54.2.92c0,.23-.08.52-.13.84a22.64,22.64,0,0,0,3.86-.47V2.1a35.14,35.14,0,0,1-4,.42c0,.43-.08.89-.12,1.35a7.32,7.32,0,0,1,1.85-.27h.41l0-.11a2.68,2.68,0,0,0,.12-.64l.87.22c-.06.15-.16.45-.22.63,0,0,0,0,0,0A2.69,2.69,0,0,1,59.1,6.34c0,1.58-1.05,2.94-3.6,3.35L55,9c2-.2,3.22-1.23,3.22-2.66a2,2,0,0,0-1.58-1.88A9.34,9.34,0,0,1,54.22,8c.08.32.17.61.26.89l-.79.24c-.07-.19-.12-.4-.18-.62a3.7,3.7,0,0,1-1.87.61,1.24,1.24,0,0,1-1.3-1.39,4.4,4.4,0,0,1,2.75-3.56c0-.55.08-1.1.12-1.62h-.67c-.47,0-1.33,0-1.78-.08l0-.82a14.31,14.31,0,0,0,1.81.14h.75c0-.32.07-.6.09-.85a5.07,5.07,0,0,0,0-.52l.93,0A3.94,3.94,0,0,0,54.2.92ZM51.81,8.26a2.8,2.8,0,0,0,1.51-.58,13.67,13.67,0,0,1-.26-2.5V5a3.48,3.48,0,0,0-1.88,2.6C51.18,8,51.39,8.26,51.81,8.26ZM54,7.11a7.44,7.44,0,0,0,1.87-2.82H55.7a5.6,5.6,0,0,0-1.86.35c0,.16,0,.3,0,.45A11.84,11.84,0,0,0,54,7.11Z"/></svg>