<svg id="レイヤー_1" data-name="レイヤー 1" xmlns="http://www.w3.org/2000/svg" viewBox="0 0 94 26"><defs><style>.cls-1{fill:#027abb;}</style></defs><path class="cls-1" d="M6.33,12.9c0,.38,0,.89-.07,1.45a18.27,18.27,0,0,0,3.11-.6l0,1.55a29.14,29.14,0,0,1-3.17.52c0,.63,0,1.26,0,1.83v.55a12.35,12.35,0,0,1,3.28-.5C11.83,17.7,13.6,19,13.6,21s-1.09,3.19-3.41,3.74a13,13,0,0,1-2,.24l-.57-1.61a9,9,0,0,0,1.89-.11C10.84,23,12,22.29,12,21s-1.09-1.89-2.52-1.89a10.72,10.72,0,0,0-3.24.52c0,1.31.06,2.64.06,3.27,0,1.67-.61,2.16-1.54,2.16-1.37,0-3.47-1.26-3.47-2.78,0-1.34,1.62-2.74,3.48-3.55v-1c0-.55,0-1.15,0-1.75a10.1,10.1,0,0,1-1,.05c-1,0-1.56,0-2.08-.08l0-1.51a15.82,15.82,0,0,0,2.1.12c.33,0,.69,0,1.09,0,0-.71,0-1.28,0-1.57a11.84,11.84,0,0,0-.09-1.24H6.45C6.41,12,6.36,12.52,6.33,12.9Zm-2,10.43c.31,0,.53-.2.53-.72s0-1.42,0-2.45c-1.16.57-2,1.37-2,2S3.77,23.33,4.31,23.33ZM14.89,15.7,14.12,17a22.68,22.68,0,0,0-3.64-2.34l.69-1.2A28.27,28.27,0,0,1,14.89,15.7Z"/><path class="cls-1" d="M18.47,17.43v8.2H17V11.78h5.81v5.65Zm0-4.48v1.1h3V13Zm3,3.33V15.1h-3v1.18Zm.36,7.15v.91H20.44V18.69h5.95v4.74Zm0-3.51v2.29H25V19.92ZM30,23.77c0,.89-.21,1.34-.78,1.6a9.23,9.23,0,0,1-2.93.25,5.23,5.23,0,0,0-.51-1.5c1,.05,2,0,2.34,0s.38-.11.38-.39V17.45H24.07V11.78H30ZM25.47,12.93v1.12h3.05V12.93Zm3.05,3.36V15.1H25.47v1.19Z"/><path class="cls-1" d="M35,15a34.26,34.26,0,0,0,.11,3.55C35.32,21,36,22.67,37,22.67c.79,0,1.48-1.72,1.84-3.16L40.12,21c-1,2.7-2,3.63-3.12,3.63-1.6,0-3.07-1.52-3.49-5.66a42.21,42.21,0,0,1-.18-4.23,8.55,8.55,0,0,0-.12-1.49l1.92,0A12.47,12.47,0,0,0,35,15ZM46,21.66l-1.63.63c-.27-2.71-1.17-6.22-2.76-8.11l1.56-.52A17.25,17.25,0,0,1,46,21.66Z"/><path class="cls-1" d="M55.67,11.18a17.41,17.41,0,0,0,6.83,5.51,6.49,6.49,0,0,0-1,1.31A21,21,0,0,1,59,16.41v1.12H51.12V16.45a20.5,20.5,0,0,1-2.54,1.61,5.46,5.46,0,0,0-.9-1.17,17.4,17.4,0,0,0,6.49-5.71Zm-5.45,8.13h9.72v6.34h-1.5V25H51.66v.61H50.22Zm8.49-3.09A18.31,18.31,0,0,1,55,12.62a17.12,17.12,0,0,1-3.55,3.6Zm-7.05,4.41v3.1h6.78v-3.1Z"/><path class="cls-1" d="M67.35,11.75l1.84.06c-.09.41-.22,1.25-.33,2.28h0l.54.66-.75,1.13c0,.26,0,.53-.06.78a8,8,0,0,1,4.86-1.82A4.06,4.06,0,0,1,77.7,19c0,3.18-2.16,4.95-5.82,5.66l-.73-1.5c2.72-.41,4.92-1.59,4.91-4.2a2.67,2.67,0,0,0-2.84-2.62,7.06,7.06,0,0,0-4.72,2.15c0,.58,0,1.14,0,1.64,0,1.37,0,2.49.08,3.93,0,.28,0,.74.08,1.07h-1.7c0-.28,0-.79,0-1,0-1.48,0-2.38.07-4.13-.74,1.09-1.67,2.44-2.34,3.36l-1-1.37c.89-1.11,2.59-3.38,3.44-4.67,0-.45.07-.92.1-1.36l-3,.39-.16-1.61a9.53,9.53,0,0,0,1.19,0c.49,0,1.31-.13,2.06-.24,0-.68.08-1.2.08-1.37A9.29,9.29,0,0,0,67.35,11.75Z"/><path class="cls-1" d="M90.49,13.38c0,.67,0,1.35,0,2l1.5-.11c.41,0,1-.06,1.36-.09v1.55c-.27,0-1,0-1.37,0s-.93,0-1.52.06A24.25,24.25,0,0,1,90.19,20c-.16.76-.52,1-1.28,1a18.24,18.24,0,0,1-2.21-.24l0-1.37a9.09,9.09,0,0,0,1.52.2c.36,0,.52-.06.55-.41s.12-1.39.16-2.29c-1.54.13-3.26.29-4.72.45,0,1.54,0,3.1,0,3.75,0,1.63.11,2.13,2.68,2.13a30.12,30.12,0,0,0,4.7-.39l-.05,1.68a43.06,43.06,0,0,1-4.56.27c-3.83,0-4.24-.85-4.3-3.45,0-.68,0-2.31,0-3.82-.58.06-1.07.11-1.42.16l-1.72.23-.17-1.61c.47,0,1.12,0,1.78-.09l1.53-.14V14.13a9.17,9.17,0,0,0-.11-1.51h1.75a11.79,11.79,0,0,0-.08,1.43c0,.45,0,1.11,0,1.87,1.45-.15,3.17-.3,4.75-.45V13.42a12,12,0,0,0-.11-1.29h1.68A11,11,0,0,0,90.49,13.38Z"/><path class="cls-1" d="M22.43,3.67c1-.58,2.06-1.12,2.63-1.44a6.1,6.1,0,0,0,.88-.58l.6,1c-.28.18-.59.34-.94.52A36.38,36.38,0,0,0,22.36,4.9c-1,.64-1.58,1.34-1.58,2.14S21.6,8.4,23.24,8.4A16.57,16.57,0,0,0,26.8,8V9.26a20.38,20.38,0,0,1-3.5.27c-2.13,0-3.69-.61-3.69-2.37A3.6,3.6,0,0,1,21.47,4.3c-.5-.92-1-2.17-1.57-3.34L21,.5A26,26,0,0,0,22.43,3.67Z"/><path class="cls-1" d="M54.67.91c0,.21-.09.46-.13.73a20.23,20.23,0,0,0,3.81-.48v1a31.94,31.94,0,0,1-3.94.4c0,.38-.07.79-.1,1.19a7.3,7.3,0,0,1,1.76-.24h.32a6.7,6.7,0,0,0,.13-.71l1.08.26c-.07.14-.16.42-.23.62a2.76,2.76,0,0,1,2.16,2.64c0,1.57-1,3-3.59,3.41l-.6-.92c2-.23,3.13-1.27,3.13-2.54a1.83,1.83,0,0,0-1.4-1.74A8.68,8.68,0,0,1,54.69,8c.08.31.18.59.27.87l-1,.3c-.06-.17-.11-.34-.17-.54A3.77,3.77,0,0,1,52,9.2a1.33,1.33,0,0,1-1.39-1.48,4.45,4.45,0,0,1,2.74-3.6c0-.5.07-1,.11-1.49h-.54c-.52,0-1.37-.06-1.85-.08l0-1A16.86,16.86,0,0,0,53,1.67h.61c0-.27,0-.52.08-.74s0-.43,0-.58l1.13,0C54.75.55,54.7.75,54.67.91ZM52.23,8.14a2.64,2.64,0,0,0,1.33-.48,14.79,14.79,0,0,1-.24-2.49,3.17,3.17,0,0,0-1.67,2.35C51.65,7.93,51.83,8.14,52.23,8.14Zm2.22-1.21a7.18,7.18,0,0,0,1.66-2.51H56a5,5,0,0,0-1.75.31V5A11.62,11.62,0,0,0,54.45,6.93Z"/></svg>