<svg id="レイヤー_1" data-name="レイヤー 1" xmlns="http://www.w3.org/2000/svg" viewBox="0 0 45 26"><defs><style>.cls-1{fill:#555;}</style></defs><path class="cls-1" d="M11.36,12.08V25.15H9.82V24.2H2.48v1H1V12.08ZM2.48,13.54v3.8H9.82v-3.8Zm7.34,9.19v-4H2.48v4Z"/><path class="cls-1" d="M23.34,15.69a13.85,13.85,0,0,0,5.72,6A6.37,6.37,0,0,0,28,23a15.14,15.14,0,0,1-5.52-6v4.16h2.79v1.47H22.45v2.76H20.93V22.61H18.08V21.14h2.85V17a15.87,15.87,0,0,1-5.49,6,7.78,7.78,0,0,0-1-1.2,14.41,14.41,0,0,0,5.64-6.12H15V14.23h6V11.08h1.52v3.15h6v1.46Z"/><path class="cls-1" d="M35.79,14.85H30.12V13.7h5.67Zm-.45,9.85H32.07v.67H30.82V20.13h4.52ZM35.24,17H30.85V15.86h4.39Zm-4.39,1h4.39V19.1H30.85Zm4.39-5.25h-4.3V11.59h4.3ZM32.07,21.3v2.24h2V21.3ZM44.5,17.44v1.27H35.79V17.44h2c.13-.6.25-1.28.36-2H36.54V14.23h1.77c.07-.47.14-.94.21-1.38H36.29V11.59H44v1.26h-4c-.06.46-.14.91-.2,1.38h3.41v3.21Zm-7.6,2.29h6.63V25.3H42.11v-.59H38.27v.66H36.9ZM38.27,21v2.39h3.84V21Zm1.26-5.57-.36,2h2.59v-2Z"/><path class="cls-1" d="M3.42,2.33A24,24,0,0,0,2.93,6.1,9.87,9.87,0,0,0,3,7.17c.17-.41.37-.9.53-1.27l.5.4c-.26.76-.61,1.83-.71,2.33a2,2,0,0,0-.05.46c0,.1,0,.25,0,.37l-.91.06A12.71,12.71,0,0,1,2,6.29a28.86,28.86,0,0,1,.43-4,7.27,7.27,0,0,0,.09-.83l1.11.1A7.17,7.17,0,0,0,3.42,2.33Zm2.39,5c0,.45.35.82,1.56.82a10.74,10.74,0,0,0,2.49-.27L9.88,9a13.72,13.72,0,0,1-2.53.2c-1.7,0-2.48-.59-2.48-1.56A5.06,5.06,0,0,1,5,6.37l.9.08A3.47,3.47,0,0,0,5.81,7.34Zm3.76-5v1a25.49,25.49,0,0,1-4.19,0v-1A18.43,18.43,0,0,0,9.57,2.29Z"/><path class="cls-1" d="M15.11,2.27a25,25,0,0,0-.48,3.94,8.11,8.11,0,0,0,.08,1.09c.14-.41.36-.93.52-1.31l.5.41A22.38,22.38,0,0,0,15,8.68a1.9,1.9,0,0,0,0,.46c0,.1,0,.25,0,.37l-.9.07A11.7,11.7,0,0,1,13.7,6.4a30.57,30.57,0,0,1,.43-4.17c0-.24.07-.57.08-.82l1.1.09A7.27,7.27,0,0,0,15.11,2.27Zm6.45-.54v.89c-.45,0-1,.09-1.57.12V4.21c.64,0,1.25-.09,1.79-.15V5c-.51.06-1.12.11-1.79.14,0,.6.05,1.18.08,1.7a6.27,6.27,0,0,1,2.1,1.27L21.64,9a6.6,6.6,0,0,0-1.53-1.18c0,.12,0,.23,0,.33,0,.84-.57,1.37-1.73,1.37s-2-.48-2-1.48c0-.78.63-1.46,2-1.46a4.93,4.93,0,0,1,.78.06c0-.46,0-1-.05-1.44-.77,0-1.57,0-2.36,0V4.2a23.48,23.48,0,0,0,2.36,0V2.78c-.71,0-1.46,0-2.2,0V1.87A21.75,21.75,0,0,0,21.56,1.73ZM18.28,8.59c.7,0,.9-.35.9-.86,0-.09,0-.21,0-.34a3,3,0,0,0-.84-.12c-.65,0-1,.27-1,.66S17.67,8.59,18.28,8.59Z"/><path class="cls-1" d="M27.67,2.36c-.44.67-1.23,2.08-1.7,3a2,2,0,0,1,1.26-.46,1.11,1.11,0,0,1,1.15,1.2c0,.49,0,1.24,0,1.67a.62.62,0,0,0,.69.61c1,0,1.54-1.2,1.8-2.29l.8.66C31.22,8.29,30.38,9.37,29,9.37A1.3,1.3,0,0,1,27.5,8.11c0-.54,0-1.29-.06-1.75a.58.58,0,0,0-.63-.6c-.71,0-1.35.72-1.71,1.48a19.47,19.47,0,0,0-.78,2.14l-1-.35a71.35,71.35,0,0,1,3.23-6.72c.12-.24.27-.51.4-.84L28,1.9Z"/><path class="cls-1" d="M35.2,7.33c0,.71.7,1.2,2.24,1.2a13.27,13.27,0,0,0,3.45-.39v1.1a14.86,14.86,0,0,1-3.43.35c-2.15,0-3.31-.72-3.31-2a6.13,6.13,0,0,1,.2-1.41l1,.1A3.84,3.84,0,0,0,35.2,7.33Zm2.28-5.08c1,0,2-.06,2.78-.14v1c-.69.06-1.84.12-2.78.12s-1.88,0-2.68-.11v-1A25.54,25.54,0,0,0,37.48,2.25Zm3.86.17-.66.29a10.19,10.19,0,0,0-.8-1.39l.65-.27A14.49,14.49,0,0,1,41.34,2.42ZM42.49,2l-.64.29A10.46,10.46,0,0,0,41,.9l.64-.27A13.28,13.28,0,0,1,42.49,2Z"/></svg>