<svg xmlns="http://www.w3.org/2000/svg" viewBox="0 0 23.76 13.33"><defs><style>.cls-1{fill:#fff;}.cls-2{fill:none;stroke:#fff;stroke-miterlimit:10;stroke-width:2.34px;}</style></defs><g id="レイヤー_2" data-name="レイヤー 2"><g id="レイヤー_1-2" data-name="レイヤー 1"><path class="cls-1" d="M5.07,2.06a3,3,0,1,1-3,3,3,3,0,0,1,3-3M5.07,0a5.07,5.07,0,1,0,5.07,5.07A5.07,5.07,0,0,0,5.07,0Z"/><line class="cls-2" x1="9.2" y1="7.19" x2="21.59" y2="12.25"/><path class="cls-1" d="M20.82,8.36c-.68-.27-.83-1.48-.37-2.76l-.75-.3L17.8,10l4.06,1.65L23.76,7,23,6.65C22.45,7.88,21.49,8.64,20.82,8.36Z"/></g></g></svg>