<svg id="レイヤー_1" data-name="レイヤー 1" xmlns="http://www.w3.org/2000/svg" viewBox="0 0 97 37"><defs><style>.cls-1{fill:#fff;}</style></defs><path class="cls-1" d="M10.75,32.44c-.48-.58-1.44-1.54-2.32-2.38v5.69H6.27V30.13a17.65,17.65,0,0,1-3.58,4,8.76,8.76,0,0,0-1.44-1.6,16.37,16.37,0,0,0,4.58-5h-4V25.63H6.27V23.44H1.76V21.55H4.23a11.33,11.33,0,0,0-.84-3.1L5,18.05H2.07V16.2h4.2V13.92H8.43V16.2h4.19v1.85H9.72l1.68.38c-.46,1.13-.91,2.3-1.32,3.12h2.81v1.89H8.43v2.19h4.24v1.89H8.43v.41c.86.6,3.07,2.4,3.62,2.85ZM5.12,18.05a11,11,0,0,1,1,3.14l-1.39.36H10l-1.65-.36a22.77,22.77,0,0,0,1.07-3.14Zm18.44,5.73H21V35.65H18.88V23.78H15.79V24c0,3.55-.43,8.54-3.74,11.88a5.44,5.44,0,0,0-1.59-1.54c2.91-2.95,3.19-7,3.19-10.36v-8.3l1.49.43A31.29,31.29,0,0,0,21.52,14l1.8,1.61a36.61,36.61,0,0,1-7.53,2.18v3.89h7.77Z"/><path class="cls-1" d="M33.75,32.22A42.77,42.77,0,0,0,31,28.46a11.86,11.86,0,0,1-4,7,8.17,8.17,0,0,0-1.54-1.58c2.88-2.13,3.67-5.61,3.89-8.78H25.67v-2h3.72v-3.5H26.13v-2h3.26V14h2.09v3.57h3.21v2H31.48v3.5H35.1v2H31.4c0,.34-.07.7-.09,1,1,1,3.4,3.72,4,4.44ZM45.29,33.4c.43,0,.53-.34.6-3a5,5,0,0,0,1.82.84c-.16,3.31-.69,4.15-2.23,4.15H43.71c-1.85,0-2.23-.64-2.23-2.61V28.1H39.75c-.43,3.55-1.58,6.18-5.68,7.67a6,6,0,0,0-1.25-1.65c3.57-1.18,4.46-3.24,4.82-6H35.91V14.66H46.25V28.1H43.54v4.63c0,.6.07.67.53.67ZM38,18.57h6.12V16.68H38Zm0,3.77h6.12v-2H38Zm0,3.74h6.12V24.14H38Z"/><path class="cls-1" d="M71,17.93a37,37,0,0,1-3.36,2.66A15.24,15.24,0,0,0,71.77,23a8.07,8.07,0,0,0-1.49,1.85A18.21,18.21,0,0,1,64.91,21v1.17H56.13v-1a19.68,19.68,0,0,1-5.61,3.91,8,8,0,0,0-1.32-1.61,16.88,16.88,0,0,0,4.46-2.83,17.25,17.25,0,0,0-2.85-2.25L52,17.18a14.71,14.71,0,0,1,3,2.21,15.48,15.48,0,0,0,2.16-2.88H51.67V14.66h6.55l.38-.09,1.44.74a15.9,15.9,0,0,1-3,4.94h7.2a21.72,21.72,0,0,1-3.7-5.83l1.9-.57a15.77,15.77,0,0,0,1.51,2.71A24.58,24.58,0,0,0,66.71,14l1.68,1.2A40.74,40.74,0,0,1,65,17.93a18.15,18.15,0,0,0,1.41,1.51,22.38,22.38,0,0,0,3-2.69ZM66,30.42c-.53,1.08-1.1,2.16-1.58,3h6.45v1.87H50.28V33.4h6.16a13.54,13.54,0,0,0-1.24-2.88l1.32-.36H53.83V23.85H67.24v6.31h-2.3ZM56,28.36h9V25.67H56Zm1.34,1.8a11.32,11.32,0,0,1,1.37,3l-1,.27H63l-.75-.19a21.57,21.57,0,0,0,1.49-3.05Z"/><path class="cls-1" d="M87.65,30.93c-1.46,1.12-3.05,2.28-4.44,3.23l-.57-1,0,.19c-3,.65-6.14,1.32-8.54,1.8l-.45-2c1-.17,2.35-.41,3.76-.67V25.67h-3.5V23.73h3.5V21.55h-2.3V20.49c-.24.22-.48.46-.75.7A6.13,6.13,0,0,0,73,19.77a16.42,16.42,0,0,0,4.34-6h1.89a27.67,27.67,0,0,1,4,4.19l-1.44,1.68H82v1.9H79.37v2.18h3.24v1.94H79.37v6.41l3.12-.6.05.65c1.2-.75,2.81-1.8,4.44-2.88ZM75.8,26.75a22,22,0,0,1,.94,4.34l-1.59.41a21.21,21.21,0,0,0-.81-4.36Zm6-7.1a24.54,24.54,0,0,0-3.16-3.79,24,24,0,0,1-2.71,3.79Zm-1.8,11a29.82,29.82,0,0,0,.94-4.13l1.68.43c-.41,1.39-.84,3-1.2,4.08Zm11.35-2.93a11,11,0,0,0,4.6,4.85,9.58,9.58,0,0,0-1.43,1.82A12.9,12.9,0,0,1,90,29v4.6c0,1-.14,1.56-.79,1.9a7,7,0,0,1-2.85.34,7.43,7.43,0,0,0-.56-1.95c.8,0,1.56,0,1.8,0s.34-.1.34-.36V23.61H82.73V21.69h8.78V20H84.44V18.24h7.07V16.53H84V14.66h9.61v7h1.88v1.92H90v.6a19.18,19.18,0,0,0,1.2,3.24,20.49,20.49,0,0,0,2.52-3.17l1.75,1.11a42,42,0,0,1-3,3.14Zm-6.74-3.09a14.5,14.5,0,0,1,2.57,3.09l-1.61,1.08a13.71,13.71,0,0,0-2.45-3.21Z"/><path class="cls-1" d="M4.14,3.55C4.08,4.88,4,7.65,4,9.31c0,1.27.78,1.7,1.82,1.7A4.89,4.89,0,0,0,10,8.54l.86,1.05a6.14,6.14,0,0,1-5.1,2.68c-1.82,0-3-.78-3-2.77,0-1.7.12-4.8.12-5.95a7.3,7.3,0,0,0-.13-1.39H4.27A13.38,13.38,0,0,0,4.14,3.55Z"/><path class="cls-1" d="M18.36,3.27c-.55.83-1.55,2.62-2.15,3.74a2.63,2.63,0,0,1,1.6-.58,1.4,1.4,0,0,1,1.45,1.51c0,.63,0,1.56,0,2.11a.79.79,0,0,0,.87.77c1.22,0,1.95-1.51,2.27-2.89l1,.83c-.62,2-1.68,3.34-3.47,3.34a1.63,1.63,0,0,1-1.84-1.58c0-.68,0-1.63-.08-2.22a.72.72,0,0,0-.79-.75c-.9,0-1.7.91-2.16,1.87a22.34,22.34,0,0,0-1,2.7l-1.32-.45A89.89,89.89,0,0,1,16.9,3.19c.15-.3.33-.63.5-1l1.35.54C18.64,2.83,18.51,3.05,18.36,3.27Z"/><path class="cls-1" d="M37,2.07l1.28-.15a13.46,13.46,0,0,0,.25,1.36A13.63,13.63,0,0,0,41,2.74l.15,1.09a17.26,17.26,0,0,1-2.3.47c.08.25.16.49.24.7s.16.42.24.65a13.4,13.4,0,0,0,2.35-.5l.19,1.13a21,21,0,0,1-2.07.39A10.9,10.9,0,0,0,40.5,8a3.23,3.23,0,0,0,.49.56l-.6.89a24.36,24.36,0,0,0-2.71-.37l.1-.91,1.66.16a12.26,12.26,0,0,1-.81-1.51,38.22,38.22,0,0,1-5.25,0l-.06-1.11a27.8,27.8,0,0,0,4.87.07c-.08-.18-.15-.36-.21-.53s-.19-.59-.27-.84a28.91,28.91,0,0,1-4.09-.09l-.08-1.09a25.17,25.17,0,0,0,3.87.15.49.49,0,0,1,0-.11C37.26,2.87,37.14,2.46,37,2.07ZM34.79,9.69c0,1,.86,1.39,2.62,1.39a14.14,14.14,0,0,0,2.92-.26L40.27,12a19.08,19.08,0,0,1-2.85.22c-2.38,0-3.77-.71-3.79-2.33a3.71,3.71,0,0,1,.5-1.8l1.18.23A2.3,2.3,0,0,0,34.79,9.69Z"/><path class="cls-1" d="M53.88,5.62C54.94,5,56.12,4.39,56.75,4a6.39,6.39,0,0,0,1-.63l.66,1.09c-.31.19-.65.37-1,.56-.8.41-2.39,1.16-3.53,1.9s-1.73,1.45-1.73,2.33.9,1.48,2.69,1.48a18,18,0,0,0,3.87-.43v1.37a22.64,22.64,0,0,1-3.81.29c-2.32,0-4-.66-4-2.58a3.94,3.94,0,0,1,2-3.12c-.55-1-1.15-2.36-1.72-3.65l1.19-.49A28.74,28.74,0,0,0,53.88,5.62Z"/><path class="cls-1" d="M66.09,6a11.16,11.16,0,0,0-3.22.6c-.36.11-.75.27-1.07.39l-.37-1.37c.36,0,.82-.11,1.19-.19a15.25,15.25,0,0,1,3.61-.57c1.79,0,3.08,1,3.08,2.8,0,2.58-2.35,4.1-5.56,4.57l-.69-1.17C66,10.72,68,9.66,68,7.63A1.69,1.69,0,0,0,66.09,6Zm2.24-3.4-.19,1.16c-1.36-.08-3.85-.32-5.22-.56l.18-1.15A33.7,33.7,0,0,0,68.33,2.62Z"/><path class="cls-1" d="M77.55,2.75c.64,0,3.36-.06,4.12-.11a3.77,3.77,0,0,0,.76-.12l.67.86c-.19.1-.44.28-.59.38l-3.13,2.5A4.68,4.68,0,0,1,80.85,6c2,0,3.43,1.17,3.43,2.82,0,2.33-2.18,3.64-6.36,3.3l-.32-1.22c3.32.4,5.4-.4,5.4-2.09C83,7.77,82.07,7,80.59,7c-2,0-3.15,1.11-4.57,2.48l-.9-.93c1.68-1.3,4.77-3.85,5.75-4.86-.7,0-2.69.12-3.27.15-.29,0-.66.05-.92.09l0-1.25A6.69,6.69,0,0,0,77.55,2.75Z"/><path class="cls-1" d="M92.43,3.58c-.81.67-2.46,2-3.31,2.7-.69.58-.69.74,0,1.35,1,.84,3.2,2.58,4.45,3.83l-1.09,1c-.29-.32-.6-.66-.91-1-.81-.81-2.59-2.35-3.71-3.29s-1-1.54.1-2.49c.92-.77,2.66-2.16,3.47-3a6.54,6.54,0,0,0,.78-.9l1.12,1C93.05,3.06,92.67,3.38,92.43,3.58Z"/></svg>