<svg id="レイヤー_1" data-name="レイヤー 1" xmlns="http://www.w3.org/2000/svg" viewBox="0 0 97 37"><defs><style>.cls-1{fill:#fff;}</style></defs><path class="cls-1" d="M10.88,32.42a35.83,35.83,0,0,0-2.74-2.68v6.09H6.42V29.55a19.45,19.45,0,0,1-4,4.6,7.35,7.35,0,0,0-1.2-1.29A16.84,16.84,0,0,0,6,27.46H1.74V26H6.42V23.43H1.67V21.92H12.8v1.51H8.14V26h4.47v1.51H8.14V28c.92.68,3.24,2.57,3.79,3.07ZM12.51,18H2V16.5H6.42V14.07H8.14V16.5h4.37ZM4.38,21.89a13.87,13.87,0,0,0-.94-3.45l1.39-.36a13,13,0,0,1,1,3.41Zm3.93-.38A19.61,19.61,0,0,0,9.51,18l1.63.39a32.5,32.5,0,0,1-1.39,3.4Zm15.07,2.18H20.69v12H18.94v-12H15.36v.6c0,3.58-.45,8.37-3.81,11.71a4.45,4.45,0,0,0-1.27-1.25c3.05-3,3.38-7.12,3.38-10.48V15.92l1.3.41a33,33,0,0,0,6.66-2.06l1.44,1.32a38.91,38.91,0,0,1-7.7,2.15V22h8Z"/><path class="cls-1" d="M33.86,32.3c-.6-.91-2-2.71-3.15-4a12.19,12.19,0,0,1-4.1,7.31,5,5,0,0,0-1.2-1.29c3.05-2.28,3.84-6,4-9.24H25.56v-1.6h4V19.54H26.06V18h3.45V14.24h1.66V18h3.38v1.58H31.17v3.94H35v1.6H31.1c0,.46-.07.94-.12,1.4,1,1,3.5,3.81,4.1,4.5Zm11.49,1.59c.52,0,.62-.36.69-3.17a4.39,4.39,0,0,0,1.49.67c-.14,3.26-.58,4.08-2,4.08H43.6c-1.66,0-2-.53-2-2.21V28.18H39.47c-.43,3.62-1.66,6.24-5.73,7.67a4.87,4.87,0,0,0-1-1.34c3.65-1.17,4.68-3.38,5.06-6.33H35.87V14.91H46.09V28.18H43.24v5.08c0,.56.09.63.6.63Zm-7.82-15h6.83V16.54H37.53Zm0,3.84h6.83V20.36H37.53Zm0,3.86h6.83v-2.4H37.53Z"/><path class="cls-1" d="M70.77,17.94a33.52,33.52,0,0,1-3.57,2.85,16.91,16.91,0,0,0,4.36,2.59,6.76,6.76,0,0,0-1.17,1.46,18.12,18.12,0,0,1-5.57-3.95v1.27H56V21.08a20.29,20.29,0,0,1-5.79,4.05,8.05,8.05,0,0,0-1.07-1.29A17.31,17.31,0,0,0,54,20.72a18.87,18.87,0,0,0-3.12-2.47l1-1A15.87,15.87,0,0,1,55,19.71a15,15,0,0,0,2.42-3.31H51.49V14.89H58.3l.33-.07,1.13.6a16.42,16.42,0,0,1-3.33,5.2h8.13a22.28,22.28,0,0,1-4.06-6.09L62,14.05A16.42,16.42,0,0,0,63.7,17a33.48,33.48,0,0,0,3.09-2.81l1.34,1a35.74,35.74,0,0,1-3.62,2.93,19.53,19.53,0,0,0,1.63,1.77A24.72,24.72,0,0,0,69.43,17Zm-5,12.59A37.25,37.25,0,0,1,64,33.82H70.8v1.51H50.07V33.82h6.52a14,14,0,0,0-1.39-3.24l1.35-.36H53.84V24.1H67v6.12H64.58Zm-10.22-1.8h9.69V25.59H55.54Zm1.32,1.49a14.19,14.19,0,0,1,1.51,3.26l-1.1.34h5.78l-.77-.22A24.42,24.42,0,0,0,64,30.22Z"/><path class="cls-1" d="M87.51,30.91C86,32.09,84.37,33.29,83,34.25l-.52-.94c-3,.67-6.14,1.32-8.49,1.85l-.36-1.66c1.1-.16,2.47-.43,4-.72V25.52H73.79V24h3.74V21.41H75.06V20.33c-.31.32-.64.63-1,.94A6.23,6.23,0,0,0,73,20.14,16.82,16.82,0,0,0,77.46,14h1.61a27.69,27.69,0,0,1,4,4.3l-1.17,1.32a26.72,26.72,0,0,0-3.39-4,22.19,22.19,0,0,1-3,4.25h6.38v1.53H79.09V24h3.43v1.56H79.09v7l3.31-.67.07.74c1.23-.74,2.88-1.87,4.51-3ZM75.57,26.79a19.33,19.33,0,0,1,1,4.51l-1.32.33a19.47,19.47,0,0,0-.87-4.53ZM80,30.89a40.13,40.13,0,0,0,1-4.32l1.39.36c-.38,1.46-.84,3.17-1.2,4.27Zm9.69-6.74c.76,3.12,2.56,7,6.14,8.85a7.32,7.32,0,0,0-1.18,1.44,13.17,13.17,0,0,1-5-6.17V34c0,.84-.17,1.32-.75,1.58a7.26,7.26,0,0,1-2.75.27,7.1,7.1,0,0,0-.51-1.56c.91,0,1.73,0,2,0S88,34.27,88,34V23.6H82.62V22h9.14V20H84.35V18.51h7.41V16.45H83.87V14.94h9.52V22h2V23.6H89.65Zm-4,4.72a14.92,14.92,0,0,0-2.57-3.26l1.2-.77A14.77,14.77,0,0,1,87,28ZM91,27.82a24.71,24.71,0,0,0,2.78-3.38l1.39.86a28.36,28.36,0,0,1-3.07,3.31Z"/><path class="cls-1" d="M4,3.46c-.06,1.35-.15,4.18-.15,6,0,1.32.83,1.79,2,1.79a5,5,0,0,0,4.3-2.49l.68.82a6,6,0,0,1-5,2.65c-1.73,0-2.92-.72-2.92-2.67,0-1.78.12-4.81.12-6.07A6.57,6.57,0,0,0,2.9,2.23l1.21,0A9.71,9.71,0,0,0,4,3.46Z"/><path class="cls-1" d="M18.21,3.28c-.53.82-1.64,2.82-2.26,4a2.63,2.63,0,0,1,1.79-.74A1.35,1.35,0,0,1,19.14,8c0,.7,0,1.63.05,2.22a.87.87,0,0,0,1,.85c1.33,0,2.12-1.66,2.44-2.93l.79.65C22.75,10.69,21.74,12,20,12a1.54,1.54,0,0,1-1.73-1.52c0-.7,0-1.62-.05-2.28a.81.81,0,0,0-.88-.84c-1,0-1.87,1-2.34,1.92A19.59,19.59,0,0,0,14,12l-1-.36a85.41,85.41,0,0,1,4.15-8.5,10,10,0,0,0,.44-.92l1.06.43A6.92,6.92,0,0,0,18.21,3.28Z"/><path class="cls-1" d="M37.15,2.15l1-.13a9.42,9.42,0,0,0,.29,1.42,12.94,12.94,0,0,0,2.46-.53l.13.86a17.84,17.84,0,0,1-2.36.48c.08.3.18.57.26.83s.18.48.28.72a13.45,13.45,0,0,0,2.4-.52l.14.9a17.67,17.67,0,0,1-2.17.43,12,12,0,0,0,.84,1.49,3.58,3.58,0,0,0,.44.51l-.49.74A23.09,23.09,0,0,0,37.77,9l.08-.73,1.8.2a13.73,13.73,0,0,1-.94-1.72,35.36,35.36,0,0,1-5.27,0l0-.9a27.07,27.07,0,0,0,5,.06c-.09-.21-.17-.42-.24-.62l-.33-.94a29.19,29.19,0,0,1-4.12-.08l-.06-.88a23.77,23.77,0,0,0,4,.15c0-.1-.06-.21-.08-.3C37.39,2.86,37.27,2.49,37.15,2.15ZM34.62,9.77c0,1,.89,1.48,2.77,1.48A13.65,13.65,0,0,0,40.25,11l0,1a18.42,18.42,0,0,1-2.8.2c-2.35,0-3.67-.69-3.69-2.23a3.55,3.55,0,0,1,.47-1.71l.94.19A2.33,2.33,0,0,0,34.62,9.77Z"/><path class="cls-1" d="M53.81,5.82c1.13-.68,2.42-1.32,3.08-1.68a6.26,6.26,0,0,0,.85-.56l.53.85c-.27.17-.57.32-.92.5a39.79,39.79,0,0,0-3.65,2c-1.11.72-1.78,1.51-1.78,2.43S52.86,11,54.76,11a18,18,0,0,0,3.84-.4v1.06a23.22,23.22,0,0,1-3.79.3c-2.26,0-3.89-.67-3.89-2.47,0-1.23.79-2.2,2.07-3.1-.55-1-1.18-2.39-1.73-3.7l.94-.39A25.64,25.64,0,0,0,53.81,5.82Z"/><path class="cls-1" d="M66.13,5.87a11,11,0,0,0-3.27.6c-.37.12-.72.25-1,.37l-.31-1.12a6.3,6.3,0,0,0,1.1-.18A16.05,16.05,0,0,1,66.23,5c1.7,0,3,1,3,2.66,0,2.6-2.33,4.07-5.44,4.53l-.54-.91c2.91-.36,5-1.51,5-3.66A1.81,1.81,0,0,0,66.13,5.87Zm2.11-3.12-.14.92c-1.33-.08-3.75-.32-5.11-.56l.16-.91A32.13,32.13,0,0,0,68.24,2.75Z"/><path class="cls-1" d="M77.57,2.87c.64,0,3.37-.06,4.13-.11a4.68,4.68,0,0,0,.67-.11l.57.7a3.93,3.93,0,0,0-.52.35c-.89.74-2.33,1.92-3.33,2.73a5,5,0,0,1,1.72-.32c2,0,3.36,1.11,3.36,2.74,0,2.29-2.27,3.54-6.24,3.22l-.26-1c3.32.4,5.49-.48,5.49-2.26,0-1.15-1-1.94-2.52-1.94-2.07,0-3.16,1-4.66,2.49l-.74-.74c1.76-1.37,4.92-4,5.94-5.06-.73,0-3,.13-3.57.17a7.66,7.66,0,0,0-.85.08l0-1A6.74,6.74,0,0,0,77.57,2.87Z"/><path class="cls-1" d="M92.37,3.42c-.82.72-2.55,2.09-3.43,2.83-.72.61-.74.8,0,1.45,1.09.89,3.22,2.61,4.49,3.88l-.86.79c-.25-.29-.52-.59-.82-.88-.84-.86-2.66-2.42-3.78-3.34s-1-1.47.08-2.38c.9-.75,2.73-2.19,3.54-3a6.74,6.74,0,0,0,.69-.8l.88.79Z"/></svg>