<svg xmlns="http://www.w3.org/2000/svg" viewBox="0 0 80.45 111.85"><defs><style>.cls-1{fill:#f98cb6;}.cls-2{fill:#ffcae0;}</style></defs><g id="レイヤー_2" data-name="レイヤー 2"><g id="レイヤー_1-2" data-name="レイヤー 1"><g id="桜"><path class="cls-1" d="M62,63.83l2-2.25a.37.37,0,0,1,.68.14l1,3a.41.41,0,0,0,.72.19s2.85-2.66,3.48-5.52c.88-4-2.61-7.81-2.61-7.81a1.08,1.08,0,0,0-1.11-.23s-4.75,2-5.63,6.07c-.61,2.76.76,6.27.76,6.27A.39.39,0,0,0,62,63.83Z"/><path class="cls-2" d="M48.92,85.3l2.63-1.52c.33-.2.6,0,.6.34v3.16a.41.41,0,0,0,.63.4s3.53-1.67,5-4.19c2.08-3.59-.1-8.24-.1-8.24a1.07,1.07,0,0,0-1-.56s-5.14.48-7.21,4.06C48.05,81.2,48.28,85,48.28,85A.39.39,0,0,0,48.92,85.3Z"/><path class="cls-2" d="M25.87,98.17l3,.22c.39,0,.52.3.31.62l-1.78,2.61a.4.4,0,0,0,.3.68s3.85.61,6.48-.66c3.74-1.8,4.55-6.86,4.55-6.86a1.09,1.09,0,0,0-.5-1s-4.52-2.49-8.26-.7c-2.54,1.23-4.46,4.47-4.46,4.47C25.33,97.85,25.48,98.14,25.87,98.17Z"/><path class="cls-1" d="M.36,106.78l3,.71c.37.09.46.38.2.66l-2.18,2.29a.4.4,0,0,0,.18.72s3.7,1.23,6.51.4c4-1.17,5.59-6,5.59-6a1.05,1.05,0,0,0-.33-1.09s-4-3.19-8-2c-2.71.8-5.14,3.68-5.14,3.68A.4.4,0,0,0,.36,106.78Z"/><path class="cls-1" d="M56.83,106.78l2.9-.9c.37-.11.6.1.51.47l-.72,3.09c-.08.37.15.6.53.52,0,0,3.81-.82,5.81-3,2.83-3,1.76-8,1.76-8a1.08,1.08,0,0,0-.84-.77s-5.12-.69-8,2.33c-1.92,2.07-2.55,5.78-2.55,5.78C56.21,106.67,56.46,106.89,56.83,106.78Z"/><path class="cls-1" d="M57.81,23s-6-.42-9,3.34c-2.08,2.55-2.5,7-2.5,7a.45.45,0,0,0,.67.51l3.3-1.26c.42-.16.7.06.63.51l-.58,3.66a.47.47,0,0,0,.65.57s4.37-1.26,6.51-3.91c3-3.75,1.39-9.54,1.39-9.54A1.25,1.25,0,0,0,57.81,23Z"/><path class="cls-1" d="M67.42,8C67.6,4.66,65.3.75,65.3.75a.47.47,0,0,0-.87,0l-2,3a.44.44,0,0,1-.83,0L59.89.33A.49.49,0,0,0,59,.25s-2.87,3.69-3,7.18c-.26,5,4.61,8.78,4.61,8.78a1.28,1.28,0,0,0,1.36.07S67.16,13,67.42,8Z"/><path class="cls-1" d="M57.12,19.69a1.25,1.25,0,0,0,.48-1.24s-1.46-5.84-6-7.57c-3.07-1.18-7.38-.23-7.38-.23a.46.46,0,0,0-.28.81l2.22,2.74c.28.35.15.69-.29.76l-3.66.58a.47.47,0,0,0-.35.79s2.55,3.76,5.73,5C52.13,23.05,57.12,19.69,57.12,19.69Z"/><path class="cls-2" d="M80,17.74l-3.41-.91c-.43-.12-.53-.47-.21-.79L79,13.43a.48.48,0,0,0-.19-.85s-4.27-1.55-7.56-.67c-4.67,1.25-6.73,6.91-6.73,6.91a1.25,1.25,0,0,0,.34,1.28s4.61,3.86,9.28,2.61c3.18-.85,6.11-4.15,6.11-4.15A.47.47,0,0,0,80,17.74Z"/><path class="cls-1" d="M63.84,23.29a1.24,1.24,0,0,0-1.11.72s-2.25,5.58.38,9.63C64.91,36.4,69,38.17,69,38.17a.46.46,0,0,0,.7-.49l-.18-3.53c0-.44.28-.64.68-.44l3.3,1.69A.48.48,0,0,0,74.2,35s.15-4.54-1.71-7.4C69.86,23.5,63.84,23.29,63.84,23.29Z"/></g></g></g></svg>