<svg xmlns="http://www.w3.org/2000/svg" viewBox="0 0 74.32 22.58"><defs><style>.cls-1{fill:#fff;}.cls-2{fill:#e86d99;}</style></defs><g id="レイヤー_2" data-name="レイヤー 2"><g id="レイヤー_1-2" data-name="レイヤー 1"><g id="ログイン"><path class="cls-1" d="M16.66,21.24H14.48a2,2,0,0,1-1.55-.73,2,2,0,0,1-.24-.39H6a2,2,0,0,1-.25.39,2,2,0,0,1-1.55.73H2a2,2,0,0,1-1.49-.66A2,2,0,0,1,0,19c0-.17,0-1.58,0-2.36V6.84c0-.48,0-1.14,0-1.59A2,2,0,0,1,.59,3.71,2,2,0,0,1,2.12,3.1c.76,0,1.39,0,1.84,0H14.82c.43,0,1.14,0,1.78,0a2,2,0,0,1,2.06,2.15c0,.49,0,1.06,0,1.57v9.82c0,.47,0,1.39,0,2,0,.31,0,.54,0,.59A2,2,0,0,1,16.66,21.24ZM6.14,14.12h6.38v-5H6.14Z"/><path class="cls-1" d="M23.6,22.58a2,2,0,0,1-1.34-.51L20.4,20.39a2,2,0,0,1,.77-3.4,14.09,14.09,0,0,0,7.08-4.37A12.92,12.92,0,0,0,29.94,10H27.53a22.92,22.92,0,0,1-4.93,4.54,2,2,0,0,1-2.31-.05l-1.76-1.3a2,2,0,0,1,.16-3.32A15.22,15.22,0,0,0,24.24,4a7.92,7.92,0,0,0,.57-1.39,2,2,0,0,1,1-1.23,2,2,0,0,1,1.56-.14L29.68,2a2,2,0,0,1,1.2,1.07c0-.08,0-.17.06-.26a2,2,0,0,1,1.15-1.29L33.37,1A2.2,2.2,0,0,1,34,.86,1.91,1.91,0,0,1,34.35.7L35.63.16A2,2,0,0,1,38,.82a24.4,24.4,0,0,1,1.83,3A2,2,0,0,1,40,5.39a2,2,0,0,1-1.07,1.16l-1.2.53a2,2,0,0,1-.3,1,4.49,4.49,0,0,0-.35.77,21.87,21.87,0,0,1-3.88,7.46,20.18,20.18,0,0,1-8.83,6.14A2,2,0,0,1,23.6,22.58Z"/><path class="cls-1" d="M48.7,21.76H46.22a2,2,0,0,1-2-2.27c0-.29.1-1.27.1-2.09V13.65a42.17,42.17,0,0,1-4.8,1.81,2,2,0,0,1-2.37-1l-1-2a2,2,0,0,1,1.27-2.82,31.2,31.2,0,0,0,8.19-3.45h0a22.55,22.55,0,0,0,5.08-4.35,2,2,0,0,1,2.91-.16l1.68,1.6a2,2,0,0,1,.62,1.42,2,2,0,0,1-.57,1.44,34.67,34.67,0,0,1-4.81,4V17.4a17.24,17.24,0,0,0,.09,1.93,2,2,0,0,1-1.95,2.43Z"/><path class="cls-1" d="M57.64,21.56A2,2,0,0,1,56,20.65l-1.34-2.06A2,2,0,0,1,56,15.53,18.86,18.86,0,0,0,63.11,13,16.9,16.9,0,0,0,69.3,6.3a2,2,0,0,1,3.55-.12l1.22,2.18a2,2,0,0,1,0,2,22.48,22.48,0,0,1-7.72,8A24,24,0,0,1,58,21.53,2.19,2.19,0,0,1,57.64,21.56Zm6.52-6.86h0ZM61.9,11.92a2,2,0,0,1-1.42-.6,42.47,42.47,0,0,0-4.7-4,2,2,0,0,1-.34-3L56.9,2.75a2,2,0,0,1,2.58-.29,44.31,44.31,0,0,1,5.44,4.45,2,2,0,0,1,0,2.79l-1.58,1.62a2,2,0,0,1-1.42.6Z"/><path class="cls-2" d="M4,5.14H14.82c.46,0,1.18,0,1.84,0,0,.54,0,1.16,0,1.72v9.82c0,.7,0,2.42,0,2.58H14.48c0-.1,0-.56,0-1.12H4.16c0,.54,0,1,0,1.12H2c0-.18.06-1.78.06-2.58V6.84c0-.52,0-1.22,0-1.74C2.82,5.14,3.46,5.14,4,5.14Zm.18,11H14.52v-9H4.14Z"/><path class="cls-2" d="M28,5.7c-.1.18-.18.34-.3.52h4.82A5.34,5.34,0,0,0,34,6l1.64,1a6.84,6.84,0,0,0-.56,1.22A19.79,19.79,0,0,1,31.6,15a18.18,18.18,0,0,1-8,5.54L21.74,18.9a16,16,0,0,0,8-5,15,15,0,0,0,3-5.9H26.54a20.72,20.72,0,0,1-5.06,4.88l-1.76-1.3A17.11,17.11,0,0,0,26,5a9.37,9.37,0,0,0,.74-1.8l2.32.76C28.66,4.54,28.24,5.3,28,5.7Zm7.74-.1-1.32.56A23.87,23.87,0,0,0,32.86,3.4l1.28-.54A29,29,0,0,1,35.76,5.6Zm2.3-.88-1.3.58a20.07,20.07,0,0,0-1.64-2.76L36.4,2A23.64,23.64,0,0,1,38.06,4.72Z"/><path class="cls-2" d="M46.7,7.88a24.69,24.69,0,0,0,5.56-4.76l1.68,1.6A33.74,33.74,0,0,1,48.56,9.1v8.3a15,15,0,0,0,.14,2.36H46.22a23.18,23.18,0,0,0,.12-2.36v-7A40.92,40.92,0,0,1,39,13.54l-1-2A33,33,0,0,0,46.7,7.88Z"/><path class="cls-2" d="M64.16,14.7A19,19,0,0,0,71.1,7.16l1.22,2.18a20.45,20.45,0,0,1-7,7.24,22.05,22.05,0,0,1-7.66,3L56.3,17.5A20.78,20.78,0,0,0,64.16,14.7Zm-.68-6.4L61.9,9.92a43.38,43.38,0,0,0-5-4.24l1.46-1.56A42,42,0,0,1,63.48,8.3Z"/></g></g></g></svg>