<svg id="レイヤー_1" data-name="レイヤー 1" xmlns="http://www.w3.org/2000/svg" viewBox="0 0 101 25"><defs><style>.cls-1{fill:#fff;}.cls-2{fill:#e86d99;}</style></defs><path class="cls-1" d="M7.53,20.09a32.17,32.17,0,0,1-3.28-.16,1.81,1.81,0,0,1-1.63-1.8V13.24A1.81,1.81,0,0,1,.84,11.43V10.15A1.81,1.81,0,0,1,2.62,8.34V3.89A1.81,1.81,0,0,1,4.14,2.1a24.12,24.12,0,0,1,3.92-.33,9.66,9.66,0,0,1,6.66,2.12,8.43,8.43,0,0,1,2.65,6.68C17.37,16.53,13.69,20.09,7.53,20.09Zm.31-6.85v2c2.8,0,4.22-1.57,4.22-4.63a4.08,4.08,0,0,0-.93-3,4.13,4.13,0,0,0-3-1H7.84V8.34h2a1.81,1.81,0,0,1,1.81,1.81v1.28a1.81,1.81,0,0,1-1.81,1.81Z"/><path class="cls-1" d="M20.1,20.19a4.68,4.68,0,0,1-4.83-4.74,5,5,0,0,1,1.48-3.65,6.21,6.21,0,0,1,.73-.61,1.81,1.81,0,0,1-1-1L16.1,9.07A1.82,1.82,0,0,1,16.79,7a7.31,7.31,0,0,1,1-.54,4.46,4.46,0,0,1-.92-2.82,1.81,1.81,0,0,1,1.81-1.81h.95a1.79,1.79,0,0,1,1.59,1,1.82,1.82,0,0,1,1.6-1h1a1.84,1.84,0,0,1,1.29.54,1.82,1.82,0,0,1,.52,1.29,4.42,4.42,0,0,1-1.27,3.13,5.76,5.76,0,0,1,2.14,4.94v4a16.48,16.48,0,0,0,.11,2.17,1.78,1.78,0,0,1-.41,1.46A1.81,1.81,0,0,1,24.8,20H23.35a1.74,1.74,0,0,1-.93-.26A5.64,5.64,0,0,1,20.1,20.19Zm1.2-5.47a1.67,1.67,0,0,0-.76.34s-.07.06-.07.22v.1A.79.79,0,0,0,21.3,14.72Z"/><path class="cls-1" d="M36,20H34.41a1.81,1.81,0,0,1-1.81-1.81V12c0-1.36-.41-1.36-.6-1.36a1,1,0,0,0-.91,1.14v6.34A1.81,1.81,0,0,1,29.28,20H27.7a1.81,1.81,0,0,1-1.81-1.81V10.46c0-1,0-1.71-.06-2.48V7.86a1.83,1.83,0,0,1,.5-1.33A1.79,1.79,0,0,1,27.63,6H29a1.86,1.86,0,0,1,1,.31,5.76,5.76,0,0,1,2.44-.54c2.64,0,5.3,1.89,5.3,6.1v6.31A1.81,1.81,0,0,1,36,20Z"/><path class="cls-1" d="M42.43,24.42a7.87,7.87,0,0,1-4.27-1.13,1.79,1.79,0,0,1-.69-2.07L37.88,20A1.79,1.79,0,0,1,39,18.87l.17-.06A7.08,7.08,0,0,1,36.5,13c0-4.74,3.24-7.3,6.29-7.3a5.71,5.71,0,0,1,2.33.48A1.79,1.79,0,0,1,46,6h1.42a1.8,1.8,0,0,1,1.8,2c-.06.81-.08,1.62-.08,2.71v6C49.18,23.08,45.51,24.42,42.43,24.42ZM43,10.63c-1,0-1.29,1.25-1.29,2.32,0,.63.12,2.12,1.27,2.12.1,0,1,0,1-1.23V11.77C44,11,43.49,10.63,43,10.63Z"/><path class="cls-1" d="M63.19,20H61.61a1.81,1.81,0,0,1-1.8-1.81V12c0-1.36-.41-1.36-.61-1.36a1,1,0,0,0-.9,1.14v6.34A1.81,1.81,0,0,1,56.49,20H54.91a1.81,1.81,0,0,1-1.81-1.81V10.46c0-1,0-1.66-.07-2.4v-.2a1.75,1.75,0,0,1,.5-1.33A1.79,1.79,0,0,1,54.83,6h1.41a1.85,1.85,0,0,1,1,.31,5.81,5.81,0,0,1,2.45-.54c2.64,0,5.3,1.89,5.3,6.1v6.31A1.81,1.81,0,0,1,63.19,20Z"/><path class="cls-1" d="M74.53,20H73a1.81,1.81,0,0,1-1.81-1.81V12c0-1.34-.4-1.34-.59-1.34a1,1,0,0,0-.92,1.1v6.36A1.81,1.81,0,0,1,67.83,20H66.25a1.81,1.81,0,0,1-1.81-1.81V3a1.81,1.81,0,0,1,1.81-1.81h1.58A1.81,1.81,0,0,1,69.64,3v3c3-.81,6.7.9,6.7,5.9v6.31A1.81,1.81,0,0,1,74.53,20Z"/><path class="cls-1" d="M81.39,24.5a3.08,3.08,0,0,1-3.16-3.14A3.16,3.16,0,0,1,78.55,20a4.64,4.64,0,0,1-3.28-4.59,4.54,4.54,0,0,1,1.81-3.77,1.7,1.7,0,0,1-.35-.45l-.82-1.48a1.81,1.81,0,0,1,.62-2.4c.27-.18.54-.33.81-.48l-.26-.24a1.81,1.81,0,0,1-.17-2.47l2.4-2.93A1.8,1.8,0,0,1,80.71.5h2.2a1.8,1.8,0,0,1,1.4.66l2.4,2.93a1.81,1.81,0,0,1-.17,2.47l-.74.69a6.61,6.61,0,0,1,1.52,4.61v6.29A1.81,1.81,0,0,1,85.51,20H84.25a3.24,3.24,0,0,1,.32,1.4A3.09,3.09,0,0,1,81.39,24.5Zm0-3.62a.58.58,0,0,0-.44.48.6.6,0,0,0,.44.54.57.57,0,0,0,.46-.54A.56.56,0,0,0,81.39,20.88Z"/><path class="cls-1" d="M90.09,24.2H88.52a1.81,1.81,0,0,1-1.81-1.81V11.12c0-1.3,0-2.29-.08-3.27A1.83,1.83,0,0,1,88.44,6h1.43a1.79,1.79,0,0,1,1,.33,6.06,6.06,0,0,1,2.62-.56c3.49,0,6,3,6,7.09,0,5.06-3.27,7.36-6.31,7.36A5.94,5.94,0,0,1,91.9,20v2.35A1.81,1.81,0,0,1,90.09,24.2Zm3-13.55c-.67,0-1.16.84-1.16,1.4v2A1.14,1.14,0,0,0,93,15.3c1.21,0,1.34-1.69,1.34-2.41C94.34,12.8,94.33,10.65,93.06,10.65Z"/><path class="cls-2" d="M2.68,11.6V9.87H4.35V3.81A20.85,20.85,0,0,1,8,3.51,8,8,0,0,1,13.38,5c1.31,1.07,2.16,2.87,2.16,5.51,0,3.56-1.44,7.75-8.07,7.75a26.16,26.16,0,0,1-3.12-.17V11.6ZM9.77,9.87V11.6H6.56v4.86a6.85,6.85,0,0,0,1.37.1c3.62,0,5.28-2.49,5.28-6s-1.66-5.37-5-5.37a6.83,6.83,0,0,0-1.69.17V9.87Z"/><path class="cls-2" d="M17.69,8.35a6.57,6.57,0,0,1,3.4-.87c3.08,0,3.93,2,3.93,4.23v4a15.29,15.29,0,0,0,.16,2.47h-2L23,16.94H23a3.43,3.43,0,0,1-2.9,1.42,2.94,2.94,0,0,1-3.08-3c0-2.6,2.26-3.91,5.83-3.89,0-.8,0-2.38-2.09-2.38a5,5,0,0,0-2.56.74ZM24,3.45a2.53,2.53,0,0,1-2.68,2.73,2.53,2.53,0,0,1-2.66-2.73h1.22a1.79,1.79,0,0,0,.47,1,1.34,1.34,0,0,0,1,.42A1.45,1.45,0,0,0,22.8,3.45Zm-1.14,9.42c-1.45,0-3.72.29-3.72,2.22a1.52,1.52,0,0,0,1.55,1.69,2.14,2.14,0,0,0,2.17-2.14Z"/><path class="cls-2" d="M36.44,18.15h-2.2V12c0-1.49-.5-2.74-2-2.74A2.36,2.36,0,0,0,30,11.84v6.31H27.8V10.63c0-1.16,0-2.05-.08-3h1.92l.12,1.56h0A3.6,3.6,0,0,1,33,7.46c1.64,0,3.46,1.06,3.46,4.29Z"/><path class="cls-2" d="M48,7.68c-.06.75-.1,1.62-.1,3v6c0,2.09-.17,5.94-5.13,5.94a6.82,6.82,0,0,1-3.3-.75l.49-1.71a5.72,5.72,0,0,0,2.83.74c1.71,0,2.93-.95,2.93-3.33v-1h0a3.29,3.29,0,0,1-2.91,1.53c-2.47,0-4.16-2.18-4.16-5.11,0-3.55,2.15-5.52,4.43-5.52a3,3,0,0,1,2.87,1.63h0L46,7.68Zm-2.3,4.05A2.35,2.35,0,0,0,43.4,9.2c-1.52,0-2.59,1.45-2.59,3.69,0,2,.93,3.51,2.57,3.51a2.36,2.36,0,0,0,2.28-2.62Z"/><path class="cls-2" d="M63.57,18.15h-2.2V12c0-1.49-.5-2.74-2-2.74a2.36,2.36,0,0,0-2.24,2.56v6.31h-2.2V10.63c0-1.16,0-2.05-.08-3h1.92l.12,1.56h0a3.61,3.61,0,0,1,3.18-1.78c1.63,0,3.45,1.06,3.45,4.29Z"/><path class="cls-2" d="M75,18.15h-2.2V12c0-1.5-.52-2.75-2-2.75a2.33,2.33,0,0,0-2.24,2.47v6.4h-2.2V2.92h2.2V9.11h0a3.56,3.56,0,0,1,3-1.65c1.58,0,3.4,1.06,3.4,4.37Z"/><path class="cls-2" d="M77.41,15.38c0-2.24,1.89-3.4,6.24-3.88,0-1.21-.45-2.28-2-2.28a5.75,5.75,0,0,0-3,1.07l-.82-1.48A8,8,0,0,1,82,7.44c2.6,0,3.8,1.65,3.8,4.42v6.29H84.05L83.88,17h-.07a5.19,5.19,0,0,1-3.33,1.45A2.88,2.88,0,0,1,77.41,15.38ZM81,2.31h2.21l2.39,2.92-.89.84L82.17,3.79H82.1L79.53,6.07l-.89-.84Zm2.62,13.14V12.89c-3.09.36-4.14,1.16-4.14,2.34,0,1,.71,1.44,1.64,1.44A3.66,3.66,0,0,0,83.65,15.45Zm-3.28,5.91a1.36,1.36,0,0,1,2.71,0,1.36,1.36,0,0,1-2.71,0Z"/><path class="cls-2" d="M90.7,9.28A3.72,3.72,0,0,1,94,7.46c2.35,0,4.12,2.09,4.12,5.33,0,3.84-2.22,5.57-4.43,5.57a3.2,3.2,0,0,1-2.79-1.44h0v5.47h-2.2V11.07c0-1.37,0-2.45-.08-3.39h1.94l.12,1.6Zm.19,4.65a2.44,2.44,0,0,0,2.38,2.68c1.71,0,2.64-1.57,2.64-3.74,0-2-.89-3.65-2.59-3.65A2.64,2.64,0,0,0,90.89,12Z"/></svg>