<svg id="レイヤー_1" data-name="レイヤー 1" xmlns="http://www.w3.org/2000/svg" viewBox="0 0 54 25"><defs><style>.cls-1{fill:#fff;}.cls-2{fill:#e86d99;}</style></defs><path class="cls-1" d="M10.8,19.75h-8A1.92,1.92,0,0,1,.84,17.83V2.43A1.92,1.92,0,0,1,2.76.5H4.44A1.92,1.92,0,0,1,6.36,2.43v12H10.8a1.92,1.92,0,0,1,1.93,1.92v1.44A1.92,1.92,0,0,1,10.8,19.75Z"/><path class="cls-1" d="M17.13,20c-4.08,0-6.94-3.12-6.94-7.6s2.92-7.77,7.08-7.77,6.94,3.13,6.94,7.61C24.21,17.33,20.65,20,17.13,20Zm.08-10.2c-1.43,0-1.45,2.43-1.45,2.54,0,1.38.64,2.5,1.41,2.5s1.47-1.12,1.47-2.54C18.64,12.26,18.6,9.79,17.21,9.79Z"/><path class="cls-1" d="M28.43,24.5a8.4,8.4,0,0,1-4.54-1.2,1.94,1.94,0,0,1-.74-2.21l.45-1.31a1.92,1.92,0,0,1,1.16-1.2l.17,0a7.54,7.54,0,0,1-2.81-6.14c0-5.05,3.45-7.77,6.7-7.77a6.07,6.07,0,0,1,2.48.51,1.88,1.88,0,0,1,1-.26h1.52a1.93,1.93,0,0,1,1.41.61,2,2,0,0,1,.51,1.46c-.07.87-.1,1.73-.1,2.88v6.43C35.61,23.07,31.71,24.5,28.43,24.5Zm.63-14.67c-1,0-1.37,1.32-1.37,2.46,0,.68.13,2.26,1.35,2.26.1,0,1,0,1-1.31V11C30.06,10.2,29.56,9.83,29.06,9.83Z"/><path class="cls-1" d="M38.68,19.75H37a1.92,1.92,0,0,1-1.92-1.92v-11a1.89,1.89,0,0,1,.39-1.16,3.1,3.1,0,0,1-.66-1.93,3,3,0,1,1,6.06,0,3.11,3.11,0,0,1-.65,1.94,1.91,1.91,0,0,1,.38,1.15v11A1.92,1.92,0,0,1,38.68,19.75ZM37.83,3a.87.87,0,0,0-.81.77.85.85,0,0,0,.83.79.82.82,0,0,0,.81-.79A.84.84,0,0,0,37.83,3Z"/><path class="cls-1" d="M50.83,19.75H49.15a1.93,1.93,0,0,1-1.93-1.92V11.32c0-1.45-.43-1.45-.64-1.45a1.08,1.08,0,0,0-1,1.21v6.75a1.92,1.92,0,0,1-1.93,1.92H42a1.92,1.92,0,0,1-1.93-1.92V9.64c0-1,0-1.82-.07-2.63V6.88a1.91,1.91,0,0,1,1.92-2h1.5a1.91,1.91,0,0,1,1.08.33,6.18,6.18,0,0,1,2.6-.58c2.81,0,5.64,2,5.64,6.5v6.71A1.92,1.92,0,0,1,50.83,19.75Z"/><path class="cls-2" d="M11,17.83H2.66V2.36H5V15.84h6Z"/><path class="cls-2" d="M22.53,12.17c0,4.16-2.71,5.88-5.22,5.88-2.89,0-5.09-2.12-5.09-5.72,0-3.76,2.3-5.88,5.26-5.88S22.53,8.75,22.53,12.17Zm-5.14-4c-2,0-2.76,2.14-2.76,4.06,0,2.18,1,4,2.74,4s2.75-1.84,2.75-4.06C20.12,10.39,19.36,8.21,17.39,8.21Z"/><path class="cls-2" d="M34.15,6.69c-.06.79-.1,1.72-.1,3.21v6.35c0,2.22-.18,6.32-5.46,6.32a7.28,7.28,0,0,1-3.51-.8L25.6,20a6.13,6.13,0,0,0,3,.79c1.82,0,3.12-1,3.12-3.54V16.13h0a3.5,3.5,0,0,1-3.1,1.63c-2.62,0-4.42-2.32-4.42-5.43,0-3.78,2.28-5.88,4.71-5.88a3.24,3.24,0,0,1,3.05,1.74h0l.1-1.5ZM31.71,11A2.49,2.49,0,0,0,29.3,8.31c-1.62,0-2.75,1.53-2.75,3.92,0,2.18,1,3.74,2.73,3.74a2.52,2.52,0,0,0,2.43-2.79Z"/><path class="cls-2" d="M38.22,5a1.32,1.32,0,0,1-1.36-1.35,1.33,1.33,0,0,1,1.38-1.38,1.32,1.32,0,0,1,1.35,1.38A1.3,1.3,0,0,1,38.22,5Zm1.17,12.86H37V6.67h2.35Z"/><path class="cls-2" d="M51.6,17.83H49.25V11.3c0-1.58-.52-2.91-2.12-2.91a2.51,2.51,0,0,0-2.38,2.73v6.71H42.4v-8c0-1.23,0-2.18-.08-3.13h2l.12,1.66h.06a3.83,3.83,0,0,1,3.38-1.9c1.74,0,3.68,1.13,3.68,4.56Z"/></svg>